<svg width="186" height="186" viewBox="0 0 186 186" fill="none" xmlns="http://www.w3.org/2000/svg">
<circle cx="93" cy="93" r="91.5" fill="#F0F0F0" stroke="white" stroke-width="3"/>
<path d="M95.4402 128.775L96.3032 129.319C97.0815 129.817 97.7103 130.518 98.1229 131.345C98.9484 133.071 98.9296 134.553 97.4476 135.979C96.6682 136.706 95.8128 137.348 94.8961 137.892L94.2208 138.324C94.3333 138.643 94.596 138.755 94.7836 138.924C96.7347 140.613 96.8472 143.37 95.0462 145.209L94.8774 145.359C93.5454 146.109 93.2265 147.272 93.3953 148.717C93.466 149.49 93.3766 150.269 93.1327 151.006C93.0201 151.325 92.945 151.7 92.4948 151.7C92.0445 151.7 91.9695 151.306 91.8757 150.987C91.5193 149.899 91.5755 148.773 91.6318 147.666C91.6506 146.879 91.4254 146.428 90.7313 145.978C88.2362 144.402 87.861 141.813 89.6995 139.506C90.6375 138.361 90.6187 138.38 89.4368 137.555C88.8965 137.184 88.3825 136.777 87.8985 136.335C85.9286 134.534 85.8723 131.945 87.7484 130.05C88.0863 129.738 88.4503 129.456 88.8365 129.206C89.5682 128.7 89.5682 128.7 88.7615 128.268C87.6013 127.715 86.5169 127.015 85.5347 126.186C81.745 122.753 83.3397 117.987 85.8161 115.886L86.3976 115.436C86.6791 115.192 87.2231 115.004 87.1481 114.648C87.073 114.292 86.5102 114.292 86.135 114.16C84.4779 113.618 82.9332 112.779 81.5762 111.684C77.9742 108.889 78.0868 104.574 80.1504 101.403C80.6945 100.54 81.4449 99.846 82.1578 99.1144C82.2891 99.0018 82.5142 98.8705 82.4204 98.6454C82.3266 98.4202 82.1203 98.5703 81.9702 98.5328C79.1749 97.97 76.3983 97.3696 74.1095 95.5499C72.2335 94.049 71.0516 92.1355 70.9953 89.6403C70.9015 84.1998 73.3216 80.8792 78.5558 79.247C80.0941 78.7593 81.6512 78.4216 83.2646 78.5904C84.878 78.7593 85.7223 79.5284 85.8911 80.8417C86.06 82.1549 85.2908 83.8246 83.865 84.3124C82.7394 84.7063 81.5387 84.7626 80.3755 85.0253C79.4958 85.1938 78.6635 85.5523 77.9367 86.0758C77.4677 86.413 77.0893 86.8607 76.8349 87.3793C76.5805 87.8978 76.4581 88.4711 76.4785 89.0483C76.4989 89.6255 76.6615 90.1888 76.9519 90.688C77.2423 91.1873 77.6514 91.6072 78.143 91.9104C79.2311 92.6045 80.4131 92.9985 81.6512 93.2986C84.2589 93.899 86.9229 94.3492 89.5682 94.7807C90.206 94.8745 90.3936 94.7244 90.3936 94.049C90.2623 83.8809 90.0372 73.7315 89.7933 63.5633C89.6807 59.3985 89.5994 55.2336 89.5494 51.0688C89.556 50.8168 89.5034 50.5667 89.3959 50.3386C89.2884 50.1106 89.1289 49.9109 88.9303 49.7556C87.2043 48.2923 86.6228 45.647 87.5045 43.6021C88.3863 41.5573 90.675 40.0752 93.2265 40.3566C95.4402 40.6005 97.4476 42.3827 97.8228 44.5964C98.198 46.8102 97.6539 48.4611 96.0218 49.8306C95.8632 49.9558 95.7352 50.1155 95.6474 50.2975C95.5596 50.4795 95.5144 50.6791 95.5152 50.8812C95.3464 58.3103 95.14 65.7207 94.9899 73.1499C94.8399 79.9224 94.7461 86.7137 94.6335 93.505C94.6147 94.9683 94.3708 94.9496 95.9842 94.6869C98.8734 94.1991 101.781 93.7864 104.577 92.8859C105.362 92.6401 106.117 92.3065 106.828 91.8916C107.335 91.5967 107.76 91.1779 108.061 90.6744C108.363 90.1709 108.532 89.5992 108.553 89.0126C108.573 88.426 108.445 87.8437 108.179 87.3203C107.914 86.7969 107.52 86.3493 107.034 86.0196C105.89 85.2129 104.558 84.969 103.207 84.7439C102.625 84.6501 102.063 84.575 101.5 84.4437C99.605 83.9559 98.5357 81.7609 99.3424 79.9787C99.7551 79.0594 100.599 78.7217 101.519 78.6092C104.389 78.309 106.997 79.1532 109.417 80.579C111.837 82.0048 113.375 84.0497 113.919 86.8075C114.782 91.1975 113 94.7807 108.966 96.7506C107.053 97.7073 104.989 98.1201 102.926 98.5516L102.363 98.6829L103.282 99.5646C105.74 101.853 106.772 104.611 106.021 107.894C105.571 109.939 104.201 111.327 102.457 112.378C101.143 113.185 99.8114 113.916 98.3293 114.348C98.1605 114.404 97.9166 114.404 97.8603 114.629C97.804 114.854 98.0479 115.004 98.2167 115.136C98.784 115.55 99.323 116.001 99.8301 116.487C101.931 118.682 102.682 123.597 99.3236 126.336C98.3631 127.112 97.3109 127.767 96.1906 128.287C95.928 128.418 95.6278 128.456 95.4402 128.775ZM90.6375 101.234C90.6563 100.653 90.4124 100.521 89.9058 100.615C87.861 100.953 85.8724 101.516 84.2027 102.791C82.0077 104.442 81.9889 107.688 84.1651 109.264C85.9662 110.558 88.011 111.384 90.1122 112.097C90.6 112.247 90.8064 112.115 90.8064 111.571C90.7688 109.845 90.7876 108.119 90.7876 106.393L90.6375 101.234ZM94.127 110.99C94.1082 111.177 94.127 111.384 94.0894 111.571C93.9769 112.134 94.202 112.265 94.7085 112.078C95.2151 111.89 96.0968 111.646 96.7534 111.365C98.4231 110.671 100.055 109.939 101.387 108.701C101.775 108.367 102.074 107.942 102.258 107.464C102.441 106.986 102.503 106.47 102.438 105.962C102.269 104.255 101.368 103.054 99.9239 102.21C98.4794 101.366 96.7347 100.972 95.0462 100.615C94.4646 100.484 94.2958 100.671 94.3146 101.253C94.3146 104.499 94.3521 107.744 94.127 110.99ZM91.1628 122.077C91.0502 120.389 90.9752 118.738 90.7876 117.068C90.7313 116.543 90.5249 116.468 90.0747 116.637C89.1997 116.989 88.3687 117.443 87.5983 117.987C85.7785 119.376 85.3283 122.396 86.7353 124.047C87.7705 125.235 89.0769 126.155 90.5437 126.73C91.069 126.936 91.1816 126.786 91.1628 126.28C91.144 124.872 91.1628 123.465 91.1628 122.077ZM93.8643 121.983V126.355C93.8643 126.674 93.8643 126.955 94.3333 126.749C95.4777 126.261 96.6221 125.698 97.5414 124.835C99.7551 122.771 99.605 119.732 97.2224 117.912C96.5283 117.368 95.7216 117.031 94.9337 116.674C94.4271 116.468 94.2395 116.599 94.202 117.124C94.0519 118.738 93.9581 120.37 93.8643 121.983ZM91.3316 133.971C91.3129 132.883 91.4255 131.795 91.1816 130.707C91.1253 130.426 91.069 130.032 90.5812 130.294C90.0935 130.557 89.0804 131.157 88.5363 131.87C87.7484 132.921 87.7859 134.121 88.6677 135.041C89.3096 135.665 90.0066 136.23 90.7501 136.729C91.144 136.973 91.3316 136.917 91.3316 136.429V133.971ZM93.7517 136.992C94.9337 136.223 95.9842 135.566 96.6596 134.478C96.8697 134.179 96.9917 133.827 97.0116 133.462C97.0315 133.097 96.9485 132.734 96.7722 132.414C96.2281 131.326 95.1963 130.82 94.202 130.294C93.7893 130.069 93.8456 130.444 93.808 130.669C93.5454 132.714 93.7142 134.759 93.7517 136.992ZM91.3879 144.777C91.5112 143.983 91.5615 143.179 91.538 142.376C91.5049 141.448 91.3856 140.524 91.1816 139.618C90.7178 139.848 90.3257 140.2 90.0479 140.636C89.7701 141.073 89.6171 141.577 89.6057 142.095C89.6004 142.669 89.7674 143.231 90.0851 143.71C90.4028 144.188 90.8566 144.56 91.3879 144.777ZM93.4891 144.927C94.0227 144.727 94.4904 144.383 94.8399 143.933C95.1744 143.494 95.3703 142.965 95.4027 142.414C95.4027 142.414 95.459 141.232 94.3333 140.068C94.1457 139.9 93.9956 139.787 93.8831 139.825C93.7705 139.862 93.733 139.918 93.6767 140.219C93.5454 141.007 93.5079 144.327 93.4891 144.927Z" fill="#BFE7F3" stroke="#012A5D"/>
<path d="M98.9485 60.6179C98.9485 60.0363 99.0986 59.7736 99.7364 59.6798C101.085 59.5195 102.416 59.2369 103.714 58.8356C106.34 57.9164 107.166 56.8282 107.334 54.0517C107.375 53.1786 107.501 52.3115 107.71 51.4628C108.104 50.0557 108.892 49.4554 110.355 49.5117C111.818 49.5679 113.432 50.1495 114.932 50.6373C117.09 51.3314 119.247 52.0443 121.386 52.851C124.725 54.1455 128.196 54.652 131.761 54.7271L146.45 55.0648C147.557 55.1023 148.683 55.1961 149.789 55.3274C150.896 55.4587 150.821 55.6651 150.634 56.5468C149.996 59.8112 147.688 61.8185 144.049 62.3251C143.092 62.4564 142.116 62.569 141.141 62.4376C140.709 62.3813 140.447 62.5127 140.39 62.9817C140.353 63.1505 140.297 63.3006 140.259 63.4695C139.621 67.2028 136.713 68.1971 133.43 67.9344C132.876 67.8583 132.33 67.7327 131.798 67.5592C131.442 67.4654 131.254 67.5217 131.141 67.8782C129.772 71.8366 125.907 72.4182 122.924 71.3864C121.311 70.8236 121.33 70.786 120.279 72.0993C118.516 74.2755 116.114 74.9509 113.375 74.0128C112.475 73.7127 111.649 73.2624 110.805 72.8497C110.661 72.7604 110.494 72.7146 110.324 72.718C110.154 72.7213 109.989 72.7736 109.848 72.8684C107.428 74.3693 104.745 74.5569 102.006 74.3505C101.162 74.2728 100.323 74.1475 99.4926 73.9753C98.9297 73.844 98.6859 73.5813 98.7046 72.981C98.7234 70.9174 98.7046 68.8537 98.7046 66.7901L98.9485 60.6179Z" fill="#BFE7F3" stroke="#012A5D"/>
<path d="M86.2481 67.0713V73.2435C86.2481 73.5625 86.3044 73.8814 85.8542 73.9564C83.284 74.4067 80.7138 74.6506 78.1249 74.0502C77.0843 73.8223 76.0889 73.4229 75.1795 72.8683C75.033 72.7614 74.8572 72.7023 74.6759 72.6989C74.4946 72.6956 74.3167 72.7482 74.1664 72.8496C73.0033 73.4687 71.8213 74.069 70.4706 74.2941C68.1818 74.6881 66.3245 73.994 64.8425 72.2305C63.6981 70.8422 63.6981 70.8234 61.9721 71.4238C59.0455 72.4556 56.1939 71.6301 54.5242 69.2851C54.2803 68.9286 54.0177 68.5534 53.9426 68.1219C53.8676 67.6904 53.6049 67.4278 53.0421 67.6154C51.9157 68.0049 50.7101 68.108 49.5339 67.9156C46.5885 67.409 45.2378 66.1333 44.6562 63.2255C44.5249 62.5313 44.356 62.3249 43.6056 62.4188C41.8841 62.6068 40.143 62.3618 38.5403 61.7059C36.289 60.7866 34.9007 59.0419 34.413 56.6405C34.1878 55.6275 34.3004 55.4211 35.3322 55.3273C36.7768 55.196 38.2401 55.1022 39.6847 55.0646C44.4123 54.9333 49.1399 54.802 53.8676 54.727C57.7885 54.6519 61.5219 53.7139 65.1801 52.3631C67.9379 51.3126 70.6957 50.2244 73.5848 49.6054C73.895 49.5494 74.2082 49.5118 74.5229 49.4928C76.08 49.4177 76.9992 50.1119 77.3557 51.6315C77.6371 52.8134 77.6746 54.0141 77.7872 55.2335C77.8304 55.7277 77.9803 56.2067 78.2264 56.6374C78.4726 57.0682 78.8091 57.4404 79.213 57.7286C80.7888 58.9105 82.6461 59.2482 84.5222 59.5672H84.6535C85.948 59.7735 86.0605 59.8673 86.0793 61.1806L86.2481 67.0713Z" fill="#BFE7F3" stroke="#012A5D"/>
</svg>
