<svg width="196" height="196" viewBox="0 0 196 196" fill="none" xmlns="http://www.w3.org/2000/svg">
<circle cx="98" cy="98" r="97.5" fill="white"/>
<circle cx="98" cy="98" r="97.5" fill="#F0F0F0"/>
<circle cx="98" cy="98" r="97.5" stroke="white"/>
<path d="M101.123 132.452L101.986 132.996C102.765 133.495 103.393 134.195 103.806 135.023C104.632 136.749 104.613 138.231 103.131 139.656C102.351 140.384 101.496 141.026 100.579 141.57L99.9039 142.001C100.016 142.32 100.279 142.433 100.467 142.602C102.418 144.29 102.53 147.048 100.729 148.887L100.56 149.037C99.2285 149.787 98.9096 150.95 99.0784 152.395C99.1491 153.168 99.0597 153.947 98.8158 154.684C98.7032 155.002 98.6282 155.378 98.1779 155.378C97.7277 155.378 97.6526 154.984 97.5588 154.665C97.2024 153.577 97.2586 152.451 97.3149 151.344C97.3337 150.556 97.1086 150.106 96.4144 149.656C93.9193 148.08 93.5441 145.491 95.3826 143.183C96.3206 142.039 96.3019 142.058 95.1199 141.232C94.5796 140.862 94.0656 140.454 93.5816 140.013C91.6117 138.212 91.5555 135.623 93.4315 133.728C93.7694 133.416 94.1334 133.134 94.5196 132.884C95.2513 132.377 95.2513 132.377 94.4446 131.946C93.2844 131.392 92.2 130.693 91.2178 129.863C87.4282 126.43 89.0228 121.665 91.4992 119.564L92.0808 119.114C92.3622 118.87 92.9062 118.682 92.8312 118.326C92.7561 117.969 92.1933 117.969 91.8181 117.838C90.161 117.296 88.6163 116.456 87.2593 115.362C83.6573 112.566 83.7699 108.251 85.8335 105.081C86.3776 104.218 87.128 103.524 87.8409 102.792C87.9722 102.68 88.1973 102.548 88.1035 102.323C88.0097 102.098 87.8034 102.248 87.6533 102.211C84.858 101.648 82.0814 101.047 79.7926 99.2276C77.9166 97.7268 76.7347 95.8132 76.6784 93.3181C76.5846 87.8775 79.0047 84.5569 84.2389 82.9248C85.7772 82.437 87.3344 82.0993 88.9478 82.2682C90.5612 82.437 91.4054 83.2062 91.5742 84.5194C91.7431 85.8326 90.9739 87.5023 89.5481 87.9901C88.4225 88.3841 87.2218 88.4403 86.0586 88.703C85.1789 88.8715 84.3466 89.23 83.6198 89.7536C83.1508 90.0907 82.7724 90.5384 82.518 91.057C82.2636 91.5755 82.1412 92.1488 82.1616 92.7261C82.182 93.3033 82.3446 93.8665 82.635 94.3658C82.9254 94.8651 83.3345 95.2849 83.8261 95.5881C84.9143 96.2822 86.0962 96.6762 87.3343 96.9764C89.9421 97.5767 92.606 98.027 95.2513 98.4584C95.8891 98.5522 96.0767 98.4022 96.0767 97.7268C95.9454 87.5586 95.7203 77.4092 95.4764 67.241C95.3638 63.0762 95.2825 58.9114 95.2325 54.7465C95.2391 54.4945 95.1865 54.2444 95.079 54.0164C94.9715 53.7883 94.812 53.5886 94.6134 53.4333C92.8875 51.97 92.3059 49.3248 93.1876 47.2799C94.0694 45.235 96.3581 43.7529 98.9096 44.0343C101.123 44.2782 103.131 46.0604 103.506 48.2742C103.881 50.4879 103.337 52.1388 101.705 53.5084C101.546 53.6336 101.418 53.7932 101.331 53.9753C101.243 54.1573 101.198 54.3569 101.198 54.5589C101.029 61.9881 100.823 69.3985 100.673 76.8276C100.523 83.6001 100.429 90.3914 100.317 97.1827C100.298 98.646 100.054 98.6273 101.667 98.3646C104.556 97.8769 107.464 97.4641 110.26 96.5636C111.045 96.3178 111.8 95.9843 112.511 95.5693C113.018 95.2744 113.443 94.8557 113.745 94.3522C114.046 93.8487 114.215 93.2769 114.236 92.6903C114.256 92.1037 114.128 91.5215 113.862 90.998C113.597 90.4746 113.203 90.0271 112.717 89.6973C111.573 88.8906 110.241 88.6467 108.89 88.4216C108.309 88.3278 107.746 88.2527 107.183 88.1214C105.288 87.6336 104.219 85.4387 105.025 83.6564C105.438 82.7372 106.282 82.3995 107.202 82.2869C110.072 81.9867 112.68 82.831 115.1 84.2568C117.52 85.6826 119.058 87.7275 119.602 90.4852C120.465 94.8752 118.683 98.4584 114.65 100.428C112.736 101.385 110.672 101.798 108.609 102.229L108.046 102.361L108.965 103.242C111.423 105.531 112.455 108.289 111.704 111.572C111.254 113.617 109.884 115.005 108.14 116.056C106.826 116.862 105.494 117.594 104.012 118.026C103.844 118.082 103.6 118.082 103.543 118.307C103.487 118.532 103.731 118.682 103.9 118.814C104.467 119.227 105.006 119.679 105.513 120.164C107.614 122.359 108.365 127.275 105.007 130.014C104.046 130.79 102.994 131.445 101.874 131.965C101.611 132.096 101.311 132.133 101.123 132.452ZM96.3206 104.912C96.3394 104.33 96.0955 104.199 95.589 104.293C93.5441 104.631 91.5555 105.193 89.8858 106.469C87.6908 108.12 87.672 111.366 89.8483 112.942C91.6493 114.236 93.6941 115.061 95.7953 115.774C96.2831 115.924 96.4895 115.793 96.4895 115.249C96.4519 113.523 96.4707 111.797 96.4707 110.071L96.3206 104.912ZM99.8101 114.667C99.7913 114.855 99.8101 115.061 99.7725 115.249C99.66 115.812 99.8851 115.943 100.392 115.756C100.898 115.568 101.78 115.324 102.437 115.043C104.106 114.349 105.738 113.617 107.07 112.379C107.458 112.045 107.757 111.62 107.941 111.142C108.124 110.664 108.186 110.147 108.121 109.64C107.952 107.932 107.052 106.732 105.607 105.888C104.162 105.043 102.418 104.649 100.729 104.293C100.148 104.162 99.9789 104.349 99.9977 104.931C99.9977 108.176 100.035 111.422 99.8101 114.667ZM96.8459 125.755C96.7333 124.066 96.6583 122.416 96.4707 120.746C96.4144 120.221 96.208 120.146 95.7578 120.314C94.8828 120.667 94.0518 121.12 93.2814 121.665C91.4617 123.053 91.0114 126.074 92.4184 127.725C93.4536 128.912 94.76 129.833 96.2268 130.408C96.7521 130.614 96.8647 130.464 96.8459 129.957C96.8271 128.55 96.8459 127.143 96.8459 125.755ZM99.5474 125.661V130.032C99.5474 130.351 99.5474 130.633 100.016 130.426C101.161 129.938 102.305 129.376 103.224 128.513C105.438 126.449 105.288 123.41 102.906 121.59C102.211 121.046 101.405 120.708 100.617 120.352C100.11 120.146 99.9226 120.277 99.8851 120.802C99.735 122.416 99.6412 124.048 99.5474 125.661ZM97.0148 137.649C96.996 136.561 97.1086 135.473 96.8647 134.385C96.8084 134.103 96.7521 133.709 96.2643 133.972C95.7766 134.235 94.7635 134.835 94.2194 135.548C93.4315 136.598 93.469 137.799 94.3508 138.718C94.9927 139.343 95.6897 139.908 96.4332 140.407C96.8271 140.651 97.0148 140.594 97.0148 140.107V137.649ZM99.4349 140.669C100.617 139.9 101.667 139.244 102.343 138.156C102.553 137.857 102.675 137.505 102.695 137.14C102.715 136.775 102.632 136.412 102.455 136.092C101.911 135.004 100.879 134.497 99.8851 133.972C99.4724 133.747 99.5287 134.122 99.4911 134.347C99.2285 136.392 99.3973 138.437 99.4349 140.669ZM97.071 148.455C97.1943 147.661 97.2446 146.857 97.2211 146.054C97.188 145.125 97.0687 144.202 96.8647 143.296C96.4009 143.525 96.0088 143.878 95.731 144.314C95.4532 144.751 95.3002 145.255 95.2888 145.772C95.2835 146.346 95.4505 146.909 95.7682 147.387C96.0859 147.865 96.5397 148.237 97.071 148.455ZM99.1722 148.605C99.7059 148.405 100.173 148.061 100.523 147.611C100.857 147.172 101.053 146.642 101.086 146.091C101.086 146.091 101.142 144.909 100.016 143.746C99.8288 143.577 99.6787 143.465 99.5662 143.502C99.4536 143.54 99.4161 143.596 99.3598 143.896C99.2285 144.684 99.191 148.005 99.1722 148.605Z" fill="#BFE7F3" stroke="#012A5D"/>
<path d="M104.632 64.2956C104.632 63.714 104.782 63.4514 105.42 63.3576C106.768 63.1972 108.099 62.9146 109.397 62.5134C112.023 61.5941 112.849 60.506 113.018 57.7294C113.058 56.8563 113.184 55.9893 113.393 55.1405C113.787 53.7335 114.575 53.1331 116.038 53.1894C117.501 53.2457 119.115 53.8273 120.616 54.315C122.773 55.0092 124.93 55.7221 127.069 56.5288C130.408 57.8232 133.879 58.3298 137.444 58.4048L152.133 58.7425C153.24 58.78 154.366 58.8738 155.472 59.0051C156.579 59.1365 156.504 59.3428 156.317 60.2246C155.679 63.4889 153.371 65.4963 149.732 66.0028C148.775 66.1341 147.799 66.2467 146.824 66.1154C146.392 66.0591 146.13 66.1904 146.073 66.6594C146.036 66.8283 145.98 66.9783 145.942 67.1472C145.304 70.8805 142.396 71.8748 139.113 71.6122C138.559 71.536 138.013 71.4105 137.481 71.237C137.125 71.1432 136.937 71.1994 136.825 71.5559C135.455 75.5144 131.59 76.0959 128.607 75.0641C126.994 74.5013 127.013 74.4638 125.962 75.777C124.199 77.9532 121.797 78.6286 119.058 77.6906C118.158 77.3904 117.332 76.9402 116.488 76.5274C116.344 76.4381 116.177 76.3924 116.007 76.3957C115.837 76.399 115.672 76.4513 115.531 76.5462C113.111 78.047 110.429 78.2346 107.69 78.0283C106.845 77.9506 106.006 77.8253 105.176 77.653C104.613 77.5217 104.369 77.2591 104.388 76.6587C104.406 74.5951 104.388 72.5314 104.388 70.4678L104.632 64.2956Z" fill="#BFE7F3" stroke="#012A5D"/>
<path d="M91.9322 70.7491V76.9213C91.9322 77.2402 91.9885 77.5591 91.5383 77.6342C88.9681 78.0844 86.3979 78.3283 83.8089 77.728C82.7684 77.5001 81.773 77.1006 80.8636 76.5461C80.7171 76.4392 80.5413 76.38 80.36 76.3766C80.1787 76.3733 80.0008 76.4259 79.8505 76.5273C78.6873 77.1464 77.5054 77.7467 76.1547 77.9719C73.8659 78.3658 72.0086 77.6717 70.5265 75.9082C69.3821 74.5199 69.3821 74.5012 67.6562 75.1015C64.7295 76.1333 61.878 75.3079 60.2083 72.9628C59.9644 72.6064 59.7017 72.2312 59.6267 71.7997C59.5517 71.3682 59.289 71.1055 58.7262 71.2931C57.5998 71.6826 56.3942 71.7858 55.218 71.5933C52.2726 71.0868 50.9218 69.8111 50.3403 66.9032C50.2089 66.209 50.0401 66.0027 49.2897 66.0965C47.5682 66.2846 45.827 66.0395 44.2244 65.3836C41.9731 64.4643 40.5848 62.7196 40.0971 60.3183C39.8719 59.3052 39.9845 59.0988 41.0163 59.005C42.4609 58.8737 43.9242 58.7799 45.3687 58.7424C50.0964 58.6111 54.824 58.4797 59.5517 58.4047C63.4726 58.3297 67.2059 57.3916 70.8642 56.0409C73.622 54.9903 76.3798 53.9022 79.2689 53.2831C79.5791 53.2271 79.8923 53.1895 80.2069 53.1705C81.7641 53.0955 82.6833 53.7896 83.0398 55.3092C83.3212 56.4911 83.3587 57.6918 83.4713 58.9112C83.5145 59.4054 83.6644 59.8844 83.9105 60.3152C84.1567 60.7459 84.4932 61.1182 84.8971 61.4064C86.4729 62.5883 88.3302 62.926 90.2063 63.2449H90.3376C91.6321 63.4513 91.7446 63.5451 91.7634 64.8583L91.9322 70.7491Z" fill="#BFE7F3" stroke="#012A5D"/>
<circle cx="98" cy="98" r="94.5" stroke="white" stroke-width="7"/>
</svg>
