<svg width="113" height="148" viewBox="0 0 113 148" fill="none" xmlns="http://www.w3.org/2000/svg">
<path d="M43.8909 146.439H2.00832C2.00832 146.439 1.22519 118.77 14.8549 110.618C17.2029 112.275 20.027 113.122 22.8994 113.03C25.7719 112.939 28.5361 111.913 30.7736 110.11C45.2211 117.542 43.8909 146.439 43.8909 146.439Z" fill="#BFE7F3" stroke="#1B2D59" stroke-width="3" stroke-linecap="round" stroke-linejoin="round"/>
<path d="M35.6961 99.8228C35.6963 102.437 34.9214 104.992 33.4695 107.165C32.0175 109.338 29.9537 111.032 27.539 112.033C25.1243 113.033 22.4672 113.295 19.9036 112.785C17.3401 112.275 14.9853 111.017 13.1369 109.169C11.2886 107.321 10.0298 104.966 9.51974 102.403C9.00965 99.8393 9.27117 97.1821 10.2712 94.7673C11.2713 92.3525 12.965 90.2884 15.1381 88.8361C17.3112 87.3839 19.8662 86.6086 22.48 86.6084C24.2167 86.6037 25.9373 86.9423 27.5427 87.6047C29.1482 88.2671 30.6069 89.2402 31.8351 90.4682C33.0632 91.6962 34.0366 93.1548 34.6992 94.7602C35.3618 96.3655 35.7006 98.086 35.6961 99.8228Z" fill="#BFE7F3" stroke="#1B2D59" stroke-width="3" stroke-linecap="round" stroke-linejoin="round"/>
<path d="M110.969 146.439H69.0864C69.0864 146.439 68.3033 118.77 81.933 110.618C84.281 112.275 87.1051 113.122 89.9776 113.03C92.85 112.939 95.6143 111.913 97.8517 110.11C112.299 117.542 110.969 146.439 110.969 146.439Z" fill="#BFE7F3" stroke="#1B2D59" stroke-width="3" stroke-linecap="round" stroke-linejoin="round"/>
<path d="M102.774 99.8228C102.774 102.437 102 104.992 100.548 107.165C99.0956 109.338 97.0318 111.032 94.6171 112.033C92.2024 113.033 89.5453 113.295 86.9817 112.785C84.4182 112.275 82.0634 111.017 80.2151 109.169C78.3668 107.321 77.108 104.966 76.5979 102.403C76.0878 99.8393 76.3493 97.1821 77.3494 94.7673C78.3494 92.3525 80.0431 90.2884 82.2162 88.8361C84.3894 87.3839 86.9444 86.6086 89.5581 86.6084C91.2948 86.6037 93.0154 86.9423 94.6209 87.6047C96.2263 88.2671 97.6851 89.2402 98.9132 90.4682C100.141 91.6962 101.115 93.1548 101.777 94.7602C102.44 96.3655 102.779 98.086 102.774 99.8228Z" fill="#BFE7F3" stroke="#1B2D59" stroke-width="3" stroke-linecap="round" stroke-linejoin="round"/>
<path d="M77.43 146.439H35.5474C35.5474 146.439 34.7643 118.77 48.3939 110.618C50.742 112.275 53.5661 113.122 56.4385 113.03C59.3109 112.939 62.0752 111.913 64.3126 110.11C78.7602 117.542 77.43 146.439 77.43 146.439Z" fill="#BFE7F3" stroke="#1B2D59" stroke-width="3" stroke-linecap="round" stroke-linejoin="round"/>
<path d="M69.2352 99.8228C69.2354 102.437 68.4605 104.992 67.0085 107.165C65.5566 109.338 63.4928 111.032 61.0781 112.033C58.6633 113.033 56.0062 113.295 53.4427 112.785C50.8791 112.275 48.5243 111.017 46.676 109.169C44.8277 107.321 43.5689 104.966 43.0588 102.403C42.5487 99.8393 42.8102 97.1821 43.8103 94.7673C44.8104 92.3525 46.504 90.2884 48.6772 88.8361C50.8503 87.3839 53.4053 86.6086 56.019 86.6084C57.7558 86.6037 59.4763 86.9423 61.0818 87.6047C62.6873 88.2671 64.146 89.2402 65.3741 90.4682C66.6023 91.6962 67.5757 93.1548 68.2383 94.7602C68.9009 96.3655 69.2397 98.086 69.2352 99.8228Z" fill="#BFE7F3" stroke="#1B2D59" stroke-width="3" stroke-linecap="round" stroke-linejoin="round"/>
<path d="M25.4863 50.822L21.3045 66.4254L39.6657 50.822H73.1038C79.3704 50.822 84.4505 45.4303 84.4505 38.7793V14.0427C84.4505 7.39169 79.3704 2 73.1038 2H25.542C19.2754 2 14.1953 7.39169 14.1953 14.0427V38.7793C14.1953 45.4303 19.2754 50.822 25.542 50.822" fill="#7FCFE7"/>
<path d="M25.4863 50.822L21.3045 66.4254L39.6657 50.822H73.1038C79.3704 50.822 84.4505 45.4303 84.4505 38.7793V14.0427C84.4505 7.39169 79.3704 2 73.1038 2H25.542C19.2754 2 14.1953 7.39169 14.1953 14.0427V38.7793C14.1953 45.4303 19.2754 50.822 25.542 50.822" stroke="#012A5D" stroke-width="3" stroke-linecap="round" stroke-linejoin="round"/>
<path d="M89.3383 64.1707L92.5618 76.8493L78.4084 64.1707H52.6331C47.8026 64.1707 43.8867 59.437 43.8867 53.5976V31.8797C43.8867 26.0404 47.8026 21.3066 52.6331 21.3066H89.2954C94.1259 21.3066 98.0418 26.0404 98.0418 31.8797V53.5976C98.0418 59.437 94.1259 64.1707 89.2954 64.1707" fill="#7FCFE7"/>
<path d="M89.3383 64.1707L92.5618 76.8493L78.4084 64.1707H52.6331C47.8026 64.1707 43.8867 59.437 43.8867 53.5976V31.8797C43.8867 26.0404 47.8026 21.3066 52.6331 21.3066H89.2954C94.1259 21.3066 98.0418 26.0404 98.0418 31.8797V53.5976C98.0418 59.437 94.1259 64.1707 89.2954 64.1707" stroke="#012A5D" stroke-width="3" stroke-linecap="round" stroke-linejoin="round"/>
</svg>
