<svg width="167" height="146" viewBox="0 0 167 146" fill="none" xmlns="http://www.w3.org/2000/svg">
<path d="M142.978 30.3776H21.8512C21.0479 30.3776 20.2774 30.7028 19.7094 31.2817C19.1414 31.8606 18.8223 32.6458 18.8223 33.4644V115.604C18.8223 116.423 19.1414 117.208 19.7094 117.787C20.2774 118.366 21.0479 118.691 21.8512 118.691H143.007C143.811 118.691 144.581 118.366 145.149 117.787C145.717 117.208 146.036 116.423 146.036 115.604V33.4644C146.036 33.0566 145.957 32.6528 145.803 32.2763C145.649 31.8999 145.423 31.5583 145.139 31.2712C144.854 30.9842 144.517 30.7575 144.146 30.6041C143.775 30.4507 143.379 30.3737 142.978 30.3776Z" fill="#F1F1F1" stroke="#1B2E5B" stroke-width="3" stroke-miterlimit="10"/>
<path d="M79.9157 118.691H142.999C144.925 118.79 146.759 119.53 148.199 120.791L162.189 134.464C163.344 135.599 162.969 136.564 161.305 136.564H4.61146C2.94727 136.564 2.54856 135.622 3.73313 134.464L17.7169 120.791C19.1567 119.53 20.9912 118.79 22.9175 118.691H79.9157Z" fill="#F1F1F1" stroke="#1B2E5B" stroke-width="3" stroke-miterlimit="10"/>
<path d="M162.959 134.461H5.05202C4.24204 134.463 3.46577 134.8 2.89357 135.398C2.32137 135.996 2 136.807 2 137.652V138.636C2 139.481 2.32155 140.291 2.89392 140.888C3.46628 141.485 4.24258 141.821 5.05202 141.821H162.959C163.769 141.821 164.545 141.485 165.117 140.888C165.69 140.291 166.011 139.481 166.011 138.636V137.652C166.011 136.807 165.69 135.996 165.118 135.398C164.545 134.8 163.769 134.463 162.959 134.461Z" fill="white"/>
<path d="M161.02 134.119H5.01525C4.21503 134.122 3.44811 134.574 2.8828 135.377C2.3175 136.18 2 137.268 2 138.403V139.724C2 140.858 2.31768 141.946 2.88315 142.747C3.44862 143.549 4.21556 144 5.01525 144H161.02C161.82 144 162.587 143.549 163.152 142.747C163.718 141.946 164.035 140.858 164.035 139.724V138.403C164.035 137.268 163.718 136.18 163.152 135.377C162.587 134.574 161.82 134.122 161.02 134.119Z" fill="#F1F1F1" stroke="#1B2E5B" stroke-width="3" stroke-linejoin="round"/>
<path d="M137.624 41.5918H28.2832V106.776H137.624V41.5918Z" fill="#BFE7F3" stroke="#1B2E5B" stroke-width="3" stroke-linejoin="round"/>
<rect x="51.1602" y="12.252" width="109.845" height="43.2596" rx="21.6298" fill="#7FCFE7" stroke="#1B2E5B" stroke-width="3"/>
<path d="M78.0031 41.999V27.4536H83.8269C84.897 27.4536 85.7895 27.6122 86.5045 27.9294C87.2195 28.2467 87.7569 28.687 88.1167 29.2504C88.4766 29.8092 88.6565 30.4531 88.6565 31.1823C88.6565 31.7504 88.5429 32.25 88.3156 32.6808C88.0883 33.107 87.7758 33.4574 87.3781 33.732C86.9851 34.0019 86.5353 34.1936 86.0286 34.3073V34.4493C86.5826 34.473 87.1011 34.6292 87.584 34.9181C88.0717 35.2069 88.4671 35.6117 88.7701 36.1325C89.0732 36.6486 89.2247 37.2642 89.2247 37.9791C89.2247 38.7509 89.0329 39.4398 88.6494 40.0459C88.2706 40.6472 87.7095 41.1231 86.9661 41.4735C86.2228 41.8238 85.3066 41.999 84.2176 41.999H78.0031ZM81.0784 39.4848H83.5855C84.4425 39.4848 85.0675 39.3215 85.4605 38.9948C85.8535 38.6633 86.05 38.223 86.05 37.6737C86.05 37.2713 85.9529 36.9162 85.7588 36.6084C85.5646 36.3006 85.2876 36.0592 84.9278 35.884C84.5727 35.7088 84.1489 35.6212 83.6565 35.6212H81.0784V39.4848ZM81.0784 33.5402H83.3582C83.7796 33.5402 84.1536 33.4668 84.4804 33.32C84.8118 33.1685 85.0722 32.9555 85.2616 32.6808C85.4557 32.4062 85.5528 32.0771 85.5528 31.6936C85.5528 31.1681 85.3658 30.7443 84.9917 30.4223C84.6224 30.1003 84.0968 29.9394 83.415 29.9394H81.0784V33.5402ZM104.592 34.7263C104.592 36.3125 104.292 37.6619 103.69 38.7746C103.094 39.8873 102.279 40.7372 101.247 41.3243C100.22 41.9067 99.0643 42.1979 97.7811 42.1979C96.4885 42.1979 95.3285 41.9043 94.301 41.3172C93.2736 40.7301 92.4615 39.8802 91.8649 38.7675C91.2683 37.6548 90.9701 36.3077 90.9701 34.7263C90.9701 33.1401 91.2683 31.7907 91.8649 30.678C92.4615 29.5653 93.2736 28.7178 94.301 28.1354C95.3285 27.5483 96.4885 27.2547 97.7811 27.2547C99.0643 27.2547 100.22 27.5483 101.247 28.1354C102.279 28.7178 103.094 29.5653 103.69 30.678C104.292 31.7907 104.592 33.1401 104.592 34.7263ZM101.474 34.7263C101.474 33.6988 101.32 32.8324 101.013 32.1269C100.71 31.4214 100.281 30.8863 99.7272 30.5218C99.1732 30.1572 98.5245 29.9749 97.7811 29.9749C97.0378 29.9749 96.3891 30.1572 95.8351 30.5218C95.2811 30.8863 94.8503 31.4214 94.5425 32.1269C94.2395 32.8324 94.0879 33.6988 94.0879 34.7263C94.0879 35.7538 94.2395 36.6202 94.5425 37.3257C94.8503 38.0312 95.2811 38.5663 95.8351 38.9308C96.3891 39.2954 97.0378 39.4777 97.7811 39.4777C98.5245 39.4777 99.1732 39.2954 99.7272 38.9308C100.281 38.5663 100.71 38.0312 101.013 37.3257C101.32 36.6202 101.474 35.7538 101.474 34.7263ZM120.237 34.7263C120.237 36.3125 119.936 37.6619 119.335 38.7746C118.738 39.8873 117.924 40.7372 116.892 41.3243C115.864 41.9067 114.709 42.1979 113.426 42.1979C112.133 42.1979 110.973 41.9043 109.946 41.3172C108.918 40.7301 108.106 39.8802 107.509 38.7675C106.913 37.6548 106.615 36.3077 106.615 34.7263C106.615 33.1401 106.913 31.7907 107.509 30.678C108.106 29.5653 108.918 28.7178 109.946 28.1354C110.973 27.5483 112.133 27.2547 113.426 27.2547C114.709 27.2547 115.864 27.5483 116.892 28.1354C117.924 28.7178 118.738 29.5653 119.335 30.678C119.936 31.7907 120.237 33.1401 120.237 34.7263ZM117.119 34.7263C117.119 33.6988 116.965 32.8324 116.657 32.1269C116.354 31.4214 115.926 30.8863 115.372 30.5218C114.818 30.1572 114.169 29.9749 113.426 29.9749C112.682 29.9749 112.034 30.1572 111.48 30.5218C110.926 30.8863 110.495 31.4214 110.187 32.1269C109.884 32.8324 109.732 33.6988 109.732 34.7263C109.732 35.7538 109.884 36.6202 110.187 37.3257C110.495 38.0312 110.926 38.5663 111.48 38.9308C112.034 39.2954 112.682 39.4777 113.426 39.4777C114.169 39.4777 114.818 39.2954 115.372 38.9308C115.926 38.5663 116.354 38.0312 116.657 37.3257C116.965 36.6202 117.119 35.7538 117.119 34.7263ZM122.515 41.999V27.4536H125.59V33.8669H125.782L131.016 27.4536H134.702L129.305 33.9664L134.766 41.999H131.087L127.103 36.0189L125.59 37.8655V41.999H122.515Z" fill="#1B2E5B"/>
<path fill-rule="evenodd" clip-rule="evenodd" d="M46.782 52.9767L70.764 41.4936L71.2032 68.0794L62.7033 62.8228L52.9664 78.5675L46.016 74.2692L55.7529 58.5245L46.782 52.9767Z" fill="#F1F1F1"/>
<path d="M70.764 41.4936L70.1162 40.1407L72.2252 39.1308L72.2638 41.4688L70.764 41.4936ZM46.782 52.9767L45.993 54.2524L43.6589 52.809L46.1342 51.6238L46.782 52.9767ZM71.2032 68.0794L72.703 68.0546L72.7483 70.7986L70.4142 69.3551L71.2032 68.0794ZM62.7033 62.8228L61.4276 62.0339L62.2165 60.7581L63.4923 61.5471L62.7033 62.8228ZM52.9664 78.5675L54.2422 79.3565L53.4532 80.6323L52.1774 79.8433L52.9664 78.5675ZM46.016 74.2692L45.227 75.545L43.9513 74.756L44.7402 73.4803L46.016 74.2692ZM55.7529 58.5245L56.5418 57.2488L57.8176 58.0377L57.0286 59.3135L55.7529 58.5245ZM71.4118 42.8465L47.4298 54.3296L46.1342 51.6238L70.1162 40.1407L71.4118 42.8465ZM69.7034 68.1042L69.2642 41.5183L72.2638 41.4688L72.703 68.0546L69.7034 68.1042ZM63.4923 61.5471L71.9922 66.8036L70.4142 69.3551L61.9144 64.0986L63.4923 61.5471ZM51.6906 77.7786L61.4276 62.0339L63.9791 63.6118L54.2422 79.3565L51.6906 77.7786ZM46.8049 72.9935L53.7554 77.2918L52.1774 79.8433L45.227 75.545L46.8049 72.9935ZM57.0286 59.3135L47.2917 75.0582L44.7402 73.4803L54.4771 57.7356L57.0286 59.3135ZM47.5709 51.7009L56.5418 57.2488L54.9639 59.8003L45.993 54.2524L47.5709 51.7009Z" fill="#1B2E5B"/>
<line x1="1.5" y1="-1.5" x2="12.8184" y2="-1.5" transform="matrix(-1 6.9521e-08 6.9521e-08 1 47.0957 21.9062)" stroke="#012A5D" stroke-width="3" stroke-linecap="round"/>
<line x1="1.5" y1="-1.5" x2="12.8184" y2="-1.5" transform="matrix(-0.841178 -0.540758 -0.540758 0.841178 45.9062 16.1157)" stroke="#012A5D" stroke-width="3" stroke-linecap="round"/>
<line x1="1.5" y1="-1.5" x2="12.8184" y2="-1.5" transform="matrix(-0.5 -0.866025 -0.866025 0.5 51.002 13.4004)" stroke="#012A5D" stroke-width="3" stroke-linecap="round"/>
</svg>
