<svg width="141" height="132" viewBox="0 0 141 132" fill="none" xmlns="http://www.w3.org/2000/svg">
<path d="M1 36.5C1 16.8939 16.8939 1 36.5 1C56.1061 1 72 16.8939 72 36.5V49.1333V95.5C72 115.106 56.1061 131 36.5 131C16.8939 131 1 115.106 1 95.5V49.1333V36.5Z" fill="#BFE7F3" stroke="#012A5D" stroke-width="2"/>
<path d="M107.049 36.1542C103.463 37.7583 101.83 41.9724 103.419 45.5249L102.292 43.0038C100.703 39.4512 96.4734 37.859 92.887 39.4631C89.3006 41.0673 87.6684 45.2813 89.2574 48.8338L87.9418 45.8925C86.3528 42.34 82.1235 40.7477 78.5371 42.3519C74.9508 43.956 73.3185 48.17 74.9075 51.7226L66.5012 32.9286C64.9122 29.3761 60.6829 27.7839 57.0965 29.388C53.5102 30.9921 51.955 35.1717 53.544 38.7242L70.8692 77.4581L64.6809 73.7624C61.3215 71.7352 56.9477 72.8206 54.884 76.1733C52.8202 79.526 53.8815 83.8646 57.241 85.8918L87.1851 103.9C87.8827 104.321 88.6061 104.593 89.3725 104.755C96.8837 108.821 106.198 109.469 114.681 105.674C129.065 99.2403 135.551 82.4951 129.178 68.2468L125.693 60.4542L124.104 56.9017L116.415 39.7121C114.826 36.1596 110.635 34.5501 107.049 36.1542Z" fill="#7FCFE7" stroke="#012A5D" stroke-width="2" stroke-miterlimit="10"/>
<path d="M66.5684 32.8987L86.7127 77.9354L91.8696 75.6288" stroke="#012A5D" stroke-width="2" stroke-miterlimit="10"/>
<path d="M87.8477 45.9351L99.5857 72.1778L104.666 69.9054" stroke="#012A5D" stroke-width="2" stroke-miterlimit="10"/>
<path d="M102.035 43.1189L112.458 66.4203L117.653 64.0967" stroke="#012A5D" stroke-width="2" stroke-miterlimit="10"/>
</svg>
