<svg width="171" height="150" viewBox="0 0 171 150" fill="none" xmlns="http://www.w3.org/2000/svg">
<path d="M154.554 116.393C154.554 116.393 140.187 145.5 99.1289 143.558" stroke="#012A5D" stroke-width="2" stroke-linecap="round" stroke-linejoin="round"/>
<path d="M93.6899 135.473H76.3988C75.6712 135.489 74.9534 135.665 74.2864 135.993C73.6194 136.321 73.0162 136.795 72.5113 137.386C72.0064 137.977 71.6097 138.674 71.3439 139.438C71.078 140.202 70.9482 141.018 70.9619 141.838C70.9482 142.659 71.0781 143.474 71.344 144.237C71.61 145.001 72.0068 145.698 72.5118 146.288C73.0168 146.878 73.62 147.35 74.287 147.677C74.954 148.004 75.6716 148.18 76.3988 148.194H93.6899C95.1578 148.163 96.5549 147.477 97.5743 146.285C98.5937 145.093 99.1521 143.494 99.1268 141.838C99.1521 140.182 98.594 138.582 97.5749 137.388C96.5557 136.195 95.1586 135.507 93.6899 135.473Z" fill="#7FCFE7" stroke="#012A5D" stroke-width="2" stroke-linecap="round" stroke-linejoin="round"/>
<path d="M11.9032 61.8762C5.87904 61.8762 1 66.3955 1 71.961V106.308C1 111.879 5.85822 116.392 11.9032 116.392C17.9482 116.392 22.8065 111.879 22.8065 106.308V71.961C22.8065 66.3955 17.9274 61.8762 11.9032 61.8762Z" fill="#7FCFE7" stroke="#012A5D" stroke-width="2" stroke-linecap="round" stroke-linejoin="round"/>
<path d="M159.55 61.8762C153.777 61.8762 149.102 66.3955 149.102 71.961V106.308C149.102 111.879 153.757 116.392 159.55 116.392C165.344 116.392 169.999 111.879 169.999 106.308V71.961C169.999 66.3955 165.324 61.8762 159.55 61.8762Z" fill="#7FCFE7" stroke="#012A5D" stroke-width="2" stroke-linecap="round" stroke-linejoin="round"/>
<path d="M10.9941 60.0591C10.9941 60.0591 14.5487 1.11717 83.4143 1.00015C151.177 0.890936 159.096 60.0591 159.096 60.0591" stroke="#012A5D" stroke-width="2" stroke-linecap="round" stroke-linejoin="round"/>
</svg>
