<svg width="315" height="339" viewBox="0 0 315 339" fill="none" xmlns="http://www.w3.org/2000/svg">
<path d="M166.103 177.169C199.785 177.169 227.089 149.864 227.089 116.183C227.089 82.5011 199.785 55.1968 166.103 55.1968C132.422 55.1968 105.117 82.5011 105.117 116.183C105.117 149.864 132.422 177.169 166.103 177.169Z" fill="white" stroke="#012A5D" stroke-width="7.1637" stroke-linecap="round" stroke-linejoin="round"/>
<path d="M166.103 30.0557C118.536 30.0557 79.9795 68.6176 79.9795 116.185C79.9768 127.497 82.2026 138.698 86.5295 149.149C90.8564 159.601 97.1999 169.097 105.197 177.097C113.195 185.096 122.69 191.442 133.14 195.771C143.591 200.101 154.792 202.329 166.103 202.329C177.415 202.329 188.616 200.101 199.066 195.771C209.516 191.442 219.011 185.096 227.009 177.097C235.007 169.097 241.35 159.601 245.677 149.149C250.004 138.698 252.23 127.497 252.227 116.185C252.227 68.6176 213.671 30.0557 166.103 30.0557ZM166.103 174.189C154.631 174.189 143.416 170.786 133.877 164.412C124.338 158.037 116.903 148.978 112.514 138.378C108.124 127.778 106.976 116.115 109.214 104.863C111.453 93.6107 116.978 83.2752 125.091 75.1631C133.204 67.0511 143.54 61.527 154.792 59.2893C166.045 57.0517 177.708 58.201 188.307 62.5919C198.906 66.9828 207.965 74.4182 214.339 83.9577C220.712 93.4972 224.114 104.712 224.113 116.185C224.112 131.569 217.999 146.323 207.12 157.201C196.242 168.078 181.487 174.189 166.103 174.189Z" fill="#C5E5F0" stroke="#012A5D" stroke-width="5" stroke-linecap="round" stroke-linejoin="round"/>
<path d="M160.907 93.3642V83.6909H171.599V93.3642H160.907ZM171.599 101.34V147.501H160.907V101.34H171.599Z" fill="#012A5D"/>
</svg>
