<svg width="197" height="157" viewBox="0 0 197 157" fill="none" xmlns="http://www.w3.org/2000/svg">
<path d="M125.519 31.9165L185.456 31.9165" stroke="#012A5D" stroke-width="4.19367"/>
<path d="M165.624 31.9165V16.0508" stroke="#012A5D" stroke-width="4.19367"/>
<path d="M173.997 47.7822V31.9165" stroke="#012A5D" stroke-width="4.19367"/>
<path d="M164.086 6.57137C166.882 5.74636 169.769 7.35055 170.594 10.1464C171.419 12.9423 169.815 15.8299 167.019 16.6549C164.223 17.4799 161.336 15.8299 160.511 13.0798C159.686 10.2839 161.29 7.39639 164.086 6.57137Z" fill="#BFE7F3" stroke="#012A5D" stroke-width="4.19367"/>
<path d="M148.702 26.8446C151.498 26.0196 154.385 27.6237 155.21 30.4196C156.035 33.2155 154.431 36.1031 151.635 36.9281C148.839 37.7531 145.952 36.1031 145.127 33.353C144.302 30.5571 145.906 27.6696 148.702 26.8446Z" fill="#BFE7F3" stroke="#012A5D" stroke-width="4.19367"/>
<path d="M172.5 46.2359C175.296 45.4109 178.183 47.0151 179.008 49.811C179.833 52.6069 178.229 55.4944 175.433 56.3194C172.637 57.1445 169.75 55.4944 168.925 52.7444C168.1 49.9485 169.704 47.0609 172.5 46.2359Z" fill="#BFE7F3" stroke="#012A5D" stroke-width="4.19367"/>
<path d="M187.507 25.7752C190.303 24.9502 193.19 26.5544 194.015 29.3503C194.84 32.1462 193.236 35.0337 190.44 35.8587C187.644 36.6838 184.757 35.0796 183.932 32.2837C183.152 29.4878 184.711 26.6002 187.507 25.7752Z" fill="#BFE7F3" stroke="#012A5D" stroke-width="4.19367"/>
<path d="M7.84863 122.262H26.7993V140.268H44.4278" stroke="#012A5D" stroke-width="4.19367"/>
<path d="M44.4268 113.825V148.641H55.8853" stroke="#012A5D" stroke-width="4.19367"/>
<path d="M25.3024 146.221C28.0983 147.046 30.9859 145.442 31.8109 142.646C32.6359 139.85 31.0317 136.963 28.2358 136.138C25.4399 135.313 22.5524 136.963 21.7274 139.713C20.9024 142.509 22.5066 145.396 25.3024 146.221Z" fill="#BFE7F3" stroke="#012A5D" stroke-width="4.19367"/>
<path d="M54.3894 154.154C57.1852 154.979 60.0728 153.375 60.8978 150.579C61.7228 147.783 60.1186 144.895 57.3227 144.07C54.5268 143.245 51.6393 144.895 50.8143 147.645C49.9893 150.441 51.5935 153.329 54.3894 154.154Z" fill="#BFE7F3" stroke="#012A5D" stroke-width="4.19367"/>
<path d="M26.7979 97.1414H53.2406" stroke="#012A5D" stroke-width="4.19367"/>
<path d="M21.5107 122.703L21.5107 99.7858" stroke="#012A5D" stroke-width="4.19367"/>
<path d="M20.0124 102.15C22.8083 102.975 25.6958 101.37 26.5209 98.5745C27.3459 95.7786 25.7417 92.8911 22.9458 92.0661C20.1499 91.241 17.2624 92.8911 16.4373 95.6411C15.6123 98.437 17.2165 101.325 20.0124 102.15Z" fill="#BFE7F3" stroke="#012A5D" stroke-width="4.19367"/>
<path d="M42.9294 118.897C45.7253 119.722 48.6128 118.117 49.4378 115.322C50.2629 112.526 48.6586 109.638 45.8628 108.813C43.0669 107.988 40.1793 109.638 39.3543 112.388C38.5293 115.184 40.1335 118.072 42.9294 118.897Z" fill="#BFE7F3" stroke="#012A5D" stroke-width="4.19367"/>
<path d="M6.7917 127.711C9.58758 128.536 12.4751 126.932 13.3002 124.136C14.1252 121.34 12.5209 118.453 9.72506 117.628C6.92918 116.803 4.04165 118.453 3.21664 121.203C2.39162 123.999 3.99581 126.886 6.7917 127.711Z" fill="#BFE7F3" stroke="#012A5D" stroke-width="4.19367"/>
<path d="M138.875 82.2896H164.037V69.7085" stroke="#012A5D" stroke-width="4.19367"/>
<path d="M162.377 71.1694C165.173 71.9944 168.06 70.3902 168.885 67.5943C169.71 64.7984 168.106 61.9108 165.31 61.0858C162.514 60.2608 159.627 61.9108 158.802 64.6609C157.977 67.4568 159.581 70.3443 162.377 71.1694Z" fill="#BFE7F3" stroke="#012A5D" stroke-width="4.19367"/>
<path d="M160.263 83.9377V96.5187H185.844V78.9053" stroke="#012A5D" stroke-width="4.19367"/>
<path d="M184.604 82.0729C187.4 82.8979 190.288 81.2937 191.113 78.4979C191.938 75.702 190.333 72.8144 187.538 71.9894C184.742 71.1644 181.854 72.8144 181.029 75.5645C180.204 78.3603 181.808 81.2479 184.604 82.0729Z" fill="#BFE7F3" stroke="#012A5D" stroke-width="4.19367"/>
<path d="M174.103 96.519V108.681" stroke="#012A5D" stroke-width="4.19367"/>
<path d="M172.861 116.461C175.657 117.286 178.544 115.682 179.369 112.886C180.195 110.09 178.59 107.203 175.794 106.378C172.999 105.553 170.111 107.203 169.286 109.953C168.461 112.749 170.065 115.636 172.861 116.461Z" fill="#BFE7F3" stroke="#012A5D" stroke-width="4.19367"/>
<path d="M126.295 34.0332L126.295 8.03243" stroke="#012A5D" stroke-width="4.19367"/>
<path d="M127.987 3.21664C125.191 2.39162 122.303 3.99582 121.478 6.7917C120.653 9.58758 122.257 12.4751 125.053 13.3002C127.849 14.1252 130.737 12.4751 131.562 9.72509C132.387 6.9292 130.783 4.04165 127.987 3.21664Z" fill="#BFE7F3" stroke="#012A5D" stroke-width="4.19367"/>
<circle cx="97.2023" cy="71.4709" r="52.4414" fill="#7FCFE7" stroke="#012A5D" stroke-width="4.19367"/>
<path d="M98.2984 98H89.7091C89.3537 97.9987 89.0016 98.0883 88.6729 98.2636C88.3443 98.4389 88.0456 98.6966 87.7939 99.0217C87.5423 99.3468 87.3426 99.7331 87.2064 100.158C87.0701 100.584 87 101.04 87 101.5C87 102.428 87.2846 103.318 87.7913 103.975C88.2979 104.631 88.9851 105 89.7016 105H98.2984C99.0149 105 99.7021 104.631 100.209 103.975C100.715 103.318 101 102.428 101 101.5C101 100.572 100.715 99.6815 100.209 99.0251C99.7021 98.3688 99.0149 98 98.2984 98Z" fill="white" stroke="#012A5D" stroke-width="4.05806" stroke-linecap="round" stroke-linejoin="round"/>
<path d="M124.617 84.5044C124.617 84.5044 118.652 99.695 101.795 101.426" stroke="#012A5D" stroke-width="4.05806" stroke-linecap="round" stroke-linejoin="round"/>
<path d="M70.5 64C69.0413 64 67.6424 64.4093 66.6109 65.1378C65.5795 65.8664 65 66.8545 65 67.8849V81.1152C65 82.1455 65.5795 83.1336 66.6109 83.8622C67.6424 84.5907 69.0413 85 70.5 85C71.9587 85 73.3576 84.5907 74.3891 83.8622C75.4205 83.1336 76 82.1455 76 81.1152V67.8849C76 66.8545 75.4205 65.8664 74.3891 65.1378C73.3576 64.4093 71.9587 64 70.5 64Z" fill="white" stroke="#012A5D" stroke-width="4.05806" stroke-linecap="round" stroke-linejoin="round"/>
<path d="M124.5 64C123.041 64 121.642 64.4093 120.611 65.1378C119.579 65.8664 119 66.8545 119 67.8849V81.1152C119 82.1455 119.579 83.1336 120.611 83.8622C121.642 84.5907 123.041 85 124.5 85C125.959 85 127.358 84.5907 128.389 83.8622C129.421 83.1336 130 82.1455 130 81.1152V67.8849C130 66.8545 129.421 65.8664 128.389 65.1378C127.358 64.4093 125.959 64 124.5 64Z" fill="white" stroke="#012A5D" stroke-width="4.05806" stroke-linecap="round" stroke-linejoin="round"/>
<path d="M69.8506 63.2366C69.8506 63.2366 71.1633 40.7761 96.559 40.743C121.547 40.7079 124.468 63.2366 124.468 63.2366" stroke="#012A5D" stroke-width="4.05806" stroke-linecap="round" stroke-linejoin="round"/>
</svg>
