<svg width="154" height="169" viewBox="0 0 154 169" fill="none" xmlns="http://www.w3.org/2000/svg">
<path d="M99.1025 142.62L99.1025 11.3799L1.99973 11.3799L1.99972 142.62L99.1025 142.62Z" fill="#7FCFE7" stroke="#012A5D" stroke-width="3.79308" stroke-linejoin="round"/>
<path d="M112.759 155.517L112.759 23.5176L15.656 23.5176L15.656 155.517L112.759 155.517Z" fill="white" stroke="#012A5D" stroke-width="3.79308" stroke-linejoin="round"/>
<line x1="1.89654" y1="-1.89654" x2="16.0912" y2="-1.89654" transform="matrix(0.5 -0.866025 -0.866025 -0.5 115.478 15.5779)" stroke="#012A5D" stroke-width="3.79308" stroke-linecap="round"/>
<line x1="1.89654" y1="-1.89654" x2="16.0912" y2="-1.89654" transform="matrix(0.888899 -0.458103 -0.458103 -0.888899 122.524 17.9209)" stroke="#012A5D" stroke-width="3.79308" stroke-linecap="round"/>
<line x1="1.89654" y1="-1.89654" x2="16.0912" y2="-1.89654" transform="matrix(1 2.98023e-08 2.98023e-08 -1 122.278 25.1694)" stroke="#012A5D" stroke-width="3.79308" stroke-linecap="round"/>
<circle cx="47.1377" cy="55.7588" r="17.4482" fill="white" stroke="#012A5D" stroke-width="3.79308"/>
<line x1="97.206" y1="99.7586" x2="29.6892" y2="99.7586" stroke="#012A5D" stroke-width="3.79308" stroke-linecap="round"/>
<line x1="67.6191" y1="88.3792" x2="29.6883" y2="88.3792" stroke="#012A5D" stroke-width="3.79308" stroke-linecap="round"/>
<line x1="97.206" y1="111.138" x2="29.6892" y2="111.138" stroke="#012A5D" stroke-width="3.79308" stroke-linecap="round"/>
<line x1="97.206" y1="123.275" x2="29.6892" y2="123.275" stroke="#012A5D" stroke-width="3.79308" stroke-linecap="round"/>
<line x1="97.206" y1="134.655" x2="29.6892" y2="134.655" stroke="#012A5D" stroke-width="3.79308" stroke-linecap="round"/>
<path d="M115.988 119.588L149.437 153.691C150.851 155.108 151.644 157.026 151.644 159.025C151.644 161.024 150.851 162.942 149.437 164.359C148.015 165.768 146.092 166.56 144.087 166.56C142.082 166.56 140.158 165.768 138.736 164.359L104.615 129.587" fill="#BFE7F3"/>
<path d="M115.988 119.588L149.437 153.691C150.851 155.108 151.644 157.026 151.644 159.025C151.644 161.024 150.851 162.942 149.437 164.359C148.015 165.768 146.092 166.56 144.087 166.56C142.082 166.56 140.158 165.768 138.736 164.359L104.615 129.587" stroke="#012A5D" stroke-width="3.79308" stroke-linecap="round" stroke-linejoin="round"/>
<path fill-rule="evenodd" clip-rule="evenodd" d="M123.754 101.826C123.754 120.356 108.556 135.377 89.8088 135.377C71.0612 135.377 55.8633 120.356 55.8633 101.826C55.8633 83.2968 71.0612 68.2756 89.8088 68.2756C108.556 68.2756 123.754 83.2968 123.754 101.826ZM109.725 102.034C109.725 113.137 100.724 122.137 89.6215 122.137C78.5187 122.137 69.5182 113.137 69.5182 102.034C69.5182 90.9311 78.5187 81.9305 89.6215 81.9305C100.724 81.9305 109.725 90.9311 109.725 102.034Z" fill="#BFE7F3"/>
<path d="M89.8088 137.274C109.583 137.274 125.651 121.424 125.651 101.826H121.858C121.858 119.288 107.53 133.481 89.8088 133.481V137.274ZM53.9667 101.826C53.9667 121.424 70.0348 137.274 89.8088 137.274V133.481C72.0877 133.481 57.7598 119.288 57.7598 101.826H53.9667ZM89.8088 66.3791C70.0348 66.3791 53.9667 82.2286 53.9667 101.826H57.7598C57.7598 84.3651 72.0877 70.1722 89.8088 70.1722V66.3791ZM125.651 101.826C125.651 82.2286 109.583 66.3791 89.8088 66.3791V70.1722C107.53 70.1722 121.858 84.3651 121.858 101.826H125.651ZM89.6215 124.034C101.772 124.034 111.621 114.184 111.621 102.034H107.828C107.828 112.089 99.6768 120.241 89.6215 120.241V124.034ZM67.6216 102.034C67.6216 114.184 77.4713 124.034 89.6215 124.034V120.241C79.5662 120.241 71.4147 112.089 71.4147 102.034H67.6216ZM89.6215 80.034C77.4713 80.034 67.6216 89.8837 67.6216 102.034H71.4147C71.4147 91.9785 79.5662 83.8271 89.6215 83.8271V80.034ZM111.621 102.034C111.621 89.8837 101.772 80.034 89.6215 80.034V83.8271C99.6768 83.8271 107.828 91.9785 107.828 102.034H111.621Z" fill="#012A5D"/>
</svg>
