<svg width="666" height="319" viewBox="0 0 666 319" fill="none" xmlns="http://www.w3.org/2000/svg">
<path d="M300.342 250.25C300.342 262.338 290.665 272.114 278.756 272.114C266.846 272.114 257.169 262.338 257.169 250.25C257.169 238.162 266.846 228.386 278.756 228.386C290.665 228.386 300.342 238.162 300.342 250.25Z" fill="white" stroke="#012A5D" stroke-width="2.21405"/>
<path d="M242.038 250.25C242.038 255.639 237.724 259.997 232.414 259.997C227.105 259.997 222.791 255.639 222.791 250.25C222.791 244.862 227.105 240.504 232.414 240.504C237.724 240.504 242.038 244.862 242.038 250.25Z" fill="white" stroke="#012A5D" stroke-width="0.986985"/>
<path d="M15.8379 310.86L653.483 310.86" stroke="#012A5D" stroke-width="2.76756"/>
<path d="M444.42 7.3042L444.42 28.04L424.719 28.04L424.719 47.3291" stroke="#012A5D" stroke-width="2.76756"/>
<path d="M406.996 47.2563L449.961 47.2563L449.961 59.8594" stroke="#012A5D" stroke-width="2.76756"/>
<path d="M418.205 26.4023C417.302 29.4615 419.057 32.6211 422.117 33.5238C425.176 34.4266 428.335 32.6712 429.238 29.612C430.141 26.5527 428.335 23.3932 425.326 22.4905C422.267 21.5877 419.108 23.343 418.205 26.4023Z" fill="#BFE7F3" stroke="#012A5D" stroke-width="2.76756"/>
<path d="M455.499 61.144C456.402 64.2032 454.647 67.3628 451.587 68.2655C448.528 69.1683 445.369 67.4129 444.466 64.3537C443.563 61.2944 445.369 58.1349 448.378 57.2322C451.437 56.3294 454.597 58.0847 455.499 61.144Z" fill="#BFE7F3" stroke="#012A5D" stroke-width="2.76756"/>
<path d="M471.73 27.7788L471.73 83.9196" stroke="#012A5D" stroke-width="2.76756"/>
<path d="M443.939 22.2534L469.015 22.2534" stroke="#012A5D" stroke-width="2.76756"/>
<path d="M466.427 20.6157C465.525 23.6749 467.28 26.8345 470.339 27.7372C473.399 28.6399 476.558 26.8846 477.461 23.8254C478.364 20.7661 476.558 17.6066 473.549 16.7038C470.49 15.8011 467.33 17.5564 466.427 20.6157Z" fill="#BFE7F3" stroke="#012A5D" stroke-width="2.76756"/>
<path d="M412.534 45.6767C413.437 48.736 411.682 51.8955 408.623 52.7982C405.563 53.701 402.404 51.9456 401.501 48.8864C400.598 45.8271 402.404 42.6676 405.413 41.7649C408.472 40.8621 411.632 42.6174 412.534 45.6767Z" fill="#BFE7F3" stroke="#012A5D" stroke-width="2.76756"/>
<path d="M438.459 6.14887C437.556 9.20812 439.311 12.3677 442.371 13.2704C445.43 14.1731 448.589 12.4178 449.492 9.35856C450.395 6.29931 448.589 3.13977 445.58 2.23704C442.521 1.33431 439.361 3.08962 438.459 6.14887Z" fill="#BFE7F3" stroke="#012A5D" stroke-width="2.76756"/>
<mask id="path-13-inside-1_986_1130" fill="white">
<path fill-rule="evenodd" clip-rule="evenodd" d="M430.972 180.784H412.706V299.236H403.85L403.85 317.502H439.828V299.236H430.972V180.784Z"/>
</mask>
<path fill-rule="evenodd" clip-rule="evenodd" d="M430.972 180.784H412.706V299.236H403.85L403.85 317.502H439.828V299.236H430.972V180.784Z" fill="#D9D9D9"/>
<path d="M412.706 180.784V178.017H409.938V180.784H412.706ZM430.972 180.784H433.739V178.017H430.972V180.784ZM412.706 299.236V302.003H415.473V299.236H412.706ZM403.85 299.236V296.468H401.082L401.082 299.236H403.85ZM403.85 317.502H401.082L401.082 320.269H403.85V317.502ZM439.828 317.502V320.269H442.595V317.502H439.828ZM439.828 299.236H442.595V296.468H439.828V299.236ZM430.972 299.236H428.204V302.003H430.972V299.236ZM412.706 183.552H430.972V178.017H412.706V183.552ZM415.473 299.236V180.784H409.938V299.236H415.473ZM403.85 302.003H412.706V296.468H403.85V302.003ZM406.617 317.502L406.617 299.236H401.082L401.082 317.502H406.617ZM439.828 314.734H403.85V320.269H439.828V314.734ZM437.06 299.236V317.502H442.595V299.236H437.06ZM430.972 302.003H439.828V296.468H430.972V302.003ZM428.204 180.784V299.236H433.739V180.784H428.204Z" fill="#012A5D" mask="url(#path-13-inside-1_986_1130)"/>
<path d="M512.891 79.4917H330.786V187.699H512.891V79.4917Z" fill="#BFE7F3" stroke="#012A5D" stroke-width="2.76756" stroke-linejoin="round"/>
<line x1="410.769" y1="115.747" x2="347.115" y2="115.747" stroke="#012A5D" stroke-width="2.76756" stroke-linecap="round"/>
<line x1="393.622" y1="127.165" x2="347.124" y2="127.165" stroke="#012A5D" stroke-width="2.76756" stroke-linecap="round"/>
<circle cx="238.904" cy="136.503" r="65.5911" fill="white" stroke="#012A5D" stroke-width="2.76756"/>
<mask id="mask0_986_1130" style="mask-type:alpha" maskUnits="userSpaceOnUse" x="171" y="69" width="135" height="135">
<path d="M304.495 136.503C304.495 172.728 275.129 202.094 238.904 202.094C202.679 202.094 173.312 172.728 173.312 136.503C173.312 100.278 202.679 70.9121 238.904 70.9121C275.129 70.9121 304.495 100.278 304.495 136.503Z" fill="#F1F1F1" stroke="#1B2E5B" stroke-width="2.76756"/>
</mask>
<g mask="url(#mask0_986_1130)">
<path d="M238.544 143.971C250.487 143.971 260.167 134.771 260.167 123.435C260.167 112.098 250.487 102.898 238.544 102.898C226.601 102.898 216.932 112.093 216.932 123.435C216.932 134.776 226.601 143.971 238.544 143.971Z" fill="#C7E4EF" stroke="#012A5D" stroke-width="2.76756" stroke-linecap="round" stroke-linejoin="round"/>
<path d="M260.611 126.599C260.611 126.599 256.367 135.088 244.235 134.522" stroke="#012A5D" stroke-width="2.76756" stroke-linecap="round" stroke-linejoin="round"/>
<path d="M242.742 132.342H237.531C237.311 132.347 237.095 132.402 236.894 132.505C236.693 132.608 236.511 132.757 236.359 132.942C236.207 133.128 236.087 133.347 236.007 133.587C235.927 133.827 235.888 134.083 235.892 134.341C235.888 134.599 235.927 134.855 236.007 135.094C236.087 135.334 236.207 135.553 236.359 135.738C236.511 135.924 236.693 136.072 236.894 136.175C237.095 136.278 237.311 136.333 237.531 136.337H242.742C243.185 136.327 243.606 136.112 243.913 135.737C244.22 135.363 244.389 134.861 244.381 134.341C244.389 133.821 244.221 133.318 243.913 132.943C243.606 132.568 243.185 132.352 242.742 132.342Z" fill="#F1F1F1" stroke="#012A5D" stroke-width="2.76756" stroke-linecap="round" stroke-linejoin="round"/>
<path d="M212.824 109.279C210.794 109.279 209.149 111.036 209.149 113.198V126.545C209.149 128.711 210.787 130.464 212.824 130.464C214.862 130.464 216.499 128.711 216.499 126.545V113.198C216.499 111.036 214.855 109.279 212.824 109.279Z" fill="#F1F1F1" stroke="#012A5D" stroke-width="2.76756" stroke-linecap="round" stroke-linejoin="round"/>
<path d="M264.275 109.279C262.244 109.279 260.6 111.036 260.6 113.198V126.545C260.6 128.711 262.237 130.464 264.275 130.464C266.312 130.464 267.95 128.711 267.95 126.545V113.198C267.95 111.036 266.305 109.279 264.275 109.279Z" fill="#F1F1F1" stroke="#012A5D" stroke-width="2.76756" stroke-linecap="round" stroke-linejoin="round"/>
<path d="M212.608 108.847C212.608 108.847 213.843 91.2596 237.767 91.2247C261.307 91.1921 264.058 108.847 264.058 108.847" stroke="#012A5D" stroke-width="2.76756" stroke-linecap="round" stroke-linejoin="round"/>
<path fill-rule="evenodd" clip-rule="evenodd" d="M274.002 182.254H274.042V205.837H203.529V182.254H203.548C203.793 173.328 206.963 142.206 239.351 144.05C271.446 145.877 273.97 173.866 274.002 182.254Z" fill="#C7E4EF"/>
<path d="M274.002 182.254L272.618 182.259L272.624 183.638H274.002V182.254ZM274.042 182.254H275.425V180.87H274.042V182.254ZM274.042 205.837V207.22H275.425V205.837H274.042ZM203.529 205.837H202.146V207.22H203.529V205.837ZM203.529 182.254V180.87H202.146V182.254H203.529ZM203.548 182.254V183.638H204.894L204.931 182.292L203.548 182.254ZM239.351 144.05L239.273 145.431L239.351 144.05ZM274.002 183.638H274.042V180.87H274.002V183.638ZM272.658 182.254V205.837H275.425V182.254H272.658ZM274.042 204.453H203.529V207.22H274.042V204.453ZM204.913 205.837V182.254H202.146V205.837H204.913ZM203.529 183.638H203.548V180.87H203.529V183.638ZM204.931 182.292C205.052 177.901 205.896 168.161 210.602 159.791C212.943 155.628 216.221 151.834 220.818 149.185C225.41 146.539 231.406 144.984 239.273 145.431L239.43 142.668C231.102 142.194 224.557 143.837 219.437 146.787C214.323 149.734 210.721 153.933 208.19 158.435C203.152 167.396 202.289 177.681 202.165 182.216L204.931 182.292ZM239.273 145.431C254.834 146.317 263.07 153.493 267.493 161.369C271.971 169.342 272.603 178.158 272.618 182.259L275.386 182.249C275.369 177.961 274.723 168.589 269.907 160.014C265.036 151.341 255.963 143.609 239.43 142.668L239.273 145.431Z" fill="#012A5D"/>
</g>
<circle cx="238.904" cy="136.503" r="65.5911" stroke="#012A5D" stroke-width="2.76756"/>
<path d="M180.417 173.589H27.1223C26.1057 173.589 25.1307 174.001 24.4118 174.733C23.6929 175.466 23.2891 176.46 23.2891 177.496V281.449C23.2891 282.485 23.6929 283.479 24.4118 284.211C25.1307 284.944 26.1057 285.356 27.1223 285.356H180.453C181.47 285.356 182.445 284.944 183.164 284.211C183.883 283.479 184.286 282.485 184.286 281.449V177.496C184.286 176.979 184.186 176.468 183.991 175.992C183.796 175.516 183.511 175.083 183.151 174.72C182.791 174.357 182.364 174.07 181.895 173.876C181.426 173.682 180.923 173.584 180.417 173.589Z" fill="#F1F1F1" stroke="#012A5D" stroke-width="2.76756" stroke-miterlimit="10"/>
<path d="M100.609 285.356H180.444C182.882 285.48 185.204 286.418 187.026 288.013L204.731 305.317C206.193 306.754 205.718 307.975 203.612 307.975H5.30619C3.20006 307.975 2.69546 306.783 4.19462 305.317L21.892 288.013C23.7141 286.418 26.0358 285.48 28.4736 285.356H100.609Z" fill="#F1F1F1" stroke="#012A5D" stroke-width="2.76756" stroke-miterlimit="10"/>
<path d="M203.25 304.881H5.816C4.80327 304.884 3.83267 305.456 3.11725 306.472C2.40182 307.489 2 308.866 2 310.302V311.975C2 313.41 2.40204 314.786 3.11768 315.8C3.83332 316.815 4.80394 317.385 5.816 317.385H203.25C204.262 317.385 205.233 316.815 205.948 315.8C206.664 314.786 207.066 313.41 207.066 311.975V310.302C207.066 308.866 206.664 307.489 205.949 306.472C205.233 305.456 204.263 304.884 203.25 304.881Z" fill="#F1F1F1" stroke="#012A5D" stroke-width="2.76756" stroke-linejoin="round"/>
<path d="M173.642 187.782H35.2637V270.276H173.642V187.782Z" fill="#BFE7F3" stroke="#012A5D" stroke-width="2.76756" stroke-linejoin="round"/>
<rect x="74.2334" y="157.813" width="119.559" height="45.9415" rx="20.7567" fill="#7FCFE7" stroke="#012A5D" stroke-width="2.76756"/>
<path fill-rule="evenodd" clip-rule="evenodd" d="M62.8811 206.401L88.4035 194.18L88.8709 222.474L79.8252 216.88L69.4629 233.636L62.0661 229.061L72.4283 212.305L62.8811 206.401Z" fill="#F1F1F1"/>
<path d="M88.4035 194.18L87.8059 192.932L89.7515 192.001L89.7871 194.158L88.4035 194.18ZM62.8811 206.401L62.1533 207.578L60 206.246L62.2835 205.153L62.8811 206.401ZM88.8709 222.474L90.2545 222.451L90.2964 224.982L88.1431 223.651L88.8709 222.474ZM79.8252 216.88L78.6483 216.152L79.3761 214.975L80.553 215.703L79.8252 216.88ZM69.4629 233.636L70.6398 234.363L69.912 235.54L68.7351 234.813L69.4629 233.636ZM62.0661 229.061L61.3382 230.238L60.1613 229.51L60.8892 228.333L62.0661 229.061ZM72.4283 212.305L73.1562 211.128L74.3331 211.856L73.6052 213.033L72.4283 212.305ZM89.0011 195.428L63.4787 207.649L62.2835 205.153L87.8059 192.932L89.0011 195.428ZM87.4874 222.497L87.0199 194.203L89.7871 194.158L90.2545 222.451L87.4874 222.497ZM80.553 215.703L89.5988 221.297L88.1431 223.651L79.0974 218.057L80.553 215.703ZM68.286 232.908L78.6483 216.152L81.0021 217.608L70.6398 234.363L68.286 232.908ZM62.7939 227.884L70.1908 232.459L68.7351 234.813L61.3382 230.238L62.7939 227.884ZM73.6052 213.033L63.243 229.789L60.8892 228.333L71.2514 211.578L73.6052 213.033ZM63.6089 205.224L73.1562 211.128L71.7005 213.482L62.1533 207.578L63.6089 205.224Z" fill="#012A5D"/>
<line x1="581.132" y1="49.5068" x2="592.136" y2="49.5068" stroke="#012A5D" stroke-width="2.76756" stroke-linecap="round"/>
<line x1="581.308" y1="43.409" x2="590.565" y2="37.4583" stroke="#012A5D" stroke-width="2.76756" stroke-linecap="round"/>
<line x1="575.486" y1="40.8192" x2="580.988" y2="31.2892" stroke="#012A5D" stroke-width="2.76756" stroke-linecap="round"/>
<line x1="1.38378" y1="-1.38378" x2="12.3881" y2="-1.38378" transform="matrix(-1 6.9521e-08 6.9521e-08 1 57.2861 158.825)" stroke="#012A5D" stroke-width="2.76756" stroke-linecap="round"/>
<line x1="1.38378" y1="-1.38378" x2="12.3881" y2="-1.38378" transform="matrix(-0.841178 -0.540758 -0.540758 0.841178 56.1416 153.256)" stroke="#012A5D" stroke-width="2.76756" stroke-linecap="round"/>
<line x1="1.38378" y1="-1.38378" x2="12.3881" y2="-1.38378" transform="matrix(-0.5 -0.866025 -0.866025 0.5 61.042 150.644)" stroke="#012A5D" stroke-width="2.76756" stroke-linecap="round"/>
<path d="M64.1562 45.1142H83.3955V26.8345H101.292" stroke="#012A5D" stroke-width="2.76756"/>
<path d="M101.292 53.6795V18.333H112.925" stroke="#012A5D" stroke-width="2.76756"/>
<path d="M81.8758 20.7902C84.7143 19.9527 87.6458 21.5813 88.4834 24.4198C89.321 27.2582 87.6923 30.1897 84.8538 31.0273C82.0154 31.8649 79.0839 30.1897 78.2463 27.3978C77.4087 24.5594 79.0373 21.6278 81.8758 20.7902Z" fill="#BFE7F3" stroke="#012A5D" stroke-width="2.76756"/>
<path d="M111.405 12.7365C114.244 11.899 117.175 13.5276 118.013 16.366C118.85 19.2045 117.222 22.136 114.383 22.9736C111.545 23.8112 108.613 22.136 107.776 19.3441C106.938 16.5056 108.567 13.5741 111.405 12.7365Z" fill="#BFE7F3" stroke="#012A5D" stroke-width="2.76756"/>
<path d="M82.8936 70.9082H139.271" stroke="#012A5D" stroke-width="2.76756"/>
<path d="M78.0264 44.6665L78.0264 67.9326" stroke="#012A5D" stroke-width="2.76756"/>
<path d="M76.5067 65.5329C79.3451 64.6953 82.2767 66.324 83.1142 69.1624C83.9518 72.0009 82.3232 74.9324 79.4847 75.77C76.6462 76.6076 73.7147 74.9324 72.8772 72.1405C72.0396 69.302 73.6682 66.3705 76.5067 65.5329Z" fill="#BFE7F3" stroke="#012A5D" stroke-width="2.76756"/>
<path d="M99.7733 48.5305C102.612 47.6929 105.543 49.3215 106.381 52.16C107.218 54.9984 105.59 57.93 102.751 58.7676C99.9128 59.6051 96.9813 57.93 96.1438 55.138C95.3062 52.2996 96.9348 49.3681 99.7733 48.5305Z" fill="#BFE7F3" stroke="#012A5D" stroke-width="2.76756"/>
<path d="M63.0838 39.5818C65.9223 38.7442 68.8538 40.3728 69.6914 43.2113C70.529 46.0497 68.9003 48.9812 66.0619 49.8188C63.2234 50.6564 60.2919 48.9812 59.4543 46.1893C58.6167 43.3509 60.2454 40.4193 63.0838 39.5818Z" fill="#BFE7F3" stroke="#012A5D" stroke-width="2.76756"/>
<path d="M41.5225 84.627H129.706" stroke="#012A5D" stroke-width="2.76756"/>
<path d="M37.3688 89.8635C40.1762 90.6921 43.0756 89.0808 43.904 86.2725C44.7324 83.4642 43.1216 80.5638 40.3142 79.7351C37.5069 78.9064 34.6075 80.5638 33.7791 83.3261C32.9506 86.1344 34.5614 89.0348 37.3688 89.8635Z" fill="#BFE7F3" stroke="#012A5D" stroke-width="2.76756"/>
<path d="M53.584 107.735H72.8232V126.015H90.7202" stroke="#012A5D" stroke-width="2.76756"/>
<path d="M90.7197 99.1691V134.516H102.353" stroke="#012A5D" stroke-width="2.76756"/>
<path d="M71.3035 132.058C74.142 132.896 77.0735 131.267 77.9111 128.429C78.7487 125.59 77.12 122.659 74.2816 121.821C71.4431 120.984 68.5116 122.659 67.674 125.451C66.8365 128.289 68.4651 131.221 71.3035 132.058Z" fill="#BFE7F3" stroke="#012A5D" stroke-width="2.76756"/>
<path d="M100.834 140.112C103.672 140.95 106.604 139.321 107.441 136.483C108.279 133.644 106.65 130.713 103.812 129.875C100.973 129.037 98.0419 130.713 97.2043 133.505C96.3667 136.343 97.9954 139.275 100.834 140.112Z" fill="#BFE7F3" stroke="#012A5D" stroke-width="2.76756"/>
<path d="M67.4541 108.182L67.4541 84.9161" stroke="#012A5D" stroke-width="2.76756"/>
<path d="M89.201 104.318C92.0395 105.156 94.971 103.527 95.8086 100.689C96.6461 97.8502 95.0175 94.9187 92.179 94.0811C89.3406 93.2435 86.4091 94.9187 85.5715 97.7106C84.7339 100.549 86.3625 103.481 89.201 104.318Z" fill="#BFE7F3" stroke="#012A5D" stroke-width="2.76756"/>
<path d="M52.5115 113.266C55.35 114.104 58.2815 112.475 59.1191 109.637C59.9567 106.798 58.328 103.867 55.4896 103.029C52.6511 102.192 49.7196 103.867 48.882 106.659C48.0445 109.497 49.6731 112.429 52.5115 113.266Z" fill="#BFE7F3" stroke="#012A5D" stroke-width="2.76756"/>
<path d="M630.589 196.877L630.589 129.73" stroke="#012A5D" stroke-width="2.76756"/>
<path d="M630.59 151.948L648.364 151.948" stroke="#012A5D" stroke-width="2.76756"/>
<path d="M612.815 142.567L630.589 142.567" stroke="#012A5D" stroke-width="2.76756"/>
<path d="M658.983 153.67C659.907 150.538 658.11 147.303 654.978 146.379C651.845 145.454 648.611 147.252 647.686 150.384C646.762 153.516 648.611 156.751 651.691 157.675C654.824 158.6 658.059 156.802 658.983 153.67Z" fill="#BFE7F3" stroke="#012A5D" stroke-width="2.76756"/>
<path d="M636.271 170.905C637.195 167.773 635.398 164.538 632.266 163.614C629.134 162.69 625.899 164.487 624.974 167.619C624.05 170.751 625.899 173.986 628.98 174.911C632.112 175.835 635.347 174.038 636.271 170.905Z" fill="#BFE7F3" stroke="#012A5D" stroke-width="2.76756"/>
<path d="M614.547 144.244C615.472 141.112 613.674 137.877 610.542 136.952C607.41 136.028 604.175 137.825 603.251 140.958C602.326 144.09 604.175 147.325 607.256 148.249C610.388 149.173 613.623 147.376 614.547 144.244Z" fill="#BFE7F3" stroke="#012A5D" stroke-width="2.76756"/>
<path d="M637.468 127.432C638.393 124.3 636.595 121.065 633.463 120.141C630.331 119.216 627.096 121.014 626.172 124.146C625.247 127.278 627.045 130.513 630.177 131.437C633.309 132.31 636.544 130.564 637.468 127.432Z" fill="#BFE7F3" stroke="#012A5D" stroke-width="2.76756"/>
<path d="M574.156 181.914L574.156 153.724L588.251 153.724" stroke="#012A5D" stroke-width="2.76756"/>
<path d="M586.615 155.585C585.691 152.452 587.488 149.217 590.62 148.293C593.752 147.369 596.987 149.166 597.911 152.298C598.836 155.431 596.987 158.666 593.906 159.59C590.774 160.514 587.539 158.717 586.615 155.585Z" fill="#BFE7F3" stroke="#012A5D" stroke-width="2.76756"/>
<path d="M572.817 157.953L558.723 157.953L558.723 129.294L578.455 129.294" stroke="#012A5D" stroke-width="2.76756"/>
<path d="M574.907 130.684C573.982 127.552 575.78 124.317 578.912 123.392C582.044 122.468 585.279 124.265 586.203 127.398C587.128 130.53 585.279 133.765 582.198 134.689C579.066 135.613 575.831 133.816 574.907 130.684Z" fill="#BFE7F3" stroke="#012A5D" stroke-width="2.76756"/>
<path d="M558.723 142.449L545.098 142.449" stroke="#012A5D" stroke-width="2.76756"/>
<path d="M536.381 143.839C535.457 140.707 537.254 137.472 540.387 136.548C543.519 135.623 546.754 137.421 547.678 140.553C548.602 143.685 546.754 146.92 543.673 147.844C540.541 148.768 537.306 146.971 536.381 143.839Z" fill="#BFE7F3" stroke="#012A5D" stroke-width="2.76756"/>
<path d="M629.233 196.009L658.362 196.009" stroke="#012A5D" stroke-width="2.76756"/>
<path d="M663.757 194.112C664.682 197.244 662.884 200.479 659.752 201.404C656.62 202.328 653.385 200.531 652.461 197.398C651.536 194.266 653.385 191.031 656.466 190.107C659.598 189.183 662.833 190.98 663.757 194.112Z" fill="#BFE7F3" stroke="#012A5D" stroke-width="2.76756"/>
<path d="M569.903 71.1888C569.903 94.1228 551.433 112.702 528.666 112.702C505.898 112.702 487.429 94.1228 487.429 71.1888C487.429 48.2547 505.898 29.6754 528.666 29.6754C551.433 29.6754 569.903 48.2547 569.903 71.1888Z" fill="#F5F5F5" stroke="#012A5D" stroke-width="2.21405"/>
<path d="M554.405 71.1892C554.405 85.2404 542.892 96.6507 528.667 96.6507C514.441 96.6507 502.928 85.2404 502.928 71.1892C502.928 57.1379 514.441 45.7276 528.667 45.7276C542.892 45.7276 554.405 57.1379 554.405 71.1892Z" fill="#F5F5F5" stroke="#012A5D" stroke-width="2.21405"/>
<circle cx="529.22" cy="46.5576" r="10.7935" fill="#F5F5F5"/>
<circle cx="507.633" cy="79.2148" r="9.68645" fill="#F5F5F5"/>
<path d="M507.215 81.9323C509.186 81.9323 510.783 80.3921 510.783 78.494C510.783 76.5959 509.186 75.0557 507.215 75.0557C505.243 75.0557 503.647 76.5951 503.647 78.494C503.647 80.3929 505.243 81.9323 507.215 81.9323Z" fill="#BFE7F3" stroke="#012A5D" stroke-width="1.10702" stroke-linecap="round" stroke-linejoin="round"/>
<path d="M501.245 88.7272C501.245 88.7272 500.915 81.6057 507.215 81.9643C513.514 82.3229 512.981 88.7272 512.981 88.7272H501.245Z" fill="#BFE7F3" stroke="#012A5D" stroke-width="1.10702" stroke-linecap="round" stroke-linejoin="round"/>
<path d="M502.934 76.8281C502.591 76.8281 502.313 77.1164 502.313 77.4715V79.6626C502.313 80.018 502.59 80.306 502.934 80.306C503.278 80.306 503.554 80.018 503.554 79.6626V77.4715C503.554 77.1164 503.277 76.8281 502.934 76.8281Z" fill="#7FCFE7" stroke="#012A5D" stroke-width="1.10702" stroke-linecap="round" stroke-linejoin="round"/>
<path d="M511.523 76.8281C511.18 76.8281 510.902 77.1164 510.902 77.4715V79.6626C510.902 80.018 511.179 80.306 511.523 80.306C511.867 80.306 512.143 80.018 512.143 79.6626V77.4715C512.143 77.1164 511.866 76.8281 511.523 76.8281Z" fill="#7FCFE7" stroke="#012A5D" stroke-width="1.10702" stroke-linecap="round" stroke-linejoin="round"/>
<path d="M502.933 76.7683C502.933 76.7683 503.139 72.8555 507.133 72.8496C511.063 72.8441 511.522 76.7683 511.522 76.7683" stroke="#012A5D" stroke-width="1.10702" stroke-linecap="round" stroke-linejoin="round"/>
<circle cx="551.36" cy="79.215" r="9.13294" fill="#F5F5F5"/>
<path d="M612.579 180.231H525.068V235.92H612.579V180.231Z" fill="#BFE7F3" stroke="#012A5D" stroke-width="2.76756" stroke-linejoin="round"/>
<circle cx="554.461" cy="208.076" r="14.5273" fill="#F1F1F1" stroke="#012A5D" stroke-width="2.76756"/>
<path d="M577.002 202.772H595.565" stroke="#012A5D" stroke-width="2.76756" stroke-linecap="round"/>
<path d="M577.002 212.716H595.565" stroke="#012A5D" stroke-width="2.76756" stroke-linecap="round"/>
<path d="M464.43 272.616C465.142 266.922 467.702 261.629 471.705 257.571C475.709 253.512 480.93 250.918 486.546 250.196C494.233 249.384 501.561 246.482 507.755 241.796C507.755 241.796 515.351 238.16 515.351 246.078C515.351 256.094 504.379 262.903 504.379 262.903L509.159 272.604L464.43 272.616Z" fill="#90CCE2" stroke="#012A5D" stroke-width="2.76756" stroke-linecap="round" stroke-linejoin="round"/>
<path d="M486.45 243.715C488.899 243.715 491.294 242.989 493.331 241.628C495.368 240.267 496.955 238.332 497.893 236.069C498.83 233.806 499.076 231.315 498.598 228.913C498.12 226.51 496.94 224.303 495.208 222.571C493.476 220.838 491.269 219.659 488.866 219.181C486.463 218.703 483.973 218.948 481.71 219.886C479.446 220.823 477.512 222.411 476.151 224.448C474.79 226.485 474.063 228.879 474.063 231.329C474.063 234.614 475.368 237.764 477.691 240.087C480.014 242.41 483.165 243.715 486.45 243.715Z" fill="#90CCE2" stroke="#012A5D" stroke-width="2.76756" stroke-linecap="round" stroke-linejoin="round"/>
<path d="M630.789 271.48H450.897V288.914H630.789V271.48Z" fill="#F1F1F1" stroke="#012A5D" stroke-width="2.76756" stroke-linecap="round" stroke-linejoin="round"/>
<path d="M612.39 288.67H469.163V317.53H612.39V288.67Z" fill="#F1F1F1" stroke="#012A5D" stroke-width="2.76756" stroke-linecap="round" stroke-linejoin="round"/>
<path d="M513.998 240.715L540.567 213.039" stroke="#012A5D" stroke-width="2.76756" stroke-linecap="round" stroke-linejoin="round"/>
<path d="M424.001 135.004C424.001 154.852 439.93 170.922 459.556 170.922C479.182 170.922 495.111 154.852 495.111 135.004C495.111 115.157 479.182 99.0865 459.556 99.0865C439.93 99.0865 424.001 115.157 424.001 135.004Z" fill="#F5F5F5" stroke="#012A5D" stroke-width="2.21405"/>
<path d="M452.791 160.277C453.546 159.374 454.255 158.546 454.971 157.639C455.331 157.167 455.66 157.004 456.27 157.145C456.953 157.332 457.69 157.368 458.393 157.361C458.98 157.343 459.269 157.568 459.492 158.061C459.911 158.926 460.369 159.795 460.869 160.63C460.969 160.797 461.296 161.026 461.455 161.003C463.116 160.781 464.746 160.477 466.411 160.215C466.615 158.982 466.849 157.831 467.049 156.637C467.135 156.175 467.309 155.997 467.753 155.847C468.236 155.7 468.762 155.519 469.141 155.244C470.155 154.485 470.949 154.723 471.851 155.442C472.503 155.939 473.285 156.685 473.992 156.639C474.699 156.594 475.334 155.718 476.011 155.199C476.607 154.712 477.203 154.224 477.798 153.736C478.135 153.496 478.201 153.229 478.048 152.821C477.64 151.84 477.272 150.862 476.946 149.849C476.854 149.605 476.928 149.26 477.068 149.039C477.537 148.264 478.079 147.536 478.617 146.846C478.796 146.629 479.086 146.463 479.36 146.452C480.568 146.457 481.812 146.506 483.098 146.519C483.688 144.934 484.317 143.353 484.869 141.764C484.924 141.612 484.762 141.282 484.62 141.15C483.834 140.444 483.001 139.81 482.215 139.103C481.999 138.925 481.884 138.521 481.877 138.207C481.925 137.35 482.012 136.497 482.134 135.687C482.196 135.458 482.429 135.09 482.638 134.954C483.512 134.417 484.416 133.96 485.321 133.504C485.692 133.307 485.828 133.125 485.755 132.687C485.508 131.29 485.264 129.855 485.097 128.428C485.025 127.989 484.844 127.853 484.423 127.771C483.384 127.626 482.35 127.442 481.319 127.22C481.092 127.158 480.803 126.932 480.71 126.688C480.322 125.904 479.973 125.124 479.666 124.309C479.577 124.026 479.582 123.595 479.683 123.371C480.207 122.445 480.799 121.604 481.323 120.678C481.42 120.492 481.425 120.061 481.286 119.891C480.285 118.613 479.28 117.375 478.206 116.051C477.031 116.48 475.898 116.873 474.758 117.345C474.352 117.499 474.125 117.437 473.801 117.169C473.153 116.633 472.417 116.205 471.769 115.669C471.553 115.49 471.357 115.118 471.35 114.804C471.341 113.745 471.409 112.694 471.4 111.636C471.385 111.399 471.185 111.065 470.961 110.964C469.576 110.392 468.187 109.859 466.791 109.403C466.602 109.345 466.2 109.46 466.029 109.6C465.325 110.39 464.693 111.226 463.989 112.017C463.811 112.233 463.447 112.353 463.139 112.322C462.285 112.274 461.393 112.222 460.552 112.058C460.247 111.988 459.915 111.797 459.75 111.506C459.215 110.629 458.762 109.721 458.312 108.774C458.151 108.444 457.969 108.308 457.533 108.381C456.1 108.666 454.64 108.831 453.206 109.116C452.967 109.17 452.703 109.456 452.645 109.646C452.446 110.449 452.325 111.259 452.242 112.073C452.218 112.306 452.306 112.589 452.445 112.76C453.723 114.379 455.079 116.006 456.357 117.625C456.669 118.009 456.935 118.075 457.406 118.045C463.362 117.398 468.44 119.248 472.264 123.829C476.616 128.974 477.575 134.87 475.074 141.04C472.523 147.322 467.672 150.902 460.944 151.47C451.462 152.267 443.619 145.396 442.873 135.878C442.708 133.667 442.972 131.461 443.733 129.345C443.901 128.853 443.898 128.5 443.547 128.111C442.261 126.57 441.017 124.994 439.731 123.452C439.523 123.196 439.072 123.033 438.728 122.958C438.037 122.849 437.296 122.852 436.589 122.897C436.353 122.912 436.021 123.114 435.92 123.338C435.349 124.73 434.817 126.125 434.362 127.528C434.303 127.718 434.418 128.122 434.599 128.257C435.347 128.96 436.184 129.555 436.931 130.258C437.147 130.437 437.3 130.844 437.307 131.158C437.259 132.015 437.168 132.907 437.043 133.756C436.973 134.062 436.783 134.396 436.531 134.566C435.657 135.104 434.753 135.56 433.809 136.012C433.442 136.171 433.341 136.395 433.417 136.795C433.661 138.23 433.905 139.665 434.106 141.135C434.183 141.535 434.364 141.671 434.746 141.749C435.784 141.894 436.819 142.078 437.849 142.3C438.116 142.367 438.401 142.631 438.532 142.879C438.824 143.457 438.992 144.101 439.327 144.645C439.831 145.441 439.768 146.061 439.225 146.789C438.73 147.444 438.342 148.188 437.885 148.846C437.656 149.176 437.71 149.416 437.952 149.715C438.892 150.83 439.793 151.94 440.655 153.046C440.967 153.431 441.237 153.458 441.647 153.265C442.583 152.89 443.518 152.515 444.445 152.218C444.728 152.129 445.148 152.211 445.368 152.351C446.062 152.814 446.71 153.35 447.442 153.816C447.847 154.053 447.935 154.337 447.892 154.763C447.824 155.814 447.794 156.869 447.803 157.927C447.822 158.125 447.988 158.416 448.134 158.51C449.674 159.097 451.213 159.685 452.791 160.277Z" fill="#7FCFE7" stroke="#012A5D" stroke-width="2.21405"/>
<path d="M459.423 145.036L459.437 145.007L459.437 145.006C459.436 145.005 459.435 145.003 459.434 145.002C459.405 144.954 459.36 144.893 459.29 144.807C458.685 144.088 458.125 143.385 457.576 142.694C456.691 141.583 455.834 140.506 454.862 139.454C454.242 138.798 453.784 138.067 453.648 137.209C453.51 136.341 453.726 135.509 454.138 134.708L454.144 134.696L454.151 134.684C454.485 134.071 454.715 133.396 454.971 132.642C455.042 132.435 455.114 132.221 455.192 132.001C455.356 131.529 455.623 131.095 456.033 130.763C456.444 130.43 456.925 130.26 457.421 130.196L457.421 130.196L457.428 130.195C458.794 130.028 460.117 129.821 461.442 129.539L461.465 129.535L461.487 129.531C461.987 129.446 462.497 129.458 462.996 129.659C463.487 129.857 463.855 130.192 464.15 130.553L464.15 130.553L464.158 130.562C465.243 131.912 466.343 133.242 467.453 134.585C468.013 135.263 468.576 135.943 469.141 136.632L468.315 137.31L469.141 136.632C469.236 136.747 469.303 136.825 469.363 136.886C469.392 136.915 469.413 136.935 469.429 136.948C469.438 136.928 469.452 136.892 469.469 136.83C469.492 136.746 469.512 136.643 469.536 136.499C470.704 129.189 464.391 123.158 457.049 124.666C456.697 124.743 456.293 124.772 455.872 124.63C455.455 124.49 455.159 124.228 454.941 123.993L454.919 123.969L454.899 123.944L437.308 102.518C437.002 102.146 436.836 101.743 436.788 101.316C436.745 100.934 436.807 100.583 436.85 100.349C437.572 96.2214 434.681 92.5934 430.508 92.3698C427.086 92.1888 423.907 94.6974 423.292 98.0889L423.292 98.0898C422.681 101.437 424.634 104.674 427.94 105.681L427.942 105.682C428.209 105.764 428.521 105.807 428.93 105.849C428.989 105.855 429.052 105.861 429.117 105.867C429.461 105.901 429.872 105.941 430.268 106.019L430.276 106.021L430.284 106.023C430.48 106.065 430.746 106.13 431.01 106.238C431.262 106.341 431.611 106.523 431.882 106.853C437.746 113.995 443.608 121.135 449.475 128.237L449.477 128.239C449.729 128.547 449.96 128.936 449.992 129.433C450.022 129.892 449.867 130.279 449.752 130.533C446.942 136.989 451.139 144.213 458.365 144.988C458.367 144.988 458.374 144.989 458.389 144.99C458.406 144.991 458.429 144.992 458.458 144.993C458.495 144.995 458.531 144.996 458.573 144.998C458.603 144.999 458.636 145 458.674 145.002C458.838 145.009 459.051 145.019 459.261 145.04C459.334 145.048 459.384 145.046 459.416 145.043C459.418 145.042 459.419 145.042 459.42 145.042C459.421 145.04 459.422 145.038 459.423 145.036ZM469.444 136.943C469.444 136.943 469.444 136.943 469.443 136.944L469.444 136.943ZM469.401 136.956C469.401 136.956 469.402 136.956 469.403 136.956L469.401 136.956Z" fill="#BFE7F3" stroke="#012A5D" stroke-width="2.21405"/>
<path d="M587.765 83.9639L591.835 85.0545L595.905 86.1452L590.704 105.558L587.741 100.333L582.563 103.377L587.765 83.9639Z" fill="#F1F1F1" stroke="#012A5D" stroke-width="2.21405" stroke-linejoin="round"/>
<path d="M599.805 83.9639L595.734 85.0545L591.664 86.1452L596.865 105.558L599.828 100.333L605.006 103.377L599.805 83.9639Z" fill="#F1F1F1" stroke="#012A5D" stroke-width="2.21405" stroke-linejoin="round"/>
<circle cx="593.818" cy="79.607" r="14.5063" fill="#BFE7F3" stroke="#012A5D" stroke-width="2.21405" stroke-linejoin="round"/>
<path d="M593.818 70.8926L596.511 76.5102L602.532 77.4111L598.175 81.7839L599.204 87.9583L593.818 85.0431L588.432 87.9583L589.461 81.7839L585.104 77.4111L591.125 76.5102L593.818 70.8926Z" fill="white" stroke="#012A5D" stroke-width="2.21405" stroke-linecap="round" stroke-linejoin="round"/>
<path fill-rule="evenodd" clip-rule="evenodd" d="M291.255 283.537C291.887 283.803 292.459 284.192 292.938 284.681C293.774 285.526 294.695 289.111 295.663 292.876C296.79 297.259 297.979 301.885 299.168 302.719C299.914 303.235 300.67 303.738 301.434 304.228H312.493C315.244 304.228 317.474 306.459 317.474 309.21V312.52C317.474 315.271 315.244 317.502 312.493 317.502H245.124C242.373 317.502 240.143 315.271 240.143 312.52V309.21C240.143 306.459 242.373 304.228 245.124 304.228H256.428C257.191 303.739 257.946 303.236 258.692 302.719C259.874 301.892 261.062 297.273 262.189 292.892C263.16 289.121 264.085 285.527 264.921 284.681C265.401 284.192 265.973 283.803 266.604 283.537C267.236 283.271 267.914 283.133 268.599 283.131H289.261C289.946 283.133 290.624 283.271 291.255 283.537Z" fill="#F1F1F1"/>
<path d="M292.938 284.681L291.95 285.65L291.954 285.654L292.938 284.681ZM291.255 283.537L291.792 282.261V282.261L291.255 283.537ZM295.663 292.876L297.003 292.532V292.532L295.663 292.876ZM299.168 302.719L298.374 303.852L298.381 303.857L299.168 302.719ZM301.434 304.228L300.687 305.393L301.028 305.612H301.434V304.228ZM256.428 304.228V305.612H256.833L257.174 305.394L256.428 304.228ZM258.692 302.719L259.48 303.856L259.485 303.853L258.692 302.719ZM262.189 292.892L263.53 293.237L262.189 292.892ZM264.921 284.681L265.905 285.654L265.909 285.65L264.921 284.681ZM266.604 283.537L266.067 282.261L266.067 282.261L266.604 283.537ZM268.599 283.131V281.748L268.596 281.748L268.599 283.131ZM289.261 283.131L289.264 281.748H289.261V283.131ZM293.927 283.712C293.318 283.092 292.593 282.599 291.792 282.261L290.718 284.812C291.18 285.007 291.599 285.291 291.95 285.65L293.927 283.712ZM297.003 292.532C296.522 290.66 296.041 288.786 295.573 287.274C295.339 286.519 295.099 285.823 294.853 285.246C294.627 284.714 294.329 284.119 293.922 283.708L291.954 285.654C291.943 285.642 291.98 285.679 292.056 285.811C292.127 285.935 292.212 286.106 292.308 286.331C292.5 286.782 292.707 287.376 292.929 288.093C293.373 289.526 293.836 291.328 294.323 293.221L297.003 292.532ZM299.962 301.586C299.984 301.601 299.814 301.453 299.525 300.848C299.267 300.309 298.994 299.582 298.708 298.701C298.138 296.942 297.57 294.736 297.003 292.532L294.323 293.221C294.883 295.399 295.473 297.697 296.076 299.555C296.377 300.484 296.694 301.343 297.029 302.043C297.332 302.677 297.757 303.42 298.374 303.852L299.962 301.586ZM302.181 303.063C301.43 302.582 300.688 302.088 299.955 301.581L298.381 303.857C299.14 304.382 299.909 304.895 300.687 305.393L302.181 303.063ZM301.434 305.612H312.493V302.845H301.434V305.612ZM312.493 305.612C314.48 305.612 316.091 307.223 316.091 309.21H318.858C318.858 305.694 316.008 302.845 312.493 302.845V305.612ZM316.091 309.21V312.52H318.858V309.21H316.091ZM316.091 312.52C316.091 314.507 314.48 316.118 312.493 316.118V318.886C316.008 318.886 318.858 316.036 318.858 312.52H316.091ZM312.493 316.118H245.124V318.886H312.493V316.118ZM245.124 316.118C243.137 316.118 241.526 314.507 241.526 312.52H238.759C238.759 316.036 241.609 318.886 245.124 318.886V316.118ZM241.526 312.52V309.21H238.759V312.52H241.526ZM241.526 309.21C241.526 307.223 243.137 305.612 245.124 305.612V302.845C241.609 302.845 238.759 305.694 238.759 309.21H241.526ZM245.124 305.612H256.428V302.845H245.124V305.612ZM257.903 301.582C257.171 302.089 256.431 302.583 255.681 303.063L257.174 305.394C257.952 304.895 258.721 304.382 259.48 303.856L257.903 301.582ZM260.849 292.548C260.283 294.751 259.715 296.955 259.145 298.711C258.86 299.59 258.587 300.316 258.33 300.854C258.041 301.457 257.873 301.602 257.898 301.585L259.485 303.853C260.101 303.422 260.525 302.679 260.827 302.047C261.16 301.349 261.477 300.492 261.778 299.565C262.379 297.71 262.969 295.415 263.53 293.237L260.849 292.548ZM263.937 283.708C263.53 284.12 263.232 284.715 263.005 285.248C262.759 285.826 262.518 286.523 262.284 287.28C261.815 288.795 261.332 290.673 260.849 292.548L263.53 293.237C264.017 291.341 264.482 289.536 264.927 288.099C265.15 287.381 265.358 286.785 265.551 286.333C265.647 286.108 265.732 285.936 265.803 285.811C265.879 285.679 265.917 285.642 265.905 285.654L263.937 283.708ZM266.067 282.261C265.266 282.599 264.541 283.092 263.933 283.712L265.909 285.65C266.26 285.291 266.679 285.007 267.142 284.812L266.067 282.261ZM268.596 281.748C267.727 281.749 266.867 281.924 266.067 282.261L267.142 284.812C267.604 284.617 268.1 284.516 268.602 284.515L268.596 281.748ZM289.261 281.748H268.599V284.515H289.261V281.748ZM291.792 282.261C290.992 281.924 290.132 281.749 289.264 281.748L289.258 284.515C289.759 284.516 290.256 284.617 290.718 284.812L291.792 282.261Z" fill="#012A5D"/>
<circle r="7.74816" transform="matrix(-1 0 0 1 278.93 250.377)" fill="#BFE7F3"/>
<path d="M354.547 221.007C350.932 217.391 346.028 215.36 340.915 215.36H216.945C211.832 215.36 206.929 217.391 203.313 221.007C199.698 224.622 197.667 229.525 197.667 234.638V265.631C197.667 270.744 199.698 275.647 203.313 279.263C206.929 282.878 211.832 284.909 216.945 284.909H340.915C346.028 284.909 350.932 282.878 354.547 279.263C358.162 275.647 360.193 270.744 360.193 265.631V234.638C360.193 229.525 358.162 224.622 354.547 221.007ZM263.342 234.546C267.476 230.412 273.083 228.089 278.93 228.089C284.777 228.089 290.384 230.412 294.519 234.546C298.653 238.68 300.976 244.288 300.976 250.135C300.976 255.981 298.653 261.589 294.519 265.723C290.384 269.858 284.777 272.18 278.93 272.18C273.083 272.18 267.476 269.858 263.342 265.723C259.207 261.589 256.885 255.981 256.885 250.135C256.885 244.288 259.207 238.68 263.342 234.546ZM237.072 254.766C235.844 255.994 234.178 256.684 232.441 256.684C230.704 256.684 229.038 255.994 227.81 254.766C226.582 253.537 225.892 251.872 225.892 250.135C225.892 248.398 226.582 246.732 227.81 245.504C229.038 244.275 230.704 243.585 232.441 243.585C234.178 243.585 235.844 244.275 237.072 245.504C238.3 246.732 238.99 248.398 238.99 250.135C238.99 251.872 238.3 253.537 237.072 254.766Z" fill="#7FCFE7" stroke="#012A5D" stroke-width="2.76756"/>
<circle cx="278.809" cy="249.981" r="6.69568" fill="#F1F1F1" stroke="#012A5D" stroke-width="2.76756"/>
<path d="M341.889 240.174C358.684 240.174 372.3 226.559 372.3 209.763C372.3 192.968 358.684 179.352 341.889 179.352C325.093 179.352 311.478 192.968 311.478 209.763C311.478 226.559 325.093 240.174 341.889 240.174Z" fill="#BFE7F3" stroke="#012A5D" stroke-width="2.76756" stroke-linejoin="round"/>
<path d="M335.386 238.655C335.386 238.655 325.657 225.081 325.657 209.503C325.657 193.925 335.386 180.875 335.386 180.875" fill="#BFE7F3"/>
<path d="M335.386 238.655C335.386 238.655 325.657 225.081 325.657 209.503C325.657 193.925 335.386 180.875 335.386 180.875" stroke="#012A5D" stroke-width="2.76756" stroke-linejoin="round"/>
<path d="M358.119 209.241C358.119 193.663 348.39 180.612 348.39 180.612L358.119 209.241Z" fill="#BFE7F3"/>
<path d="M358.119 209.241C358.119 193.663 348.39 180.612 348.39 180.612" stroke="#012A5D" stroke-width="2.76756" stroke-linejoin="round"/>
<path d="M348.39 238.391C348.39 238.391 358.119 224.817 358.119 209.24L348.39 238.391Z" fill="#BFE7F3"/>
<path d="M348.39 238.391C348.39 238.391 358.119 224.817 358.119 209.24" stroke="#012A5D" stroke-width="2.76756" stroke-linejoin="round"/>
<path d="M341.889 179.352V240.174" stroke="#012A5D" stroke-width="2.76756" stroke-linejoin="round"/>
<path d="M311.214 209.763H372.036" stroke="#012A5D" stroke-width="2.76756" stroke-linejoin="round"/>
<path d="M315.369 192.7H367.881" stroke="#012A5D" stroke-width="2.76756" stroke-linejoin="round"/>
<path d="M315.369 226.708H367.881" stroke="#012A5D" stroke-width="2.76756" stroke-linejoin="round"/>
<circle cx="153.662" cy="95.5434" r="36.8085" fill="#F1F1F1" stroke="#012A5D" stroke-width="2.76756"/>
<path d="M128.755 104.006V87.5885H139.928L154.745 76.7241V114.87L139.928 104.006H128.755Z" fill="#BFE7F3" stroke="#012A5D" stroke-width="2.76756" stroke-linejoin="round"/>
<path d="M164.139 105.728C164.139 105.728 170.313 101.906 170.313 96.2619L170.349 95.4671C170.349 89.8229 164.175 86.0015 164.175 86.0015" stroke="#012A5D" stroke-width="2.76756" stroke-linecap="round" stroke-linejoin="round"/>
<path d="M160.212 100.349C160.212 100.349 163.092 98.5667 163.092 95.934L163.109 95.5633C163.109 92.9306 160.229 91.1481 160.229 91.1481" stroke="#012A5D" stroke-width="2.76756" stroke-linecap="round" stroke-linejoin="round"/>
<path d="M166.307 113.563C166.307 113.563 177.395 106.7 177.395 96.5635L177.46 95.1362C177.46 84.9999 166.372 78.1369 166.372 78.1369" stroke="#012A5D" stroke-width="2.76756" stroke-linecap="round" stroke-linejoin="round"/>
<rect x="128.755" y="87.623" width="10.4797" height="16.3484" fill="#7FCFE7" stroke="#012A5D" stroke-width="2.76756" stroke-linejoin="round"/>
<path d="M522.301 48.8549V43.975H525.622L530.026 40.7456V52.0843L525.622 48.8549H522.301Z" fill="#BFE7F3" stroke="#012A5D" stroke-width="1.10702" stroke-linejoin="round"/>
<path d="M532.818 49.3669C532.818 49.3669 534.654 48.231 534.654 46.5533L534.664 46.317C534.664 44.6393 532.829 43.5034 532.829 43.5034" stroke="#012A5D" stroke-width="1.10702" stroke-linecap="round" stroke-linejoin="round"/>
<path d="M531.652 47.7682C531.652 47.7682 532.508 47.2383 532.508 46.4558L532.513 46.3456C532.513 45.5631 531.657 45.0332 531.657 45.0332" stroke="#012A5D" stroke-width="1.10702" stroke-linecap="round" stroke-linejoin="round"/>
<path d="M533.463 51.696C533.463 51.696 536.759 49.6561 536.759 46.6431L536.778 46.2189C536.778 43.2059 533.482 41.166 533.482 41.166" stroke="#012A5D" stroke-width="1.10702" stroke-linecap="round" stroke-linejoin="round"/>
<rect x="522.301" y="43.9854" width="3.11502" height="4.85944" fill="#7FCFE7" stroke="#012A5D" stroke-width="1.10702" stroke-linejoin="round"/>
<path fill-rule="evenodd" clip-rule="evenodd" d="M556.098 76.6319L547.631 73.3232L548.154 82.3987L550.92 80.3911L554.638 85.5134L556.899 83.8722L553.181 78.7498L556.098 76.6319Z" fill="#7FCFE7"/>
<path d="M547.631 73.3232L547.833 72.8076L547.029 72.4936L547.079 73.355L547.631 73.3232ZM556.098 76.6319L556.424 77.0798L557.243 76.4849L556.3 76.1163L556.098 76.6319ZM548.154 82.3987L547.601 82.4305L547.66 83.4415L548.479 82.8466L548.154 82.3987ZM550.92 80.3911L551.368 80.0659L551.042 79.618L550.594 79.9431L550.92 80.3911ZM554.638 85.5134L554.19 85.8386L554.515 86.2865L554.963 85.9614L554.638 85.5134ZM556.899 83.8722L557.224 84.3201L557.672 83.995L557.347 83.547L556.899 83.8722ZM553.181 78.7498L552.856 78.3019L552.408 78.627L552.733 79.075L553.181 78.7498ZM547.43 73.8387L555.897 77.1474L556.3 76.1163L547.833 72.8076L547.43 73.8387ZM548.707 82.3668L548.184 73.2913L547.079 73.355L547.601 82.4305L548.707 82.3668ZM550.594 79.9431L547.829 81.9507L548.479 82.8466L551.245 80.839L550.594 79.9431ZM555.086 85.1883L551.368 80.0659L550.472 80.7162L554.19 85.8386L555.086 85.1883ZM556.574 83.4242L554.313 85.0655L554.963 85.9614L557.224 84.3201L556.574 83.4242ZM552.733 79.075L556.451 84.1973L557.347 83.547L553.629 78.4247L552.733 79.075ZM555.773 76.1839L552.856 78.3019L553.506 79.1978L556.424 77.0798L555.773 76.1839Z" fill="#012A5D"/>
<line x1="0.553512" y1="-0.553512" x2="3.89688" y2="-0.553512" transform="matrix(-0.904102 -0.427317 -0.427317 0.904102 545.697 73.4307)" stroke="#012A5D" stroke-width="1.10702" stroke-linecap="round"/>
<line x1="0.553512" y1="-0.553512" x2="3.89688" y2="-0.553512" transform="matrix(-0.529436 -0.84835 -0.84835 0.529436 546.132 71.6455)" stroke="#012A5D" stroke-width="1.10702" stroke-linecap="round"/>
<line x1="0.553512" y1="-0.553512" x2="3.89688" y2="-0.553512" transform="matrix(-0.0819832 -0.996634 -0.996634 0.0819832 547.925 71.5586)" stroke="#012A5D" stroke-width="1.10702" stroke-linecap="round"/>
</svg>
