<svg width="146" height="122" viewBox="0 0 146 122" fill="none" xmlns="http://www.w3.org/2000/svg">
<path d="M98.1864 56.027C112.829 56.027 124.7 44.1565 124.7 29.5135C124.7 14.8705 112.829 3 98.1864 3C83.5434 3 71.6729 14.8705 71.6729 29.5135C71.6729 44.1565 83.5434 56.027 98.1864 56.027Z" fill="#7FCFE7" stroke="#1A2D58" stroke-width="4.45317" stroke-linecap="round" stroke-linejoin="round"/>
<path d="M96.8946 82.754C96.8946 82.754 113.951 80.7712 117.289 77.2961C123.104 71.2424 120.71 63.5071 132.34 63.5071C143.971 63.5071 143.287 73.2603 143.287 73.2603C141.576 136.824 20.4814 113.282 20.4814 113.282L21.5077 86.713C21.5077 86.713 48.1896 72.2513 70.0825 77.9687L87.5283 78.6414C87.5283 78.6414 97.1065 77.6324 97.1065 84.3588C97.1065 91.0851 95.054 93.4393 87.5283 93.4393H58.1098" fill="white"/>
<path d="M96.8946 82.754C96.8946 82.754 113.951 80.7712 117.289 77.2961C123.104 71.2424 120.71 63.5071 132.34 63.5071C143.971 63.5071 143.287 73.2603 143.287 73.2603C141.576 136.824 20.4814 113.282 20.4814 113.282L21.5077 86.713C21.5077 86.713 48.1896 72.2513 70.0825 77.9687L87.5283 78.6414C87.5283 78.6414 97.1065 77.6324 97.1065 84.3588C97.1065 91.0851 95.054 93.4393 87.5283 93.4393H58.1098" stroke="#1A2D58" stroke-width="4.45317" stroke-linecap="round" stroke-linejoin="round"/>
<path d="M57.443 40.188H33.0996V64.5314H57.443V40.188Z" fill="white" stroke="#1A2D58" stroke-width="4.45317" stroke-linecap="round" stroke-linejoin="round"/>
<path d="M38.123 52.4311L44.1436 58.4516L63.4875 39.1077" stroke="#1A2D58" stroke-width="4.45317" stroke-linecap="round" stroke-linejoin="round"/>
<path d="M108.257 35.7121L113.721 30.2484C115.056 28.913 115.807 27.1018 115.807 25.2133C115.807 23.3248 115.056 21.5136 113.721 20.1782C112.386 18.8428 110.574 18.0925 108.686 18.0925C106.797 18.0925 104.986 18.8428 103.651 20.1782L98.187 25.6418L92.7233 20.1782C91.3879 18.8428 89.5767 18.0925 87.6882 18.0925C85.7996 18.0925 83.9884 18.8428 82.653 20.1782C81.3176 21.5136 80.5674 23.3248 80.5674 25.2133C80.5674 27.1018 81.3176 28.913 82.653 30.2484L98.187 45.7824L108.257 35.7121Z" fill="white" stroke="#1A2D58" stroke-width="4.45317" stroke-linecap="round" stroke-linejoin="round"/>
<path d="M22.5064 79.6509H3V119H22.5064V79.6509Z" fill="#7FCFE7" stroke="#1A2D58" stroke-width="4.45317" stroke-linecap="round" stroke-linejoin="round"/>
</svg>
