<svg width="163" height="111" viewBox="0 0 163 111" fill="none" xmlns="http://www.w3.org/2000/svg">
<path d="M136.504 62.3476C147.646 62.3476 156.678 53.3155 156.678 42.1738C156.678 31.0321 147.646 22 136.504 22C125.362 22 116.33 31.0321 116.33 42.1738C116.33 53.3155 125.362 62.3476 136.504 62.3476Z" fill="#D6EEEB" stroke="#1A2D59" stroke-width="3" stroke-miterlimit="10"/>
<path d="M136.653 62.1766C114.012 62.1766 112 83.3437 112 83.3437V109.462H161V83.3436C161 83.3436 159.141 62.1765 136.5 62.1765" fill="#D6EEEB"/>
<path d="M136.653 62.1766C114.012 62.1766 112 83.3437 112 83.3437V109.462H161V83.3436C161 83.3436 159.141 62.1765 136.5 62.1765" stroke="#1A2D59" stroke-width="3" stroke-miterlimit="10"/>
<rect x="2" y="2" width="100" height="60" fill="#9EDDD5" stroke="#012A5D" stroke-width="3" stroke-linejoin="round"/>
<path d="M46.6407 43.3729L107.074 75.8995L102.359 83.5652L46.6407 43.3729Z" fill="#9EDDD5" stroke="#012A5D" stroke-width="3" stroke-linejoin="round"/>
<circle cx="17.5" cy="17.5" r="2.5" fill="#012A5D"/>
<circle cx="17.5" cy="31.5" r="2.5" fill="#012A5D"/>
<line x1="26.5" y1="16.5" x2="82.5" y2="16.5" stroke="black" stroke-linecap="round"/>
<line x1="26.5" y1="31.5" x2="82.5" y2="31.5" stroke="black" stroke-linecap="round"/>
</svg>
