<svg width="167" height="180" viewBox="0 0 167 180" fill="none" xmlns="http://www.w3.org/2000/svg">
<path d="M39.3695 58.8308C51.7026 58.8308 61.6981 49.1936 61.6981 37.3176C61.6981 25.4416 51.7026 15.8044 39.3695 15.8044C27.0364 15.8044 17.0508 25.4367 17.0508 37.3176C17.0508 49.1985 27.0364 58.8308 39.3695 58.8308Z" fill="#BFE7F3" stroke="#012A5D" stroke-width="3.34167" stroke-linecap="round" stroke-linejoin="round"/>
<path d="M2.0186 101.344C2.0186 101.344 -0.0472171 56.7858 39.3689 59.0295C78.785 61.2732 75.4465 101.344 75.4465 101.344H2.0186Z" fill="#BFE7F3" stroke="#012A5D" stroke-width="3.34167" stroke-linecap="round" stroke-linejoin="round"/>
<path d="M12.5803 26.894C10.4354 26.894 8.69824 28.6979 8.69824 30.9194V44.6289C8.69824 46.8529 10.428 48.6543 12.5803 48.6543C14.7326 48.6543 16.4624 46.8529 16.4624 44.6289V30.9194C16.4624 28.6979 14.7252 26.894 12.5803 26.894Z" fill="#7FCFE7" stroke="#012A5D" stroke-width="3.34167" stroke-linecap="round" stroke-linejoin="round"/>
<path d="M66.3225 26.894C64.1776 26.894 62.4404 28.6979 62.4404 30.9194V44.6289C62.4404 46.8529 64.1702 48.6543 66.3225 48.6543C68.4748 48.6543 70.2045 46.8529 70.2045 44.6289V30.9194C70.2045 28.6979 68.4674 26.894 66.3225 26.894Z" fill="#7FCFE7" stroke="#012A5D" stroke-width="3.34167" stroke-linecap="round" stroke-linejoin="round"/>
<path d="M12.5791 26.5186C12.5791 26.5186 13.869 2.0371 38.859 2.00004C63.4486 1.96544 66.3225 26.5186 66.3225 26.5186" stroke="#012A5D" stroke-width="3.34167" stroke-linecap="round" stroke-linejoin="round"/>
<path d="M61.401 38.7798C61.401 38.7798 57.2377 47.1063 45.3398 46.5507" stroke="#012A5D" stroke-width="4.17708" stroke-linecap="round" stroke-linejoin="round"/>
<path d="M44.3426 43.7708H38.1883C37.9294 43.7767 37.6739 43.8463 37.4365 43.9756C37.1991 44.1049 36.9844 44.2913 36.8047 44.5243C36.625 44.7572 36.4838 45.032 36.3892 45.3331C36.2946 45.6342 36.2484 45.9555 36.2533 46.2789C36.2484 46.6021 36.2946 46.9233 36.3893 47.2242C36.4839 47.525 36.6252 47.7996 36.8049 48.0322C36.9846 48.2648 37.1994 48.4509 37.4367 48.5798C37.6741 48.7086 37.9295 48.7778 38.1883 48.7833H44.3426C44.865 48.7712 45.3623 48.5007 45.7251 48.0311C46.0879 47.5615 46.2866 46.9313 46.2776 46.2789C46.2867 45.6261 46.088 44.9955 45.7253 44.5254C45.3625 44.0552 44.8653 43.7838 44.3426 43.7708Z" fill="#7FCFE7" stroke="#012A5D" stroke-width="4.17708" stroke-linecap="round" stroke-linejoin="round"/>
<path d="M164.906 115.616C164.906 150.231 137.03 178.273 102.667 178.273C68.304 178.273 40.4286 150.231 40.4286 115.616C40.4286 81.002 68.304 52.9601 102.667 52.9601C137.03 52.9601 164.906 81.002 164.906 115.616Z" fill="white" stroke="#012A5D" stroke-width="3.34167"/>
<path d="M137.824 89.8198H64.6562V145.954H137.824V89.8198Z" fill="#BFE7F3" stroke="#012A5D" stroke-width="3.34167" stroke-linecap="round" stroke-linejoin="round"/>
<path d="M64.6562 102.274L137.932 102.377" stroke="#012A5D" stroke-width="3.34167" stroke-linecap="round" stroke-linejoin="round"/>
<path d="M78.1724 80.5288H72.0098V94.1992H78.1724V80.5288Z" fill="#F1F1F1" stroke="#012A5D" stroke-width="3.34167" stroke-linecap="round" stroke-linejoin="round"/>
<path d="M95.5933 80.5288H89.4307V94.1992H95.5933V80.5288Z" fill="#F1F1F1" stroke="#012A5D" stroke-width="3.34167" stroke-linecap="round" stroke-linejoin="round"/>
<path d="M112.85 80.5288H106.688V94.1992H112.85V80.5288Z" fill="#F1F1F1" stroke="#012A5D" stroke-width="3.34167" stroke-linecap="round" stroke-linejoin="round"/>
<path d="M130.413 80.5288H124.25V94.1992H130.413V80.5288Z" fill="#F1F1F1" stroke="#012A5D" stroke-width="3.34167" stroke-linecap="round" stroke-linejoin="round"/>
<path d="M83.1268 108.409H69.5771V121.959H83.1268V108.409Z" fill="white" stroke="#012A5D" stroke-width="2.92396" stroke-linecap="round" stroke-linejoin="round"/>
<path d="M101.322 108.409H87.7725V121.959H101.322V108.409Z" fill="white" stroke="#012A5D" stroke-width="2.92396" stroke-linecap="round" stroke-linejoin="round"/>
<path d="M119.517 108.409H105.968V121.959H119.517V108.409Z" fill="white" stroke="#012A5D" stroke-width="2.92396" stroke-linecap="round" stroke-linejoin="round"/>
<path d="M119.517 125.83H105.968V139.379H119.517V125.83Z" fill="white" stroke="#012A5D" stroke-width="2.92396" stroke-linecap="round" stroke-linejoin="round"/>
<path d="M101.322 125.83H87.7725V139.379H101.322V125.83Z" fill="white" stroke="#012A5D" stroke-width="2.92396" stroke-linecap="round" stroke-linejoin="round"/>
<path d="M83.1268 125.83H69.5771V139.379H83.1268V125.83Z" fill="white" stroke="#012A5D" stroke-width="2.92396" stroke-linecap="round" stroke-linejoin="round"/>
<path d="M73.7617 115.65L75.1035 116.951L79.0731 113.157" stroke="#012A5D" stroke-width="3.34167" stroke-linecap="round"/>
<path d="M91.957 115.65L93.2989 116.951L97.2684 113.157" stroke="#012A5D" stroke-width="3.34167" stroke-linecap="round"/>
<path d="M110.152 115.65L111.494 116.951L115.464 113.157" stroke="#012A5D" stroke-width="3.34167" stroke-linecap="round"/>
<path d="M110.152 133.459L111.494 134.759L115.464 130.966" stroke="#012A5D" stroke-width="3.34167" stroke-linecap="round"/>
<path d="M91.957 133.459L93.2989 134.759L97.2684 130.966" stroke="#012A5D" stroke-width="3.34167" stroke-linecap="round"/>
<path d="M73.7617 133.459L75.1035 134.759L79.0731 130.966" stroke="#012A5D" stroke-width="3.34167" stroke-linecap="round"/>
<path d="M127.998 119.315C128.021 116.991 128.882 114.753 130.423 113.013C131.964 111.273 134.081 110.148 136.385 109.845C141.701 109.205 146.348 112.669 147.256 117.933C147.564 119.714 147.165 121.379 146.502 123.01C145.429 125.655 143.988 128.102 142.464 130.504C141.042 132.742 139.52 134.913 137.935 137.04C137.758 137.273 137.653 137.383 137.419 137.068C134.679 133.361 132.069 129.57 129.95 125.459C129.093 123.792 128.315 122.088 128.021 120.214C128.005 120.137 127.994 120.059 127.986 119.98C127.996 119.752 127.998 119.535 127.998 119.315ZM137.707 114.77C136.782 114.764 135.876 115.031 135.103 115.539C134.33 116.047 133.724 116.772 133.363 117.623C133.001 118.474 132.899 119.413 133.07 120.322C133.241 121.231 133.678 122.069 134.324 122.73C134.97 123.391 135.798 123.846 136.703 124.038C137.608 124.23 138.549 124.15 139.408 123.808C140.267 123.465 141.006 122.877 141.531 122.115C142.056 121.354 142.344 120.455 142.359 119.53C142.371 118.911 142.26 118.295 142.031 117.719C141.803 117.143 141.463 116.618 141.03 116.175C140.597 115.732 140.08 115.38 139.509 115.139C138.939 114.898 138.326 114.772 137.707 114.77Z" fill="#7FCFE7"/>
<path d="M137.707 114.77C136.782 114.764 135.876 115.031 135.103 115.539C134.33 116.047 133.724 116.772 133.363 117.623C133.001 118.474 132.899 119.413 133.07 120.322C133.241 121.231 133.678 122.069 134.324 122.73C134.97 123.391 135.798 123.846 136.703 124.038C137.608 124.23 138.549 124.15 139.408 123.808C140.267 123.465 141.006 122.877 141.531 122.115C142.056 121.354 142.344 120.455 142.359 119.53C142.371 118.911 142.26 118.295 142.031 117.719C141.803 117.143 141.463 116.618 141.03 116.175C140.597 115.732 140.08 115.38 139.509 115.139C138.939 114.898 138.326 114.772 137.707 114.77Z" fill="white"/>
<path d="M127.998 119.315L126.327 119.299C126.327 119.304 126.327 119.31 126.327 119.315H127.998ZM136.385 109.845L136.186 108.186C136.179 108.187 136.173 108.187 136.167 108.188L136.385 109.845ZM147.256 117.933L145.61 118.217L145.61 118.218L147.256 117.933ZM146.502 123.01L144.954 122.381L144.954 122.382L146.502 123.01ZM142.464 130.504L143.874 131.399L143.875 131.399L142.464 130.504ZM137.935 137.04L139.266 138.051C139.269 138.047 139.272 138.042 139.275 138.038L137.935 137.04ZM137.419 137.068L136.076 138.061L136.077 138.062L137.419 137.068ZM129.95 125.459L128.463 126.223L128.464 126.225L129.95 125.459ZM128.021 120.214L129.672 119.955C129.668 119.929 129.663 119.903 129.658 119.877L128.021 120.214ZM127.986 119.98L126.317 119.912C126.314 119.988 126.316 120.063 126.323 120.138L127.986 119.98ZM137.707 114.77L137.695 116.441L137.701 116.441L137.707 114.77ZM142.359 119.53L140.688 119.497L140.688 119.503L142.359 119.53ZM129.669 119.332C129.688 117.41 130.4 115.56 131.674 114.121L129.172 111.906C127.364 113.947 126.354 116.572 126.327 119.299L129.669 119.332ZM131.674 114.121C132.948 112.683 134.698 111.752 136.604 111.501L136.167 108.188C133.464 108.544 130.98 109.864 129.172 111.906L131.674 114.121ZM136.585 111.504C141.017 110.97 144.853 113.83 145.61 118.217L148.903 117.649C147.843 111.508 142.384 107.44 136.186 108.186L136.585 111.504ZM145.61 118.218C145.843 119.565 145.56 120.891 144.954 122.381L148.05 123.639C148.771 121.866 149.286 119.864 148.903 117.648L145.61 118.218ZM144.954 122.382C143.938 124.885 142.563 127.229 141.053 129.608L143.875 131.399C145.414 128.974 146.919 126.426 148.05 123.639L144.954 122.382ZM141.053 129.608C139.659 131.804 138.162 133.94 136.596 136.041L139.275 138.038C140.879 135.886 142.426 133.68 143.874 131.399L141.053 129.608ZM136.605 136.029C136.555 136.095 136.58 136.056 136.635 136.002C136.68 135.957 136.918 135.721 137.337 135.628C137.844 135.516 138.264 135.681 138.502 135.84C138.606 135.91 138.675 135.976 138.708 136.011C138.743 136.048 138.761 136.072 138.762 136.073L136.077 138.062C136.179 138.201 136.365 138.431 136.645 138.618C136.974 138.838 137.475 139.02 138.06 138.891C138.557 138.781 138.868 138.493 138.99 138.372C139.122 138.241 139.227 138.102 139.266 138.051L136.605 136.029ZM138.763 136.074C136.04 132.392 133.493 128.685 131.435 124.693L128.464 126.225C130.645 130.455 133.317 134.33 136.076 138.061L138.763 136.074ZM131.436 124.695C130.592 123.055 129.922 121.55 129.672 119.955L126.371 120.473C126.709 122.626 127.593 124.53 128.463 126.223L131.436 124.695ZM129.658 119.877C129.654 119.859 129.651 119.841 129.65 119.823L126.323 120.138C126.336 120.277 126.357 120.415 126.385 120.551L129.658 119.877ZM129.656 120.049C129.666 119.788 129.669 119.546 129.669 119.315H126.327C126.327 119.523 126.325 119.715 126.317 119.912L129.656 120.049ZM137.718 113.099C136.463 113.091 135.234 113.454 134.186 114.142L136.02 116.936C136.517 116.609 137.1 116.437 137.695 116.441L137.718 113.099ZM134.186 114.142C133.137 114.831 132.316 115.815 131.825 116.969L134.9 118.276C135.133 117.729 135.523 117.262 136.02 116.936L134.186 114.142ZM131.825 116.969C131.334 118.124 131.196 119.398 131.428 120.631L134.712 120.013C134.602 119.428 134.668 118.824 134.9 118.276L131.825 116.969ZM131.428 120.631C131.66 121.864 132.252 123.001 133.129 123.898L135.519 121.562C135.103 121.136 134.822 120.597 134.712 120.013L131.428 120.631ZM133.129 123.898C134.006 124.795 135.129 125.413 136.356 125.673L137.049 122.404C136.467 122.28 135.935 121.987 135.519 121.562L133.129 123.898ZM136.356 125.673C137.584 125.933 138.861 125.824 140.026 125.36L138.79 122.255C138.237 122.475 137.631 122.527 137.049 122.404L136.356 125.673ZM140.026 125.36C141.192 124.896 142.194 124.097 142.906 123.064L140.156 121.167C139.818 121.656 139.342 122.035 138.79 122.255L140.026 125.36ZM142.906 123.064C143.619 122.031 144.009 120.811 144.029 119.557L140.688 119.503C140.679 120.098 140.493 120.677 140.156 121.167L142.906 123.064ZM144.029 119.562C144.046 118.721 143.895 117.886 143.585 117.104L140.478 118.335C140.625 118.704 140.696 119.1 140.688 119.497L144.029 119.562ZM143.585 117.104C143.275 116.322 142.813 115.609 142.225 115.008L139.835 117.343C140.113 117.628 140.332 117.965 140.478 118.335L143.585 117.104ZM142.225 115.008C141.637 114.406 140.935 113.927 140.16 113.6L138.859 116.678C139.225 116.833 139.557 117.059 139.835 117.343L142.225 115.008ZM140.16 113.6C139.385 113.272 138.553 113.102 137.712 113.099L137.701 116.441C138.099 116.442 138.492 116.523 138.859 116.678L140.16 113.6Z" fill="#012A5D"/>
</svg>
