<svg width="195" height="173" viewBox="0 0 195 173" fill="none" xmlns="http://www.w3.org/2000/svg">
<path d="M93.7566 45.1125H38.6191V80.2001H93.7566V45.1125Z" fill="#90CCE2" stroke="#012A5D" stroke-width="3.34167" stroke-linejoin="round"/>
<path d="M40.29 81.0354L53.6567 62.6562" stroke="#012A5D" stroke-width="4.04201" stroke-linecap="round" stroke-linejoin="round"/>
<path d="M10.2148 100.25C10.6475 96.7933 12.2012 93.5804 14.6315 91.1168C17.0618 88.6532 20.2308 87.0785 23.6402 86.6404C28.3063 86.1473 32.7544 84.3856 36.5146 81.5412C36.5146 81.5412 41.1253 79.3342 41.1253 84.1405C41.1253 90.2203 34.4652 94.3538 34.4652 94.3538L37.3667 100.243L10.2148 100.25Z" fill="#90CCE2" stroke="#012A5D" stroke-width="3.34167" stroke-linecap="round" stroke-linejoin="round"/>
<path d="M23.5812 82.7062C25.0683 82.7062 26.522 82.2652 27.7584 81.4391C28.9949 80.6129 29.9586 79.4386 30.5277 78.0648C31.0967 76.6909 31.2456 75.1791 30.9555 73.7206C30.6654 72.2621 29.9493 70.9224 28.8978 69.8709C27.8463 68.8194 26.5066 68.1033 25.0481 67.8132C23.5896 67.5231 22.0778 67.672 20.7039 68.241C19.3301 68.8101 18.1558 69.7738 17.3296 71.0103C16.5035 72.2467 16.0625 73.7004 16.0625 75.1875C16.0625 77.1815 16.8547 79.094 18.2647 80.504C19.6747 81.914 21.5872 82.7062 23.5812 82.7062Z" fill="#90CCE2" stroke="#012A5D" stroke-width="3.34167" stroke-linecap="round" stroke-linejoin="round"/>
<path d="M111.199 99.5601H2V110.143H111.199V99.5601Z" fill="#C7E4EF" stroke="#012A5D" stroke-width="3.34167" stroke-linecap="round" stroke-linejoin="round"/>
<path d="M99.973 109.995H13.0303V127.513H99.973V109.995Z" fill="#C7E4EF" stroke="#012A5D" stroke-width="3.34167" stroke-linecap="round" stroke-linejoin="round"/>
<circle cx="110.047" cy="119.047" r="52.2135" fill="white" stroke="#012A5D" stroke-width="3.34167"/>
<path d="M111.01 121.909C119.509 121.909 126.398 115.268 126.398 107.083C126.398 98.8991 119.509 92.2577 111.01 92.2577C102.51 92.2577 95.6289 98.8957 95.6289 107.083C95.6289 115.271 102.51 121.909 111.01 121.909Z" fill="#BFE7F3" stroke="#012A5D" stroke-width="3.34167" stroke-linecap="round" stroke-linejoin="round"/>
<path d="M85.2697 151.208C85.2697 151.208 83.846 120.5 111.01 122.046C138.173 123.593 135.872 151.208 135.872 151.208H85.2697Z" fill="#BFE7F3" stroke="#012A5D" stroke-width="3.34167" stroke-linecap="round" stroke-linejoin="round"/>
<path d="M92.5484 99.9004C91.0702 99.9004 89.873 101.144 89.873 102.674V112.122C89.873 113.655 91.0651 114.896 92.5484 114.896C94.0316 114.896 95.2237 113.655 95.2237 112.122V102.674C95.2237 101.144 94.0265 99.9004 92.5484 99.9004Z" fill="#7FCFE7" stroke="#012A5D" stroke-width="3.34167" stroke-linecap="round" stroke-linejoin="round"/>
<path d="M129.586 99.9004C128.108 99.9004 126.911 101.144 126.911 102.674V112.122C126.911 113.655 128.103 114.896 129.586 114.896C131.07 114.896 132.262 113.655 132.262 112.122V102.674C132.262 101.144 131.065 99.9004 129.586 99.9004Z" fill="#7FCFE7" stroke="#012A5D" stroke-width="3.34167" stroke-linecap="round" stroke-linejoin="round"/>
<path d="M92.5488 99.6416C92.5488 99.6416 93.4378 82.7702 110.66 82.7447C127.605 82.7208 129.586 99.6416 129.586 99.6416" stroke="#012A5D" stroke-width="3.34167" stroke-linecap="round" stroke-linejoin="round"/>
<path d="M193.171 72.2636C193.171 89.084 179.353 102.756 162.261 102.756C145.169 102.756 131.351 89.084 131.351 72.2636C131.351 55.4432 145.169 41.7709 162.261 41.7709C179.353 41.7709 193.171 55.4432 193.171 72.2636Z" fill="white" stroke="#012A5D" stroke-width="3.34167"/>
<path d="M162.54 73.4699C166.592 73.4699 169.877 70.3032 169.877 66.4009C169.877 62.4986 166.592 59.3319 162.54 59.3319C158.487 59.3319 155.206 62.497 155.206 66.4009C155.206 70.3048 158.487 73.4699 162.54 73.4699Z" fill="#BFE7F3" stroke="#012A5D" stroke-width="1.67083" stroke-linecap="round" stroke-linejoin="round"/>
<path d="M150.267 87.4392C150.267 87.4392 149.588 72.7979 162.54 73.5351C175.491 74.2724 174.394 87.4392 174.394 87.4392H150.267Z" fill="#BFE7F3" stroke="#012A5D" stroke-width="1.67083" stroke-linecap="round" stroke-linejoin="round"/>
<path d="M153.738 62.9763C153.033 62.9763 152.462 63.5691 152.462 64.299V68.8038C152.462 69.5346 153.03 70.1265 153.738 70.1265C154.445 70.1265 155.013 69.5346 155.013 68.8038V64.299C155.013 63.5691 154.442 62.9763 153.738 62.9763Z" fill="#7FCFE7" stroke="#012A5D" stroke-width="1.67083" stroke-linecap="round" stroke-linejoin="round"/>
<path d="M171.397 62.9763C170.692 62.9763 170.121 63.5691 170.121 64.299V68.8038C170.121 69.5346 170.689 70.1265 171.397 70.1265C172.104 70.1265 172.672 69.5346 172.672 68.8038V64.299C172.672 63.5691 172.101 62.9763 171.397 62.9763Z" fill="#7FCFE7" stroke="#012A5D" stroke-width="1.67083" stroke-linecap="round" stroke-linejoin="round"/>
<path d="M153.736 62.8528C153.736 62.8528 154.16 54.8085 162.372 54.7963C170.451 54.7849 171.396 62.8528 171.396 62.8528" stroke="#012A5D" stroke-width="1.67083" stroke-linecap="round" stroke-linejoin="round"/>
<path d="M140.54 25.8979C140.54 39.2531 129.531 50.125 115.895 50.125C102.258 50.125 91.2499 39.2531 91.2499 25.8979C91.2499 12.5428 102.258 1.67083 115.895 1.67083C129.531 1.67083 140.54 12.5428 140.54 25.8979Z" fill="white" stroke="#012A5D" stroke-width="3.34167"/>
<path d="M116.135 26.8756C119.616 26.8756 122.438 24.1555 122.438 20.8035C122.438 17.4515 119.616 14.7314 116.135 14.7314C112.654 14.7314 109.836 17.4501 109.836 20.8035C109.836 24.1569 112.654 26.8756 116.135 26.8756Z" fill="#BFE7F3" stroke="#012A5D" stroke-width="1.67083" stroke-linecap="round" stroke-linejoin="round"/>
<path d="M105.593 38.8749C105.593 38.8749 105.01 26.2983 116.135 26.9316C127.26 27.5649 126.318 38.8749 126.318 38.8749H105.593Z" fill="#BFE7F3" stroke="#012A5D" stroke-width="1.67083" stroke-linecap="round" stroke-linejoin="round"/>
<path d="M108.574 17.8617C107.969 17.8617 107.479 18.3708 107.479 18.9979V22.8673C107.479 23.4951 107.967 24.0035 108.574 24.0035C109.182 24.0035 109.67 23.4951 109.67 22.8673V18.9979C109.67 18.3708 109.18 17.8617 108.574 17.8617Z" fill="#7FCFE7" stroke="#012A5D" stroke-width="1.67083" stroke-linecap="round" stroke-linejoin="round"/>
<path d="M123.743 17.8617C123.138 17.8617 122.647 18.3708 122.647 18.9979V22.8673C122.647 23.4951 123.136 24.0035 123.743 24.0035C124.351 24.0035 124.839 23.4951 124.839 22.8673V18.9979C124.839 18.3708 124.349 17.8617 123.743 17.8617Z" fill="#7FCFE7" stroke="#012A5D" stroke-width="1.67083" stroke-linecap="round" stroke-linejoin="round"/>
<path d="M108.574 17.7554C108.574 17.7554 108.938 10.8456 115.992 10.8351C122.932 10.8253 123.743 17.7554 123.743 17.7554" stroke="#012A5D" stroke-width="1.67083" stroke-linecap="round" stroke-linejoin="round"/>
<circle cx="66.1881" cy="61.8209" r="8.35417" fill="#F1F1F1" stroke="#012A5D" stroke-width="3.34167"/>
</svg>
