<svg width="75" height="82" viewBox="0 0 75 82" fill="none" xmlns="http://www.w3.org/2000/svg">
<path fill-rule="evenodd" clip-rule="evenodd" d="M19.7363 12.2703C15.838 12.2703 12.6777 15.4305 12.6777 19.3288V63.6241C12.6777 67.5224 15.838 70.6827 19.7363 70.6827H47.2822L63.5271 79.902L60.1743 70.6827H66.8711C70.7694 70.6827 73.9296 67.5224 73.9296 63.6241V19.3288C73.9296 15.4305 70.7694 12.2703 66.871 12.2703H19.7363Z" fill="#BFE7F3"/>
<path d="M47.2822 70.6827L47.7406 69.8749L47.5274 69.7539H47.2822V70.6827ZM63.5271 79.902L63.0687 80.7097L65.2617 81.9543L64.3999 79.5845L63.5271 79.902ZM60.1743 70.6827V69.7539H58.8483L59.3015 71.0001L60.1743 70.6827ZM13.6065 19.3288C13.6065 15.9434 16.3509 13.199 19.7363 13.199V11.3415C15.325 11.3415 11.749 14.9176 11.749 19.3288H13.6065ZM13.6065 63.6241V19.3288H11.749V63.6241H13.6065ZM19.7363 69.7539C16.3509 69.7539 13.6065 67.0095 13.6065 63.6241H11.749C11.749 68.0354 15.325 71.6114 19.7363 71.6114V69.7539ZM47.2822 69.7539H19.7363V71.6114H47.2822V69.7539ZM46.8238 71.4904L63.0687 80.7097L63.9855 79.0942L47.7406 69.8749L46.8238 71.4904ZM64.3999 79.5845L61.0472 70.3652L59.3015 71.0001L62.6543 80.2194L64.3999 79.5845ZM66.8711 69.7539H60.1743V71.6114H66.8711V69.7539ZM73.0009 63.6241C73.0009 67.0095 70.2565 69.7539 66.8711 69.7539V71.6114C71.2823 71.6114 74.8584 68.0354 74.8584 63.6241H73.0009ZM73.0009 19.3288V63.6241H74.8584V19.3288H73.0009ZM66.871 13.199C70.2564 13.199 73.0009 15.9434 73.0009 19.3288H74.8584C74.8584 14.9176 71.2823 11.3415 66.871 11.3415V13.199ZM19.7363 13.199H66.871V11.3415H19.7363V13.199Z" fill="#012A5D"/>
<circle cx="15.7889" cy="16.189" r="14.8601" fill="#F1F1F1" stroke="#012A5D" stroke-width="1.85752"/>
<path d="M15.8505 15.3565C18.0242 15.3565 19.7858 13.6821 19.7858 11.6188C19.7858 9.55546 18.0242 7.8811 15.8505 7.8811C13.6769 7.8811 11.917 9.55461 11.917 11.6188C11.917 13.683 13.6769 15.3565 15.8505 15.3565Z" fill="#7FCFE7" stroke="#012A5D" stroke-width="1.85752" stroke-linecap="round" stroke-linejoin="round"/>
<path d="M9.48078 22.7531C9.48078 22.7531 9.12037 14.9793 15.9971 15.3707C22.8739 15.7622 22.2915 22.7531 22.2915 22.7531H9.48078Z" fill="#7FCFE7" stroke="#012A5D" stroke-width="1.85752" stroke-linecap="round" stroke-linejoin="round"/>
<line x1="59.998" y1="22.9385" x2="38.4508" y2="22.9385" stroke="#012A5D" stroke-width="1.85752" stroke-linecap="round"/>
<line x1="59.998" y1="28.8824" x2="38.4508" y2="28.8824" stroke="#012A5D" stroke-width="1.85752" stroke-linecap="round"/>
<line x1="59.998" y1="40.399" x2="25.8197" y2="40.399" stroke="#012A5D" stroke-width="1.85752" stroke-linecap="round"/>
<line x1="59.998" y1="45.9717" x2="25.8197" y2="45.9717" stroke="#012A5D" stroke-width="1.85752" stroke-linecap="round"/>
<line x1="59.998" y1="51.9158" x2="25.8197" y2="51.9158" stroke="#012A5D" stroke-width="1.85752" stroke-linecap="round"/>
<line x1="59.998" y1="57.4883" x2="25.8197" y2="57.4883" stroke="#012A5D" stroke-width="1.85752" stroke-linecap="round"/>
</svg>
