<svg width="124" height="124" viewBox="0 0 124 124" fill="none" xmlns="http://www.w3.org/2000/svg">
<path d="M29.1153 79.766L24.192 98.0565L45.8089 79.766H85.1762C92.5539 79.766 98.5348 73.4458 98.5348 65.6495V36.6529C98.5348 28.8566 92.5539 22.5364 85.1762 22.5364H29.1809C21.8031 22.5364 15.8223 28.8566 15.8223 36.6529V65.6495C15.8223 73.4458 21.8031 79.766 29.1809 79.766" fill="#90CCE1"/>
<path d="M29.1153 79.766L24.192 98.0565L45.8089 79.766H85.1762C92.5539 79.766 98.5348 73.4458 98.5348 65.6495V36.6529C98.5348 28.8566 92.5539 22.5364 85.1762 22.5364H29.1809C21.8031 22.5364 15.8223 28.8566 15.8223 36.6529V65.6495C15.8223 73.4458 21.8031 79.766 29.1809 79.766" stroke="#012A5D" stroke-width="1.71861" stroke-linecap="round" stroke-linejoin="round"/>
<path d="M103.734 94.5234L107.496 109.317L90.9813 94.5234H60.9066C55.2703 94.5234 50.7012 89.0001 50.7012 82.1867V56.846C50.7012 50.0326 55.2703 44.5093 60.9066 44.5093H103.684C109.321 44.5093 113.89 50.0326 113.89 56.846V82.1867C113.89 89.0001 109.321 94.5234 103.684 94.5234" fill="#C7E4EF"/>
<path d="M103.734 94.5234L107.496 109.317L90.9813 94.5234H60.9066C55.2703 94.5234 50.7012 89.0001 50.7012 82.1867V56.846C50.7012 50.0326 55.2703 44.5093 60.9066 44.5093H103.684C109.321 44.5093 113.89 50.0326 113.89 56.846V82.1867C113.89 89.0001 109.321 94.5234 103.684 94.5234" stroke="#012A5D" stroke-width="1.71861" stroke-linecap="round" stroke-linejoin="round"/>
<path d="M29.2506 79.547L24.3712 97.7532L45.7952 79.547H84.8111C92.123 79.547 98.0505 73.2559 98.0505 65.4955V36.6326C98.0505 28.8721 92.123 22.5811 84.8111 22.5811H29.3156C22.0037 22.5811 16.0762 28.8721 16.0762 36.6326V65.4955C16.0762 73.2559 22.0037 79.547 29.3156 79.547" stroke="#012A5D" stroke-width="1.71861" stroke-linecap="round" stroke-linejoin="round"/>
<path d="M70.082 64.9588C68.7178 64.1052 67.665 62.8346 67.0798 61.3354C66.4946 59.8363 66.4081 58.1885 66.8333 56.6363C67.2585 55.0842 68.1726 53.7104 69.44 52.7188C70.7075 51.7271 72.2609 51.1704 73.8697 51.1311C75.4785 51.0919 77.0571 51.5722 78.3715 52.5009C79.6858 53.4296 80.6658 54.7572 81.1661 56.2867C81.6664 57.8163 81.6604 59.4664 81.149 60.9923C80.6376 62.5182 79.648 63.8386 78.327 64.7577L78.2312 64.8234L78.3117 70.3581C78.3163 70.6743 78.2586 70.9883 78.1419 71.2822C78.0251 71.5761 77.8516 71.8441 77.6313 72.0709C77.411 72.2978 77.1482 72.479 76.8578 72.6042C76.5674 72.7295 76.2553 72.7963 75.9391 72.8009L72.616 72.8493C71.9775 72.8586 71.3613 72.6139 70.9032 72.1689C70.4451 71.7239 70.1825 71.1152 70.1732 70.4766L70.0927 64.9418" fill="white"/>
<path d="M70.082 64.9588C68.7178 64.1052 67.665 62.8346 67.0798 61.3354C66.4946 59.8363 66.4081 58.1885 66.8333 56.6363C67.2585 55.0842 68.1726 53.7104 69.44 52.7188C70.7075 51.7271 72.2609 51.1704 73.8697 51.1311C75.4785 51.0919 77.0572 51.5722 78.3715 52.5009C79.6858 53.4296 80.6658 54.7572 81.1661 56.2867C81.6664 57.8163 81.6604 59.4664 81.149 60.9923C80.6376 62.5182 79.648 63.8386 78.327 64.7577L78.2312 64.8234L78.3117 70.3581C78.3163 70.6743 78.2586 70.9883 78.1419 71.2822C78.0251 71.5761 77.8516 71.8441 77.6313 72.0709C77.411 72.2978 77.1482 72.479 76.8578 72.6042C76.5674 72.7295 76.2553 72.7963 75.9391 72.8009L72.616 72.8493C71.9775 72.8586 71.3613 72.6139 70.9032 72.1689C70.4451 71.7239 70.1825 71.1152 70.1732 70.4766L70.0927 64.9418" stroke="#012A5D" stroke-width="1.28896" stroke-linecap="round" stroke-linejoin="round"/>
<path d="M72.4316 70.0364L76.0019 69.9844" stroke="#012A5D" stroke-width="1.28896" stroke-linecap="round" stroke-linejoin="round"/>
<path d="M72.4111 68.0532L75.9814 68.0012" stroke="#012A5D" stroke-width="1.28896" stroke-linecap="round" stroke-linejoin="round"/>
</svg>
