<svg width="192" height="156" viewBox="0 0 192 156" fill="none" xmlns="http://www.w3.org/2000/svg">
<path d="M117.768 117.819C117.095 117.261 116.293 116.817 115.408 116.513C114.522 116.21 113.571 116.052 112.611 116.051H83.6384C82.6776 116.052 81.7269 116.21 80.8415 116.513C79.9561 116.817 79.1538 117.261 78.4813 117.819H117.768ZM117.768 117.819C118.941 118.785 120.237 122.886 121.598 127.19C123.178 132.188 124.845 137.459 126.503 138.403L117.768 117.819ZM83.6423 118.316C83.6416 118.316 83.641 118.316 83.6403 118.316C82.9223 118.318 82.2196 118.436 81.5763 118.656C80.9321 118.877 80.3752 119.191 79.9284 119.562L79.925 119.565M83.6423 118.316L79.921 119.568L79.925 119.565M83.6423 118.316H112.607C112.607 118.316 112.608 118.316 112.609 118.316C113.327 118.318 114.029 118.436 114.673 118.656C115.317 118.877 115.874 119.191 116.321 119.562L116.322 119.563C116.315 119.557 116.311 119.555 116.311 119.555C116.307 119.559 116.457 119.726 116.722 120.252C116.999 120.801 117.307 121.541 117.643 122.452C118.215 124.005 118.808 125.88 119.435 127.862C119.545 128.212 119.657 128.565 119.77 128.92C120.507 131.243 121.292 133.654 122.1 135.606C122.503 136.581 122.94 137.509 123.413 138.282C123.847 138.992 124.48 139.858 125.382 140.372L125.389 140.376C128.939 142.38 132.634 144.204 136.453 145.839L136.547 145.885L137.018 146.115H137.107C137.977 146.541 138.602 147.134 138.962 147.757C139.36 148.446 139.44 149.172 139.242 149.855C139.039 150.555 138.517 151.284 137.629 151.854C136.737 152.426 135.58 152.764 134.347 152.76H134.34H61.9091C60.6803 152.76 59.5289 152.42 58.6421 151.849L57.4157 153.754L58.6421 151.849C57.7582 151.28 57.2393 150.554 57.0364 149.856C56.8386 149.175 56.9173 148.452 57.3119 147.764C57.717 147.058 58.4619 146.391 59.5185 145.96L83.6423 118.316ZM79.925 119.565C79.9333 119.558 79.9377 119.554 79.9383 119.555C79.942 119.558 79.7927 119.726 79.5276 120.251C79.2509 120.799 78.9442 121.539 78.6088 122.45C78.0387 123.998 77.4485 125.867 76.8244 127.842C76.7124 128.197 76.5993 128.555 76.4849 128.915C75.7485 131.237 74.964 133.649 74.1553 135.601C73.7512 136.577 73.3138 137.505 72.8393 138.28C72.4034 138.991 71.7698 139.857 70.8686 140.371L70.8576 140.377C68.2779 141.83 65.6246 143.192 62.9051 144.46C61.8764 144.952 60.8282 145.415 59.7624 145.849L59.6872 145.885L59.6184 145.919L59.5474 145.948L59.5198 145.959L79.925 119.565ZM85.9038 78.3961C85.9038 76.0386 87.0512 73.6562 89.3112 71.817C91.584 69.9673 94.7496 68.8723 98.1245 68.8723C101.499 68.8723 104.665 69.9673 106.938 71.817C109.198 73.6562 110.345 76.0386 110.345 78.3961C110.345 80.7537 109.198 83.136 106.938 84.9753C104.665 86.8249 101.499 87.9199 98.1245 87.9199C94.7496 87.9199 91.584 86.8249 89.3112 84.9753C87.0512 83.136 85.9038 80.7537 85.9038 78.3961Z" fill="#C7E4EF" stroke="#012A5D" stroke-width="4.5308"/>
<path d="M9.0869 51.2373C13.1632 47.1609 18.692 44.8709 24.4568 44.8709H165.927C171.692 44.8709 177.221 47.1609 181.297 51.2373C185.373 55.3136 187.663 60.8424 187.663 66.6072V101.975C187.663 107.74 185.373 113.268 181.297 117.345C177.221 121.421 171.692 123.711 165.927 123.711H24.4568C18.692 123.711 13.1632 121.421 9.0869 117.345C5.01055 113.268 2.72048 107.74 2.72048 101.975V66.6072C2.72048 60.8424 5.01055 55.3136 9.0869 51.2373ZM113.167 66.316C108.4 61.5487 101.934 58.8705 95.1919 58.8705C88.45 58.8705 81.9842 61.5487 77.2169 66.316C72.4497 71.0833 69.7715 77.549 69.7715 84.291C69.7715 91.0329 72.4497 97.4987 77.2169 102.266C81.9842 107.033 88.45 109.711 95.1919 109.711C101.934 109.711 108.4 107.033 113.167 102.266C117.934 97.4987 120.612 91.0329 120.612 84.291C120.612 77.549 117.934 71.0833 113.167 66.316ZM142.773 89.7616C144.224 91.2125 146.191 92.0276 148.243 92.0276C150.295 92.0276 152.263 91.2125 153.714 89.7616C155.165 88.3107 155.98 86.3428 155.98 84.291C155.98 82.2391 155.165 80.2712 153.714 78.8203C152.263 77.3694 150.295 76.5543 148.243 76.5543C146.191 76.5543 144.224 77.3694 142.773 78.8203C141.322 80.2712 140.507 82.2391 140.507 84.291C140.507 86.3428 141.322 88.3107 142.773 89.7616Z" fill="#C6E6F1" stroke="#012A5D" stroke-width="3.68412"/>
<rect x="2.29759" y="44.4475" width="185.79" height="79.6869" rx="22.8965" fill="#C7E4EF" stroke="#012A5D" stroke-width="4.5308"/>
<circle cx="48.7717" cy="84.2908" r="24.4847" fill="white" stroke="#012A5D" stroke-width="4.75988"/>
<path d="M149.306 82.9485C171.576 82.9485 189.629 64.8952 189.629 42.6254C189.629 20.3555 171.576 2.30225 149.306 2.30225C127.036 2.30225 108.983 20.3555 108.983 42.6254C108.983 64.8952 127.036 82.9485 149.306 82.9485Z" fill="white" stroke="#012A5D" stroke-width="4.24232" stroke-linejoin="round"/>
<path d="M140.685 80.9337C140.685 80.9337 127.785 62.9356 127.785 42.2805C127.785 21.6255 140.685 4.3208 140.685 4.3208" fill="white"/>
<path d="M140.685 80.9337C140.685 80.9337 127.785 62.9356 127.785 42.2805C127.785 21.6255 140.685 4.3208 140.685 4.3208" stroke="#012A5D" stroke-width="4.24232" stroke-linejoin="round"/>
<path d="M170.828 41.9329C170.828 21.2778 157.927 3.97314 157.927 3.97314L170.828 41.9329Z" fill="white"/>
<path d="M170.828 41.9329C170.828 21.2778 157.927 3.97314 157.927 3.97314" stroke="#012A5D" stroke-width="4.24232" stroke-linejoin="round"/>
<path d="M157.927 80.5848C157.927 80.5848 170.828 62.5867 170.828 41.9316L157.927 80.5848Z" fill="white"/>
<path d="M157.927 80.5848C157.927 80.5848 170.828 62.5867 170.828 41.9316" stroke="#012A5D" stroke-width="4.24232" stroke-linejoin="round"/>
<path d="M149.306 2.30225V82.9485" stroke="#012A5D" stroke-width="4.24232" stroke-linejoin="round"/>
<path d="M108.633 42.6248H189.28" stroke="#012A5D" stroke-width="4.24232" stroke-linejoin="round"/>
<path d="M114.144 20.0007H183.771" stroke="#012A5D" stroke-width="4.24232" stroke-linejoin="round"/>
<path d="M114.144 65.0928H183.771" stroke="#012A5D" stroke-width="4.24232" stroke-linejoin="round"/>
<path d="M32.1903 80.1145C32.2663 81.3348 33.0232 83.1644 34.3114 83.0841C35.5995 83.0039 36.0844 81.401 36.0084 80.1807C35.8601 77.8014 37.4305 75.8357 38.978 74.1752C40.5255 72.5146 42.4385 71.1592 44.95 71.0027C46.2381 70.9224 47.9629 69.4563 47.8868 68.236C47.8108 67.0157 46.2381 66.883 44.9499 66.9633C41.1503 67.2 38.3525 69.1144 36.0084 71.6298C33.6721 74.1408 31.966 76.5148 32.1903 80.1145Z" fill="#E9E9E9"/>
<path d="M32.9658 81.9854C33.3106 82.5605 33.7648 82.9202 34.2991 82.8869C34.8481 82.8527 35.2399 82.4977 35.4936 81.9738C35.7486 81.4472 35.8475 80.7766 35.8112 80.1929C35.6571 77.72 37.2896 75.6971 38.8335 74.0405C40.3985 72.3611 42.3554 70.9664 44.9377 70.8055C45.5224 70.769 46.235 70.411 46.7971 69.9006C47.3641 69.3858 47.722 68.7684 47.6896 68.2483C47.6735 67.9893 47.58 67.7971 47.4355 67.649C47.2875 67.4972 47.0765 67.3823 46.8141 67.3005C46.286 67.136 45.6005 67.1207 44.9622 67.1605C41.2311 67.393 38.4773 69.2704 36.153 71.7644L32.9658 81.9854ZM32.9658 81.9854C32.6239 81.4153 32.4238 80.6841 32.3875 80.1022M32.9658 81.9854L32.3875 80.1022M32.3875 80.1022C32.1685 76.5876 33.8252 74.2663 36.1529 71.7645L32.3875 80.1022Z" stroke="#012A5D" stroke-opacity="0.3" stroke-width="0.395175"/>
</svg>
