<svg width="154" height="169" viewBox="0 0 154 169" fill="none" xmlns="http://www.w3.org/2000/svg">
<path d="M107.919 2.79541H9.92662C5.93153 2.79541 2.69287 6.03407 2.69287 10.0292V131.233C2.69287 135.228 5.93153 138.467 9.92662 138.467H107.919C111.914 138.467 115.153 135.228 115.153 131.233V10.0292C115.153 6.03407 111.914 2.79541 107.919 2.79541Z" fill="white" stroke="#012A5D" stroke-width="4.45444" stroke-linecap="round" stroke-linejoin="round"/>
<path d="M18.9575 24.7727H97.8124" stroke="#012A5D" stroke-width="4.45444" stroke-linecap="round" stroke-linejoin="round"/>
<path d="M18.9575 121.42H97.8124" stroke="#012A5D" stroke-width="4.45444" stroke-linecap="round" stroke-linejoin="round"/>
<path d="M18.9575 73.0964H97.8124" stroke="#012A5D" stroke-width="4.45444" stroke-linecap="round" stroke-linejoin="round"/>
<path d="M18.9575 48.9341H97.8124" stroke="#012A5D" stroke-width="4.45444" stroke-linecap="round" stroke-linejoin="round"/>
<path d="M18.9575 97.2578H97.8124" stroke="#012A5D" stroke-width="4.45444" stroke-linecap="round" stroke-linejoin="round"/>
<path d="M134.512 68.0775C134.318 67.8735 134.052 67.7543 133.771 67.7458C133.49 67.7374 133.217 67.8405 133.012 68.0326L53.5117 142.907C53.0477 143.394 52.7627 144.024 52.7033 144.694L52.1312 161.404C52.1257 161.542 52.1482 161.679 52.1974 161.807C52.2465 161.936 52.3213 162.053 52.4171 162.151C52.5129 162.25 52.6278 162.328 52.7547 162.381C52.8816 162.434 53.018 162.46 53.1554 162.458L69.3185 162.369C69.9926 162.33 70.6357 162.072 71.1512 161.636L150.652 86.762C150.856 86.5688 150.975 86.3026 150.983 86.0217C150.992 85.7408 150.889 85.468 150.697 85.2628L134.512 68.0775Z" fill="#D6EBF5"/>
<path d="M134.512 68.0775C134.318 67.8735 134.052 67.7543 133.771 67.7458C133.49 67.7374 133.217 67.8405 133.012 68.0326L53.5117 142.907C53.0477 143.394 52.7627 144.024 52.7033 144.694L52.1312 161.404C52.1257 161.542 52.1482 161.679 52.1974 161.807C52.2465 161.936 52.3213 162.053 52.4171 162.151C52.5129 162.25 52.6278 162.328 52.7547 162.381C52.8816 162.434 53.018 162.46 53.1554 162.458L69.3185 162.369C69.9926 162.33 70.6357 162.072 71.1512 161.636L150.652 86.762C150.856 86.5688 150.975 86.3026 150.983 86.0217C150.992 85.7408 150.889 85.468 150.697 85.2628L134.512 68.0775Z" stroke="#012A5D" stroke-width="4.45444" stroke-linecap="round" stroke-linejoin="round"/>
<path d="M52.7394 143.633L70.379 162.363L47.9604 165.806L52.7394 143.633Z" fill="white" stroke="#012A5D" stroke-width="4.45444" stroke-linecap="round" stroke-linejoin="round"/>
<path d="M56.4833 163.533L51.2886 158.018L50.3022 164.152L56.4833 163.533Z" fill="#012A5D" stroke="#012A5D" stroke-width="4.45444" stroke-linecap="round" stroke-linejoin="round"/>
<path d="M135.775 83.1011L61.375 153.171" stroke="#012A5D" stroke-width="4.45444" stroke-linejoin="round"/>
<path d="M133.784 67.3059L126.956 73.7373L144.595 92.4667L151.424 86.0354L133.784 67.3059Z" fill="white" stroke="#012A5D" stroke-width="4.45444" stroke-linecap="round" stroke-linejoin="round"/>
</svg>
