<svg width="161" height="177" viewBox="0 0 161 177" fill="none" xmlns="http://www.w3.org/2000/svg">
<path d="M152.074 2.4541H68.3035C64.8883 2.4541 62.1196 5.22272 62.1196 8.63799V112.251C62.1196 115.666 64.8883 118.435 68.3035 118.435H152.074C155.489 118.435 158.258 115.666 158.258 112.251V8.63799C158.258 5.22272 155.489 2.4541 152.074 2.4541Z" fill="white" stroke="#012A5D" stroke-width="4.24232" stroke-linecap="round" stroke-linejoin="round"/>
<path d="M73.998 21.9688H146.118" stroke="#012A5D" stroke-width="4.24232" stroke-linecap="round" stroke-linejoin="round"/>
<path d="M73.998 70.3313H146.118" stroke="#012A5D" stroke-width="4.24232" stroke-linecap="round" stroke-linejoin="round"/>
<path d="M73.998 45.7258H146.117" stroke="#012A5D" stroke-width="4.24232" stroke-linecap="round" stroke-linejoin="round"/>
<path d="M74.6742 138.691C74.8276 138.78 75.0101 138.805 75.1818 138.76C75.3535 138.715 75.5004 138.604 75.5906 138.451L110.443 78.9479C110.638 78.5703 110.699 78.1379 110.615 77.7214L107.99 67.4948C107.969 67.4106 107.931 67.3316 107.879 67.2625C107.826 67.1935 107.76 67.1359 107.684 67.0931C107.609 67.0504 107.525 67.0236 107.439 67.0141C107.353 67.0047 107.265 67.0129 107.182 67.0383L97.4051 69.9669C97.0037 70.1108 96.6598 70.381 96.4251 70.737L61.5723 130.24C61.483 130.394 61.4581 130.576 61.503 130.748C61.5478 130.92 61.6588 131.067 61.8117 131.157L74.6742 138.691Z" fill="#D6EBF5"/>
<path d="M74.6742 138.691C74.8276 138.78 75.0101 138.805 75.1818 138.76C75.3535 138.715 75.5004 138.604 75.5906 138.451L110.443 78.9479C110.638 78.5703 110.699 78.1379 110.615 77.7214L107.99 67.4948C107.969 67.4106 107.931 67.3316 107.879 67.2625C107.826 67.1935 107.76 67.1359 107.684 67.0932C107.609 67.0504 107.525 67.0236 107.439 67.0141C107.353 67.0047 107.265 67.0129 107.182 67.0383L97.4051 69.9669C97.0037 70.1108 96.6598 70.381 96.4251 70.737L61.5723 130.24C61.483 130.394 61.4581 130.576 61.503 130.748C61.5478 130.92 61.6588 131.067 61.8117 131.157L74.6742 138.691Z" stroke="#012A5D" stroke-width="3.39386" stroke-linecap="round" stroke-linejoin="round"/>
<path d="M110.782 78.3709L96.7637 70.1597L109.735 64.087L110.782 78.3709Z" fill="white" stroke="#012A5D" stroke-width="3.39386" stroke-linecap="round" stroke-linejoin="round"/>
<path d="M104.974 66.9792L109.103 69.3968L108.609 65.5047L104.974 66.9792Z" fill="#012A5D" stroke="#012A5D" stroke-width="3.39386" stroke-linecap="round" stroke-linejoin="round"/>
<path d="M71.2366 129.813L103.853 74.1273" stroke="#012A5D" stroke-width="3.39386" stroke-linejoin="round"/>
<path d="M75.2519 139.029L78.2456 133.918L64.2273 125.707L61.2335 130.818L75.2519 139.029Z" fill="white" stroke="#012A5D" stroke-width="3.39386" stroke-linecap="round" stroke-linejoin="round"/>
<path d="M32.1895 125.895C35.5866 125.895 38.9075 124.888 41.7321 123C44.5568 121.113 46.7583 118.43 48.0583 115.292C49.3584 112.153 49.6985 108.7 49.0358 105.368C48.373 102.036 46.7371 98.9755 44.335 96.5733C41.9328 94.1712 38.8723 92.5353 35.5404 91.8725C32.2086 91.2098 28.755 91.5499 25.6164 92.85C22.4778 94.15 19.7953 96.3515 17.9079 99.1762C16.0206 102.001 15.0132 105.322 15.0132 108.719C15.0132 113.274 16.8228 117.643 20.044 120.864C23.2652 124.085 27.6341 125.895 32.1895 125.895Z" fill="#7FCFE7" stroke="#012A5D" stroke-width="3.35046" stroke-linecap="round" stroke-linejoin="round"/>
<path d="M1.87842 174.393C2.85424 166.577 6.35837 143.147 11.8397 137.576C17.321 132.006 24.4685 128.445 32.1581 127.455C42.6821 126.34 52.7144 122.356 61.1952 115.925C61.1952 115.925 71.5941 110.935 71.5941 121.802C71.5941 135.549 56.5729 144.895 56.5729 144.895L63.1171 174.376L1.87842 174.393Z" fill="#7FCFE7" stroke="#012A5D" stroke-width="3.35046" stroke-linecap="round" stroke-linejoin="round"/>
</svg>
