<svg width="197" height="182" viewBox="0 0 197 182" fill="none" xmlns="http://www.w3.org/2000/svg">
<path d="M171.81 2.81778H41.6989C40.836 2.81778 40.0084 3.16712 39.3983 3.78896C38.7881 4.4108 38.4453 5.25419 38.4453 6.1336V94.3661C38.4453 95.2455 38.7881 96.0889 39.3983 96.7107C40.0084 97.3325 40.836 97.6819 41.6989 97.6819H171.841C172.704 97.6819 173.532 97.3325 174.142 96.7107C174.752 96.0889 175.095 95.2455 175.095 94.3661V6.1336C175.095 5.69549 175.01 5.26171 174.844 4.85734C174.679 4.45298 174.437 4.08604 174.131 3.77772C173.826 3.4694 173.463 3.22583 173.065 3.06106C172.667 2.89629 172.24 2.8136 171.81 2.81778Z" fill="white" stroke="#012A5D" stroke-width="4.45444" stroke-miterlimit="10"/>
<path d="M104.071 97.6819H171.833C173.902 97.7876 175.873 98.5834 177.419 99.9377L192.447 114.625C193.688 115.844 193.285 116.881 191.497 116.881H23.1813C21.3937 116.881 20.9654 115.869 22.2378 114.625L37.2588 99.9377C38.8054 98.5834 40.776 97.7876 42.8452 97.6819H104.071Z" fill="#F1F1F1" stroke="#012A5D" stroke-width="4.45444" stroke-miterlimit="10"/>
<path d="M193.274 114.622H23.6539C22.7838 114.624 21.95 114.985 21.3353 115.628C20.7207 116.27 20.3755 117.141 20.3755 118.049V119.107C20.3755 120.014 20.7209 120.884 21.3357 121.525C21.9505 122.167 22.7844 122.527 23.6539 122.527H193.274C194.143 122.527 194.977 122.167 195.592 121.525C196.207 120.884 196.552 120.014 196.552 119.107V118.049C196.552 117.141 196.207 116.27 195.592 115.628C194.978 114.985 194.144 114.624 193.274 114.622Z" fill="white"/>
<path d="M191.19 114.255H23.6144C22.7548 114.257 21.931 114.743 21.3238 115.606C20.7165 116.468 20.3755 117.637 20.3755 118.856V120.276C20.3755 121.494 20.7167 122.662 21.3241 123.523C21.9316 124.384 22.7554 124.868 23.6144 124.868H191.19C192.049 124.868 192.873 124.384 193.481 123.523C194.088 122.662 194.429 121.494 194.429 120.276V118.856C194.429 117.637 194.088 116.468 193.481 115.606C192.874 114.743 192.05 114.257 191.19 114.255Z" fill="white" stroke="#012A5D" stroke-width="4.45444" stroke-linejoin="round"/>
<path d="M166.06 15.2402H48.6089V85.2591H166.06V15.2402Z" fill="#C7E4EF" stroke="#012A5D" stroke-width="3.60597" stroke-linejoin="round"/>
<path d="M104.611 52.764C113.148 52.764 120.068 46.0934 120.068 37.8732C120.068 29.653 113.148 22.9824 104.611 22.9824C96.0743 22.9824 89.1558 29.653 89.1558 37.8732C89.1558 46.0934 96.0761 52.764 104.611 52.764Z" fill="white" stroke="#012A5D" stroke-width="3.19121" stroke-linecap="round" stroke-linejoin="round"/>
<path d="M79.8215 85.8385C79.8215 85.8385 78.3916 54.9965 105.674 56.5547C132.957 58.1128 130.646 85.8419 130.646 85.8419L79.8215 85.8385Z" fill="white" stroke="#012A5D" stroke-width="3.19121" stroke-linecap="round" stroke-linejoin="round"/>
<path d="M39.7732 136.692C52.5432 136.692 62.8927 126.855 62.8927 114.733C62.8927 102.611 52.5432 92.7747 39.7732 92.7747C27.0033 92.7747 16.6641 102.606 16.6641 114.733C16.6641 126.86 27.0033 136.692 39.7732 136.692Z" fill="#C7E4EF" stroke="#012A5D" stroke-width="2.66989" stroke-linecap="round" stroke-linejoin="round"/>
<path d="M2.35207 180.147C2.35207 180.147 0.234663 134.476 40.6351 136.776C81.0356 139.076 77.6138 180.147 77.6138 180.147H2.35207Z" fill="#C7E4EF" stroke="#012A5D" stroke-width="2.66989" stroke-linecap="round" stroke-linejoin="round"/>
<path d="M65.6091 122.21C65.6091 122.21 61.0703 131.288 48.0991 130.682" stroke="#012A5D" stroke-width="2.66989" stroke-linecap="round" stroke-linejoin="round"/>
<path d="M46.5029 128.351H40.9302C40.6958 128.356 40.4644 128.415 40.2495 128.526C40.0345 128.636 39.8401 128.795 39.6774 128.993C39.5147 129.192 39.3868 129.426 39.3011 129.683C39.2155 129.939 39.1736 130.213 39.1781 130.489C39.1736 130.764 39.2155 131.038 39.3012 131.294C39.3869 131.551 39.5148 131.785 39.6776 131.983C39.8403 132.181 40.0347 132.34 40.2497 132.449C40.4646 132.559 40.6959 132.618 40.9302 132.623H46.5029C46.976 132.613 47.4262 132.382 47.7548 131.982C48.0833 131.582 48.2632 131.045 48.2551 130.489C48.2632 129.932 48.0834 129.395 47.7549 128.994C47.4265 128.593 46.9762 128.362 46.5029 128.351Z" fill="#F1F1F1" stroke="#012A5D" stroke-width="2.66989" stroke-linecap="round" stroke-linejoin="round"/>
<path d="M12.2722 99.5977C10.1011 99.5977 8.34277 101.475 8.34277 103.788V118.059C8.34277 120.374 10.0936 122.25 12.2722 122.25C14.4508 122.25 16.2016 120.374 16.2016 118.059V103.788C16.2016 101.475 14.4433 99.5977 12.2722 99.5977Z" fill="#F1F1F1" stroke="#012A5D" stroke-width="2.66989" stroke-linecap="round" stroke-linejoin="round"/>
<path d="M67.2844 99.5977C65.1133 99.5977 63.355 101.475 63.355 103.788V118.059C63.355 120.374 65.1058 122.25 67.2844 122.25C69.463 122.25 71.2138 120.374 71.2138 118.059V103.788C71.2138 101.475 69.4555 99.5977 67.2844 99.5977Z" fill="#F1F1F1" stroke="#012A5D" stroke-width="2.66989" stroke-linecap="round" stroke-linejoin="round"/>
<path d="M12.041 99.1355C12.041 99.1355 13.3614 80.3304 38.9412 80.293C64.1113 80.2582 67.053 99.1355 67.053 99.1355" stroke="#012A5D" stroke-width="2.66989" stroke-linecap="round" stroke-linejoin="round"/>
</svg>
