<svg width="170" height="156" viewBox="0 0 170 156" fill="none" xmlns="http://www.w3.org/2000/svg">
<path d="M167.693 2.12207H8.07324V96.7471H167.693V2.12207Z" fill="white" stroke="#012A5D" stroke-width="4.03499" stroke-linejoin="round"/>
<path d="M28.2736 111.781C31.2543 111.781 34.1681 110.897 36.6465 109.241C39.1249 107.585 41.0566 105.231 42.1973 102.477C43.338 99.7236 43.6364 96.6934 43.0549 93.7699C42.4734 90.8464 41.038 88.161 38.9303 86.0533C36.8226 83.9456 34.1372 82.5103 31.2138 81.9288C28.2903 81.3472 25.26 81.6457 22.5062 82.7864C19.7523 83.9271 17.3986 85.8587 15.7425 88.3371C14.0865 90.8155 13.2026 93.7294 13.2026 96.7101C13.2026 100.707 14.7905 104.541 17.6168 107.367C20.4432 110.193 24.2765 111.781 28.2736 111.781Z" fill="#7FCFE7" stroke="#012A5D" stroke-width="2.93978" stroke-linecap="round" stroke-linejoin="round"/>
<path d="M1.67822 154.334C2.53443 147.476 5.60904 126.918 10.4185 122.03C15.2279 117.142 21.4994 114.018 28.2464 113.149C37.4804 112.171 46.283 108.676 53.7243 103.033C53.7243 103.033 62.8485 98.6539 62.8485 108.189C62.8485 120.251 49.6686 128.452 49.6686 128.452L55.4106 154.319L1.67822 154.334Z" fill="#7FCFE7" stroke="#012A5D" stroke-width="2.93978" stroke-linecap="round" stroke-linejoin="round"/>
<line x1="40.6311" y1="19.4375" x2="40.6311" y2="12.4138" stroke="#012A5D" stroke-width="3.52876" stroke-linecap="round"/>
<line x1="1.76438" y1="-1.76438" x2="8.86241" y2="-1.76438" transform="matrix(-0.549802 -0.835295 0.846908 -0.531739 38.0264 20.3252)" stroke="#012A5D" stroke-width="3.52876" stroke-linecap="round"/>
<line x1="1.76438" y1="-1.76438" x2="8.97769" y2="-1.76438" transform="matrix(-0.871061 -0.491175 0.508878 -0.860839 35.9771 24.0798)" stroke="#012A5D" stroke-width="3.52875" stroke-linecap="round"/>
<ellipse cx="68.084" cy="42.9464" rx="26.1148" ry="25.2621" stroke="#012A5D" stroke-width="3.52876" stroke-linecap="round" stroke-dasharray="7.06 7.06"/>
<ellipse cx="129.694" cy="54.1385" rx="14.603" ry="14.7096" stroke="#012A5D" stroke-width="3.52876" stroke-linecap="round" stroke-dasharray="7.06 7.06"/>
<ellipse cx="115.091" cy="19.2833" rx="8.10091" ry="8.63387" stroke="#012A5D" stroke-width="3.52876" stroke-linecap="round" stroke-dasharray="7.06 7.06"/>
<path d="M100.227 69.793C97.9122 69.793 96.0207 71.6666 96.0207 73.9594V72.3323C96.0207 70.0395 94.1292 68.1659 91.8146 68.1659C89.5 68.1659 87.6085 70.0395 87.6085 72.3323V70.434C87.6085 68.1412 85.717 66.2676 83.4024 66.2676C81.0879 66.2676 79.1964 68.1412 79.1964 70.434V58.3046C79.1964 56.0118 77.3049 54.1382 74.9903 54.1382C72.6757 54.1382 70.834 56.0118 70.834 58.3046V83.3029L68.395 79.8268C67.0759 77.9285 64.4627 77.4601 62.5463 78.7667C60.6299 80.0734 60.157 82.6619 61.4761 84.5602L73.2481 101.448C73.5219 101.842 73.8454 102.163 74.2188 102.434C77.28 106.428 82.1332 109.016 87.6085 109.016C96.8918 109.016 104.408 101.571 104.408 92.3753V87.3461V85.0533V73.9594C104.408 71.6666 102.541 69.793 100.227 69.793Z" fill="#BFE7F3" stroke="#012A5D" stroke-width="2.7999" stroke-miterlimit="10"/>
<path d="M79.2695 58.2927V81.5611H82.5751" stroke="#012A5D" stroke-width="2.41109" stroke-miterlimit="10"/>
<path d="M87.5659 68.0151V81.5613H90.8066" stroke="#012A5D" stroke-width="2.7999" stroke-miterlimit="10"/>
<path d="M95.8618 69.5054V81.5608H99.2322" stroke="#012A5D" stroke-width="2.7999" stroke-miterlimit="10"/>
</svg>
