<svg width="554" height="367" viewBox="0 0 554 367" fill="none" xmlns="http://www.w3.org/2000/svg">
<path d="M484.489 3.99217H69.6431C66.8919 3.99217 64.2533 5.0851 62.3079 7.03053C60.3625 8.97597 59.2695 11.6145 59.2695 14.3658V290.403C59.2695 293.154 60.3625 295.793 62.3079 297.738C64.2533 299.684 66.8919 300.777 69.6431 300.777H484.588C487.339 300.777 489.978 299.684 491.923 297.738C493.869 295.793 494.961 293.154 494.961 290.403V14.3658C494.962 12.9952 494.69 11.6381 494.163 10.373C493.635 9.10792 492.862 7.95996 491.888 6.99538C490.915 6.0308 489.759 5.26876 488.489 4.75328C487.219 4.23781 485.86 3.97912 484.489 3.99217V3.99217Z" stroke="#012A5D" stroke-width="6.02963" stroke-linejoin="round"/>
<path d="M266.701 300.778H482.413C489 301.121 495.273 303.7 500.196 308.089L548.034 355.689C551.985 359.641 550.701 363 545.01 363H9.19805C3.50738 363 2.14398 359.72 6.19463 355.689L54.0121 308.089C58.9355 303.7 65.2085 301.121 71.7955 300.778H266.701Z" stroke="#012A5D" stroke-width="6.02963" stroke-linejoin="round"/>
<path d="M464.353 38.7112H89.7959V266.061H464.353V38.7112Z" fill="#BFE7F3" stroke="#012A5D" stroke-width="3.61221" stroke-linejoin="round"/>
<path d="M421.157 71.7886H226.094V196.845H421.157V71.7886Z" fill="white" stroke="#012A5D" stroke-width="3.61221" stroke-linejoin="round"/>
<path d="M179.128 203.84C184.208 203.84 189.174 202.334 193.398 199.511C197.623 196.689 200.915 192.677 202.859 187.983C204.803 183.289 205.312 178.125 204.321 173.142C203.33 168.159 200.883 163.582 197.291 159.99C193.699 156.397 189.122 153.951 184.139 152.96C179.156 151.969 173.991 152.477 169.297 154.421C164.604 156.366 160.592 159.658 157.769 163.882C154.947 168.106 153.44 173.073 153.44 178.153C153.44 184.966 156.147 191.499 160.964 196.317C165.781 201.134 172.315 203.84 179.128 203.84Z" fill="white" stroke="#012A5D" stroke-width="3.61221" stroke-linecap="round" stroke-linejoin="round"/>
<path d="M132.87 266.081C134.382 254.134 139.823 243.029 148.336 234.513C156.849 225.996 167.951 220.551 179.897 219.034C196.245 217.348 211.832 211.271 225.008 201.448C225.008 201.448 241.171 193.821 241.171 210.419C241.171 231.443 217.835 245.729 217.835 245.729L228.011 266.081H132.87Z" fill="white" stroke="#012A5D" stroke-width="3.61221" stroke-linecap="round" stroke-linejoin="round"/>
<path d="M239.236 199.965L285.216 133.258" stroke="#012A5D" stroke-width="3.61221" stroke-linecap="round" stroke-linejoin="round"/>
</svg>
