<svg width="177" height="174" viewBox="0 0 177 174" fill="none" xmlns="http://www.w3.org/2000/svg">
<path d="M155.171 27.5952H21.2725V114.785H155.171V27.5952Z" fill="white" stroke="#012A5D" stroke-width="4.00164" stroke-linejoin="round"/>
<path d="M26.8181 142.98C28.8784 142.98 30.8924 142.369 32.6054 141.224C34.3184 140.08 35.6536 138.453 36.442 136.55C37.2304 134.646 37.4367 132.552 37.0347 130.531C36.6328 128.51 35.6407 126.654 34.1839 125.197C32.7271 123.741 30.871 122.749 28.8503 122.347C26.8297 121.945 24.7352 122.151 22.8318 122.939C20.9284 123.728 19.3015 125.063 18.1569 126.776C17.0123 128.489 16.4014 130.503 16.4014 132.563C16.4014 135.326 17.4988 137.975 19.4524 139.929C21.4059 141.883 24.0554 142.98 26.8181 142.98Z" fill="#7FCFE7" stroke="#012A5D" stroke-width="3.06376" stroke-linecap="round" stroke-linejoin="round"/>
<path d="M8.43555 172.392C9.02734 167.652 11.1525 153.442 14.4767 150.064C17.8009 146.686 22.1356 144.526 26.799 143.926C33.1814 143.25 39.2656 140.834 44.4089 136.933C44.4089 136.933 50.7154 133.907 50.7154 140.498C50.7154 148.835 41.6057 154.503 41.6057 154.503L45.5744 172.382L8.43555 172.392Z" fill="#7FCFE7" stroke="#012A5D" stroke-width="3.06376" stroke-linecap="round" stroke-linejoin="round"/>
<line x1="156.703" y1="127.391" x2="156.703" y2="138.289" stroke="#012A5D" stroke-width="3.06376" stroke-linecap="round"/>
<line x1="162.934" y1="127.479" x2="168.828" y2="136.646" stroke="#012A5D" stroke-width="3.06376" stroke-linecap="round"/>
<line x1="165.557" y1="121.49" x2="174.996" y2="126.939" stroke="#012A5D" stroke-width="3.06376" stroke-linecap="round"/>
<line x1="19.8856" y1="13.0382" x2="19.8856" y2="2.14001" stroke="#012A5D" stroke-width="3.06376" stroke-linecap="round"/>
<line x1="13.6545" y1="12.9502" x2="7.76125" y2="3.78287" stroke="#012A5D" stroke-width="3.06376" stroke-linecap="round"/>
<line x1="11.031" y1="18.9389" x2="1.59285" y2="13.4898" stroke="#012A5D" stroke-width="3.06376" stroke-linecap="round"/>
<path d="M116.641 40.6932C116.641 40.6932 123.36 64.2715 116.136 78.2396C110.614 89.3649 99.7289 94.8124 91.8225 90.4062C83.916 86 81.983 73.4132 87.5041 62.2986C94.7359 48.3278 116.416 40.5701 116.416 40.5701" fill="#C6E4F1"/>
<path d="M116.641 40.6932C116.641 40.6932 123.36 64.2715 116.136 78.2396C110.614 89.3649 99.7289 94.8124 91.8225 90.4062C83.916 86 81.983 73.4132 87.5041 62.2986C94.7359 48.3278 116.416 40.5701 116.416 40.5701" stroke="#012A5D" stroke-width="3.90001" stroke-linecap="round" stroke-linejoin="round"/>
<path d="M57.5834 66.2515C57.5834 66.2515 74.2899 69.1432 80.6043 78.6321C85.7081 86.0239 85.5862 95.3204 80.3366 99.3916C75.087 103.463 66.6966 100.773 61.5986 93.381C55.2872 83.889 57.4346 66.3681 57.4346 66.3681" fill="#C6E4F1"/>
<path d="M57.5834 66.2515C57.5834 66.2515 74.2899 69.1432 80.6043 78.6321C85.7081 86.0239 85.5862 95.3204 80.3366 99.3916C75.087 103.463 66.6966 100.773 61.5986 93.381C55.2872 83.889 57.4346 66.3681 57.4346 66.3681" stroke="#012A5D" stroke-width="3.90001" stroke-linecap="round" stroke-linejoin="round"/>
<path d="M53.9423 137.503L75.6694 92.7189" stroke="#012A5D" stroke-width="3.06234" stroke-linecap="round" stroke-linejoin="round"/>
</svg>
