<svg width="155" height="166" viewBox="0 0 155 166" fill="none" xmlns="http://www.w3.org/2000/svg">
<path d="M144.012 3H42.7054C38.5752 3 35.2271 6.34818 35.2271 10.4784V135.781C35.2271 139.911 38.5752 143.259 42.7054 143.259H144.012C148.142 143.259 151.49 139.911 151.49 135.781V10.4784C151.49 6.34818 148.142 3 144.012 3Z" fill="white" stroke="#012A5D" stroke-width="5.13037" stroke-linecap="round" stroke-linejoin="round"/>
<path d="M49.5923 26.5999H95.7656" stroke="#012A5D" stroke-width="5.13037" stroke-linecap="square" stroke-linejoin="round"/>
<path d="M49.5923 83.0339H101.922" stroke="#012A5D" stroke-width="5.13037" stroke-linecap="square" stroke-linejoin="round"/>
<path d="M49.5923 55.3298H100.896" stroke="#012A5D" stroke-width="5.13037" stroke-linecap="square" stroke-linejoin="round"/>
<path d="M118.845 51.2097C130.458 51.2097 139.872 41.7958 139.872 30.1831C139.872 18.5704 130.458 9.15649 118.845 9.15649C107.232 9.15649 97.8184 18.5704 97.8184 30.1831C97.8184 41.7958 107.232 51.2097 118.845 51.2097Z" stroke="#012A5D" stroke-width="3.05324" stroke-linecap="round" stroke-linejoin="round"/>
<path d="M133.317 45.4365V85.0863L118.845 74.7028L104.374 85.0863V45.4369" stroke="#012A5D" stroke-width="3.05324" stroke-linecap="round" stroke-linejoin="round"/>
<path d="M118.845 18.7183L122.571 26.2661L130.9 27.4766L124.873 33.3519L126.296 41.6478L118.845 37.7311L111.395 41.6478L112.818 33.3519L106.791 27.4766L115.12 26.2661L118.845 18.7183Z" fill="#BFE7F3" stroke="#012A5D" stroke-width="3.05324" stroke-linecap="round" stroke-linejoin="round"/>
<path d="M29.4097 161.221C29.5952 161.329 29.8159 161.359 30.0235 161.305C30.2311 161.25 30.4089 161.116 30.5179 160.931L72.6665 88.972C72.9018 88.5153 72.9751 87.9924 72.8745 87.4887L69.6998 75.1214C69.6743 75.0195 69.6283 74.924 69.5647 74.8405C69.501 74.7569 69.4211 74.6873 69.3297 74.6356C69.2383 74.584 69.1373 74.5515 69.033 74.5401C68.9286 74.5287 68.823 74.5386 68.7226 74.5693L56.8989 78.111C56.4134 78.2849 55.9975 78.6117 55.7137 79.0422L13.5651 151.002C13.4572 151.187 13.427 151.408 13.4813 151.615C13.5355 151.823 13.6697 152.001 13.8546 152.11L29.4097 161.221Z" fill="#D6EBF5"/>
<path d="M29.4097 161.221C29.5952 161.329 29.8159 161.359 30.0235 161.305C30.2311 161.25 30.4089 161.116 30.5179 160.931L72.6665 88.972C72.9018 88.5153 72.9751 87.9924 72.8745 87.4887L69.6998 75.1214C69.6743 75.0195 69.6283 74.924 69.5647 74.8405C69.5011 74.7569 69.4211 74.6873 69.3297 74.6356C69.2383 74.584 69.1373 74.5515 69.033 74.5401C68.9286 74.5287 68.823 74.5386 68.7226 74.5693L56.8989 78.111C56.4134 78.2849 55.9975 78.6117 55.7137 79.0422L13.5651 151.002C13.4572 151.187 13.427 151.408 13.4813 151.615C13.5355 151.823 13.6697 152.001 13.8546 152.11L29.4097 161.221Z" stroke="#012A5D" stroke-width="4.04945" stroke-linecap="round" stroke-linejoin="round"/>
<path d="M73.076 88.2739L56.123 78.3439L71.8091 70.9999L73.076 88.2739Z" fill="white" stroke="#012A5D" stroke-width="4.04945" stroke-linecap="round" stroke-linejoin="round"/>
<path d="M66.0525 74.4978L71.0449 77.4216L70.4483 72.7147L66.0525 74.4978Z" fill="#D6EBF5" stroke="#012A5D" stroke-width="4.04945" stroke-linecap="round" stroke-linejoin="round"/>
<path d="M25.2525 150.485L64.6969 83.1424" stroke="#012A5D" stroke-width="4.04945" stroke-linejoin="round"/>
<path d="M30.1081 161.63L33.7285 155.449L16.7757 145.519L13.1553 151.7L30.1081 161.63Z" fill="white" stroke="#012A5D" stroke-width="4.04945" stroke-linecap="round" stroke-linejoin="round"/>
</svg>
