<svg width="188" height="188" viewBox="0 0 188 188" fill="none" xmlns="http://www.w3.org/2000/svg">
<path d="M51.9034 18.8091H21.6309V122.448H51.9034V18.8091Z" fill="#C6E6F1" stroke="#012A5D" stroke-width="3.76186" stroke-linecap="round" stroke-linejoin="round"/>
<path d="M51.9034 122.448L36.7671 161.759L21.6309 122.448" fill="white"/>
<path d="M51.9034 122.448L36.7671 161.759L21.6309 122.448" stroke="#012A5D" stroke-width="3.76186" stroke-linecap="round" stroke-linejoin="round"/>
<path d="M42.1375 147.81H31.3955" stroke="#012A5D" stroke-width="3.76186" stroke-linecap="round" stroke-linejoin="round"/>
<path d="M150.458 90.2848H67.2439C66.6921 90.2848 66.1628 90.5082 65.7726 90.9059C65.3823 91.3036 65.1631 91.843 65.1631 92.4054V148.836C65.1631 149.398 65.3823 149.937 65.7726 150.335C66.1628 150.733 66.6921 150.956 67.2439 150.956H150.478C151.03 150.956 151.559 150.733 151.95 150.335C152.34 149.937 152.559 149.398 152.559 148.836V92.4054C152.559 92.1252 152.505 91.8478 152.399 91.5892C152.293 91.3306 152.138 91.0959 151.943 90.8987C151.747 90.7015 151.516 90.5457 151.261 90.4404C151.006 90.335 150.733 90.2821 150.458 90.2848Z" fill="white" stroke="#012A5D" stroke-width="3.39385" stroke-miterlimit="10"/>
<path d="M107.135 150.956H150.473C151.796 151.024 153.057 151.533 154.046 152.399L163.656 161.792C164.45 162.572 164.192 163.235 163.049 163.235H55.4008C54.2575 163.235 53.9836 162.588 54.7974 161.792L64.4042 152.399C65.3934 151.533 66.6537 151.024 67.977 150.956H107.135Z" fill="white" stroke="#012A5D" stroke-width="3.39385" stroke-miterlimit="10"/>
<path d="M164.185 161.79H55.7032C55.1467 161.791 54.6134 162.023 54.2203 162.433C53.8272 162.844 53.6064 163.401 53.6064 163.982V164.658C53.6064 165.239 53.8274 165.795 54.2206 166.205C54.6138 166.616 55.1471 166.846 55.7032 166.846H164.185C164.742 166.846 165.275 166.616 165.668 166.205C166.061 165.795 166.282 165.239 166.282 164.658V163.982C166.282 163.401 166.061 162.844 165.668 162.433C165.275 162.023 164.742 161.791 164.185 161.79Z" fill="white"/>
<path d="M162.853 161.555H55.6779C55.1282 161.557 54.6013 161.868 54.2129 162.419C53.8246 162.971 53.6064 163.719 53.6064 164.498V165.406C53.6064 166.185 53.8247 166.932 54.2132 167.483C54.6016 168.034 55.1285 168.343 55.6779 168.343H162.853C163.403 168.343 163.93 168.034 164.318 167.483C164.706 166.932 164.925 166.185 164.925 165.406V164.498C164.925 163.719 164.707 162.971 164.318 162.419C163.93 161.868 163.403 161.557 162.853 161.555Z" fill="#F1F1F1" stroke="#012A5D" stroke-width="3.39385" stroke-linejoin="round"/>
<path d="M146.781 98.2297H71.6636V143.011H146.781V98.2297Z" fill="#C6E6F1" stroke="#012A5D" stroke-width="3.39385" stroke-linejoin="round"/>
<path d="M134.326 48.2635C140.823 48.2635 146.09 43.1866 146.09 36.9303C146.09 30.674 140.823 25.605 134.326 25.605C127.829 25.605 122.563 30.6819 122.563 36.9303C122.563 43.1788 127.83 48.2635 134.326 48.2635Z" fill="#C7E4EF" stroke="#012A5D" stroke-width="2.42878" stroke-linecap="round" stroke-linejoin="round"/>
<path d="M114.651 73.4354C114.651 73.4354 113.563 49.962 134.327 51.1453C155.091 52.3286 153.333 73.4354 153.333 73.4354H114.651Z" fill="#C7E4EF" stroke="#012A5D" stroke-width="2.42878" stroke-linecap="round" stroke-linejoin="round"/>
<path d="M83.6374 48.0591C90.1345 48.0591 95.4001 42.9822 95.4001 36.726C95.4001 30.4697 90.1345 25.3928 83.6374 25.3928C77.1403 25.3928 71.8799 30.4671 71.8799 36.726C71.8799 42.9848 77.1403 48.0591 83.6374 48.0591Z" fill="#C7E4EF" stroke="#012A5D" stroke-width="2.42878" stroke-linecap="round" stroke-linejoin="round"/>
<path d="M63.9619 73.2311C63.9619 73.2311 62.8737 49.7577 83.6381 50.9397C104.403 52.1217 102.644 73.2311 102.644 73.2311H63.9619Z" fill="#C7E4EF" stroke="#012A5D" stroke-width="2.42878" stroke-linecap="round" stroke-linejoin="round"/>
<path d="M108.959 51.9429C115.456 51.9429 120.723 46.866 120.723 40.6098C120.723 34.3535 115.456 29.2766 108.959 29.2766C102.461 29.2766 97.1958 34.3535 97.1958 40.6098C97.1958 46.866 102.463 51.9429 108.959 51.9429Z" fill="#C7E4EF" stroke="#012A5D" stroke-width="2.42878" stroke-linecap="round" stroke-linejoin="round"/>
<path d="M89.2837 77.1156C89.2837 77.1156 88.1954 53.6422 108.96 54.8281C129.724 56.014 127.966 77.1182 127.966 77.1182L89.2837 77.1156Z" fill="#C7E4EF" stroke="#012A5D" stroke-width="2.42878" stroke-linecap="round" stroke-linejoin="round"/>
</svg>
