<svg width="150" height="147" viewBox="0 0 150 147" fill="none" xmlns="http://www.w3.org/2000/svg">
<path d="M147.437 2H67.7627V53.219H147.437V2Z" fill="#BFE7F3" stroke="#012A5D" stroke-width="3.95652" stroke-linejoin="round"/>
<path d="M48.7926 60.8069C50.9187 60.8069 52.997 60.1765 54.7648 58.9953C56.5326 57.8141 57.9104 56.1352 58.724 54.171C59.5376 52.2068 59.7505 50.0454 59.3357 47.9601C58.921 45.8749 57.8971 43.9595 56.3938 42.4561C54.8904 40.9528 52.975 39.929 50.8898 39.5142C48.8046 39.0994 46.6432 39.3123 44.6789 40.1259C42.7147 40.9395 41.0358 42.3173 39.8546 44.0851C38.6734 45.8529 38.043 47.9312 38.043 50.0573C38.043 52.9083 39.1755 55.6425 41.1915 57.6584C43.2074 59.6744 45.9416 60.8069 48.7926 60.8069Z" fill="#BFE7F3" stroke="#012A5D" stroke-width="3.95652" stroke-linecap="round" stroke-linejoin="round"/>
<path d="M29.8228 81.0414C30.4335 76.1498 32.6265 71.6034 36.0569 68.1171C39.4874 64.6309 43.9606 62.4026 48.7731 61.7827C55.3594 61.0849 61.6381 58.5918 66.9457 54.5668C66.9457 54.5668 73.4537 51.4437 73.4537 58.245C73.4537 66.8486 64.0529 72.6978 64.0529 72.6978L68.1485 81.0309L29.8228 81.0414Z" fill="#BFE7F3" stroke="#012A5D" stroke-width="3.95652" stroke-linecap="round" stroke-linejoin="round"/>
<path d="M72.8218 53.8512L91.7918 26.0286" stroke="#012A5D" stroke-width="3.95652" stroke-linecap="round" stroke-linejoin="round"/>
<path d="M92.2261 72.1893H14.7046C14.1905 72.1893 13.6974 72.3974 13.3339 72.7679C12.9703 73.1384 12.7661 73.6409 12.7661 74.1649V126.734C12.7661 127.258 12.9703 127.761 13.3339 128.131C13.6974 128.502 14.1905 128.71 14.7046 128.71H92.2445C92.7587 128.71 93.2517 128.502 93.6153 128.131C93.9788 127.761 94.183 127.258 94.183 126.734V74.1649C94.1831 73.9039 94.1323 73.6454 94.0337 73.4045C93.9352 73.1636 93.7907 72.9449 93.6087 72.7612C93.4268 72.5775 93.2109 72.4324 92.9736 72.3342C92.7362 72.2361 92.4822 72.1868 92.2261 72.1893Z" fill="#F1F1F1" stroke="#012A5D" stroke-width="3.95652" stroke-miterlimit="10"/>
<path d="M51.8665 128.71H92.2396C93.4724 128.773 94.6465 129.247 95.5679 130.054L104.521 138.804C105.261 139.531 105.021 140.148 103.955 140.148H3.67168C2.60661 140.148 2.35143 139.545 3.10956 138.804L12.0592 130.054C12.9806 129.247 14.1547 128.773 15.3875 128.71H51.8665Z" fill="#F1F1F1" stroke="#012A5D" stroke-width="3.95652" stroke-miterlimit="10"/>
<path d="M105.014 138.803H3.9533C3.43491 138.804 2.93809 139.02 2.57188 139.402C2.20568 139.785 2 140.304 2 140.845V141.475C2 142.016 2.20579 142.534 2.57211 142.916C2.93842 143.298 3.43525 143.513 3.9533 143.513H105.014C105.532 143.513 106.029 143.298 106.395 142.916C106.761 142.534 106.967 142.016 106.967 141.475V140.845C106.967 140.304 106.762 139.785 106.395 139.402C106.029 139.02 105.532 138.804 105.014 138.803Z" fill="white"/>
<path d="M103.773 138.584H3.92976C3.41762 138.585 2.92679 138.875 2.56499 139.389C2.2032 139.903 2 140.599 2 141.325V142.171C2 142.897 2.20331 143.593 2.56521 144.106C2.92711 144.619 3.41796 144.907 3.92976 144.907H103.773C104.285 144.907 104.775 144.619 105.137 144.106C105.499 143.593 105.703 142.897 105.703 142.171V141.325C105.703 140.599 105.499 139.903 105.138 139.389C104.776 138.875 104.285 138.585 103.773 138.584Z" fill="#F1F1F1" stroke="#012A5D" stroke-width="3.95652" stroke-linejoin="round"/>
<path d="M88.8 79.5906H18.8218V121.308H88.8V79.5906Z" fill="#7FCFE7" stroke="#012A5D" stroke-width="3.95652" stroke-linejoin="round"/>
<path d="M81.3988 84.9736H45.064V109.197H81.3988V84.9736Z" fill="#BFE7F3" stroke="#012A5D" stroke-width="3.95652" stroke-linejoin="round"/>
<path d="M35.9396 112.439C36.9377 112.439 37.9134 112.143 38.7433 111.589C39.5732 111.034 40.22 110.246 40.6019 109.324C40.9839 108.402 41.0838 107.387 40.8891 106.408C40.6944 105.429 40.2138 104.53 39.508 103.825C38.8022 103.119 37.903 102.638 36.9241 102.443C35.9452 102.249 34.9305 102.349 34.0084 102.731C33.0862 103.113 32.2981 103.759 31.7436 104.589C31.189 105.419 30.8931 106.395 30.8931 107.393C30.8931 108.731 31.4247 110.015 32.3711 110.961C33.3175 111.908 34.6012 112.439 35.9396 112.439Z" fill="#BFE7F3" stroke="#012A5D" stroke-width="3.95652" stroke-linecap="round" stroke-linejoin="round"/>
<path d="M27.5288 121.308C27.8201 119.25 28.8679 117.336 30.5075 115.869C32.1472 114.401 34.2855 113.463 36.5863 113.201C39.7349 112.911 42.737 111.864 45.2746 110.171C45.2746 110.171 48.3877 108.857 48.3877 111.717C48.3877 115.34 43.8932 117.801 43.8932 117.801L45.8531 121.308H27.5288Z" fill="#BFE7F3" stroke="#012A5D" stroke-width="3.95652" stroke-linecap="round" stroke-linejoin="round"/>
<path d="M47.7144 109.87L56.4616 96.4124" stroke="#012A5D" stroke-width="3.95652" stroke-linecap="round" stroke-linejoin="round"/>
</svg>
