<svg width="121" height="136" viewBox="0 0 121 136" fill="none" xmlns="http://www.w3.org/2000/svg">
<path d="M18.0837 128.037C18.0837 128.037 116.786 147.555 118.18 94.8577C118.18 94.8577 118.738 86.772 109.258 86.772C99.7779 86.772 101.73 93.1848 96.9897 98.2036C94.2688 101.085 80.3666 102.728 80.3666 102.728C80.3666 97.152 72.5597 97.9884 72.5597 97.9884L58.3399 97.4308C40.4954 92.6909 18.7475 104.68 18.7475 104.68L18.0837 128.037Z" fill="white"/>
<path d="M80.3666 102.728C80.3666 102.728 94.2688 101.085 96.9897 98.2036C101.73 93.1848 99.7779 86.772 109.258 86.772C118.738 86.772 118.18 94.8577 118.18 94.8577C116.786 147.555 18.0837 128.037 18.0837 128.037L18.7475 104.68C18.7475 104.68 40.4954 92.6909 58.3399 97.4308L72.5597 97.9884C72.5597 97.9884 80.3666 97.152 80.3666 102.728ZM80.3666 102.728C80.3666 108.305 78.6937 110.257 72.5597 110.257H48.5812" stroke="#012A5D" stroke-width="4.56412" stroke-linecap="round" stroke-linejoin="round"/>
<path d="M19.1715 100.155H3V132.777H19.1715V100.155Z" fill="#7FCFE7" stroke="#012A5D" stroke-width="4.56412" stroke-linecap="round" stroke-linejoin="round"/>
<path d="M100.317 14.107H85.6085L70.5994 3H50.5873L35.5783 14.107H20.8694C17.9176 14.107 15.5662 16.4625 15.5662 19.4194V69.9388C15.5662 72.8957 17.9176 75.602 20.8694 75.602H100.317C103.269 75.602 105.621 72.8957 105.621 69.9388V19.4194C105.621 16.4625 103.269 14.107 100.317 14.107Z" fill="#BFE7F3" stroke="#012A5D" stroke-width="4.56412" stroke-linejoin="round"/>
<circle cx="58.1969" cy="45.5297" r="19.2364" fill="#7FCFE7" stroke="#012A5D" stroke-width="4.56412"/>
<circle cx="87.7392" cy="29.8471" r="5.74177" fill="#7FCFE7" stroke="#012A5D" stroke-width="4.56412"/>
</svg>
