<svg width="137" height="143" viewBox="0 0 137 143" fill="none" xmlns="http://www.w3.org/2000/svg">
<path d="M117.519 18.957H18.5879V77.6049H117.519V18.957Z" fill="#BFE7F3" stroke="#012A5D" stroke-width="3.8731" stroke-linejoin="round"/>
<path d="M23.9195 112.557C25.9113 112.557 27.8584 111.966 29.5145 110.859C31.1707 109.753 32.4615 108.18 33.2237 106.34C33.986 104.5 34.1854 102.475 33.7968 100.521C33.4082 98.5676 32.4491 96.7732 31.0406 95.3647C29.6322 93.9563 27.8378 92.9971 25.8842 92.6086C23.9307 92.22 21.9057 92.4194 20.0655 93.1816C18.2253 93.9439 16.6525 95.2347 15.5459 96.8908C14.4393 98.547 13.8486 100.494 13.8486 102.486C13.8486 105.157 14.9097 107.718 16.7983 109.607C18.687 111.496 21.2485 112.557 23.9195 112.557Z" fill="#7FCFE7" stroke="#012A5D" stroke-width="3.8731" stroke-linecap="round" stroke-linejoin="round"/>
<path d="M6.14722 140.992C6.71936 136.409 8.77391 122.672 11.9877 119.405C15.2015 116.139 19.3923 114.052 23.9009 113.471C30.0713 112.817 35.9535 110.482 40.926 106.711C40.926 106.711 47.023 103.785 47.023 110.157C47.023 118.217 38.2158 123.697 38.2158 123.697L42.0528 140.982L6.14722 140.992Z" fill="#7FCFE7" stroke="#012A5D" stroke-width="3.8731" stroke-linecap="round" stroke-linejoin="round"/>
<path d="M47.0229 105.448L74.2735 65.7568" stroke="#012A5D" stroke-width="3.8731" stroke-linecap="round" stroke-linejoin="round"/>
<line x1="117.678" y1="84.4077" x2="117.678" y2="94.0329" stroke="#012A5D" stroke-width="3.8731" stroke-linecap="round"/>
<line x1="123.877" y1="84.1746" x2="129.082" y2="92.2711" stroke="#012A5D" stroke-width="3.8731" stroke-linecap="round"/>
<line x1="126.406" y1="78.0812" x2="134.742" y2="82.8938" stroke="#012A5D" stroke-width="3.8731" stroke-linecap="round"/>
<line x1="19.7719" y1="11.5617" x2="19.7719" y2="1.93655" stroke="#012A5D" stroke-width="3.8731" stroke-linecap="round"/>
<line x1="13.5738" y1="11.7954" x2="8.36892" y2="3.69892" stroke="#012A5D" stroke-width="3.8731" stroke-linecap="round"/>
<line x1="11.0446" y1="17.8885" x2="2.70891" y2="13.0759" stroke="#012A5D" stroke-width="3.8731" stroke-linecap="round"/>
</svg>
