<svg width="161" height="168" viewBox="0 0 161 168" fill="none" xmlns="http://www.w3.org/2000/svg">
<path d="M3 45.3728V19.8741H20.3536L43.3661 3V62.247L20.3536 45.3728H3Z" fill="#BFE7F3" stroke="#012A5D" stroke-width="4.56412" stroke-linejoin="round"/>
<path d="M54.9368 45.6092C54.9368 45.6092 64.1144 39.9288 64.1145 31.5393L64.1682 30.3579C64.1682 21.9682 54.9905 16.288 54.9905 16.288" stroke="#012A5D" stroke-width="4.56412" stroke-linecap="round" stroke-linejoin="round"/>
<path d="M49.1017 37.615C49.1017 37.615 53.3825 34.9655 53.3826 31.0522L53.4076 30.5012C53.4076 26.5879 49.1268 23.9384 49.1268 23.9384" stroke="#012A5D" stroke-width="4.56412" stroke-linecap="round" stroke-linejoin="round"/>
<path d="M58.1601 57.2562C58.1601 57.2562 74.6423 47.055 74.6423 31.9882L74.7387 29.8667C74.7387 14.7999 58.2566 4.59865 58.2566 4.59865" stroke="#012A5D" stroke-width="4.56412" stroke-linecap="round" stroke-linejoin="round"/>
<rect x="3" y="19.9275" width="16.2766" height="25.3916" fill="#7FCFE7" stroke="#012A5D" stroke-width="4.56412" stroke-linejoin="round"/>
<path d="M81.0498 97.1629V71.6642H98.4034L121.416 54.79V114.037L98.4034 97.1629H81.0498Z" fill="#BFE7F3" stroke="#012A5D" stroke-width="4.56412" stroke-linejoin="round"/>
<path d="M129.633 95.1741C129.633 95.1741 138.811 89.4938 138.811 81.1042L138.865 79.9229C138.865 71.5332 129.687 65.853 129.687 65.853" stroke="#012A5D" stroke-width="4.56412" stroke-linecap="round" stroke-linejoin="round"/>
<path d="M123.798 87.1802C123.798 87.1802 128.078 84.5307 128.078 80.6174L128.103 80.0664C128.103 76.1531 123.823 73.5036 123.823 73.5036" stroke="#012A5D" stroke-width="4.56412" stroke-linecap="round" stroke-linejoin="round"/>
<path d="M132.856 106.821C132.856 106.821 149.339 96.6197 149.339 81.5529L149.435 79.4314C149.435 64.3646 132.953 54.1634 132.953 54.1634" stroke="#012A5D" stroke-width="4.56412" stroke-linecap="round" stroke-linejoin="round"/>
<rect x="81.0498" y="71.7178" width="16.2766" height="25.3916" fill="#7FCFE7" stroke="#012A5D" stroke-width="4.56412" stroke-linejoin="round"/>
<path d="M3 148.223V122.725H20.3536L43.3661 105.851V165.098L20.3536 148.223H3Z" fill="#BFE7F3" stroke="#012A5D" stroke-width="4.56412" stroke-linejoin="round"/>
<path d="M54.9368 144.041C54.9368 144.041 64.1144 138.36 64.1145 129.971L64.1682 128.789C64.1682 120.4 54.9905 114.719 54.9905 114.719" stroke="#012A5D" stroke-width="4.56412" stroke-linecap="round" stroke-linejoin="round"/>
<path d="M49.1017 136.047C49.1017 136.047 53.3825 133.397 53.3826 129.484L53.4076 128.933C53.4076 125.02 49.1268 122.37 49.1268 122.37" stroke="#012A5D" stroke-width="4.56412" stroke-linecap="round" stroke-linejoin="round"/>
<path d="M58.1601 155.688C58.1601 155.688 74.6423 145.486 74.6423 130.42L74.7387 128.298C74.7387 113.231 58.2566 103.03 58.2566 103.03" stroke="#012A5D" stroke-width="4.56412" stroke-linecap="round" stroke-linejoin="round"/>
<rect x="3" y="122.778" width="16.2766" height="25.3916" fill="#7FCFE7" stroke="#012A5D" stroke-width="4.56412" stroke-linejoin="round"/>
</svg>
