<svg width="224" height="168" viewBox="0 0 224 168" fill="none" xmlns="http://www.w3.org/2000/svg">
<path d="M97.6724 139.171V99.5243H124.654L160.435 73.2878V165.407L124.654 139.171H97.6724Z" fill="#BFE7F3" stroke="#012A5D" stroke-width="4.56412" stroke-linejoin="round"/>
<path d="M175.252 135.768C175.252 135.768 189.521 126.936 189.522 113.891L189.605 112.055C189.605 99.0101 175.335 90.1783 175.335 90.1783" stroke="#012A5D" stroke-width="4.56412" stroke-linecap="round" stroke-linejoin="round"/>
<path d="M166.179 123.339C166.179 123.339 172.835 119.219 172.835 113.135L172.874 112.278C172.874 106.193 166.218 102.074 166.218 102.074" stroke="#012A5D" stroke-width="4.56412" stroke-linecap="round" stroke-linejoin="round"/>
<path d="M180.264 153.877C180.264 153.877 205.891 138.016 205.891 114.59L206.041 111.291C206.041 87.8648 180.414 72.0035 180.414 72.0035" stroke="#012A5D" stroke-width="4.56412" stroke-linecap="round" stroke-linejoin="round"/>
<rect x="97.6724" y="99.6077" width="25.3074" height="39.4796" fill="#7FCFE7" stroke="#012A5D" stroke-width="4.56412" stroke-linejoin="round"/>
<path d="M135.648 68.8829V29.2367H108.666L72.8857 3.00024V95.1194L108.666 68.8829H135.648Z" fill="#BFE7F3" stroke="#012A5D" stroke-width="4.56412" stroke-linejoin="round"/>
<path d="M48.0426 68.5007C48.0426 68.5007 33.773 59.6687 33.7728 46.6244L33.6893 44.7876C33.6893 31.743 47.9591 22.9112 47.9591 22.9112" stroke="#012A5D" stroke-width="4.56412" stroke-linecap="round" stroke-linejoin="round"/>
<path d="M57.1158 56.0717C57.1158 56.0717 50.4599 51.9521 50.4598 45.8677L50.4209 45.0109C50.4209 38.9264 57.0769 34.8069 57.0769 34.8069" stroke="#012A5D" stroke-width="4.56412" stroke-linecap="round" stroke-linejoin="round"/>
<path d="M43.0309 86.6099C43.0309 86.6099 17.404 70.7486 17.404 47.3224L17.2541 44.0237C17.2541 20.5974 42.881 4.73619 42.881 4.73619" stroke="#012A5D" stroke-width="4.56412" stroke-linecap="round" stroke-linejoin="round"/>
<rect width="25.3074" height="39.4796" transform="matrix(-1 0 0 1 135.648 29.3203)" fill="#7FCFE7" stroke="#012A5D" stroke-width="4.56412" stroke-linejoin="round"/>
</svg>
