<svg width="209" height="194" viewBox="0 0 209 194" fill="none" xmlns="http://www.w3.org/2000/svg">
<path d="M183.835 158.501H26.5869V190.824H183.835V158.501Z" fill="#F1F1F1" stroke="#012A5D" stroke-width="4.56412" stroke-linecap="round" stroke-linejoin="round"/>
<path d="M176.282 138.089H141.036C141.036 138.089 140.377 114.804 151.847 107.944C153.823 109.339 156.199 110.051 158.617 109.974C161.034 109.897 163.36 109.034 165.243 107.516C177.401 113.771 176.282 138.089 176.282 138.089Z" fill="#7FCFE7" stroke="#012A5D" stroke-width="4.56412" stroke-linecap="round" stroke-linejoin="round"/>
<path d="M169.385 98.8592C169.385 101.059 168.733 103.209 167.511 105.038C166.289 106.867 164.552 108.292 162.52 109.134C160.488 109.976 158.252 110.197 156.095 109.768C153.938 109.339 151.956 108.28 150.4 106.724C148.845 105.169 147.786 103.188 147.356 101.03C146.927 98.8731 147.147 96.637 147.989 94.6048C148.83 92.5726 150.256 90.8356 152.085 89.6135C153.913 88.3914 156.063 87.739 158.263 87.7388C159.725 87.7348 161.172 88.0198 162.524 88.5772C163.875 89.1346 165.102 89.9536 166.136 90.9869C167.169 92.0203 167.988 93.2478 168.546 94.5988C169.104 95.9498 169.389 97.3977 169.385 98.8592Z" fill="#7FCFE7" stroke="#012A5D" stroke-width="4.56412" stroke-linecap="round" stroke-linejoin="round"/>
<path d="M192.164 155.88C192.164 155.88 205.633 133.913 187.33 114.82" stroke="#012A5D" stroke-width="4.56412" stroke-linecap="round" stroke-linejoin="round"/>
<path d="M180.233 99.9695L173.352 106.248L184.819 118.315L191.698 112.043L180.233 99.9695Z" fill="#C7E4EF" stroke="#012A5D" stroke-width="4.56412" stroke-linecap="round" stroke-linejoin="round"/>
<path d="M47.8623 137.215H12.6164C12.6164 137.215 11.9573 113.93 23.4273 107.071C25.4033 108.465 27.7799 109.178 30.1971 109.101C32.6144 109.023 34.9406 108.16 36.8235 106.643C48.9818 112.897 47.8623 137.215 47.8623 137.215Z" fill="#7FCFE7" stroke="#012A5D" stroke-width="4.56412" stroke-linecap="round" stroke-linejoin="round"/>
<path d="M40.9655 97.9857C40.9657 100.185 40.3136 102.335 39.0917 104.164C37.8698 105.993 36.133 107.419 34.1009 108.261C32.0689 109.103 29.8328 109.323 27.6755 108.894C25.5181 108.465 23.5365 107.406 21.981 105.851C20.4256 104.296 19.3663 102.314 18.937 100.157C18.5077 97.9996 18.7278 95.7635 19.5694 93.7313C20.411 91.6991 21.8363 89.9621 23.6651 88.74C25.4939 87.5178 27.644 86.8654 29.8436 86.8653C31.3051 86.8613 32.753 87.1462 34.1041 87.7036C35.4552 88.2611 36.6828 89.08 37.7163 90.1134C38.7498 91.1468 39.569 92.3743 40.1266 93.7253C40.6842 95.0763 40.9693 96.5241 40.9655 97.9857Z" fill="#7FCFE7" stroke="#012A5D" stroke-width="4.56412" stroke-linecap="round" stroke-linejoin="round"/>
<path d="M63.7441 158.501C63.7441 158.501 77.2139 133.039 58.9102 113.947" stroke="#012A5D" stroke-width="4.56412" stroke-linecap="round" stroke-linejoin="round"/>
<path d="M51.8133 99.0959L44.9326 105.375L56.3997 117.442L63.2782 111.169L51.8133 99.0959Z" fill="#C7E4EF" stroke="#012A5D" stroke-width="4.56412" stroke-linecap="round" stroke-linejoin="round"/>
<path d="M112.509 137.215H77.2629C77.2629 137.215 76.6038 113.93 88.0738 107.071C90.0497 108.465 92.4263 109.178 94.8436 109.101C97.2609 109.023 99.5871 108.16 101.47 106.643C113.628 112.897 112.509 137.215 112.509 137.215Z" fill="#7FCFE7" stroke="#012A5D" stroke-width="4.56412" stroke-linecap="round" stroke-linejoin="round"/>
<path d="M105.612 97.9857C105.612 100.185 104.96 102.335 103.738 104.164C102.516 105.993 100.78 107.419 98.7474 108.261C96.7154 109.103 94.4793 109.323 92.3219 108.894C90.1646 108.465 88.1829 107.406 86.6275 105.851C85.0721 104.296 84.0127 102.314 83.5835 100.157C83.1542 97.9996 83.3743 95.7635 84.2159 93.7313C85.0575 91.6991 86.4828 89.9621 88.3116 88.74C90.1404 87.5178 92.2905 86.8654 94.49 86.8653C95.9516 86.8613 97.3995 87.1462 98.7506 87.7036C100.102 88.2611 101.329 89.08 102.363 90.1134C103.396 91.1468 104.215 92.3743 104.773 93.7253C105.331 95.0763 105.616 96.5241 105.612 97.9857Z" fill="#7FCFE7" stroke="#012A5D" stroke-width="4.56412" stroke-linecap="round" stroke-linejoin="round"/>
<path d="M128.391 158.501C128.391 158.501 141.861 133.039 123.557 113.947" stroke="#012A5D" stroke-width="4.56412" stroke-linecap="round" stroke-linejoin="round"/>
<path d="M116.46 99.0959L109.579 105.375L121.046 117.442L127.925 111.169L116.46 99.0959Z" fill="#C7E4EF" stroke="#012A5D" stroke-width="4.56412" stroke-linecap="round" stroke-linejoin="round"/>
<path d="M206.549 138.408H3V169.858H206.549V138.408Z" fill="#F1F1F1" stroke="#012A5D" stroke-width="4.56412" stroke-linecap="round" stroke-linejoin="round"/>
<path d="M75.8485 49.7984L71.8399 64.7552L89.4401 49.7984H121.493C127.499 49.7984 132.369 44.6301 132.369 38.2548V14.5433C132.369 8.16799 127.499 2.99976 121.493 2.99976H75.9018C69.8949 2.99976 65.0254 8.16799 65.0254 14.5433V38.2548C65.0254 44.6301 69.8949 49.7984 75.9018 49.7984" fill="#BFE7F3"/>
<path d="M75.8485 49.7984L71.8399 64.7552L89.4401 49.7984H121.492C127.499 49.7984 132.369 44.6301 132.369 38.2548V14.5433C132.369 8.16799 127.499 2.99976 121.492 2.99976H75.9018C69.8949 2.99976 65.0254 8.16799 65.0254 14.5433V38.2548C65.0254 44.6301 69.8949 49.7984 75.9018 49.7984" stroke="#012A5D" stroke-width="4.56412" stroke-linecap="round" stroke-linejoin="round"/>
<path d="M137.054 62.5937L140.144 74.7469L126.577 62.5937H101.87C97.2397 62.5937 93.4861 58.0562 93.4861 52.4588V31.641C93.4861 26.0436 97.2397 21.5061 101.87 21.5061H137.013C141.643 21.5061 145.397 26.0436 145.397 31.641V52.4588C145.397 58.0562 141.643 62.5937 137.013 62.5937" fill="#BFE7F3"/>
<path d="M137.054 62.5937L140.144 74.7469L126.577 62.5937H101.87C97.2397 62.5937 93.4861 58.0562 93.4861 52.4588V31.641C93.4861 26.0436 97.2397 21.5061 101.87 21.5061H137.013C141.643 21.5061 145.397 26.0436 145.397 31.641V52.4588C145.397 58.0562 141.643 62.5937 137.013 62.5937" stroke="#012A5D" stroke-width="4.56412" stroke-linecap="round" stroke-linejoin="round"/>
</svg>
