<svg width="150" height="185" viewBox="0 0 150 185" fill="none" xmlns="http://www.w3.org/2000/svg">
<path d="M21.875 176.075C21.875 176.075 145.391 200.499 147.136 134.554C147.136 134.554 147.834 124.436 135.971 124.436C124.107 124.436 126.55 132.461 120.618 138.741C117.213 142.346 99.8161 144.403 99.8161 144.403C99.8161 137.425 90.0464 138.472 90.0464 138.472L72.2517 137.774C49.9211 131.842 22.7056 146.846 22.7056 146.846L21.875 176.075Z" fill="white"/>
<path d="M99.8161 144.403C99.8161 144.403 117.213 142.346 120.618 138.741C126.55 132.461 124.107 124.436 135.971 124.436C147.834 124.436 147.136 134.554 147.136 134.554C145.391 200.499 21.875 176.075 21.875 176.075L22.7056 146.846C22.7056 146.846 49.9211 131.842 72.2517 137.774L90.0464 138.472C90.0464 138.472 99.8161 137.425 99.8161 144.403ZM99.8161 144.403C99.8161 151.382 97.7226 153.824 90.0464 153.824H60.0396" stroke="#012A5D" stroke-width="4.56412" stroke-linecap="round" stroke-linejoin="round"/>
<path d="M23.2366 141.183H2.99951V182.007H23.2366V141.183Z" fill="#7FCFE7" stroke="#012A5D" stroke-width="4.56412" stroke-linecap="round" stroke-linejoin="round"/>
<path d="M96.9307 79.2416V109.39C96.9316 110.221 96.7675 111.044 96.4478 111.812C96.1282 112.58 95.6593 113.278 95.068 113.866C94.4767 114.454 93.7745 114.92 93.0016 115.238C92.2286 115.557 91.4002 115.72 90.5635 115.72H59.5737C58.737 115.72 57.9086 115.557 57.1356 115.238C56.3627 114.92 55.6605 114.454 55.0692 113.866C54.4779 113.278 54.009 112.58 53.6894 111.812C53.3698 111.044 53.2057 110.221 53.2065 109.39V79.2416C45.5375 74.5194 39.6273 67.4431 36.3713 59.085C33.1154 50.7269 32.6912 41.5424 35.1631 32.9234C37.6349 24.3043 42.8681 16.7203 50.0696 11.3206C57.2711 5.92092 66.0485 2.99976 75.0717 2.99976C84.095 2.99976 92.8724 5.92092 100.074 11.3206C107.275 16.7203 112.509 24.3043 114.98 32.9234C117.452 41.5424 117.028 50.7269 113.772 59.085C110.516 67.4431 104.606 74.5194 96.937 79.2416H96.9307Z" fill="#BFE7F3" stroke="#012A5D" stroke-width="4.56412" stroke-linecap="round" stroke-linejoin="round"/>
<path d="M96.7486 88.4688H53.3945" stroke="#012A5D" stroke-width="4.56412" stroke-linecap="round" stroke-linejoin="round"/>
<path d="M96.7486 100.855H53.3945" stroke="#012A5D" stroke-width="4.56412" stroke-linecap="round" stroke-linejoin="round"/>
<path d="M57.7087 56.0775L68.6626 67.0313L101.068 35.0825" stroke="#012A5D" stroke-width="4.56412" stroke-linecap="round"/>
</svg>
