<svg width="211" height="181" viewBox="0 0 211 181" fill="none" xmlns="http://www.w3.org/2000/svg">
<path d="M178.714 3.00017H27.7415C26.7403 3.00017 25.78 3.40387 25.072 4.12246C24.3641 4.84105 23.9663 5.81567 23.9663 6.83191V108.793C23.9663 109.809 24.3641 110.784 25.072 111.502C25.78 112.221 26.7403 112.624 27.7415 112.624H178.75C179.751 112.624 180.711 112.221 181.419 111.502C182.127 110.784 182.525 109.809 182.525 108.793V6.83191C182.525 6.32564 182.426 5.82436 182.234 5.35708C182.042 4.8898 181.761 4.46577 181.406 4.10948C181.052 3.75319 180.632 3.47171 180.169 3.28131C179.707 3.09091 179.212 2.99535 178.714 3.00017Z" fill="#F1F1F1" stroke="#012A5D" stroke-width="4.56412" stroke-miterlimit="10"/>
<path d="M100.114 112.625H178.74C181.141 112.747 183.428 113.666 185.222 115.231L202.659 132.204C204.099 133.613 203.631 134.81 201.557 134.81H6.25552C4.18129 134.81 3.68434 133.641 5.16078 132.204L22.5901 115.231C24.3846 113.666 26.6711 112.747 29.072 112.625H100.114Z" fill="#F1F1F1" stroke="#012A5D" stroke-width="4.56412" stroke-miterlimit="10"/>
<path d="M203.619 132.2H6.80402C5.79447 132.202 4.82692 132.62 4.11374 133.363C3.40055 134.105 3 135.112 3 136.161V137.383C3 138.431 3.40078 139.436 4.11417 140.178C4.82756 140.919 5.79514 141.336 6.80402 141.336H203.619C204.627 141.336 205.595 140.919 206.308 140.178C207.022 139.436 207.423 138.431 207.423 137.383V136.161C207.423 135.112 207.022 134.105 206.309 133.363C205.596 132.62 204.628 132.202 203.619 132.2Z" fill="white"/>
<path d="M201.201 131.776H6.75819C5.7608 131.779 4.80491 132.34 4.10032 133.337C3.39573 134.334 3 135.685 3 137.093V138.734C3 140.141 3.39595 141.491 4.10075 142.486C4.80554 143.481 5.76146 144.04 6.75819 144.04H201.201C202.198 144.04 203.154 143.481 203.859 142.486C204.564 141.491 204.96 140.141 204.96 138.734V137.093C204.96 135.685 204.564 134.334 203.859 133.337C203.155 132.34 202.199 131.779 201.201 131.776Z" fill="#F1F1F1" stroke="#012A5D" stroke-width="4.56412" stroke-linejoin="round"/>
<path d="M172.041 16.9207H35.7598V97.8339H172.041V16.9207Z" fill="#BFE7F3" stroke="#012A5D" stroke-width="4.56412" stroke-linejoin="round"/>
<line x1="36" y1="60.7453" x2="172" y2="60.7453" stroke="#012A5D" stroke-width="4.41559"/>
<line x1="102.676" y1="100.044" x2="102.676" y2="17.9143" stroke="#012A5D" stroke-width="4.41559"/>
<path d="M82.3118 58.6826H57.1681C57.1681 58.6826 56.6979 47.5755 64.8804 44.3033C66.29 44.9685 67.9854 45.3085 69.7098 45.2716C71.4342 45.2348 73.0937 44.8232 74.437 44.0991C83.1104 47.0826 82.3118 58.6826 82.3118 58.6826Z" fill="#7FCFE7" stroke="#012A5D" stroke-width="4.56412" stroke-linecap="round" stroke-linejoin="round"/>
<path d="M77.3917 37.8719C77.3918 39.4346 76.9266 40.9623 76.0549 42.2617C75.1832 43.5611 73.9442 44.5739 72.4946 45.172C71.045 45.7702 69.4498 45.9267 67.9108 45.622C66.3718 45.3172 64.9581 44.5648 63.8485 43.4599C62.7389 42.3549 61.9832 40.9471 61.677 39.4145C61.3707 37.8818 61.5277 36.2931 62.1281 34.8493C62.7285 33.4055 63.7453 32.1714 65.0499 31.3031C66.3545 30.4348 67.8884 29.9713 69.4575 29.9712C70.5001 29.9684 71.533 30.1708 72.4969 30.5669C73.4607 30.9629 74.3364 31.5447 75.0737 32.2789C75.811 33.0131 76.3954 33.8852 76.7932 34.845C77.1909 35.8049 77.3943 36.8335 77.3917 37.8719Z" fill="#7FCFE7" stroke="#012A5D" stroke-width="4.56412" stroke-linecap="round" stroke-linejoin="round"/>
<path d="M153.073 57.8124H127.93C127.93 57.8124 127.459 46.7054 135.642 43.4332C137.051 44.0984 138.747 44.4383 140.471 44.4015C142.196 44.3646 143.855 43.953 145.198 43.229C153.872 46.2125 153.073 57.8124 153.073 57.8124Z" fill="#7FCFE7" stroke="#012A5D" stroke-width="4.56412" stroke-linecap="round" stroke-linejoin="round"/>
<path d="M148.153 37.0018C148.153 38.5645 147.688 40.0922 146.817 41.3916C145.945 42.691 144.706 43.7038 143.256 44.3019C141.807 44.9 140.212 45.0566 138.673 44.7519C137.134 44.4471 135.72 43.6947 134.61 42.5897C133.501 41.4848 132.745 40.077 132.439 38.5443C132.132 37.0117 132.289 35.423 132.89 33.9792C133.49 32.5354 134.507 31.3013 135.812 30.433C137.116 29.5647 138.65 29.1012 140.219 29.1011C141.262 29.0983 142.295 29.3007 143.259 29.6967C144.222 30.0928 145.098 30.6746 145.835 31.4088C146.573 32.143 147.157 33.0151 147.555 33.9749C147.953 34.9347 148.156 35.9634 148.153 37.0018Z" fill="#7FCFE7" stroke="#012A5D" stroke-width="4.56412" stroke-linecap="round" stroke-linejoin="round"/>
<path d="M153.073 97.8342H127.93C127.93 97.8342 127.459 86.7271 135.642 83.4549C137.051 84.1201 138.747 84.4601 140.471 84.4232C142.196 84.3864 143.855 83.9748 145.198 83.2507C153.872 86.2343 153.073 97.8342 153.073 97.8342Z" fill="#7FCFE7" stroke="#012A5D" stroke-width="4.56412" stroke-linecap="round" stroke-linejoin="round"/>
<path d="M148.153 77.0233C148.153 78.586 147.688 80.1136 146.817 81.4131C145.945 82.7125 144.706 83.7253 143.256 84.3234C141.807 84.9215 140.212 85.0781 138.673 84.7733C137.134 84.4686 135.72 83.7162 134.61 82.6112C133.501 81.5063 132.745 80.0985 132.439 78.5658C132.132 77.0332 132.289 75.4445 132.89 74.0007C133.49 72.5569 134.507 71.3228 135.812 70.4545C137.116 69.5862 138.65 69.1227 140.219 69.1226C141.262 69.1198 142.295 69.3222 143.259 69.7182C144.222 70.1143 145.098 70.6961 145.835 71.4303C146.573 72.1645 147.157 73.0366 147.555 73.9964C147.953 74.9562 148.156 75.9849 148.153 77.0233Z" fill="#7FCFE7" stroke="#012A5D" stroke-width="4.56412" stroke-linecap="round" stroke-linejoin="round"/>
<path d="M82.3118 97.8342H57.1681C57.1681 97.8342 56.6979 86.7271 64.8804 83.4549C66.29 84.1201 67.9854 84.4601 69.7098 84.4232C71.4342 84.3864 73.0937 83.9748 74.437 83.2507C83.1104 86.2343 82.3118 97.8342 82.3118 97.8342Z" fill="#7FCFE7" stroke="#012A5D" stroke-width="4.56412" stroke-linecap="round" stroke-linejoin="round"/>
<path d="M77.3917 77.0233C77.3918 78.586 76.9266 80.1136 76.0549 81.4131C75.1832 82.7125 73.9442 83.7253 72.4946 84.3234C71.045 84.9215 69.4498 85.0781 67.9108 84.7733C66.3718 84.4686 64.9581 83.7162 63.8485 82.6112C62.7389 81.5063 61.9832 80.0985 61.677 78.5658C61.3707 77.0332 61.5277 75.4445 62.1281 74.0007C62.7285 72.5569 63.7453 71.3228 65.0499 70.4545C66.3545 69.5862 67.8884 69.1227 69.4575 69.1226C70.5001 69.1198 71.533 69.3222 72.4969 69.7182C73.4607 70.1143 74.3364 70.6961 75.0737 71.4303C75.811 72.1645 76.3954 73.0366 76.7932 73.9964C77.1909 74.9562 77.3943 75.9849 77.3917 77.0233Z" fill="#7FCFE7" stroke="#012A5D" stroke-width="4.56412" stroke-linecap="round" stroke-linejoin="round"/>
<path d="M121.509 127.868L133.242 122.312C133.999 123.895 135.355 125.114 137.012 125.702C138.669 126.29 140.491 126.198 142.078 125.447C143.665 124.695 144.887 123.346 145.475 121.695C146.063 120.044 145.969 118.227 145.214 116.643L156.947 111.087L162.383 122.802C160.797 123.555 159.576 124.905 158.989 126.556C158.401 128.207 158.496 130.025 159.252 131.608C160.008 133.191 161.363 134.412 163.02 135C164.676 135.589 166.499 135.498 168.086 134.748L173.675 146.454L162.095 152.001C161.339 150.417 159.983 149.197 158.325 148.608C156.668 148.02 154.845 148.111 153.257 148.863C151.67 149.615 150.447 150.965 149.86 152.617C149.272 154.268 149.366 156.086 150.123 157.67L138.39 163.226L132.801 151.52C131.213 152.27 129.391 152.361 127.735 151.772C126.078 151.184 124.723 149.963 123.967 148.38C123.211 146.796 123.116 144.979 123.703 143.328C124.29 141.677 125.511 140.327 127.098 139.574L121.509 127.868Z" fill="#90CCE2" stroke="#012A5D" stroke-width="4.56412" stroke-linecap="round" stroke-linejoin="round"/>
<path d="M155.829 111.617L167.562 106.061C168.319 107.644 169.675 108.863 171.332 109.451C172.989 110.039 174.811 109.947 176.398 109.196C177.985 108.444 179.207 107.095 179.795 105.444C180.383 103.793 180.289 101.976 179.534 100.392L191.267 94.8362L196.703 106.551C195.117 107.304 193.896 108.654 193.309 110.305C192.721 111.957 192.816 113.774 193.572 115.357C194.328 116.94 195.683 118.161 197.34 118.749C198.997 119.338 200.819 119.247 202.406 118.497L207.995 130.203L196.415 135.75C195.659 134.166 194.303 132.946 192.645 132.357C190.988 131.769 189.165 131.86 187.577 132.612C185.99 133.364 184.767 134.714 184.18 136.366C183.592 138.017 183.686 139.835 184.443 141.419L172.71 146.975L167.121 135.269C165.534 136.019 163.711 136.11 162.055 135.521C160.398 134.933 159.043 133.712 158.287 132.129C157.531 130.545 157.436 128.728 158.023 127.077C158.61 125.426 159.832 124.076 161.418 123.323L155.829 111.617Z" fill="#BFE7F3" stroke="#012A5D" stroke-width="4.56412" stroke-linecap="round" stroke-linejoin="round"/>
<line x1="177.285" y1="167.38" x2="177.285" y2="178.008" stroke="#012A5D" stroke-width="4.56412" stroke-linecap="round"/>
<line x1="183.633" y1="163.045" x2="189.381" y2="171.985" stroke="#012A5D" stroke-width="4.56412" stroke-linecap="round"/>
<line x1="191.813" y1="158.786" x2="201.017" y2="164.1" stroke="#012A5D" stroke-width="4.56412" stroke-linecap="round"/>
</svg>
