<svg width="155" height="183" viewBox="0 0 155 183" fill="none" xmlns="http://www.w3.org/2000/svg">
<path d="M77.1444 129.683H59.6138V164.832H77.1444" fill="white"/>
<path d="M77.1444 129.683H59.6138V164.832H77.1444" stroke="#012A5D" stroke-width="4.46429" stroke-miterlimit="10" stroke-linecap="round" stroke-linejoin="round"/>
<path d="M146.039 170.705C146.039 167.462 143.936 164.832 140.167 164.832H143.322C146.565 164.832 149.37 162.202 149.37 158.959C149.37 155.716 146.565 153.087 143.322 153.087H146.127C149.37 153.087 152 150.457 152 147.214C152 143.971 149.37 141.341 146.127 141.341H143.585C146.828 141.341 149.458 138.712 149.458 135.468C149.458 132.225 146.828 129.596 143.585 129.596H130.437C133.68 129.596 136.31 126.966 136.31 123.723C136.31 120.48 133.68 117.85 130.437 117.85H100.723C84.5071 117.85 71.4468 130.998 71.4468 147.126C71.4468 163.254 84.5947 176.402 100.723 176.402H140.167C143.41 176.578 146.039 173.948 146.039 170.705Z" fill="white" stroke="#012A5D" stroke-width="4.46429" stroke-miterlimit="10" stroke-linecap="round" stroke-linejoin="round"/>
<path d="M131.84 129.683H120.006H113.345C109.663 129.683 106.333 131.962 105.018 135.381L101.862 143.27C101.862 143.27 98.9698 153.35 85.033 153.174" fill="white"/>
<path d="M131.84 129.683H120.006H113.345C109.663 129.683 106.333 131.962 105.018 135.381L101.862 143.27C101.862 143.27 98.9698 153.35 85.033 153.174" stroke="#012A5D" stroke-width="4.46429" stroke-miterlimit="10" stroke-linecap="round" stroke-linejoin="round"/>
<path d="M59.6138 123.197V171.318" stroke="#012A5D" stroke-width="4.46429" stroke-miterlimit="10" stroke-linecap="round" stroke-linejoin="round"/>
<path d="M59.5828 171.291L59.5828 123.17H44.8571L44.8571 171.291H59.5828Z" fill="#BFE7F3" stroke="#012A5D" stroke-width="4.46429" stroke-miterlimit="10" stroke-linecap="round" stroke-linejoin="round"/>
<path d="M117.552 129.683H130.35C133.593 129.683 136.223 127.053 136.223 123.81C136.223 120.567 133.593 117.937 130.35 117.937H117.552" fill="white"/>
<path d="M117.552 129.683H130.35C133.593 129.683 136.223 127.053 136.223 123.81C136.223 120.567 133.593 117.937 130.35 117.937H117.552" stroke="#012A5D" stroke-width="4.46429" stroke-miterlimit="10" stroke-linecap="round" stroke-linejoin="round"/>
<path fill-rule="evenodd" clip-rule="evenodd" d="M138.507 171.937V102.996H114.955V171.937C114.955 172.385 115.043 172.828 115.215 173.242C115.387 173.656 115.64 174.031 115.958 174.348C116.277 174.665 116.655 174.916 117.071 175.087C117.488 175.259 117.934 175.347 118.385 175.347H135.077C135.528 175.347 135.974 175.259 136.39 175.087C136.807 174.916 137.185 174.665 137.503 174.348C137.822 174.031 138.075 173.656 138.247 173.242C138.419 172.828 138.507 172.385 138.507 171.937Z" fill="#7FCFE7"/>
<path d="M105.887 92.1383C107.641 96.6404 110.824 100.452 114.955 102.996H138.507H138.51C142.641 100.452 145.824 96.6404 147.578 92.1383C149.332 87.6363 149.561 82.6892 148.229 78.0466C146.898 73.404 144.079 69.319 140.2 66.4104C136.321 63.5019 131.593 61.9285 126.733 61.9285C121.872 61.9285 117.144 63.5019 113.265 66.4104C109.386 69.319 106.568 73.404 105.236 78.0466C103.905 82.6892 104.133 87.6363 105.887 92.1383Z" fill="#F1F1F1"/>
<path d="M138.507 171.937H136.275L136.275 171.939L138.507 171.937ZM135.077 175.347L135.077 173.115H135.077V175.347ZM118.385 175.347V173.115H118.385L118.385 175.347ZM114.955 171.937L117.187 171.939V171.937H114.955ZM126.733 61.9285V59.6963V61.9285ZM138.51 102.996V105.228C138.923 105.228 139.329 105.113 139.681 104.896L138.51 102.996ZM136.275 102.996V171.937H140.739V102.996H136.275ZM136.275 171.939C136.275 172.092 136.245 172.243 136.186 172.384L140.307 174.1C140.593 173.414 140.74 172.678 140.739 171.935L136.275 171.939ZM136.186 172.384C136.127 172.526 136.04 172.655 135.93 172.765L139.077 175.931C139.604 175.408 140.022 174.785 140.307 174.1L136.186 172.384ZM135.93 172.765C135.819 172.875 135.687 172.963 135.541 173.023L137.24 177.151C137.926 176.869 138.551 176.455 139.077 175.931L135.93 172.765ZM135.541 173.023C135.394 173.084 135.237 173.115 135.077 173.115L135.077 177.579C135.819 177.579 136.554 177.434 137.24 177.151L135.541 173.023ZM135.077 173.115H118.385V177.579H135.077V173.115ZM118.385 173.115C118.225 173.115 118.068 173.084 117.921 173.023L116.222 177.151C116.908 177.434 117.643 177.579 118.385 177.579L118.385 173.115ZM117.921 173.023C117.775 172.963 117.643 172.875 117.532 172.765L114.385 175.931C114.911 176.455 115.536 176.869 116.222 177.151L117.921 173.023ZM117.532 172.765C117.422 172.655 117.335 172.526 117.276 172.384L113.154 174.1C113.44 174.785 113.858 175.408 114.385 175.931L117.532 172.765ZM117.276 172.384C117.217 172.243 117.187 172.092 117.187 171.939L112.723 171.935C112.722 172.678 112.869 173.414 113.154 174.1L117.276 172.384ZM117.187 171.937V102.996H112.723V171.937H117.187ZM116.125 101.095C112.407 98.8049 109.543 95.3753 107.967 91.3281L103.807 92.9486C105.738 97.9054 109.242 102.099 113.785 104.896L116.125 101.095ZM107.967 91.3281C106.39 87.2811 106.185 82.8347 107.382 78.6619L103.09 77.4312C101.624 82.5436 101.876 87.9915 103.807 92.9486L107.967 91.3281ZM107.382 78.6619C108.579 74.4889 111.113 70.8142 114.604 68.1963L111.926 64.6246C107.66 67.8237 104.557 72.3191 103.09 77.4312L107.382 78.6619ZM114.604 68.1963C118.096 65.5783 122.354 64.1606 126.733 64.1606V59.6963C121.391 59.6963 116.193 61.4256 111.926 64.6246L114.604 68.1963ZM126.733 64.1606C131.111 64.1606 135.369 65.5783 138.861 68.1963L141.539 64.6246C137.272 61.4256 132.074 59.6963 126.733 59.6963V64.1606ZM138.861 68.1963C142.352 70.8142 144.887 74.4889 146.083 78.6619L150.375 77.4312C148.909 72.3191 145.806 67.8237 141.539 64.6246L138.861 68.1963ZM146.083 78.6619C147.28 82.8347 147.075 87.2811 145.498 91.3281L149.658 92.9486C151.589 87.9915 151.841 82.5436 150.375 77.4312L146.083 78.6619ZM145.498 91.3281C143.922 95.3753 141.059 98.8049 137.34 101.095L139.681 104.896C144.223 102.099 147.727 97.9054 149.658 92.9486L145.498 91.3281ZM138.51 100.763H138.507V105.228H138.51V100.763ZM114.955 105.228H138.51V100.763H114.955V105.228ZM138.507 100.763H114.955V105.228H138.507V100.763Z" fill="#012A5D"/>
<path d="M144.988 129.683H124.039C121.584 129.683 119.656 131.612 119.656 134.066V136.959C119.656 139.413 121.584 141.341 124.039 141.341H144.988C147.442 141.341 149.37 139.413 149.37 136.959V134.066C149.458 131.699 147.442 129.683 144.988 129.683Z" fill="white" stroke="#012A5D" stroke-width="4.46429" stroke-miterlimit="10" stroke-linecap="round" stroke-linejoin="round"/>
<path d="M143.585 153.174H125.529C122.286 153.174 119.656 155.804 119.656 159.047C119.656 162.29 122.286 164.92 125.704 164.92H143.498C146.565 164.92 149.458 162.29 149.458 159.047C149.458 155.716 146.828 153.174 143.585 153.174Z" fill="white" stroke="#012A5D" stroke-width="4.46429" stroke-miterlimit="10" stroke-linecap="round" stroke-linejoin="round"/>
<path d="M141.657 164.832H124.126C121.672 164.832 119.744 166.76 119.744 169.214V172.107C119.744 174.561 121.672 176.49 124.126 176.49H141.657C144.111 176.49 146.04 174.561 146.04 172.107V169.214C146.04 166.848 144.024 164.832 141.657 164.832Z" fill="white" stroke="#012A5D" stroke-width="4.46429" stroke-miterlimit="10" stroke-linecap="round" stroke-linejoin="round"/>
<path d="M146.127 141.429H124.302C121.059 141.429 118.429 144.058 118.429 147.301C118.429 150.545 121.059 153.174 124.477 153.174H146.303C149.37 153.174 152 150.545 152 147.301C152 144.058 149.37 141.429 146.127 141.429Z" fill="white" stroke="#012A5D" stroke-width="4.46429" stroke-miterlimit="10" stroke-linecap="round" stroke-linejoin="round"/>
<path d="M90.3292 107.519H7.37366C7.37366 107.519 5.82253 66.7002 32.8184 50.5549C37.4691 53.8371 43.0627 55.5144 48.752 55.3326C54.4413 55.1508 59.9165 53.1198 64.3481 49.5474C92.9639 64.2684 90.3292 107.519 90.3292 107.519Z" fill="#BFE7F3" stroke="#012A5D" stroke-width="4.3703" stroke-linecap="round" stroke-linejoin="round"/>
<path d="M74.0969 29.1731C74.0973 34.35 72.5625 39.4108 69.6866 43.7154C66.8108 48.0201 62.723 51.3753 57.9403 53.3568C53.1576 55.3382 47.8947 55.8569 42.8172 54.8473C37.7396 53.8377 33.0755 51.3451 29.4146 47.6847C25.7537 44.0243 23.2605 39.3606 22.2501 34.2832C21.2398 29.2058 21.7578 23.9428 23.7386 19.1598C25.7194 14.3768 29.074 10.2886 33.3783 7.41215C37.6825 4.5357 42.7431 3.00021 47.92 2.99985C51.3599 2.9905 54.7678 3.66108 57.9477 4.97305C61.1276 6.28502 64.0169 8.21251 66.4494 10.6447C68.882 13.077 70.8099 15.966 72.1223 19.1457C73.4347 22.3254 74.1058 25.7331 74.0969 29.1731Z" fill="#BFE7F3" stroke="#012A5D" stroke-width="4.3703" stroke-linecap="round" stroke-linejoin="round"/>
<path d="M72.0375 43.4351C72.0375 43.4351 80.9092 58.9835 56.3044 57.8004" stroke="#012A5D" stroke-width="4.3703" stroke-linecap="round" stroke-linejoin="round"/>
<path d="M53.2671 52.6128H43.6087C43.2023 52.6222 42.8014 52.7314 42.4288 52.9343C42.0562 53.1372 41.7193 53.4298 41.4373 53.7953C41.1553 54.1609 40.9337 54.5922 40.7852 55.0647C40.6367 55.5372 40.5642 56.0416 40.5718 56.5491C40.5642 57.0563 40.6367 57.5604 40.7853 58.0325C40.9338 58.5047 41.1555 58.9356 41.4376 59.3007C41.7196 59.6657 42.0566 59.9577 42.4291 60.16C42.8017 60.3622 43.2025 60.4707 43.6087 60.4793H53.2671C54.087 60.4604 54.8673 60.0358 55.4368 59.2989C56.0062 58.562 56.3181 57.573 56.3039 56.5491C56.3181 55.5246 56.0063 54.5349 55.4371 53.7971C54.8678 53.0592 54.0874 52.6333 53.2671 52.6128Z" fill="#7FCFE7" stroke="#012A5D" stroke-width="4.3703" stroke-linecap="round" stroke-linejoin="round"/>
<path d="M34.0636 119.071H2V170.927H34.0636V119.071Z" fill="#7FCFE7" stroke="#012A5D" stroke-width="2.77784" stroke-linecap="round" stroke-linejoin="round"/>
<path d="M29.3135 124.217H6.75024V159.052H29.3135V124.217Z" fill="#BFE7F3" stroke="#012A5D" stroke-width="2.77784" stroke-linecap="round" stroke-linejoin="round"/>
<path d="M21.6508 170.927C21.6508 170.927 27.1911 180.637 11.8254 179.898" stroke="#012A5D" stroke-width="2.72926" stroke-linecap="round" stroke-linejoin="round"/>
<path d="M9.92852 176.659H3.89686C3.64307 176.665 3.39268 176.733 3.16001 176.859C2.92733 176.986 2.71692 177.169 2.54081 177.397C2.36469 177.625 2.22631 177.895 2.13358 178.19C2.04084 178.485 1.99557 178.8 2.00034 179.117C1.99557 179.434 2.04087 179.748 2.13364 180.043C2.22641 180.338 2.36483 180.607 2.54099 180.835C2.71714 181.063 2.92757 181.246 3.16023 181.372C3.39289 181.498 3.64321 181.566 3.89686 181.571H9.92852C10.4406 181.56 10.9279 181.294 11.2835 180.834C11.6391 180.374 11.8339 179.756 11.825 179.117C11.8339 178.477 11.6392 177.859 11.2837 177.398C10.9282 176.937 10.4408 176.671 9.92852 176.659Z" fill="#7FCFE7" stroke="#012A5D" stroke-width="2.72926" stroke-linecap="round" stroke-linejoin="round"/>
</svg>
