<svg width="214" height="156" viewBox="0 0 214 156" fill="none" xmlns="http://www.w3.org/2000/svg">
<path d="M3 110.126V45.6608H46.6962L104.641 3V152.787L46.6962 110.126H3Z" fill="#BFE7F3" stroke="#012A5D" stroke-width="5" stroke-linejoin="round"/>
<path d="M135.688 110.221C135.688 110.221 158.948 95.8246 158.948 74.5615L159.084 71.5674C159.084 50.304 135.824 35.9077 135.824 35.9077" stroke="#012A5D" stroke-width="5" stroke-linecap="round" stroke-linejoin="round"/>
<path d="M120.898 89.9602C120.898 89.9602 131.747 83.245 131.747 73.327L131.811 71.9304C131.811 62.0123 120.961 55.2972 120.961 55.2972" stroke="#012A5D" stroke-width="5" stroke-linecap="round" stroke-linejoin="round"/>
<path d="M143.858 139.74C143.858 139.74 185.631 113.885 185.631 75.6986L185.875 70.3215C185.875 32.1353 144.102 6.28061 144.102 6.28061" stroke="#012A5D" stroke-width="5" stroke-linecap="round" stroke-linejoin="round"/>
<rect x="3" y="45.7964" width="41.9047" height="64.1944" fill="#7FCFE7" stroke="#012A5D" stroke-width="5" stroke-linejoin="round"/>
</svg>
