<svg width="172" height="172" viewBox="0 0 172 172" fill="none" xmlns="http://www.w3.org/2000/svg">
<path d="M169 96.1277V75.8722L148.641 76.7992C147.058 66.8801 143.106 57.4894 137.119 49.4241L157.29 32.6183L143.566 17.7197L122.587 35.2597C114.874 29.9428 106.075 26.4081 96.8271 24.9118V3H76.6446V24.9118C68.7749 26.2051 61.2263 28.9954 54.4074 33.1316L37.4398 15.3983L22.4678 29.1959L38.9216 46.3418C31.6961 54.9741 26.9301 65.3939 25.1246 76.5053L3 76.8355V97.0914L25.1246 96.7613C26.7194 106.446 30.5655 115.622 36.3531 123.549L16.139 140.326L29.8631 155.224L50.8114 137.787C58.5244 143.246 67.3875 146.861 76.7181 148.355L76.6079 169H96.8638L96.974 148.355C106.332 146.836 115.219 143.196 122.954 137.713L139.711 156.55L154.535 142.826L137.412 123.402C143.12 115.609 146.916 106.584 148.495 97.0547L169 96.1277ZM86.0334 125.262C78.4587 125.268 71.0521 123.029 64.7503 118.826C58.4485 114.623 53.5345 108.646 50.6297 101.65C47.7249 94.6548 46.9598 86.955 48.4311 79.5245C49.9023 72.0941 53.544 65.2668 58.8954 59.906C64.2469 54.5453 71.0678 50.8918 78.4956 49.4075C85.9235 47.9233 93.6247 48.675 100.625 51.5677C107.626 54.4603 113.612 59.3638 117.825 65.6583C122.039 71.9528 124.292 79.3554 124.298 86.9301C124.303 91.9596 123.317 96.9409 121.397 101.589C119.476 106.238 116.659 110.462 113.106 114.022C109.552 117.582 105.333 120.406 100.688 122.335C96.0424 124.263 91.0629 125.258 86.0334 125.262Z" fill="#7FCFE7"/>
<path d="M86.0334 125.262C78.4587 125.268 71.0521 123.029 64.7503 118.826C58.4485 114.623 53.5345 108.646 50.6297 101.65C47.7249 94.6548 46.9598 86.955 48.4311 79.5245C49.9023 72.0941 53.544 65.2668 58.8954 59.906C64.2469 54.5453 71.0678 50.8918 78.4956 49.4075C85.9235 47.9233 93.6247 48.675 100.625 51.5677C107.626 54.4603 113.612 59.3638 117.825 65.6583C122.039 71.9528 124.292 79.3554 124.298 86.9301C124.303 91.9596 123.317 96.9409 121.397 101.589C119.476 106.238 116.659 110.462 113.106 114.022C109.552 117.582 105.333 120.406 100.688 122.335C96.0424 124.263 91.0629 125.258 86.0334 125.262Z" fill="white"/>
<path d="M169 96.1277L169.113 98.6252C170.448 98.5648 171.5 97.4645 171.5 96.1277H169ZM169 75.8722H171.5C171.5 75.1895 171.221 74.5364 170.727 74.0647C170.233 73.593 169.568 73.3438 168.886 73.3748L169 75.8722ZM148.641 76.7992L146.172 77.1931C146.373 78.4491 147.484 79.3544 148.755 79.2966L148.641 76.7992ZM137.119 49.4241L135.518 47.5034C134.499 48.3523 134.321 49.8493 135.111 50.9142L137.119 49.4241ZM157.29 32.6183L158.891 34.539C159.417 34.1008 159.74 33.466 159.785 32.7829C159.83 32.0997 159.593 31.428 159.129 30.9244L157.29 32.6183ZM143.566 17.7197L145.405 16.0259C144.501 15.0447 142.986 14.946 141.963 15.8017L143.566 17.7197ZM122.587 35.2597L121.168 37.3181C122.093 37.9555 123.329 37.898 124.191 37.1777L122.587 35.2597ZM96.8271 24.9118H94.3271C94.3271 26.1384 95.217 27.1838 96.4278 27.3797L96.8271 24.9118ZM96.8271 3H99.3271C99.3271 1.61929 98.2078 0.5 96.8271 0.5V3ZM76.6446 3V0.5C75.2639 0.5 74.1446 1.61929 74.1446 3L76.6446 3ZM76.6446 24.9118L77.05 27.3787C78.2581 27.1802 79.1446 26.1361 79.1446 24.9118H76.6446ZM54.4074 33.1316L52.6011 34.8599C53.4116 35.7069 54.7017 35.877 55.704 35.2691L54.4074 33.1316ZM37.4398 15.3983L39.2462 13.67C38.3042 12.6856 36.7475 12.6366 35.7456 13.5599L37.4398 15.3983ZM22.4678 29.1959L20.7736 27.3574C20.2796 27.8127 19.9896 28.4476 19.969 29.1191C19.9484 29.7906 20.1989 30.4421 20.664 30.9268L22.4678 29.1959ZM38.9216 46.3418L40.8387 47.9464C41.6573 46.9684 41.6085 45.531 40.7254 44.6108L38.9216 46.3418ZM25.1246 76.5053L25.1619 79.0051C26.3736 78.987 27.3978 78.1025 27.5922 76.9063L25.1246 76.5053ZM3 76.8355L2.9627 74.3358C1.59668 74.3561 0.5 75.4693 0.5 76.8355H3ZM3 97.0914H0.5C0.5 97.7609 0.768539 98.4024 1.24547 98.8723C1.7224 99.3422 2.36787 99.6011 3.0373 99.5911L3 97.0914ZM25.1246 96.7613L27.5913 96.355C27.3902 95.1334 26.3252 94.2431 25.0873 94.2616L25.1246 96.7613ZM36.3531 123.549L37.9497 125.473C38.9658 124.63 39.1509 123.141 38.3723 122.075L36.3531 123.549ZM16.139 140.326L14.5424 138.402C14.0149 138.84 13.6904 139.475 13.6446 140.159C13.5988 140.843 13.8359 141.516 14.3003 142.02L16.139 140.326ZM29.8631 155.224L28.0243 156.918C28.9267 157.898 30.4387 157.998 31.4624 157.145L29.8631 155.224ZM50.8114 137.787L52.2556 135.746C51.3312 135.092 50.0824 135.141 49.212 135.866L50.8114 137.787ZM76.7181 148.355L79.218 148.369C79.2246 147.135 78.331 146.082 77.1133 145.887L76.7181 148.355ZM76.6079 169L74.1079 168.987C74.1044 169.652 74.3662 170.291 74.8354 170.763C75.3046 171.235 75.9425 171.5 76.6079 171.5V169ZM96.8638 169V171.5C98.2393 171.5 99.3565 170.389 99.3638 169.013L96.8638 169ZM96.974 148.355L96.5734 145.888C95.3682 146.083 94.4806 147.121 94.4741 148.342L96.974 148.355ZM122.954 137.713L124.822 136.052C123.975 135.1 122.548 134.937 121.509 135.674L122.954 137.713ZM139.711 156.55L137.843 158.211C138.289 158.713 138.919 159.014 139.59 159.047C140.26 159.079 140.916 158.841 141.409 158.384L139.711 156.55ZM154.535 142.826L156.234 144.66C157.229 143.738 157.308 142.19 156.411 141.173L154.535 142.826ZM137.412 123.402L135.396 121.925C134.702 122.872 134.761 124.175 135.537 125.055L137.412 123.402ZM148.495 97.0547L148.382 94.5572C147.202 94.6105 146.221 95.4815 146.028 96.6461L148.495 97.0547ZM86.0334 125.262L86.0314 122.762H86.0312L86.0334 125.262ZM124.298 86.9301L121.798 86.9323V86.9325L124.298 86.9301ZM171.5 96.1277V75.8722H166.5V96.1277H171.5ZM168.886 73.3748L148.527 74.3018L148.755 79.2966L169.114 78.3697L168.886 73.3748ZM151.11 76.4052C149.464 66.089 145.353 56.3223 139.126 47.934L135.111 50.9142C140.858 58.6566 144.653 67.6713 146.172 77.1931L151.11 76.4052ZM138.719 51.3448L158.891 34.539L155.69 30.6975L135.518 47.5034L138.719 51.3448ZM159.129 30.9244L145.405 16.0259L141.728 19.4135L155.452 34.3121L159.129 30.9244ZM141.963 15.8017L120.984 33.3418L124.191 37.1777L145.17 19.6377L141.963 15.8017ZM124.006 33.2014C115.988 27.674 106.84 23.9994 97.2264 22.4439L96.4278 27.3797C105.31 28.8168 113.761 32.2115 121.168 37.3181L124.006 33.2014ZM99.3271 24.9118V3H94.3271V24.9118H99.3271ZM96.8271 0.5H76.6446V5.5H96.8271V0.5ZM74.1446 3V24.9118H79.1446V3H74.1446ZM76.2392 22.4449C68.0542 23.79 60.203 26.6921 53.1109 30.9941L55.704 35.2691C62.2496 31.2987 69.4957 28.6202 77.05 27.3787L76.2392 22.4449ZM56.2138 31.4032L39.2462 13.67L35.6335 17.1267L52.6011 34.8599L56.2138 31.4032ZM35.7456 13.5599L20.7736 27.3574L24.162 31.0343L39.134 17.2367L35.7456 13.5599ZM20.664 30.9268L37.1178 48.0728L40.7254 44.6108L24.2716 27.4649L20.664 30.9268ZM37.0046 44.7372C29.4907 53.714 24.5345 64.5495 22.6569 76.1044L27.5922 76.9063C29.3257 66.2382 33.9015 56.2343 40.8387 47.9464L37.0046 44.7372ZM25.0873 74.0056L2.9627 74.3358L3.0373 79.3352L25.1619 79.0051L25.0873 74.0056ZM0.5 76.8355V97.0914H5.5V76.8355H0.5ZM3.0373 99.5911L25.1619 99.261L25.0873 94.2616L2.9627 94.5917L3.0373 99.5911ZM22.6578 97.1675C24.3162 107.239 28.3156 116.78 34.334 125.023L38.3723 122.075C32.8153 114.464 29.1226 105.654 27.5913 96.355L22.6578 97.1675ZM34.7565 121.625L14.5424 138.402L17.7356 142.25L37.9497 125.473L34.7565 121.625ZM14.3003 142.02L28.0243 156.918L31.7018 153.53L17.9777 138.632L14.3003 142.02ZM31.4624 157.145L52.4107 139.708L49.212 135.866L28.2637 153.303L31.4624 157.145ZM49.3671 139.828C57.3925 145.508 66.6145 149.27 76.3229 150.824L77.1133 145.887C68.1606 144.453 59.6563 140.984 52.2556 135.746L49.3671 139.828ZM74.2181 148.342L74.1079 168.987L79.1078 169.013L79.218 148.369L74.2181 148.342ZM76.6079 171.5H96.8638V166.5H76.6079V171.5ZM99.3638 169.013L99.474 148.369L94.4741 148.342L94.3639 168.987L99.3638 169.013ZM97.3746 150.823C107.109 149.243 116.354 145.456 124.4 139.753L121.509 135.674C114.085 140.936 105.555 144.429 96.5734 145.888L97.3746 150.823ZM121.086 139.375L137.843 158.211L141.578 154.888L124.822 136.052L121.086 139.375ZM141.409 158.384L156.234 144.66L152.837 140.991L138.012 154.715L141.409 158.384ZM156.411 141.173L139.288 121.749L135.537 125.055L152.66 144.479L156.411 141.173ZM139.429 124.879C145.368 116.77 149.318 107.379 150.961 97.4633L146.028 96.6461C144.513 105.789 140.871 114.448 135.396 121.925L139.429 124.879ZM148.607 99.5521L169.113 98.6252L168.887 93.6303L148.382 94.5572L148.607 99.5521ZM86.0312 122.762C78.9509 122.768 72.0279 120.674 66.1374 116.746L63.3632 120.906C70.0764 125.383 77.9664 127.769 86.0355 127.762L86.0312 122.762ZM66.1374 116.746C60.247 112.818 55.6538 107.231 52.9386 100.692L48.3209 102.609C51.4153 110.061 56.6501 116.429 63.3632 120.906L66.1374 116.746ZM52.9386 100.692C50.2234 94.1527 49.5082 86.9555 50.8835 80.0101L45.9787 79.0389C44.4114 86.9544 45.2265 95.1569 48.3209 102.609L52.9386 100.692ZM50.8835 80.0101C52.2587 73.0647 55.6626 66.6831 60.6647 61.6723L57.1261 58.1398C51.4253 63.8505 47.546 71.1235 45.9787 79.0389L50.8835 80.0101ZM60.6647 61.6723C65.6668 56.6614 72.0425 53.2464 78.9855 51.8591L78.0058 46.956C70.0931 48.5371 62.8269 52.4291 57.1261 58.1398L60.6647 61.6723ZM78.9855 51.8591C85.9285 50.4717 93.1269 51.1744 99.6706 53.8782L101.58 49.2571C94.1224 46.1757 85.9185 45.3749 78.0058 46.956L78.9855 51.8591ZM99.6706 53.8782C106.214 56.582 111.809 61.1655 115.748 67.049L119.903 64.2676C115.414 57.5622 109.038 52.3386 101.58 49.2571L99.6706 53.8782ZM115.748 67.049C119.687 72.9326 121.792 79.852 121.798 86.9323L126.798 86.9279C126.791 78.8588 124.392 70.9729 119.903 64.2676L115.748 67.049ZM121.798 86.9325C121.803 91.6337 120.881 96.2898 119.086 100.635L123.707 102.544C125.753 97.592 126.804 92.2855 126.798 86.9276L121.798 86.9325ZM119.086 100.635C117.291 104.98 114.658 108.929 111.336 112.256L114.875 115.788C118.66 111.996 121.662 107.496 123.707 102.544L119.086 100.635ZM111.336 112.256C108.015 115.583 104.071 118.223 99.729 120.026L101.646 124.644C106.595 122.589 111.09 119.58 114.875 115.788L111.336 112.256ZM99.729 120.026C95.3871 121.828 90.7326 122.758 86.0314 122.762L86.0353 127.762C91.3932 127.758 96.6978 126.698 101.646 124.644L99.729 120.026Z" fill="#012A5D"/>
<line x1="85.844" y1="73.228" x2="85.844" y2="87.484" stroke="#012A5D" stroke-width="5" stroke-linecap="round"/>
<line x1="86.8795" y1="89.3198" x2="100.608" y2="103.048" stroke="#012A5D" stroke-width="5" stroke-linecap="round"/>
</svg>
