<svg width="202" height="182" viewBox="0 0 202 182" fill="none" xmlns="http://www.w3.org/2000/svg">
<circle cx="101" cy="99.4219" r="9.46875" fill="#BFE7F3"/>
<path d="M124.299 165.436L124.307 165.441C127.415 167.598 130.652 169.562 134 171.324L134.066 171.364L134.66 171.72H134.726C135.29 172.103 135.745 172.632 136.038 173.254C136.404 174.034 136.495 174.915 136.297 175.753C136.099 176.591 135.623 177.337 134.947 177.87C134.27 178.404 133.433 178.692 132.572 178.688H132.562H69.4373C69.4372 178.688 69.4371 178.688 69.4371 178.688C68.5786 178.688 67.7453 178.399 67.0721 177.866C66.3988 177.333 65.925 176.589 65.7274 175.754C65.5298 174.918 65.6199 174.04 65.9832 173.263C66.3465 172.485 66.9617 171.852 67.7292 171.468L67.7525 171.456L67.8384 171.413L67.9207 171.364L67.9641 171.338C68.8981 170.87 69.8163 170.371 70.717 169.842C73.1024 168.475 75.4287 167.007 77.6896 165.443L77.6959 165.439L77.7021 165.434C78.5886 164.813 79.1563 163.827 79.5168 163.103C79.927 162.281 80.305 161.295 80.6548 160.257C81.3559 158.177 82.037 155.605 82.6789 153.118C82.7783 152.733 82.8768 152.35 82.9744 151.971C83.5181 149.855 84.0344 147.847 84.5333 146.182C84.827 145.202 85.097 144.401 85.3419 143.805C85.5665 143.258 85.6958 143.073 85.6909 143.07C85.6904 143.069 85.6885 143.071 85.6852 143.074C86.0351 142.722 86.4504 142.442 86.9078 142.249C87.3729 142.053 87.8722 141.952 88.3769 141.95H113.622C114.127 141.952 114.626 142.053 115.091 142.249C115.549 142.442 115.964 142.722 116.314 143.074C116.311 143.071 116.309 143.069 116.308 143.07C116.303 143.074 116.433 143.259 116.658 143.806C116.903 144.403 117.174 145.204 117.468 146.185C117.969 147.855 118.487 149.87 119.033 151.992C119.13 152.366 119.227 152.744 119.325 153.124C119.968 155.611 120.649 158.183 121.35 160.262C121.699 161.299 122.076 162.284 122.485 163.106C122.844 163.826 123.411 164.815 124.299 165.436ZM85.6579 143.102L85.6654 143.094C85.6631 143.096 85.6606 143.099 85.6579 143.102ZM90.8746 99.126C90.8746 96.4407 91.9413 93.8653 93.8401 91.9665C95.7389 90.0677 98.3143 89.001 101 89.001C103.685 89.001 106.26 90.0677 108.159 91.9665C110.058 93.8653 111.125 96.4407 111.125 99.126C111.125 101.811 110.058 104.387 108.159 106.285C106.26 108.184 103.685 109.251 101 109.251C98.3143 109.251 95.7389 108.184 93.8401 106.285C91.9413 104.387 90.8746 101.811 90.8746 99.126Z" fill="#F1F1F1" stroke="#012A5D" stroke-width="5"/>
<path d="M9.16332 64.1018C13.4298 59.8353 19.2163 57.4385 25.25 57.4385H176.75C182.784 57.4385 188.57 59.8353 192.837 64.1018C197.103 68.3682 199.5 74.1548 199.5 80.1885V118.063C199.5 124.097 197.103 129.884 192.837 134.15C188.57 138.417 182.784 140.813 176.75 140.813H25.25C19.2163 140.813 13.4298 138.417 9.16332 134.15C4.89687 129.884 2.5 124.097 2.5 118.063V80.1885C2.5 74.1548 4.89687 68.3682 9.16332 64.1018ZM120.622 79.5038C115.418 74.2996 108.36 71.376 101 71.376C93.6402 71.376 86.5819 74.2996 81.3778 79.5038C76.1736 84.7079 73.25 91.7662 73.25 99.126C73.25 106.486 76.1736 113.544 81.3778 118.748C86.5819 123.952 93.6402 126.876 101 126.876C108.36 126.876 115.418 123.952 120.622 118.748C125.826 113.544 128.75 106.486 128.75 99.126C128.75 91.7662 125.826 84.7079 120.622 79.5038ZM151.581 105.357C153.234 107.01 155.475 107.938 157.812 107.938C160.15 107.938 162.391 107.01 164.044 105.357C165.697 103.705 166.625 101.463 166.625 99.126C166.625 96.7888 165.697 94.5473 164.044 92.8946C162.391 91.2419 160.15 90.3135 157.812 90.3135C155.475 90.3135 153.234 91.2419 151.581 92.8946C149.928 94.5473 149 96.7888 149 99.126C149 101.463 149.928 103.705 151.581 105.357Z" fill="#7FCFE7" stroke="#012A5D" stroke-width="5"/>
<path d="M32.6084 43.3984L41.4539 45.7686L50.2994 48.1387L38.9956 90.3251L32.5574 78.9708L21.3046 85.5848L32.6084 43.3984Z" fill="#F1F1F1" stroke="#012A5D" stroke-width="5" stroke-linejoin="round"/>
<path d="M58.7744 43.3984L49.9289 45.7686L41.0834 48.1387L52.3872 90.3251L58.8254 78.9708L70.0782 85.5848L58.7744 43.3984Z" fill="#F1F1F1" stroke="#012A5D" stroke-width="5" stroke-linejoin="round"/>
<circle cx="45.7656" cy="33.9297" r="31.4297" fill="#BFE7F3" stroke="#012A5D" stroke-width="5" stroke-linejoin="round"/>
<path d="M45.7658 14.9922L51.6178 27.2L64.7031 29.1576L55.2345 38.6604L57.4698 52.0781L45.7658 45.743L34.0614 52.0781L36.2968 38.6604L26.8281 29.1576L39.9134 27.2L45.7658 14.9922Z" fill="white" stroke="#012A5D" stroke-width="5" stroke-linecap="round" stroke-linejoin="round"/>
</svg>
