<svg width="197" height="195" viewBox="0 0 197 195" fill="none" xmlns="http://www.w3.org/2000/svg">
<path d="M194.266 3H88.9375V71.0273H194.266V3Z" fill="#BFE7F3" stroke="#012A5D" stroke-width="5" stroke-linejoin="round"/>
<path d="M63.8594 81.1055C66.67 81.1055 69.4176 80.2681 71.7545 78.6993C74.0915 77.1305 75.913 74.9007 76.9886 72.2918C78.0642 69.683 78.3456 66.8123 77.7972 64.0428C77.2489 61.2732 75.8954 58.7292 73.908 56.7325C71.9206 54.7358 69.3884 53.376 66.6318 52.8251C63.8751 52.2742 61.0178 52.557 58.4211 53.6376C55.8244 54.7182 53.6049 56.5482 52.0434 58.8961C50.4819 61.244 49.6484 64.0043 49.6484 66.8281C49.6484 70.6147 51.1457 74.2462 53.8107 76.9237C56.4758 79.6013 60.0904 81.1055 63.8594 81.1055Z" fill="#BFE7F3" stroke="#012A5D" stroke-width="5" stroke-linecap="round" stroke-linejoin="round"/>
<path d="M38.7812 107.98C39.5886 101.484 42.4878 95.4452 47.0228 90.8149C51.5578 86.1846 57.4713 83.225 63.8333 82.4017C72.5404 81.4749 80.8408 78.1637 87.8574 72.8178C87.8574 72.8178 96.4609 68.6698 96.4609 77.7031C96.4609 89.13 84.0331 96.8988 84.0331 96.8988L89.4474 107.966L38.7812 107.98Z" fill="#BFE7F3" stroke="#012A5D" stroke-width="5" stroke-linecap="round" stroke-linejoin="round"/>
<path d="M95.625 71.8672L120.703 34.9141" stroke="#012A5D" stroke-width="5" stroke-linecap="round" stroke-linejoin="round"/>
<path d="M121.278 96.2228H18.7951C18.1154 96.2228 17.4636 96.4992 16.983 96.9913C16.5024 97.4834 16.2324 98.1508 16.2324 98.8467V168.668C16.2324 169.364 16.5024 170.031 16.983 170.523C17.4636 171.015 18.1154 171.292 18.7951 171.292H121.302C121.982 171.292 122.634 171.015 123.114 170.523C123.595 170.031 123.865 169.364 123.865 168.668V98.8467C123.865 98.5 123.798 98.1567 123.667 97.8367C123.537 97.5168 123.346 97.2264 123.106 96.9824C122.865 96.7384 122.58 96.5457 122.266 96.4153C121.952 96.2849 121.616 96.2195 121.278 96.2228Z" fill="#F1F1F1" stroke="#012A5D" stroke-width="4" stroke-miterlimit="10"/>
<path d="M67.9229 171.292H121.296C122.926 171.375 124.478 172.005 125.696 173.077L137.532 184.699C138.51 185.664 138.192 186.484 136.784 186.484H4.20997C2.80195 186.484 2.46461 185.683 3.46685 184.699L15.2981 173.077C16.5163 172.005 18.0684 171.375 19.6982 171.292H67.9229Z" fill="#F1F1F1" stroke="#012A5D" stroke-width="4" stroke-miterlimit="10"/>
<path d="M138.183 184.697H4.58224C3.89693 184.698 3.24015 184.985 2.75603 185.493C2.2719 186.002 2 186.691 2 187.409V188.246C2 188.964 2.27206 189.652 2.75632 190.16C3.24058 190.668 3.89739 190.953 4.58224 190.953H138.183C138.868 190.953 139.525 190.668 140.009 190.16C140.494 189.652 140.766 188.964 140.766 188.246V187.409C140.766 186.691 140.494 186.002 140.01 185.493C139.525 184.985 138.869 184.698 138.183 184.697Z" fill="white"/>
<path d="M136.543 184.406H4.55113C3.87408 184.408 3.22521 184.792 2.74692 185.475C2.26863 186.158 2 187.083 2 188.047V189.171C2 190.134 2.26878 191.059 2.74721 191.74C3.22564 192.422 3.87453 192.805 4.55113 192.805H136.543C137.219 192.805 137.868 192.422 138.347 191.74C138.825 191.059 139.094 190.134 139.094 189.171V188.047C139.094 187.083 138.825 186.158 138.347 185.475C137.869 184.792 137.22 184.408 136.543 184.406Z" fill="#F1F1F1" stroke="#012A5D" stroke-width="4" stroke-linejoin="round"/>
<path d="M116.748 106.053H24.238V161.461H116.748V106.053Z" fill="#7FCFE7" stroke="#012A5D" stroke-width="4" stroke-linejoin="round"/>
<path d="M106.964 113.203H58.9294V145.375H106.964V113.203Z" fill="#BFE7F3" stroke="#012A5D" stroke-width="4" stroke-linejoin="round"/>
<path d="M46.8674 149.682C48.1868 149.682 49.4767 149.289 50.5738 148.552C51.6709 147.816 52.526 146.769 53.0309 145.544C53.5359 144.319 53.668 142.972 53.4106 141.672C53.1532 140.371 52.5178 139.177 51.5848 138.24C50.6517 137.302 49.463 136.664 48.1689 136.405C46.8747 136.147 45.5334 136.28 44.3143 136.787C43.0953 137.294 42.0533 138.153 41.3203 139.255C40.5872 140.358 40.1959 141.654 40.1959 142.979C40.1959 144.757 40.8988 146.462 42.1499 147.719C43.4011 148.976 45.098 149.682 46.8674 149.682Z" fill="#BFE7F3" stroke="#012A5D" stroke-width="4" stroke-linecap="round" stroke-linejoin="round"/>
<path d="M35.7483 161.461C36.1333 158.727 37.5186 156.186 39.6861 154.237C41.8537 152.287 44.6806 151.041 47.7222 150.694C51.8846 150.308 55.8534 148.917 59.2081 146.669C59.2081 146.669 63.3235 144.924 63.3235 148.722C63.3235 153.534 57.3818 156.803 57.3818 156.803L59.9728 161.461H35.7483Z" fill="#BFE7F3" stroke="#012A5D" stroke-width="4" stroke-linecap="round" stroke-linejoin="round"/>
<path d="M62.434 146.269L73.9978 128.395" stroke="#012A5D" stroke-width="4" stroke-linecap="round" stroke-linejoin="round"/>
</svg>
