<svg width="161" height="159" viewBox="0 0 161 159" fill="none" xmlns="http://www.w3.org/2000/svg">
<path d="M66.4628 119.725L66.4593 119.729C66.385 119.813 66.1978 120.133 65.9391 120.839C65.699 121.495 65.4451 122.343 65.1786 123.341C64.7262 125.034 64.2586 127.073 63.774 129.187L63.7344 129.36C63.6607 129.681 63.5866 130.004 63.5122 130.327C62.9383 132.82 62.3409 135.346 61.7316 137.372C61.4273 138.384 61.1101 139.306 60.7785 140.052C60.4727 140.739 60.0684 141.486 59.5022 141.931L59.4959 141.935C57.5006 143.483 55.4471 144.936 53.341 146.289C52.5442 146.814 51.7315 147.308 50.9043 147.772L50.8348 147.818L50.7923 147.847L50.7477 147.872L48.6943 150.241C48.2574 151.29 48.1465 152.483 48.3864 153.62C48.6262 154.756 49.1961 155.743 49.9748 156.434C50.7504 157.122 51.6869 157.478 52.6301 157.478H108.934H108.94C109.886 157.482 110.827 157.128 111.606 156.439C112.388 155.748 112.961 154.759 113.201 153.619C113.441 152.478 113.329 151.281 112.888 150.23C112.493 149.287 111.863 148.53 111.106 148.033H111.038L110.718 147.818L110.637 147.764C107.676 146.018 104.814 144.071 102.067 141.934L102.063 141.931C101.497 141.487 101.093 140.741 100.789 140.055C100.458 139.31 100.141 138.389 99.8374 137.378C99.2286 135.352 98.6309 132.825 98.0564 130.332C97.9697 129.956 97.8835 129.58 97.7978 129.207C97.3113 127.087 96.8416 125.041 96.3874 123.343C96.1204 122.345 95.8662 121.496 95.6258 120.84C95.3668 120.133 95.1794 119.813 95.105 119.729L95.1014 119.725C94.6878 119.252 94.2024 118.884 93.6779 118.637C93.1545 118.389 67.0201 119.727 66.4628 119.725Z" fill="#C6E6F1"/>
<path d="M69.5213 118.262V117L69.5243 118.262H69.5229H69.5213Z" fill="#C6E6F1"/>
<path d="M66.4628 119.725L66.4593 119.729C66.385 119.813 66.1978 120.133 65.9391 120.839C65.699 121.495 65.4451 122.343 65.1786 123.341C64.7262 125.034 64.2586 127.073 63.774 129.187L63.7344 129.36C63.6607 129.681 63.5866 130.004 63.5122 130.327C62.9383 132.82 62.3409 135.346 61.7316 137.372C61.4273 138.384 61.1101 139.306 60.7785 140.052C60.4727 140.739 60.0684 141.486 59.5022 141.931L59.4959 141.935C57.5006 143.483 55.4471 144.936 53.341 146.289C52.5442 146.814 51.7315 147.308 50.9043 147.772L50.8348 147.818L50.7923 147.847L50.7477 147.872L48.6943 150.241C48.2574 151.29 48.1465 152.483 48.3864 153.62C48.6262 154.756 49.1961 155.743 49.9748 156.434C50.7504 157.122 51.6869 157.478 52.6301 157.478H108.934H108.94C109.886 157.482 110.827 157.128 111.606 156.439C112.388 155.748 112.961 154.759 113.201 153.619C113.441 152.478 113.329 151.281 112.888 150.23C112.493 149.287 111.863 148.53 111.106 148.033H111.038L110.718 147.818L110.637 147.764C107.676 146.018 104.814 144.071 102.067 141.934L102.063 141.931C101.497 141.487 101.093 140.741 100.789 140.055C100.458 139.31 100.141 138.389 99.8374 137.378C99.2286 135.352 98.6309 132.825 98.0564 130.332C97.9697 129.956 97.8835 129.58 97.7978 129.207C97.3113 127.087 96.8416 125.041 96.3874 123.343C96.1204 122.345 95.8662 121.496 95.6258 120.84C95.3668 120.133 95.1794 119.813 95.105 119.729L95.1014 119.725C94.6878 119.252 94.2024 118.884 93.6779 118.637C93.1545 118.389 67.0201 119.727 66.4628 119.725Z" stroke="#012A5D" stroke-width="2.52477"/>
<path d="M69.5213 118.262V117L69.5243 118.262H69.5229H69.5213Z" stroke="#012A5D" stroke-width="2.52477"/>
<path d="M158.948 2H2V121.942H158.948V2Z" fill="#F1F1F1" stroke="#012A5D" stroke-width="2.52477" stroke-linejoin="round"/>
<path d="M146.984 14.6255H13.9648V108.528H146.984V14.6255Z" fill="white" stroke="#012A5D" stroke-width="2.52477" stroke-linejoin="round"/>
<path d="M87.9598 99.917L137.773 82.8684V100.822L87.9598 99.917Z" fill="#E9E9E9"/>
<path d="M80.7698 91.2693C80.7698 91.2693 61.6603 59.0899 62.9553 45.5535C62.954 43.2133 63.4139 40.8957 64.3085 38.7332C65.2032 36.5707 66.5152 34.6057 68.1696 32.9505C69.8239 31.2952 71.7882 29.9821 73.9502 29.0862C76.1122 28.1904 78.4295 27.7292 80.7698 27.7292C83.1101 27.7292 85.4274 28.1904 87.5894 29.0862C89.7514 29.9821 91.7157 31.2952 93.37 32.9505C95.0244 34.6057 96.3364 36.5707 97.2311 38.7332C98.1257 40.8957 98.5856 43.2133 98.5843 45.5535C99.8371 57.2996 80.7698 91.2693 80.7698 91.2693Z" fill="#BFE7F3" stroke="#012A5D" stroke-width="3.64807" stroke-linecap="round" stroke-linejoin="round"/>
<path d="M80.8074 58.3734C86.796 58.3734 91.6507 53.5187 91.6507 47.5301C91.6507 41.5415 86.796 36.6868 80.8074 36.6868C74.8188 36.6868 69.9641 41.5415 69.9641 47.5301C69.9641 53.5187 74.8188 58.3734 80.8074 58.3734Z" fill="white" stroke="#012A5D" stroke-width="3.64807" stroke-linecap="round" stroke-linejoin="round"/>
</svg>
