<svg width="255" height="277" viewBox="0 0 255 277" fill="none" xmlns="http://www.w3.org/2000/svg">
<path fill-rule="evenodd" clip-rule="evenodd" d="M83.96 40.6216C61.5512 40.6216 43.3853 58.7875 43.3853 81.1963V199.944C43.3853 222.353 61.5512 240.519 83.96 240.519H161.808L217.401 272.069L205.927 240.519H212.425C234.834 240.519 253 222.353 253 199.944V81.1963C253 58.7875 234.834 40.6216 212.425 40.6216H83.96Z" fill="#BFE7F3"/>
<path d="M161.808 240.519L162.796 238.779L162.336 238.519H161.808V240.519ZM217.401 272.069L216.414 273.808L221.137 276.489L219.281 271.385L217.401 272.069ZM205.927 240.519V238.519H203.072L204.048 241.202L205.927 240.519ZM45.3853 81.1963C45.3853 59.8921 62.6557 42.6216 83.96 42.6216V38.6216C60.4466 38.6216 41.3853 57.6829 41.3853 81.1963H45.3853ZM45.3853 199.944V81.1963H41.3853V199.944H45.3853ZM83.96 238.519C62.6557 238.519 45.3853 221.248 45.3853 199.944H41.3853C41.3853 223.458 60.4466 242.519 83.96 242.519V238.519ZM161.808 238.519H83.96V242.519H161.808V238.519ZM160.821 242.258L216.414 273.808L218.388 270.33L162.796 238.779L160.821 242.258ZM219.281 271.385L207.807 239.835L204.048 241.202L215.522 272.753L219.281 271.385ZM212.425 238.519H205.927V242.519H212.425V238.519ZM251 199.944C251 221.248 233.729 238.519 212.425 238.519V242.519C235.938 242.519 255 223.458 255 199.944H251ZM251 81.1963V199.944H255V81.1963H251ZM212.425 42.6216C233.729 42.6216 251 59.8921 251 81.1963H255C255 57.6829 235.938 38.6216 212.425 38.6216V42.6216ZM83.96 42.6216H212.425V38.6216H83.96V42.6216Z" fill="#012A5D"/>
<circle cx="54.0323" cy="54.0323" r="52.0323" fill="white" stroke="#012A5D" stroke-width="4"/>
<path d="M54.244 51.1836C61.6825 51.1836 67.7112 45.4536 67.7112 38.3926C67.7112 31.3315 61.6825 25.6016 54.244 25.6016C46.8054 25.6016 40.7827 31.3286 40.7827 38.3926C40.7827 45.4566 46.8054 51.1836 54.244 51.1836Z" fill="#7FCFE7" stroke="#012A5D" stroke-width="4" stroke-linecap="round" stroke-linejoin="round"/>
<path d="M32.4452 76.4954C32.4452 76.4954 31.2118 49.8919 54.7453 51.2316C78.2789 52.5712 76.2856 76.4954 76.2856 76.4954H32.4452Z" fill="#7FCFE7" stroke="#012A5D" stroke-width="4" stroke-linecap="round" stroke-linejoin="round"/>
<line x1="206.502" y1="75.9512" x2="130.407" y2="75.9512" stroke="#012A5D" stroke-width="4" stroke-linecap="round"/>
<line x1="206.502" y1="96.2939" x2="130.407" y2="96.2939" stroke="#012A5D" stroke-width="4" stroke-linecap="round"/>
<line x1="206.502" y1="135.705" x2="87.1811" y2="135.705" stroke="#012A5D" stroke-width="4" stroke-linecap="round"/>
<line x1="206.502" y1="154.775" x2="87.1811" y2="154.775" stroke="#012A5D" stroke-width="4" stroke-linecap="round"/>
<line x1="206.502" y1="175.118" x2="87.1811" y2="175.118" stroke="#012A5D" stroke-width="4" stroke-linecap="round"/>
<line x1="206.502" y1="194.187" x2="87.1811" y2="194.187" stroke="#012A5D" stroke-width="4" stroke-linecap="round"/>
</svg>
