<svg width="161" height="159" viewBox="0 0 161 159" fill="none" xmlns="http://www.w3.org/2000/svg">
<path d="M66.5062 119.932L66.5026 119.937C66.4283 120.021 66.2411 120.341 65.9824 121.047C65.7423 121.702 65.4884 122.551 65.2219 123.548C64.7695 125.241 64.302 127.281 63.8174 129.394C63.7306 129.773 63.6434 130.153 63.5555 130.535C62.9817 133.027 62.3843 135.554 61.7749 137.58C61.4706 138.592 61.1534 139.514 60.8218 140.259C60.516 140.947 60.1117 141.693 59.5455 142.138L59.5393 142.143L59.5392 142.143C57.5439 143.691 55.4905 145.143 53.3844 146.497C52.5876 147.021 51.7749 147.516 50.9477 147.979L50.8781 148.026L50.8356 148.055L50.791 148.08L50.7694 148.092L66.5062 119.932ZM66.5062 119.932C66.9198 119.459 67.4052 119.092 67.9297 118.844C68.4532 118.597 69.009 118.472 69.5663 118.47H92.0847C92.642 118.472 93.1978 118.597 93.7212 118.844L94.2605 117.703L93.7213 118.844C94.2457 119.092 94.7312 119.459 95.1448 119.932L95.1484 119.937C95.2227 120.021 95.4101 120.341 95.6691 121.048C95.9095 121.703 96.1638 122.553 96.4307 123.55C96.885 125.248 97.3546 127.295 97.8412 129.415C97.9268 129.788 98.013 130.163 98.0997 130.54C98.6743 133.033 99.272 135.559 99.8807 137.585C100.185 138.597 100.501 139.518 100.832 140.262C101.137 140.948 101.54 141.695 102.106 142.139L102.11 142.142C104.857 144.279 107.719 146.226 110.68 147.971M66.5062 119.932L110.68 147.971M110.68 147.971L110.762 148.026L111.081 148.241H111.15C111.906 148.737 112.536 149.495 112.931 150.438C113.372 151.489 113.485 152.686 113.244 153.826L114.479 154.087L113.244 153.826C113.004 154.967 112.431 155.956 111.649 156.647C110.87 157.336 109.929 157.69 108.983 157.685H108.978H52.6735C52.6734 157.685 52.6734 157.685 52.6734 157.685C51.7301 157.685 50.7937 157.329 50.0181 156.641C49.2394 155.951 48.6695 154.964 48.4297 153.827C48.1899 152.691 48.3008 151.498 48.7377 150.449L47.5759 149.965L48.7377 150.449C49.1741 149.401 49.8998 148.581 50.7685 148.092L110.68 147.971Z" fill="#C6E6F1" stroke="#012A5D" stroke-width="2.52477"/>
<rect x="2" y="2" width="156.948" height="119.942" fill="#F1F1F1" stroke="#012A5D" stroke-width="2.52477" stroke-linejoin="round"/>
<rect x="13.9648" y="14.6255" width="133.019" height="93.9024" fill="white" stroke="#012A5D" stroke-width="2.52477" stroke-linejoin="round"/>
<path d="M87.9598 99.917L137.773 82.8684L137.773 100.822L87.9598 99.917Z" fill="#E9E9E9"/>
<path d="M80.7698 91.2693C80.7698 91.2693 61.6603 59.0899 62.9553 45.5535C62.954 43.2133 63.4139 40.8957 64.3085 38.7332C65.2032 36.5707 66.5152 34.6057 68.1696 32.9505C69.8239 31.2952 71.7882 29.9821 73.9502 29.0862C76.1122 28.1904 78.4295 27.7292 80.7698 27.7292C83.1101 27.7292 85.4274 28.1904 87.5894 29.0862C89.7514 29.9821 91.7157 31.2952 93.37 32.9505C95.0244 34.6057 96.3364 36.5707 97.2311 38.7332C98.1257 40.8957 98.5856 43.2133 98.5843 45.5535C99.8371 57.2996 80.7698 91.2693 80.7698 91.2693Z" fill="#BFE7F3" stroke="#012A5D" stroke-width="3.64807" stroke-linecap="round" stroke-linejoin="round"/>
<path d="M80.8074 58.3734C86.796 58.3734 91.6507 53.5187 91.6507 47.5301C91.6507 41.5415 86.796 36.6868 80.8074 36.6868C74.8188 36.6868 69.9641 41.5415 69.9641 47.5301C69.9641 53.5187 74.8188 58.3734 80.8074 58.3734Z" fill="white" stroke="#012A5D" stroke-width="3.64807" stroke-linecap="round" stroke-linejoin="round"/>
</svg>
