<svg width="209" height="176" viewBox="0 0 209 176" fill="none" xmlns="http://www.w3.org/2000/svg">
<path d="M82.878 132.575C82.8896 132.557 82.8923 132.552 82.8857 132.559L82.8912 132.553C83.3282 132.107 83.8496 131.753 84.4249 131.51C84.9995 131.268 85.6166 131.143 86.2402 131.141H114.19C114.814 131.143 115.431 131.268 116.005 131.51C116.581 131.753 117.102 132.107 117.539 132.553L117.546 132.56C117.538 132.552 117.54 132.556 117.552 132.575C117.595 132.643 117.755 132.901 118 133.497C118.281 134.179 118.586 135.083 118.913 136.176C119.471 138.034 120.048 140.277 120.652 142.625C120.759 143.039 120.866 143.457 120.974 143.876C121.686 146.632 122.437 149.463 123.206 151.745C123.589 152.884 123.999 153.951 124.438 154.833C124.83 155.621 125.414 156.618 126.289 157.231L126.296 157.236C129.725 159.614 133.296 161.781 136.989 163.724L137.074 163.775L137.616 164.1H137.699C138.456 164.578 139.063 165.263 139.447 166.078C139.899 167.041 140.012 168.128 139.767 169.163C139.523 170.198 138.935 171.119 138.1 171.777C137.265 172.435 136.231 172.791 135.168 172.787H135.159H65.2712C65.2712 172.787 65.2711 172.787 65.2711 172.787C64.2112 172.787 63.1825 172.429 62.3513 171.772C61.5201 171.114 60.9351 170.195 60.6912 169.164C60.4472 168.132 60.5585 167.049 61.007 166.088C61.4555 165.128 62.2151 164.347 63.1626 163.872L63.1891 163.859L63.2672 163.82L63.3422 163.775L63.4061 163.737C64.437 163.221 65.4503 162.671 66.4442 162.087C69.0741 160.58 71.6388 158.962 74.1314 157.237L74.1314 157.237L74.1428 157.229C75.0176 156.616 75.6014 155.621 75.9959 154.83C76.4358 153.947 76.8461 152.879 77.2303 151.74C78 149.457 78.75 146.626 79.4612 143.87C79.571 143.445 79.6797 143.022 79.7876 142.602C80.3895 140.261 80.9639 138.026 81.5192 136.173C81.8463 135.081 82.1505 134.178 82.4306 133.496C82.6752 132.9 82.8356 132.643 82.878 132.575Z" fill="#7FCFE7" stroke="#012A5D" stroke-width="4.56412"/>
<rect x="3" y="3" width="203.56" height="138.749" fill="#F1F1F1" stroke="#012A5D" stroke-width="4.56412" stroke-linejoin="round"/>
<rect x="18.5176" y="17.6052" width="172.524" height="108.626" fill="white" stroke="#012A5D" stroke-width="4.56412" stroke-linejoin="round"/>
<path d="M132.484 25.7742H25.2136V89.3655H132.484V25.7742Z" fill="#BFE7F3" stroke="#012A5D" stroke-width="4.56412" stroke-linejoin="round"/>
<path d="M102.038 62.1177L68.8149 79.5554L68.8149 44.68L102.038 62.1177Z" fill="white" stroke="#012A5D" stroke-width="4.56412" stroke-linejoin="round"/>
<path d="M175.085 25.7742H140.54V46.2527H175.085V25.7742Z" fill="#BFE7F3" stroke="#012A5D" stroke-width="4.56412" stroke-linejoin="round"/>
<path d="M175.085 55.9531H140.54V76.4317H175.085V55.9531Z" fill="#BFE7F3" stroke="#012A5D" stroke-width="4.56412" stroke-linejoin="round"/>
<path d="M175.085 86.1318H140.54V106.61H175.085V86.1318Z" fill="#BFE7F3" stroke="#012A5D" stroke-width="4.56412" stroke-linejoin="round"/>
<line x1="29.015" y1="104.78" x2="78.3074" y2="104.78" stroke="#012A5D" stroke-width="4.56412" stroke-linecap="round"/>
<line x1="29.015" y1="112.995" x2="54.574" y2="112.995" stroke="#012A5D" stroke-width="4.56412" stroke-linecap="round"/>
</svg>
