<svg width="160" height="174" viewBox="0 0 160 174" fill="none" xmlns="http://www.w3.org/2000/svg">
<path d="M42.9335 124.801C56.5539 124.801 67.5927 114.309 67.5927 101.38C67.5927 88.4508 56.5539 77.959 42.9335 77.959C29.313 77.959 18.2852 88.4455 18.2852 101.38C18.2852 114.315 29.313 124.801 42.9335 124.801Z" fill="#BFE7F3" stroke="#012A5D" stroke-width="4.56412" stroke-linecap="round" stroke-linejoin="round"/>
<path d="M3.02033 171.15C3.02033 171.15 0.761901 122.438 43.8531 124.891C86.9444 127.344 83.2947 171.15 83.2947 171.15H3.02033Z" fill="#BFE7F3" stroke="#012A5D" stroke-width="4.56412" stroke-linecap="round" stroke-linejoin="round"/>
<path d="M13.6003 85.2368C11.2847 85.2368 9.40918 87.2397 9.40918 89.7062V104.928C9.40918 107.397 11.2767 109.398 13.6003 109.398C15.924 109.398 17.7915 107.397 17.7915 104.928V89.7062C17.7915 87.2397 15.916 85.2368 13.6003 85.2368Z" fill="#7FCFE7" stroke="#012A5D" stroke-width="4.56412" stroke-linecap="round" stroke-linejoin="round"/>
<path d="M72.2766 85.2368C69.9609 85.2368 68.0854 87.2397 68.0854 89.7062V104.928C68.0854 107.397 69.9529 109.398 72.2766 109.398C74.6003 109.398 76.4677 107.397 76.4677 104.928V89.7062C76.4677 87.2397 74.5923 85.2368 72.2766 85.2368Z" fill="#7FCFE7" stroke="#012A5D" stroke-width="4.56412" stroke-linecap="round" stroke-linejoin="round"/>
<path d="M13.354 84.7434C13.354 84.7434 14.7623 64.6859 42.0458 64.646C68.8923 64.6089 72.03 84.7434 72.03 84.7434" stroke="#012A5D" stroke-width="4.56412" stroke-linecap="round" stroke-linejoin="round"/>
<path d="M116.316 124.592C129.936 124.592 140.975 114.1 140.975 101.171C140.975 88.2419 129.936 77.75 116.316 77.75C102.695 77.75 91.6675 88.2365 91.6675 101.171C91.6675 114.106 102.695 124.592 116.316 124.592Z" fill="#BFE7F3" stroke="#012A5D" stroke-width="4.56412" stroke-linecap="round" stroke-linejoin="round"/>
<path d="M76.4022 170.941C76.4022 170.941 74.1437 122.229 117.235 124.681C160.326 127.134 156.677 170.941 156.677 170.941H76.4022Z" fill="#BFE7F3" stroke="#012A5D" stroke-width="4.56412" stroke-linecap="round" stroke-linejoin="round"/>
<path d="M90.7692 2.28206H90.7695C92.4812 2.28186 94.1273 2.89099 95.4024 3.98489C96.6763 5.07777 97.4917 6.57775 97.7108 8.20056L98.1146 11.1919L100.883 9.98792L115.316 3.70988L115.318 3.70898C115.682 3.55047 116.082 3.48247 116.483 3.5132C116.883 3.54392 117.266 3.67201 117.597 3.88226L118.818 1.96078L117.597 3.88227C117.928 4.09236 118.195 4.3766 118.377 4.70525C118.56 5.0336 118.654 5.39795 118.654 5.76571V39.6605C118.653 40.028 118.559 40.392 118.377 40.7201C118.195 41.0485 117.929 41.3325 117.598 41.5425C117.267 41.7527 116.885 41.8809 116.485 41.9119C116.084 41.9429 115.684 41.8753 115.321 41.7173L115.32 41.7173L100.882 35.4392L98.1146 34.2357L97.7108 37.2267C97.4917 38.8495 96.6763 40.3495 95.4024 41.4423C94.1273 42.5363 92.4812 43.1454 90.7695 43.1452H90.7692H55.9617C54.0896 43.1452 52.3038 42.4168 50.9946 41.1353C49.6871 39.8555 48.9617 38.1302 48.9617 36.3418V9.08545C48.9617 7.29703 49.6871 5.57173 50.9946 4.2919C52.3038 3.01045 54.0896 2.28206 55.9617 2.28206H90.7692Z" fill="#7FCFE7" stroke="#012A5D" stroke-width="4.56412"/>
</svg>
