<svg width="186" height="152" viewBox="0 0 186 152" fill="none" xmlns="http://www.w3.org/2000/svg">
<path d="M152.006 36.6909H6.11475V123.177H152.006V36.6909Z" fill="#BFE7F3" stroke="#012A5D" stroke-width="4.56412" stroke-linejoin="round"/>
<path d="M109.371 84.8034L64.1863 108.519L64.1863 61.0876L109.371 84.8034Z" fill="white" stroke="#012A5D" stroke-width="4.56412" stroke-linejoin="round"/>
<path d="M166.858 48.0479H20.9663V134.534H166.858V48.0479Z" fill="#BFE7F3" stroke="#012A5D" stroke-width="4.56412" stroke-linejoin="round"/>
<path d="M124.889 96.6696L79.7039 120.385L79.7039 72.9538L124.889 96.6696Z" fill="white" stroke="#012A5D" stroke-width="4.56412" stroke-linejoin="round"/>
<path d="M183.456 62.8992H37.5645V149.386H183.456V62.8992Z" fill="#BFE7F3" stroke="#012A5D" stroke-width="4.56412" stroke-linejoin="round"/>
<path d="M143.146 104.886L102.753 126.23L102.753 83.5415L143.146 104.886Z" fill="white" stroke="#012A5D" stroke-width="4.56412" stroke-linejoin="round"/>
<line x1="53.2323" y1="141.855" x2="180.115" y2="141.855" stroke="#012A5D" stroke-width="4.56412" stroke-linecap="round"/>
<circle cx="157.294" cy="140.942" r="6.84618" fill="#012A5D"/>
<path d="M22.998 48.0479L32.7913 50.6719L42.5845 53.296L30.0696 100.002L22.9416 87.4313L10.4832 94.7539L22.998 48.0479Z" fill="#F1F1F1" stroke="#012A5D" stroke-width="4.56412" stroke-linejoin="round"/>
<path d="M51.9668 48.0479L42.1736 50.6719L32.3804 53.296L44.8952 100.002L52.0232 87.4313L64.4817 94.7539L51.9668 48.0479Z" fill="#F1F1F1" stroke="#012A5D" stroke-width="4.56412" stroke-linejoin="round"/>
<circle cx="37.5648" cy="37.5648" r="35.2828" fill="#7FCFE7" stroke="#012A5D" stroke-width="4.56412" stroke-linejoin="round"/>
<path d="M37.5647 16.5981L44.0437 30.1139L58.531 32.2813L48.0479 42.8021L50.5227 57.6574L37.5647 50.6435L24.6064 57.6574L27.0813 42.8021L16.5981 32.2813L31.0854 30.1139L37.5647 16.5981Z" fill="white" stroke="#012A5D" stroke-width="4.56412" stroke-linecap="round" stroke-linejoin="round"/>
</svg>
