<svg width="203" height="199" viewBox="0 0 203 199" fill="none" xmlns="http://www.w3.org/2000/svg">
<path d="M200.257 3H92.1944V72.4688H200.257V3Z" fill="#BFE7F3" stroke="#012A5D" stroke-width="4.2882" stroke-linejoin="round"/>
<path d="M66.4652 82.7606C69.3489 82.7606 72.1677 81.9055 74.5654 80.3034C76.963 78.7013 78.8318 76.4243 79.9353 73.7602C81.0388 71.0961 81.3275 68.1645 80.7649 65.3363C80.2024 62.5081 78.8138 59.9102 76.7748 57.8712C74.7357 55.8322 72.1378 54.4436 69.3096 53.881C66.4814 53.3184 63.5499 53.6071 60.8858 54.7107C58.2216 55.8142 55.9446 57.6829 54.3425 60.0806C52.7405 62.4782 51.8854 65.2971 51.8854 68.1807C51.8854 72.0475 53.4215 75.756 56.1557 78.4902C58.89 81.2245 62.5984 82.7606 66.4652 82.7606Z" fill="#BFE7F3" stroke="#012A5D" stroke-width="4.2882" stroke-linecap="round" stroke-linejoin="round"/>
<path d="M40.7361 110.205C41.5644 103.571 44.5388 97.4043 49.1916 92.6759C53.8443 87.9474 59.9114 84.9251 66.4386 84.0844C75.3717 83.138 83.8875 79.7566 91.0863 74.2975C91.0863 74.2975 99.9132 70.0615 99.9132 79.2862C99.9132 90.9553 87.1627 98.8887 87.1627 98.8887L92.7176 110.191L40.7361 110.205Z" fill="#BFE7F3" stroke="#012A5D" stroke-width="4.2882" stroke-linecap="round" stroke-linejoin="round"/>
<path d="M99.0555 73.3265L124.785 35.5903" stroke="#012A5D" stroke-width="4.2882" stroke-linecap="round" stroke-linejoin="round"/>
<path d="M125.374 98.1981H20.231C19.5337 98.1981 18.8649 98.4804 18.3719 98.9829C17.8788 99.4854 17.6018 100.167 17.6018 100.878V172.178C17.6018 172.889 17.8788 173.57 18.3719 174.073C18.8649 174.575 19.5337 174.858 20.231 174.858H125.399C126.096 174.858 126.765 174.575 127.258 174.073C127.751 173.57 128.028 172.889 128.028 172.178V100.878C128.028 100.524 127.96 100.173 127.826 99.8463C127.692 99.5195 127.496 99.223 127.249 98.9739C127.003 98.7247 126.71 98.5279 126.388 98.3947C126.066 98.2616 125.721 98.1947 125.374 98.1981Z" fill="#F1F1F1" stroke="#012A5D" stroke-width="4.2882" stroke-miterlimit="10"/>
<path d="M70.6343 174.858H125.393C127.065 174.943 128.657 175.586 129.907 176.681L142.05 188.549C143.054 189.535 142.728 190.372 141.283 190.372H5.26726C3.82269 190.372 3.47659 189.554 4.50485 188.549L16.6433 176.681C17.8931 175.586 19.4855 174.943 21.1576 174.858H70.6343Z" fill="#F1F1F1" stroke="#012A5D" stroke-width="4.2882" stroke-miterlimit="10"/>
<path d="M142.719 188.547H5.64921C4.94612 188.549 4.27228 188.841 3.77559 189.36C3.2789 189.879 2.99994 190.583 2.99994 191.317V192.171C2.99994 192.904 3.27906 193.607 3.77589 194.126C4.27273 194.644 4.94658 194.935 5.64921 194.935H142.719C143.421 194.935 144.095 194.644 144.592 194.126C145.089 193.607 145.368 192.904 145.368 192.171V191.317C145.368 190.583 145.089 189.879 144.592 189.36C144.096 188.841 143.422 188.549 142.719 188.547Z" fill="white"/>
<path d="M141.035 188.25H5.6173C4.92267 188.252 4.25695 188.644 3.76625 189.341C3.27554 190.039 2.99994 190.983 2.99994 191.968V193.115C2.99994 194.1 3.27569 195.044 3.76654 195.739C4.25739 196.435 4.92313 196.826 5.6173 196.826H141.035C141.73 196.826 142.395 196.435 142.886 195.739C143.377 195.044 143.653 194.1 143.653 193.115V191.968C143.653 190.983 143.377 190.039 142.886 189.341C142.396 188.644 141.73 188.252 141.035 188.25Z" fill="#F1F1F1" stroke="#012A5D" stroke-width="4.2882" stroke-linejoin="round"/>
<path d="M120.727 108.237H25.8153V164.819H120.727V108.237Z" fill="#7FCFE7" stroke="#012A5D" stroke-width="4.2882" stroke-linejoin="round"/>
<path d="M110.689 115.538H61.4073V148.392H110.689V115.538Z" fill="#BFE7F3" stroke="#012A5D" stroke-width="4.2882" stroke-linejoin="round"/>
<path d="M49.0321 152.79C50.3859 152.79 51.7092 152.389 52.8348 151.637C53.9604 150.884 54.8377 149.815 55.3557 148.565C55.8738 147.314 56.0093 145.938 55.7452 144.61C55.4811 143.282 54.8292 142.063 53.872 141.106C52.9148 140.148 51.6952 139.496 50.3674 139.232C49.0397 138.968 47.6635 139.104 46.4128 139.622C45.1621 140.14 44.0931 141.017 43.341 142.143C42.5889 143.268 42.1875 144.592 42.1875 145.945C42.1875 147.761 42.9086 149.502 44.1922 150.785C45.4758 152.069 47.2168 152.79 49.0321 152.79Z" fill="#BFE7F3" stroke="#012A5D" stroke-width="4.2882" stroke-linecap="round" stroke-linejoin="round"/>
<path d="M37.6244 164.819C38.0194 162.027 39.4406 159.431 41.6645 157.441C43.8883 155.451 46.7886 154.178 49.9092 153.823C54.1796 153.429 58.2514 152.009 61.6932 149.713C61.6932 149.713 65.9155 147.931 65.9155 151.81C65.9155 156.723 59.8196 160.062 59.8196 160.062L62.4778 164.819H37.6244Z" fill="#BFE7F3" stroke="#012A5D" stroke-width="4.2882" stroke-linecap="round" stroke-linejoin="round"/>
<path d="M65.0028 149.305L76.8668 131.052" stroke="#012A5D" stroke-width="4.2882" stroke-linecap="round" stroke-linejoin="round"/>
</svg>
