<svg width="153" height="153" viewBox="0 0 153 153" fill="none" xmlns="http://www.w3.org/2000/svg">
<path d="M76.3966 150.514C117.131 150.514 150.154 117.492 150.154 76.757C150.154 36.0221 117.131 3 76.3966 3C35.6617 3 2.63959 36.0221 2.63959 76.757C2.63959 117.492 35.6617 150.514 76.3966 150.514Z" fill="#BFE7F3" stroke="#012A5D" stroke-width="4.2882" stroke-linejoin="round"/>
<path d="M62 149C62 149 37 115.171 37 76.3483C37 37.5255 62 5 62 5" fill="#BFE7F3"/>
<path d="M62 149C62 149 37 115.171 37 76.3483C37 37.5255 62 5 62 5" stroke="#012A5D" stroke-width="4.2882" stroke-linejoin="round"/>
<path d="M116 76C116 37.3668 92 5 92 5L116 76Z" fill="#BFE7F3"/>
<path d="M116 76C116 37.3668 92 5 92 5" stroke="#012A5D" stroke-width="4.2882" stroke-linejoin="round"/>
<path d="M92 148C92 148 116 114.475 116 76L92 148Z" fill="#BFE7F3"/>
<path d="M92 148C92 148 116 114.475 116 76" stroke="#012A5D" stroke-width="4.2882" stroke-linejoin="round"/>
<path d="M76.3969 3V150.514" stroke="#012A5D" stroke-width="4.2882" stroke-linejoin="round"/>
<path d="M2 76.7556H149.514" stroke="#012A5D" stroke-width="4.2882" stroke-linejoin="round"/>
<path d="M14 35H139" stroke="#012A5D" stroke-width="4.2882" stroke-linejoin="round"/>
<path d="M14 118H139" stroke="#012A5D" stroke-width="4.2882" stroke-linejoin="round"/>
</svg>
