<svg width="148" height="161" viewBox="0 0 148 161" fill="none" xmlns="http://www.w3.org/2000/svg">
<path d="M103.355 2.6394H9.78244C5.96756 2.6394 2.875 5.73197 2.875 9.54684V125.283C2.875 129.098 5.96756 132.191 9.78244 132.191H103.355C107.169 132.191 110.262 129.098 110.262 125.283V9.54684C110.262 5.73197 107.169 2.6394 103.355 2.6394Z" fill="white" stroke="#012A5D" stroke-width="4.2535" stroke-linecap="round" stroke-linejoin="round"/>
<path d="M128.747 64.9769C128.562 64.782 128.308 64.6682 128.04 64.6601C127.772 64.6521 127.511 64.7505 127.315 64.9339L51.4011 136.43C50.958 136.895 50.6858 137.497 50.6291 138.137L50.0828 154.094C50.0776 154.225 50.0991 154.356 50.146 154.478C50.1929 154.601 50.2643 154.713 50.3558 154.807C50.4473 154.901 50.557 154.976 50.6782 155.026C50.7994 155.077 50.9296 155.102 51.0609 155.1L66.4948 155.015C67.1385 154.977 67.7526 154.732 68.2448 154.315L144.159 82.8185C144.354 82.6339 144.468 82.3798 144.476 82.1116C144.484 81.8433 144.385 81.5828 144.202 81.3869L128.747 64.9769Z" fill="#BFE7F3"/>
<path d="M128.747 64.9769C128.562 64.782 128.308 64.6682 128.04 64.6601C127.772 64.6521 127.511 64.7505 127.315 64.9339L51.4011 136.43C50.958 136.895 50.6858 137.497 50.6291 138.137L50.0828 154.094C50.0776 154.225 50.0991 154.356 50.146 154.478C50.1929 154.601 50.2643 154.713 50.3558 154.807C50.4473 154.901 50.557 154.976 50.6782 155.026C50.7994 155.077 50.9296 155.102 51.0609 155.1L66.4948 155.015C67.1385 154.977 67.7526 154.732 68.2448 154.315L144.159 82.8185C144.354 82.6339 144.468 82.3798 144.476 82.1116C144.484 81.8433 144.385 81.5828 144.202 81.3869L128.747 64.9769Z" stroke="#012A5D" stroke-width="4.2535" stroke-linecap="round" stroke-linejoin="round"/>
<path d="M50.6635 137.124L67.5074 155.009L46.1001 158.296L50.6635 137.124Z" fill="white" stroke="#012A5D" stroke-width="4.2535" stroke-linecap="round" stroke-linejoin="round"/>
<path d="M54.2391 156.127L49.2788 150.861L48.3369 156.718L54.2391 156.127Z" fill="#012A5D" stroke="#012A5D" stroke-width="4.2535" stroke-linecap="round" stroke-linejoin="round"/>
<path d="M129.954 79.3228L58.9102 146.232" stroke="#012A5D" stroke-width="4.2535" stroke-linejoin="round"/>
<path d="M128.052 64.2401L121.532 70.3813L138.375 88.2659L144.896 82.1246L128.052 64.2401Z" fill="white" stroke="#012A5D" stroke-width="4.2535" stroke-linecap="round" stroke-linejoin="round"/>
<path d="M89.3547 29.2813C89.3547 29.2813 97.0987 56.4571 88.7723 72.5565C82.4088 85.3792 69.8623 91.6579 60.7496 86.5794C51.6368 81.501 49.4088 66.9936 55.7723 54.1832C64.1075 38.0808 89.0955 29.1394 89.0955 29.1394" fill="#BFE7F3"/>
<path d="M89.3547 29.2813C89.3547 29.2813 97.0987 56.4571 88.7723 72.5565C82.4088 85.3792 69.8623 91.6579 60.7496 86.5794C51.6368 81.501 49.4088 66.9936 55.7723 54.1832C64.1075 38.0808 89.0955 29.1394 89.0955 29.1394" stroke="#012A5D" stroke-width="4.49506" stroke-linecap="round" stroke-linejoin="round"/>
<path d="M21.2862 58.74C21.2862 58.74 40.5418 62.073 47.8196 73.0096C53.7022 81.5292 53.5617 92.2442 47.5111 96.9365C41.4605 101.629 31.7899 98.5285 25.9142 90.0089C18.6397 79.0686 21.1148 58.8745 21.1148 58.8745" fill="#BFE7F3"/>
<path d="M21.2862 58.74C21.2862 58.74 40.5418 62.073 47.8196 73.0096C53.7022 81.5292 53.5617 92.2442 47.5111 96.9365C41.4605 101.629 31.7899 98.5285 25.9142 90.0089C18.6397 79.0686 21.1148 58.8745 21.1148 58.8745" stroke="#012A5D" stroke-width="4.49506" stroke-linecap="round" stroke-linejoin="round"/>
</svg>
