<svg width="208" height="147" viewBox="0 0 208 147" fill="none" xmlns="http://www.w3.org/2000/svg">
<path d="M178.714 3.00017H27.7415C26.7403 3.00017 25.78 3.40553 25.072 4.12706C24.3641 4.8486 23.9663 5.82721 23.9663 6.84762V109.226C23.9663 110.247 24.3641 111.225 25.072 111.947C25.78 112.668 26.7403 113.074 27.7415 113.074H178.75C179.751 113.074 180.711 112.668 181.419 111.947C182.127 111.225 182.525 110.247 182.525 109.226V6.84762C182.525 6.33927 182.426 5.83594 182.234 5.36674C182.042 4.89754 181.761 4.47178 181.406 4.11403C181.052 3.75627 180.632 3.47365 180.169 3.28246C179.707 3.09128 179.212 2.99533 178.714 3.00017Z" fill="#F1F1F1" stroke="#012A5D" stroke-width="4.56412" stroke-miterlimit="10"/>
<path d="M100.114 113.074H178.74C181.141 113.196 183.428 114.12 185.222 115.691L202.659 132.733C204.099 134.148 203.631 135.351 201.557 135.351H6.25527C4.18105 135.351 3.68409 134.176 5.16054 132.733L22.5898 115.691C24.3844 114.12 26.6709 113.196 29.0718 113.074H100.114Z" fill="#F1F1F1" stroke="#012A5D" stroke-width="4.56412" stroke-miterlimit="10"/>
<path d="M203.619 132.73H6.80402C5.79447 132.732 4.82692 133.152 4.11374 133.897C3.40055 134.643 3 135.653 3 136.707V137.934C3 138.986 3.40078 139.996 4.11417 140.74C4.82756 141.485 5.79514 141.903 6.80402 141.903H203.619C204.627 141.903 205.595 141.485 206.308 140.74C207.022 139.996 207.423 138.986 207.423 137.934V136.707C207.423 135.653 207.022 134.643 206.309 133.897C205.596 133.152 204.628 132.732 203.619 132.73Z" fill="white"/>
<path d="M201.201 132.303H6.75819C5.7608 132.306 4.80491 132.87 4.10032 133.871C3.39573 134.872 3 136.228 3 137.642V139.29C3 140.703 3.39595 142.058 4.10075 143.057C4.80554 144.057 5.76146 144.618 6.75819 144.618H201.201C202.198 144.618 203.154 144.057 203.859 143.057C204.564 142.058 204.96 140.703 204.96 139.29V137.642C204.96 136.228 204.564 134.872 203.859 133.871C203.155 132.87 202.199 132.306 201.201 132.303Z" fill="#F1F1F1" stroke="#012A5D" stroke-width="4.56412" stroke-linejoin="round"/>
<path d="M172.041 16.9775H35.7598V98.2224H172.041V16.9775Z" fill="white" stroke="#012A5D" stroke-width="4.56412" stroke-linejoin="round"/>
<path d="M129.257 24.8401H42.312V76.3825H129.257V24.8401Z" fill="#BFE7F3" stroke="#012A5D" stroke-width="4.56412" stroke-linejoin="round"/>
<path d="M105.437 54.8649L78.5082 68.9985L78.5082 40.7312L105.437 54.8649Z" fill="white" stroke="#012A5D" stroke-width="4.56412" stroke-linejoin="round"/>
<path d="M163.786 24.8401H135.787V41.4385H163.786V24.8401Z" fill="#BFE7F3" stroke="#012A5D" stroke-width="4.56412" stroke-linejoin="round"/>
<path d="M163.786 49.3008H135.787V65.8992H163.786V49.3008Z" fill="#BFE7F3" stroke="#012A5D" stroke-width="4.56412" stroke-linejoin="round"/>
<path d="M163.786 73.7615H135.787V90.3599H163.786V73.7615Z" fill="#BFE7F3" stroke="#012A5D" stroke-width="4.56412" stroke-linejoin="round"/>
<line x1="46.7899" y1="89.2797" x2="86.0413" y2="89.2797" stroke="#012A5D" stroke-width="4.56412" stroke-linecap="round"/>
<line x1="46.7899" y1="95.6694" x2="66.872" y2="95.6694" stroke="#012A5D" stroke-width="4.56412" stroke-linecap="round"/>
</svg>
