<svg width="183" height="148" viewBox="0 0 183 148" fill="none" xmlns="http://www.w3.org/2000/svg">
<path d="M149.634 105.152C145.807 116.571 137.606 126.65 126.267 133.867C114.928 141.084 101.066 145.048 86.7722 145.163C72.4782 145.278 58.5267 141.536 47.0216 134.502C35.5165 127.468 27.0816 117.523 22.9888 106.167" stroke="#012A5D" stroke-width="3.94621" stroke-miterlimit="10" stroke-linecap="round"/>
<path d="M22.9136 42.131C26.8162 30.9295 34.9506 21.0568 46.1251 13.9593C57.2996 6.86179 70.9268 2.91253 85.0102 2.69011C99.0936 2.4677 112.893 5.98384 124.387 12.7234C135.88 19.4629 144.464 29.0716 148.88 40.1417" stroke="#012A5D" stroke-width="3.94621" stroke-miterlimit="10" stroke-linecap="round"/>
<path d="M17.1714 24.5552L41.8049 35.0839L21.7789 45.0068L17.1714 24.5552Z" fill="#D6EBF5" stroke="#012A5D" stroke-width="3.94621" stroke-linecap="round" stroke-linejoin="round"/>
<path d="M158.068 116.914L131.576 112.928L148.457 98.2825L158.068 116.914Z" fill="#D6EBF5" stroke="#012A5D" stroke-width="3.94621" stroke-linecap="round" stroke-linejoin="round"/>
<rect x="127.525" y="50.4812" width="54.2828" height="32.0357" rx="16.0179" fill="#BFE7F3" stroke="#012A5D" stroke-width="1.62038"/>
<path d="M164.754 66.7338L148.665 75.1788L148.665 58.2889L164.754 66.7338Z" fill="white" stroke="#012A5D" stroke-width="1.62038" stroke-linejoin="round"/>
<path d="M86.554 125.274H86.1633C76.1626 125.274 68.0546 117.166 68.0546 107.165V51.9223H104.663V107.165C104.663 117.166 96.5554 125.274 86.554 125.274Z" fill="#BFE7F3" stroke="#012A5D" stroke-width="2.43057"/>
<path d="M81.2873 38.1548H81.6924V37.7497V34.7046V34.2995H81.2873H78.5806H78.1755V34.7046V37.7497H78.5806V38.1548H81.2873ZM82.912 39.3745H76.9559V33.0799H82.912V39.3745Z" fill="#012A5D" stroke="#012A5D" stroke-width="0.81019"/>
<path d="M96.1737 33.0799V39.3745H90.2176V33.0799H96.1737ZM91.4372 37.7497V38.1548H91.8423H94.549H94.9541V37.7497V34.7046V34.2995H94.549H91.8423H91.4372V34.7046V37.7497Z" fill="#012A5D" stroke="#012A5D" stroke-width="0.81019"/>
<path d="M100.498 51.8733H72.2197C71.9016 51.8733 71.644 51.6564 71.644 51.389V27.1323C71.644 26.8649 71.9016 26.6479 72.2197 26.6479H100.498C100.816 26.6479 101.074 26.8649 101.074 27.1323V51.3895C101.074 51.6569 100.816 51.8733 100.498 51.8733ZM74.732 49.7595H97.9857C98.3038 49.7595 98.5614 49.5425 98.5614 49.2752V29.2461C98.5614 28.9788 98.3038 28.7618 97.9857 28.7618H74.732C74.4139 28.7618 74.1563 28.9788 74.1563 29.2461V49.2747C74.157 49.5425 74.4139 49.7595 74.732 49.7595Z" fill="#012A5D"/>
<path d="M97.1744 75.8141V75.0039H96.3642H91.4373H90.6272V75.8141V80.6792V81.4894H91.4373H92.2382V84.1416C92.193 84.8194 91.9968 85.2369 91.5162 85.7389L91.2899 85.9584L90.9021 86.3293L90.887 86.3438L90.8867 86.3441L90.6312 86.5883L90.631 86.5884L88.9495 88.1944L88.2669 88.8327V73.0397H89.6052H91.017L90.3047 71.8208L88.8024 69.2496L88.8023 69.2495L87.3006 66.6783L86.6011 65.4807L85.9015 66.6782L84.399 69.2495L84.3989 69.2496L82.8972 71.8209L82.1853 73.0397H83.5968H84.8888V94.7729L82.09 92.1334L82.079 92.1231L82.0723 92.1172L81.9444 91.9964C81.7332 91.7922 81.5505 91.5913 81.4009 91.4144L81.3999 91.4132C81.2159 91.1965 81.1356 91.0599 81.0844 90.9125C81.0286 90.7519 80.988 90.5213 80.9732 90.0904V86.9993C81.9132 86.4366 82.5487 85.4155 82.5487 84.2397C82.5487 82.4458 81.0747 81.0136 79.2838 81.0136C77.4929 81.0136 76.0189 82.4458 76.0189 84.2397C76.0189 85.4161 76.6545 86.4369 77.5944 86.9994V89.054C77.565 90.1845 77.5869 91.0124 77.7667 91.7097C77.9583 92.4527 78.3124 92.9894 78.8094 93.5747C79.0752 93.888 79.3843 94.2163 79.7326 94.5344C79.7362 94.5378 79.7396 94.5409 79.7427 94.5437L84.7491 99.2645L84.7496 99.2649C84.8403 99.3503 84.8888 99.4651 84.8888 99.583V102.133C83.036 102.821 81.707 104.585 81.707 106.668C81.707 109.356 83.9176 111.512 86.6171 111.512C89.3165 111.512 91.5271 109.356 91.5271 106.668C91.5271 104.556 90.1615 102.772 88.2683 102.105V93.9492C88.2683 93.6392 88.3969 93.3387 88.6282 93.1196C88.6283 93.1196 88.6283 93.1195 88.6283 93.1195L92.8494 89.1236L92.8517 89.1215L93.2296 88.7609L93.4756 88.5263C93.5436 88.4688 93.6054 88.4114 93.6547 88.3654L93.6732 88.3482C93.7205 88.304 93.7563 88.2706 93.7933 88.2383C95.0369 87.1635 95.7116 85.7635 95.6176 84.0504V81.4901H96.3642H97.1744V80.6799V80.6792V75.8141Z" fill="white" stroke="#012A5D" stroke-width="1.62038"/>
<path d="M27.8325 70.3322H1.17456C0.70552 70.3322 0.325195 69.9097 0.325195 69.3884V63.5061C0.325195 62.1179 1.34101 60.9888 2.59003 60.9888H26.4171C27.6661 60.9888 28.6819 62.1179 28.6819 63.5061V69.3884C28.6819 69.9097 28.3016 70.3322 27.8325 70.3322ZM2.02393 68.4442H26.9836V63.5061C26.9836 63.1592 26.7298 62.8768 26.4175 62.8768H2.59003C2.27777 62.8768 2.02393 63.1592 2.02393 63.5061V68.4442Z" fill="#012A5D"/>
<path d="M14.5035 87.0023C12.5901 87.0023 10.7328 86.6624 8.98442 85.9918C7.29579 85.3445 5.77976 84.4178 4.47804 83.2373C3.17632 82.0572 2.15392 80.6826 1.43982 79.1516C0.700252 77.5662 0.325195 75.8829 0.325195 74.1481V69.214C0.325195 68.7888 0.70552 68.4441 1.17456 68.4441H27.8325C28.3016 68.4441 28.6819 68.7888 28.6819 69.214V74.1481C28.6819 75.8829 28.3068 77.5666 27.5673 79.1516C26.8532 80.6826 25.8308 82.0572 24.5291 83.2373C23.2273 84.4174 21.7109 85.3445 20.0227 85.9918C18.2743 86.6624 16.417 87.0023 14.5035 87.0023ZM2.02393 69.9843V74.1485C2.02393 80.387 7.6221 85.4626 14.5035 85.4626C21.385 85.4626 26.9832 80.387 26.9832 74.1485V69.9843H2.02393V69.9843Z" fill="#012A5D"/>
<path d="M23.1664 62.4797H19.0228C18.5445 62.4797 18.1567 62.0945 18.1567 61.6193V51.7792C18.1567 50.17 19.4747 48.8608 21.0944 48.8608C22.7141 48.8608 24.032 50.17 24.032 51.7792V61.6198C24.0325 62.0945 23.6447 62.4797 23.1664 62.4797ZM19.8889 60.7594H22.3004V51.7792C22.3004 51.1186 21.7593 50.5811 21.0944 50.5811C20.4295 50.5811 19.8884 51.1186 19.8884 51.7792V60.7594H19.8889Z" fill="#012A5D"/>
<path d="M10.0194 62.4797H5.87582C5.39756 62.4797 5.00977 62.0945 5.00977 61.6193V51.7792C5.00977 50.17 6.32773 48.8608 7.94741 48.8608C9.56709 48.8608 10.8851 50.17 10.8851 51.7792V61.6198C10.8855 62.0945 10.4977 62.4797 10.0194 62.4797ZM6.74188 60.7594H9.15339V51.7792C9.15339 51.1186 8.61233 50.5811 7.94741 50.5811C7.2825 50.5811 6.74144 51.1186 6.74144 51.7792V60.7594H6.74188Z" fill="#012A5D"/>
<rect x="2.05713" y="62.7122" width="25.1052" height="6.05988" fill="#BFE7F3"/>
<rect x="12.4453" y="99.0713" width="12.1198" height="4.32849" transform="rotate(-90 12.4453 99.0713)" fill="#D6EBF5"/>
<path d="M17.6214 99.9368H11.8265C11.2806 99.9368 10.8379 99.6338 10.8379 99.2605V86.7857C10.8379 86.412 11.2806 86.1094 11.8265 86.1094C12.3724 86.1094 12.8151 86.4124 12.8151 86.7857V98.5842H16.6324V86.7857C16.6324 86.412 17.0751 86.1094 17.621 86.1094C18.1669 86.1094 18.6095 86.4124 18.6095 86.7857V99.2605C18.6104 99.6342 18.1677 99.9368 17.6214 99.9368Z" fill="#012A5D"/>
</svg>
