<svg width="187" height="162" viewBox="0 0 187 162" fill="none" xmlns="http://www.w3.org/2000/svg">
<path d="M183.835 3H3V110.453H183.835V3Z" fill="#BFE7F3" stroke="#012A5D" stroke-width="4.56412" stroke-linejoin="round"/>
<circle cx="135.787" cy="56.2894" r="31.7884" fill="#F1F1F1" stroke="#012A5D" stroke-width="4.56412"/>
<line x1="91.5724" y1="24.5011" x2="20.1333" y2="24.5011" stroke="#012A5D" stroke-width="4.56412" stroke-linecap="round"/>
<line x1="2.28206" y1="-2.28206" x2="69.635" y2="-2.28206" transform="matrix(-0.740987 -0.671519 0.740987 -0.671519 147.144 156.126)" stroke="#012A5D" stroke-width="4.56412" stroke-linecap="round"/>
<line x1="2.28206" y1="-2.28206" x2="69.635" y2="-2.28206" transform="matrix(0.740987 -0.671519 -0.740987 -0.671519 40.5647 158.501)" stroke="#012A5D" stroke-width="4.56412" stroke-linecap="round"/>
<line x1="64.4909" y1="35.858" x2="20.1334" y2="35.858" stroke="#012A5D" stroke-width="4.56412" stroke-linecap="round"/>
<path d="M78.9509 158.778H10.8758C10.8758 158.778 9.60294 113.805 31.7563 100.556C35.5728 103.25 40.163 104.626 44.8318 104.477C49.5006 104.328 53.9936 102.661 57.6302 99.7292C81.113 111.81 78.9509 158.778 78.9509 158.778Z" fill="#7FCFE7" stroke="#012A5D" stroke-width="4.56412" stroke-linecap="round" stroke-linejoin="round"/>
<path d="M65.63 83.0091C65.6303 87.2574 64.3708 91.4104 62.0108 94.9429C59.6508 98.4754 56.2963 101.229 52.3715 102.855C48.4467 104.481 44.1279 104.906 39.9612 104.078C35.7944 103.249 31.967 101.204 28.9628 98.2002C25.9586 95.1964 23.9125 91.3692 23.0834 87.2026C22.2543 83.036 22.6794 78.7171 24.3049 74.792C25.9304 70.867 28.6833 67.5121 32.2154 65.1517C35.7476 62.7912 39.9004 61.5311 44.1487 61.5308C46.9716 61.5232 49.7681 62.0735 52.3776 63.1501C54.9871 64.2267 57.3581 65.8085 59.3543 67.8044C61.3505 69.8003 62.9326 72.1711 64.0096 74.7804C65.0866 77.3898 65.6373 80.1863 65.63 83.0091Z" fill="#7FCFE7" stroke="#012A5D" stroke-width="4.56412" stroke-linecap="round" stroke-linejoin="round"/>
</svg>
