<svg width="208" height="147" viewBox="0 0 208 147" fill="none" xmlns="http://www.w3.org/2000/svg">
<path d="M178.714 3.00017H27.7418C26.7405 3.00017 25.7803 3.40553 25.0723 4.12706C24.3643 4.8486 23.9666 5.82721 23.9666 6.84762V109.226C23.9666 110.247 24.3643 111.225 25.0723 111.947C25.7803 112.668 26.7405 113.074 27.7418 113.074H178.75C179.751 113.074 180.711 112.668 181.419 111.947C182.127 111.225 182.525 110.247 182.525 109.226V6.84762C182.525 6.33927 182.426 5.83594 182.234 5.36674C182.042 4.89754 181.761 4.47178 181.407 4.11403C181.052 3.75627 180.632 3.47365 180.17 3.28246C179.707 3.09128 179.213 2.99533 178.714 3.00017Z" fill="#F1F1F1" stroke="#012A5D" stroke-width="4.56412" stroke-miterlimit="10"/>
<path d="M100.114 113.074H178.74C181.141 113.196 183.428 114.12 185.222 115.691L202.659 132.733C204.099 134.148 203.631 135.351 201.557 135.351H6.25552C4.18129 135.351 3.68434 134.176 5.16078 132.733L22.5901 115.691C24.3846 114.12 26.6711 113.196 29.072 113.074H100.114Z" fill="#F1F1F1" stroke="#012A5D" stroke-width="4.56412" stroke-miterlimit="10"/>
<path d="M203.619 132.729H6.80402C5.79447 132.731 4.82692 133.151 4.11374 133.897C3.40055 134.642 3 135.653 3 136.706V137.933C3 138.986 3.40078 139.995 4.11417 140.74C4.82756 141.484 5.79514 141.902 6.80402 141.902H203.619C204.627 141.902 205.595 141.484 206.308 140.74C207.022 139.995 207.423 138.986 207.423 137.933V136.706C207.423 135.653 207.022 134.642 206.309 133.897C205.596 133.151 204.628 132.731 203.619 132.729Z" fill="white"/>
<path d="M201.201 132.303H6.75819C5.7608 132.306 4.80491 132.87 4.10032 133.871C3.39573 134.872 3 136.228 3 137.642V139.29C3 140.703 3.39595 142.058 4.10075 143.057C4.80554 144.057 5.76146 144.618 6.75819 144.618H201.201C202.198 144.618 203.154 144.057 203.859 143.057C204.564 142.058 204.96 140.703 204.96 139.29V137.642C204.96 136.228 204.564 134.872 203.859 133.871C203.155 132.87 202.199 132.306 201.201 132.303Z" fill="#F1F1F1" stroke="#012A5D" stroke-width="4.56412" stroke-linejoin="round"/>
<path d="M172.041 16.9775H35.7598V98.2224H172.041V16.9775Z" fill="white" stroke="#012A5D" stroke-width="4.56412" stroke-linejoin="round"/>
<path d="M148.891 79.8767H58.9104V98.2223H148.891V79.8767Z" fill="#7FCFE7" stroke="#012A5D" stroke-width="4.56412" stroke-linecap="round" stroke-linejoin="round"/>
<path d="M83.9424 68.4545H58.9151C58.9151 68.4545 58.4472 51.9205 66.5917 47.0496C67.9948 48.0398 69.6823 48.5458 71.3988 48.491C73.1152 48.4361 74.767 47.8234 76.104 46.7456C84.7372 51.1869 83.9424 68.4545 83.9424 68.4545Z" fill="#7FCFE7" stroke="#012A5D" stroke-width="4.56412" stroke-linecap="round" stroke-linejoin="round"/>
<path d="M79.045 40.5985C79.0451 42.1603 78.582 43.6872 77.7144 44.9859C76.8468 46.2845 75.6135 47.2968 74.1706 47.8946C72.7277 48.4924 71.1399 48.6489 69.608 48.3443C68.0762 48.0397 66.669 47.2877 65.5646 46.1834C64.4601 45.079 63.7079 43.672 63.4031 42.1402C63.0983 40.6084 63.2545 39.0206 63.8521 37.5776C64.4497 36.1345 65.4618 34.9012 66.7604 34.0333C68.0589 33.1655 69.5857 32.7023 71.1475 32.7022C72.1853 32.6994 73.2135 32.9017 74.1728 33.2975C75.1322 33.6933 76.0039 34.2748 76.7378 35.0086C77.4716 35.7424 78.0533 36.614 78.4492 37.5733C78.8452 38.5326 79.0476 39.5607 79.045 40.5985Z" fill="#7FCFE7" stroke="#012A5D" stroke-width="4.56412" stroke-linecap="round" stroke-linejoin="round"/>
<path d="M98.8499 83.5685C98.8499 83.5685 108.414 65.4891 95.4175 51.9321" stroke="#012A5D" stroke-width="4.56412" stroke-linecap="round" stroke-linejoin="round"/>
<path d="M90.3782 41.3865L85.4924 45.8447L93.6349 54.4132L98.5192 49.9594L90.3782 41.3865Z" fill="#C7E4EF" stroke="#012A5D" stroke-width="4.56412" stroke-linecap="round" stroke-linejoin="round"/>
<path d="M136.359 68.4545H111.332C111.332 68.4545 110.864 51.9205 119.008 47.0496C120.411 48.0398 122.099 48.5458 123.815 48.491C125.532 48.4361 127.184 47.8234 128.52 46.7456C137.154 51.1869 136.359 68.4545 136.359 68.4545Z" fill="#7FCFE7" stroke="#012A5D" stroke-width="4.56412" stroke-linecap="round" stroke-linejoin="round"/>
<path d="M131.461 40.5985C131.462 42.1603 130.999 43.6872 130.131 44.9859C129.263 46.2845 128.03 47.2968 126.587 47.8946C125.144 48.4924 123.556 48.6489 122.025 48.3443C120.493 48.0397 119.086 47.2877 117.981 46.1834C116.877 45.079 116.124 43.672 115.82 42.1402C115.515 40.6084 115.671 39.0206 116.269 37.5776C116.866 36.1345 117.878 34.9012 119.177 34.0333C120.475 33.1655 122.002 32.7023 123.564 32.7022C124.602 32.6994 125.63 32.9017 126.589 33.2975C127.549 33.6933 128.42 34.2748 129.154 35.0086C129.888 35.7424 130.47 36.614 130.866 37.5733C131.262 38.5326 131.464 39.5607 131.461 40.5985Z" fill="#7FCFE7" stroke="#012A5D" stroke-width="4.56412" stroke-linecap="round" stroke-linejoin="round"/>
<path d="M151.266 83.5685C151.266 83.5685 160.831 65.4891 147.834 51.9321" stroke="#012A5D" stroke-width="4.56412" stroke-linecap="round" stroke-linejoin="round"/>
<path d="M142.794 41.3865L137.908 45.8447L146.051 54.4132L150.935 49.9594L142.794 41.3865Z" fill="#C7E4EF" stroke="#012A5D" stroke-width="4.56412" stroke-linecap="round" stroke-linejoin="round"/>
<path d="M161.995 68.5198H45.8062V85.9918H161.995V68.5198Z" fill="#7FCFE7" stroke="#012A5D" stroke-width="4.56412" stroke-linecap="round" stroke-linejoin="round"/>
</svg>
