<svg width="209" height="149" viewBox="0 0 209 149" fill="none" xmlns="http://www.w3.org/2000/svg">
<path d="M177.996 3.00017H27.6402C26.643 3.00017 25.6867 3.40553 24.9816 4.12706C24.2765 4.8486 23.8804 5.82721 23.8804 6.84762V109.226C23.8804 110.247 24.2765 111.225 24.9816 111.947C25.6867 112.668 26.643 113.074 27.6402 113.074H178.032C179.029 113.074 179.985 112.668 180.69 111.947C181.396 111.225 181.792 110.247 181.792 109.226V6.84762C181.792 6.33927 181.693 5.83594 181.502 5.36674C181.311 4.89754 181.031 4.47178 180.678 4.11403C180.325 3.75627 179.906 3.47365 179.446 3.28246C178.986 3.09128 178.493 2.99533 177.996 3.00017Z" fill="#F1F1F1" stroke="#012A5D" stroke-width="4.56412" stroke-miterlimit="10"/>
<path d="M99.7176 113.074H178.023C180.414 113.196 182.691 114.12 184.478 115.691L201.844 132.733C203.278 134.148 202.812 135.351 200.746 135.351H6.24196C4.1762 135.351 3.68128 134.176 5.1517 132.733L22.5098 115.691C24.2971 114.12 26.5742 113.196 28.9653 113.074H99.7176Z" fill="#F1F1F1" stroke="#012A5D" stroke-width="4.56412" stroke-miterlimit="10"/>
<path d="M202.8 132.73H6.7885C5.78306 132.732 4.81947 133.152 4.10919 133.897C3.39892 134.643 3 135.653 3 136.707V137.934C3 138.986 3.39914 139.996 4.10962 140.74C4.8201 141.485 5.78373 141.903 6.7885 141.903H202.8C203.804 141.903 204.768 141.485 205.479 140.74C206.189 139.996 206.588 138.986 206.588 137.934V136.707C206.588 135.653 206.189 134.643 205.479 133.897C204.769 133.152 203.805 132.732 202.8 132.73Z" fill="white"/>
<path d="M200.392 132.304H6.74285C5.74953 132.306 4.79755 132.87 4.09583 133.871C3.39411 134.872 3 136.228 3 137.642V139.29C3 140.703 3.39433 142.058 4.09625 143.058C4.79817 144.057 5.75019 144.618 6.74285 144.618H200.392C201.385 144.618 202.337 144.057 203.039 143.058C203.741 142.058 204.135 140.703 204.135 139.29V137.642C204.135 136.228 203.741 134.872 203.04 133.871C202.338 132.87 201.386 132.306 200.392 132.304Z" fill="#F1F1F1" stroke="#012A5D" stroke-width="4.56412" stroke-linejoin="round"/>
<path d="M171.351 16.9775H35.626V98.2224H171.351V16.9775Z" fill="#BFE7F3" stroke="#012A5D" stroke-width="4.56412" stroke-linejoin="round"/>
<circle cx="63.2603" cy="43.5996" r="14.6052" fill="#7FCFE7" stroke="#012A5D" stroke-width="4.56412"/>
<circle cx="63.2599" cy="43.5993" r="7.30259" fill="#7FCFE7" stroke="#012A5D" stroke-width="4.56412"/>
<path d="M156.664 134.845C156.664 134.845 176.824 95.4534 149.429 65.9158" stroke="#012A5D" stroke-width="4.56412" stroke-linecap="round" stroke-linejoin="round"/>
<path d="M206.588 127.051H3V146.27H206.588V127.051Z" fill="#C7E4EF" stroke="#012A5D" stroke-width="4.56412" stroke-linecap="round" stroke-linejoin="round"/>
<path d="M138.049 43.1858L127.536 53.0132L145.056 71.9007L155.565 62.0831L138.049 43.1858Z" fill="#7FCFE7" stroke="#012A5D" stroke-width="4.56412" stroke-linecap="round" stroke-linejoin="round"/>
</svg>
