<svg width="176" height="166" viewBox="0 0 176 166" fill="none" xmlns="http://www.w3.org/2000/svg">
<path d="M95.3955 61.1845V53.0503L87.2198 53.4226C86.5841 49.4393 84.9968 45.6682 82.5926 42.4293L90.6932 35.6804L85.1819 29.6975L76.7572 36.7412C73.6597 34.606 70.1261 33.1866 66.4124 32.5857V23.7864H58.3075V32.5857C55.1472 33.1051 52.1158 34.2256 49.3775 35.8866L42.5637 28.7653L36.5513 34.3061L43.1588 41.1915C40.2572 44.6581 38.3432 48.8424 37.6182 53.3046L28.7334 53.4371V61.5715L37.6182 61.4389C38.2586 65.3282 39.8031 69.0128 42.1273 72.1964L34.0097 78.9336L39.521 84.9163L47.9334 77.914C51.0308 80.1062 54.5901 81.5581 58.337 82.158L58.2928 90.4485H66.4271L66.4714 82.158C70.2295 81.5479 73.7983 80.0861 76.9045 77.8845L83.6335 85.4487L89.5868 79.9374L82.7106 72.1374C85.0025 69.0079 86.5269 65.3836 87.1609 61.5568L95.3955 61.1845ZM62.0778 72.8841C59.036 72.8868 56.0617 71.9873 53.531 70.2996C51.0004 68.6118 49.027 66.2116 47.8605 63.4023C46.694 60.593 46.3867 57.5009 46.9776 54.517C47.5684 51.5331 49.0308 48.7914 51.1798 46.6386C53.3288 44.4859 56.068 43.0187 59.0509 42.4227C62.0337 41.8266 65.1264 42.1285 67.9377 43.2901C70.749 44.4517 73.1527 46.4209 74.8448 48.9486C76.537 51.4764 77.4416 54.4491 77.4442 57.4909C77.4462 59.5107 77.0503 61.5111 76.2791 63.3778C75.5079 65.2445 74.3765 66.941 72.9496 68.3705C71.5226 69.7999 69.8281 70.9342 67.9627 71.7087C66.0973 72.4832 64.0976 72.8826 62.0778 72.8841V72.8841Z" fill="#D3D2D3" stroke="#012A5D" stroke-width="2.61048" stroke-linecap="round" stroke-linejoin="round"/>
<path d="M26.0967 111.709V145.622C26.0967 145.622 72.367 163.308 98.8952 163.308C125.423 163.308 173.545 137.62 173.545 129.6C173.545 121.58 138.913 130.638 126.657 132.068C108.149 134.227 80.5927 132.273 80.5927 124.87C80.5927 117.467 93.7931 112.228 98.2783 108.933C105.485 103.637 105.219 98.1361 99.8206 96.9022C91.6127 95.0261 60.9265 108.071 53.8588 111.709C47.1629 115.155 26.0967 111.709 26.0967 111.709Z" fill="white" stroke="#012A5D" stroke-width="4.38229" stroke-linejoin="round"/>
<path d="M27.4089 100.901H3.90124C3.29617 100.901 2.80566 101.392 2.80566 101.997V158.122C2.80566 158.727 3.29617 159.218 3.90124 159.218H27.4089C28.0139 159.218 28.5044 158.727 28.5044 158.122V101.997C28.5044 101.392 28.0139 100.901 27.4089 100.901Z" fill="#BFE7F3"/>
<path d="M27.4089 100.901H3.90124C3.29617 100.901 2.80566 101.392 2.80566 101.997V158.122C2.80566 158.727 3.29617 159.218 3.90124 159.218H27.4089C28.0139 159.218 28.5044 158.727 28.5044 158.122V101.997C28.5044 101.392 28.0139 100.901 27.4089 100.901Z" stroke="#012A5D" stroke-width="4.38229" stroke-linejoin="round"/>
<path d="M122.679 80.1208C123.016 80.3162 123.399 80.4191 123.789 80.4191C124.179 80.4191 124.562 80.3162 124.899 80.1208C124.899 80.1208 127.071 78.7058 147.821 63.4714C168.571 48.237 171.853 36.4771 171.853 27.3899C171.853 18.3027 166.695 1.99927 150.049 1.99927C133.402 1.99927 124.368 20.5857 124.368 20.5857C124.05 21.2411 123.528 21.2411 123.21 20.5857C123.21 20.5857 114.176 1.99927 97.5294 1.99927C80.8827 1.99927 75.7246 18.3028 75.7246 27.3899C75.7246 36.4771 79.007 48.237 99.7568 63.4714C120.507 78.7058 122.679 80.1208 122.679 80.1208Z" fill="#BFE7F3"/>
<path d="M122.679 80.1208C123.016 80.3162 123.399 80.4191 123.789 80.4191C124.179 80.4191 124.562 80.3162 124.899 80.1208C124.899 80.1208 127.071 78.7058 147.821 63.4714C168.571 48.237 171.853 36.4771 171.853 27.3899C171.853 18.3027 166.695 1.99927 150.049 1.99927C133.402 1.99927 124.368 20.5857 124.368 20.5857C124.05 21.2411 123.528 21.2411 123.21 20.5857C123.21 20.5857 114.176 1.99927 97.5294 1.99927C80.8827 1.99927 75.7246 18.3028 75.7246 27.3899C75.7246 36.4771 79.007 48.237 99.7568 63.4714C120.507 78.7058 122.679 80.1208 122.679 80.1208Z" stroke="#012A5D" stroke-width="3.53284" stroke-linejoin="round"/>
<path d="M123.786 38.0678C129.175 38.0678 133.544 33.6993 133.544 28.3104C133.544 22.9215 129.175 18.553 123.786 18.553C118.397 18.553 114.029 22.9215 114.029 28.3104C114.029 33.6993 118.397 38.0678 123.786 38.0678Z" fill="white" stroke="#012A5D" stroke-width="3.53284" stroke-linejoin="round"/>
<path d="M143.977 58.1035C143.977 58.1035 139.069 42.6802 123.785 42.6802C108.501 42.6802 103.481 58.0088 103.481 58.0088L123.788 73.3374L143.977 58.1035Z" fill="white" stroke="#012A5D" stroke-width="3.53284" stroke-linejoin="round"/>
</svg>
