<svg width="209" height="209" viewBox="0 0 209 209" fill="none" xmlns="http://www.w3.org/2000/svg">
<circle cx="104.634" cy="104.482" r="102.24" fill="white" stroke="white" stroke-width="2.98482"/>
<circle cx="105.058" cy="104.058" r="87.3918" fill="white" stroke="white" stroke-width="2.55134"/>
<path d="M155.085 54.8472H58.8979V116.513H155.085V54.8472Z" fill="#C7E4EF" stroke="#012A5D" stroke-width="3.97086" stroke-linejoin="round"/>
<path d="M171.502 132.556L138.415 85.2033" stroke="#012A5D" stroke-width="3.97086" stroke-linecap="round" stroke-linejoin="round"/>
<path d="M138.355 136.794H70.6964C70.3493 136.795 70.0167 136.933 69.7715 137.179C69.5264 137.425 69.3887 137.758 69.3887 138.105V138.509C69.3887 138.856 69.5264 139.188 69.7717 139.434C70.0169 139.679 70.3495 139.817 70.6964 139.817H138.355C138.701 139.817 139.034 139.679 139.279 139.434C139.525 139.188 139.662 138.856 139.662 138.509V138.105C139.662 137.758 139.525 137.425 139.28 137.179C139.034 136.933 138.702 136.795 138.355 136.794Z" fill="white"/>
<path d="M170.39 149.726H38.8779V160.797H170.39V149.726Z" fill="#C7E4EF" stroke="#012A5D" stroke-width="2.9825" stroke-linecap="round" stroke-linejoin="round"/>
<path d="M132.003 125.157C138.827 125.157 144.36 119.824 144.36 113.253C144.36 106.681 138.827 101.356 132.003 101.356C125.178 101.356 119.647 106.689 119.647 113.253C119.647 119.816 125.179 125.157 132.003 125.157Z" fill="#7FCFE7" stroke="#012A5D" stroke-width="2.55123" stroke-linecap="round" stroke-linejoin="round"/>
<path d="M111.336 151.598C111.336 151.598 110.193 126.941 132.004 128.184C153.815 129.427 151.968 151.598 151.968 151.598H111.336Z" fill="#7FCFE7" stroke="#012A5D" stroke-width="2.55123" stroke-linecap="round" stroke-linejoin="round"/>
<path d="M78.759 124.943C85.5836 124.943 91.1147 119.61 91.1147 113.038C91.1147 106.466 85.5836 101.134 78.759 101.134C71.9343 101.134 66.4087 106.464 66.4087 113.038C66.4087 119.612 71.9343 124.943 78.759 124.943Z" fill="#7FCFE7" stroke="#012A5D" stroke-width="2.55123" stroke-linecap="round" stroke-linejoin="round"/>
<path d="M58.0909 151.383C58.0909 151.383 56.9477 126.726 78.759 127.968C100.57 129.21 98.7228 151.383 98.7228 151.383H58.0909Z" fill="#7FCFE7" stroke="#012A5D" stroke-width="2.55123" stroke-linecap="round" stroke-linejoin="round"/>
<path d="M105.356 129.022C112.181 129.022 117.713 123.69 117.713 117.118C117.713 110.546 112.181 105.213 105.356 105.213C98.5316 105.213 93.0005 110.546 93.0005 117.118C93.0005 123.69 98.5329 129.022 105.356 129.022Z" fill="#7FCFE7" stroke="#012A5D" stroke-width="2.55123" stroke-linecap="round" stroke-linejoin="round"/>
<path d="M84.6895 155.464C84.6895 155.464 83.5464 130.807 105.358 132.053C127.169 133.298 125.321 155.467 125.321 155.467L84.6895 155.464Z" fill="#7FCFE7" stroke="#012A5D" stroke-width="2.55123" stroke-linecap="round" stroke-linejoin="round"/>
<path d="M104.634 205.025C160.631 205.025 206.026 159.631 206.026 103.634C206.026 47.6367 160.631 2.24219 104.634 2.24219C48.6372 2.24219 3.24268 47.6367 3.24268 103.634C3.24268 159.631 48.6372 205.025 104.634 205.025Z" stroke="#012A5D" stroke-width="3.99179" stroke-linecap="round" stroke-linejoin="round"/>
<path d="M105.086 191.275C153.24 191.275 192.276 152.239 192.276 104.086C192.276 55.9322 153.24 16.896 105.086 16.896C56.9327 16.896 17.8965 55.9322 17.8965 104.086C17.8965 152.239 56.9327 191.275 105.086 191.275Z" stroke="#012A5D" stroke-width="4.51968" stroke-linecap="round" stroke-linejoin="round"/>
<path d="M39.8682 103.006C34.7738 103.006 30.6404 98.8725 30.6404 93.7782C30.6404 77.4494 37.2718 62.6707 47.9445 51.9806C58.6517 41.2737 73.4297 34.6599 89.7587 34.6599C94.853 34.6599 98.9865 38.7934 98.9865 43.8877C98.9865 48.982 94.853 53.1154 89.7587 53.1154C78.5246 53.1154 68.3575 57.6646 61.0013 65.0208C53.6451 72.377 49.0959 82.5441 49.0959 93.7782C49.0959 98.8725 44.9625 103.006 39.8682 103.006Z" fill="#E9E9E9" stroke="#012A5D" stroke-width="1.92524"/>
</svg>
