<svg width="196" height="151" viewBox="0 0 196 151" fill="none" xmlns="http://www.w3.org/2000/svg">
<mask id="path-1-inside-1_750_1434" fill="white">
<path d="M47.5346 85.744C47.9077 85.3173 48.3527 84.978 48.8438 84.746C49.335 84.514 49.8624 84.3939 50.3953 84.3926H66.4667C66.9996 84.3939 67.527 84.514 68.0181 84.746C68.5093 84.978 68.9543 85.3173 69.3274 85.744C70.7336 87.3387 72.4613 100.132 74.1729 101.475C76.1102 102.981 78.1283 104.353 80.2157 105.583L80.2961 105.637H80.3202C81.1335 106.089 81.7863 106.836 82.1724 107.757C82.5585 108.678 82.655 109.719 82.4463 110.709C82.2375 111.7 81.7359 112.582 81.0229 113.211C80.31 113.841 79.4279 114.182 78.5202 114.178H38.3418C37.437 114.178 36.5588 113.836 35.8492 113.206C35.1397 112.577 34.6404 111.697 34.4321 110.71C34.2239 109.723 34.3189 108.686 34.7017 107.767C35.0846 106.848 35.733 106.101 36.5418 105.646L36.5579 105.637L36.6382 105.583C37.222 105.257 37.7956 104.908 38.3579 104.538C39.8397 103.586 41.2847 102.564 42.6891 101.475C44.4087 100.123 46.1284 87.3387 47.5346 85.744Z"/>
</mask>
<path d="M47.5346 85.744C47.9077 85.3173 48.3527 84.978 48.8438 84.746C49.335 84.514 49.8624 84.3939 50.3953 84.3926H66.4667C66.9996 84.3939 67.527 84.514 68.0181 84.746C68.5093 84.978 68.9543 85.3173 69.3274 85.744C70.7336 87.3387 72.4613 100.132 74.1729 101.475C76.1102 102.981 78.1283 104.353 80.2157 105.583L80.2961 105.637H80.3202C81.1335 106.089 81.7863 106.836 82.1724 107.757C82.5585 108.678 82.655 109.719 82.4463 110.709C82.2375 111.7 81.7359 112.582 81.0229 113.211C80.31 113.841 79.4279 114.182 78.5202 114.178H38.3418C37.437 114.178 36.5588 113.836 35.8492 113.206C35.1397 112.577 34.6404 111.697 34.4321 110.71C34.2239 109.723 34.3189 108.686 34.7017 107.767C35.0846 106.848 35.733 106.101 36.5418 105.646L36.5579 105.637L36.6382 105.583C37.222 105.257 37.7956 104.908 38.3579 104.538C39.8397 103.586 41.2847 102.564 42.6891 101.475C44.4087 100.123 46.1284 87.3387 47.5346 85.744Z" fill="#C6E6F1"/>
<path d="M47.5346 85.744L49.408 87.396L49.4151 87.388L47.5346 85.744ZM50.3953 84.3926V81.8948L50.3893 81.8948L50.3953 84.3926ZM66.4667 84.3926L66.4727 81.8948H66.4667V84.3926ZM69.3274 85.744L67.4469 87.388L67.454 87.396L69.3274 85.744ZM74.1729 101.475L72.6314 103.44L72.6394 103.446L74.1729 101.475ZM80.2157 105.583L81.61 103.511L81.5479 103.469L81.4833 103.431L80.2157 105.583ZM80.2961 105.637L78.9017 107.709L79.534 108.135H80.2961V105.637ZM80.3202 105.637L81.5333 103.454L80.9675 103.139H80.3202V105.637ZM78.5202 114.178L78.5313 111.68H78.5202V114.178ZM38.3418 114.178L38.3416 116.676H38.3418V114.178ZM36.5418 105.646L35.32 103.468L35.3182 103.469L36.5418 105.646ZM36.5579 105.637L37.7797 107.816L37.8681 107.766L37.9521 107.709L36.5579 105.637ZM36.6382 105.583L35.4204 103.402L35.33 103.453L35.244 103.511L36.6382 105.583ZM38.3579 104.538L37.008 102.436L36.9957 102.444L36.9835 102.452L38.3579 104.538ZM42.6891 101.475L44.22 103.448L44.2263 103.443L44.2325 103.438L42.6891 101.475ZM49.4151 87.388C49.5721 87.2083 49.7437 87.0834 49.9108 87.0044L47.7769 82.4876C46.9618 82.8727 46.2432 83.4262 45.6542 84.1L49.4151 87.388ZM49.9108 87.0044C50.0767 86.9261 50.2425 86.8907 50.4013 86.8903L50.3893 81.8948C49.4823 81.897 48.5933 82.1019 47.7769 82.4876L49.9108 87.0044ZM50.3953 86.8903H66.4667V81.8948H50.3953V86.8903ZM66.4607 86.8903C66.6195 86.8907 66.7853 86.9261 66.9512 87.0044L69.085 82.4876C68.2687 82.1019 67.3797 81.897 66.4727 81.8948L66.4607 86.8903ZM66.9512 87.0044C67.1183 87.0834 67.2899 87.2083 67.4469 87.388L71.2078 84.1C70.6188 83.4262 69.9002 82.8727 69.085 82.4876L66.9512 87.0044ZM67.454 87.396C67.2895 87.2096 67.3397 87.1799 67.524 87.6825C67.6714 88.0844 67.8385 88.6373 68.0241 89.3314C68.396 90.7215 68.7838 92.4516 69.2017 94.2648C69.6102 96.0377 70.0476 97.8902 70.4994 99.3934C70.7244 100.142 70.9727 100.872 71.2482 101.492C71.4718 101.996 71.8905 102.859 72.6314 103.44L75.7143 99.5092C76.0274 99.7548 76.0176 99.9241 75.8137 99.4649C75.6615 99.1223 75.4831 98.6199 75.2835 97.9558C74.886 96.6329 74.4827 94.9356 74.0696 93.143C73.6658 91.3907 73.251 89.5395 72.85 88.0404C72.6492 87.2899 72.4372 86.5712 72.2142 85.9629C72.0282 85.4554 71.7168 84.6771 71.2008 84.092L67.454 87.396ZM72.6394 103.446C74.6603 105.018 76.7671 106.451 78.9481 107.735L81.4833 103.431C79.4895 102.256 77.5602 100.945 75.7064 99.503L72.6394 103.446ZM78.8214 107.655L78.9017 107.709L81.6904 103.565L81.61 103.511L78.8214 107.655ZM80.2961 108.135H80.3202V103.139H80.2961V108.135ZM79.107 107.82C79.3935 107.98 79.6824 108.278 79.8688 108.723L84.476 106.792C83.8903 105.394 82.8735 104.198 81.5333 103.454L79.107 107.82ZM79.8688 108.723C80.056 109.169 80.1078 109.693 80.0022 110.194L84.8903 111.224C85.2022 109.745 85.061 108.187 84.476 106.792L79.8688 108.723ZM80.0022 110.194C79.8967 110.695 79.6531 111.089 79.3691 111.34L82.6768 115.083C83.8186 114.074 84.5784 112.704 84.8903 111.224L80.0022 110.194ZM79.3691 111.34C79.0914 111.585 78.7945 111.681 78.5313 111.68L78.5091 116.676C80.0612 116.683 81.5286 116.098 82.6768 115.083L79.3691 111.34ZM78.5202 111.68H38.3418V116.676H78.5202V111.68ZM38.342 111.68C38.0795 111.68 37.7834 111.583 37.5067 111.338L34.1918 115.075C35.3342 116.088 36.7946 116.676 38.3416 116.676L38.342 111.68ZM37.5067 111.338C37.2238 111.087 36.9814 110.694 36.8761 110.195L31.9882 111.226C32.2994 112.701 33.0556 114.067 34.1918 115.075L37.5067 111.338ZM36.8761 110.195C36.7707 109.695 36.8217 109.173 37.0074 108.727L32.396 106.806C31.816 108.199 31.677 109.751 31.9882 111.226L36.8761 110.195ZM37.0074 108.727C37.1924 108.283 37.4798 107.984 37.7654 107.824L35.3182 103.469C33.9861 104.217 32.9768 105.412 32.396 106.806L37.0074 108.727ZM37.7636 107.825L37.7797 107.816L35.336 103.458L35.32 103.468L37.7636 107.825ZM37.9521 107.709L38.0325 107.655L35.244 103.511L35.1636 103.565L37.9521 107.709ZM37.8561 107.764C38.4935 107.408 39.1193 107.027 39.7322 106.624L36.9835 102.452C36.4719 102.789 35.9505 103.106 35.4204 103.402L37.8561 107.764ZM39.7078 106.639C41.2524 105.647 42.7578 104.583 44.22 103.448L41.1581 99.501C39.8116 100.546 38.427 101.525 37.008 102.436L39.7078 106.639ZM44.2325 103.438C44.9717 102.858 45.3906 101.997 45.6156 101.491C45.8918 100.87 46.1405 100.14 46.3659 99.39C46.8181 97.8859 47.2554 96.0334 47.6634 94.2609C48.0809 92.448 48.4678 90.719 48.8391 89.3294C49.0245 88.6357 49.1914 88.0832 49.3385 87.6816C49.5225 87.1794 49.5726 87.2094 49.408 87.396L45.6612 84.092C45.1451 84.6773 44.8338 85.4556 44.6479 85.9631C44.4251 86.5712 44.2134 87.2896 44.013 88.0398C43.6126 89.5381 43.1985 91.3887 42.7953 93.1401C42.3827 94.932 41.9797 96.6287 41.582 97.9516C41.3823 98.6156 41.2036 99.1182 41.0511 99.4612C40.8474 99.9192 40.8364 99.7538 41.1457 99.5107L44.2325 103.438Z" fill="#012A5D" mask="url(#path-1-inside-1_750_1434)"/>
<rect x="2.18164" y="2.18066" width="111.997" height="85.5904" fill="#F1F1F1" stroke="#012A5D" stroke-width="2.49776" stroke-linejoin="round"/>
<rect x="10.7197" y="11.1902" width="94.9214" height="67.0082" fill="white" stroke="#012A5D" stroke-width="2.49776" stroke-linejoin="round"/>
<mask id="path-5-inside-2_750_1434" fill="white">
<path d="M127.888 122.36C128.261 121.933 128.706 121.594 129.197 121.362C129.688 121.13 130.215 121.01 130.748 121.009H146.82C147.353 121.01 147.88 121.13 148.371 121.362C148.862 121.594 149.307 121.933 149.68 122.36C151.087 123.955 152.814 136.748 154.526 138.091C156.463 139.598 158.481 140.97 160.569 142.199L160.649 142.253H160.673C161.486 142.705 162.139 143.452 162.525 144.373C162.911 145.295 163.008 146.335 162.799 147.325C162.591 148.316 162.089 149.198 161.376 149.828C160.663 150.458 159.781 150.798 158.873 150.794H118.695C117.79 150.794 116.912 150.452 116.202 149.822C115.493 149.193 114.993 148.314 114.785 147.326C114.577 146.339 114.672 145.302 115.055 144.383C115.438 143.464 116.086 142.717 116.895 142.262L116.911 142.253L116.991 142.199C117.575 141.873 118.149 141.525 118.711 141.154C120.193 140.202 121.638 139.18 123.042 138.091C124.762 136.739 126.481 123.955 127.888 122.36Z"/>
</mask>
<path d="M127.888 122.36C128.261 121.933 128.706 121.594 129.197 121.362C129.688 121.13 130.215 121.01 130.748 121.009H146.82C147.353 121.01 147.88 121.13 148.371 121.362C148.862 121.594 149.307 121.933 149.68 122.36C151.087 123.955 152.814 136.748 154.526 138.091C156.463 139.598 158.481 140.97 160.569 142.199L160.649 142.253H160.673C161.486 142.705 162.139 143.452 162.525 144.373C162.911 145.295 163.008 146.335 162.799 147.325C162.591 148.316 162.089 149.198 161.376 149.828C160.663 150.458 159.781 150.798 158.873 150.794H118.695C117.79 150.794 116.912 150.452 116.202 149.822C115.493 149.193 114.993 148.314 114.785 147.326C114.577 146.339 114.672 145.302 115.055 144.383C115.438 143.464 116.086 142.717 116.895 142.262L116.911 142.253L116.991 142.199C117.575 141.873 118.149 141.525 118.711 141.154C120.193 140.202 121.638 139.18 123.042 138.091C124.762 136.739 126.481 123.955 127.888 122.36Z" fill="#C6E6F1"/>
<path d="M127.888 122.36L129.761 124.012L129.768 124.004L127.888 122.36ZM130.748 121.009V118.511L130.742 118.511L130.748 121.009ZM146.82 121.009L146.826 118.511H146.82V121.009ZM149.68 122.36L147.8 124.004L147.807 124.012L149.68 122.36ZM154.526 138.091L152.984 140.056L152.992 140.062L154.526 138.091ZM160.569 142.199L161.963 140.127L161.901 140.085L161.836 140.047L160.569 142.199ZM160.649 142.253L159.255 144.326L159.887 144.751H160.649V142.253ZM160.673 142.253L161.886 140.07L161.321 139.755H160.673V142.253ZM158.873 150.794L158.884 148.296H158.873V150.794ZM118.695 150.794L118.695 153.292H118.695V150.794ZM116.895 142.262L115.673 140.084L115.671 140.085L116.895 142.262ZM116.911 142.253L118.133 144.432L118.221 144.382L118.305 144.326L116.911 142.253ZM116.991 142.199L115.773 140.018L115.683 140.069L115.597 140.127L116.991 142.199ZM118.711 141.154L117.361 139.052L117.349 139.06L117.337 139.068L118.711 141.154ZM123.042 138.091L124.573 140.064L124.579 140.06L124.585 140.055L123.042 138.091ZM129.768 124.004C129.925 123.825 130.097 123.7 130.264 123.621L128.13 119.104C127.315 119.489 126.596 120.042 126.007 120.716L129.768 124.004ZM130.264 123.621C130.43 123.542 130.596 123.507 130.754 123.507L130.742 118.511C129.835 118.513 128.946 118.718 128.13 119.104L130.264 123.621ZM130.748 123.507H146.82V118.511H130.748V123.507ZM146.814 123.507C146.973 123.507 147.138 123.542 147.304 123.621L149.438 119.104C148.622 118.718 147.733 118.513 146.826 118.511L146.814 123.507ZM147.304 123.621C147.471 123.7 147.643 123.825 147.8 124.004L151.561 120.716C150.972 120.042 150.253 119.489 149.438 119.104L147.304 123.621ZM147.807 124.012C147.643 123.826 147.693 123.796 147.877 124.299C148.024 124.701 148.191 125.254 148.377 125.948C148.749 127.338 149.137 129.068 149.555 130.881C149.963 132.654 150.401 134.506 150.852 136.01C151.077 136.759 151.326 137.488 151.601 138.109C151.825 138.612 152.244 139.475 152.984 140.056L156.067 136.125C156.38 136.371 156.371 136.54 156.167 136.081C156.015 135.738 155.836 135.236 155.637 134.572C155.239 133.249 154.836 131.552 154.423 129.759C154.019 128.007 153.604 126.156 153.203 124.657C153.002 123.906 152.79 123.187 152.567 122.579C152.381 122.072 152.07 121.293 151.554 120.708L147.807 124.012ZM152.992 140.062C155.013 141.634 157.12 143.067 159.301 144.351L161.836 140.047C159.843 138.873 157.913 137.561 156.059 136.119L152.992 140.062ZM159.174 144.272L159.255 144.326L162.043 140.181L161.963 140.127L159.174 144.272ZM160.649 144.751H160.673V139.755H160.649V144.751ZM159.46 144.437C159.746 144.596 160.035 144.894 160.222 145.339L164.829 143.408C164.243 142.011 163.227 140.814 161.886 140.07L159.46 144.437ZM160.222 145.339C160.409 145.786 160.461 146.309 160.355 146.81L165.243 147.84C165.555 146.361 165.414 144.803 164.829 143.408L160.222 145.339ZM160.355 146.81C160.25 147.311 160.006 147.705 159.722 147.956L163.03 151.7C164.172 150.691 164.931 149.321 165.243 147.84L160.355 146.81ZM159.722 147.956C159.444 148.201 159.148 148.298 158.884 148.296L158.862 153.292C160.414 153.299 161.882 152.714 163.03 151.7L159.722 147.956ZM158.873 148.296H118.695V153.292H158.873V148.296ZM118.695 148.296C118.433 148.296 118.136 148.199 117.86 147.954L114.545 151.691C115.687 152.704 117.148 153.292 118.695 153.292L118.695 148.296ZM117.86 147.954C117.577 147.703 117.334 147.31 117.229 146.811L112.341 147.842C112.652 149.317 113.409 150.683 114.545 151.691L117.86 147.954ZM117.229 146.811C117.124 146.311 117.175 145.789 117.36 145.344L112.749 143.423C112.169 144.815 112.03 146.367 112.341 147.842L117.229 146.811ZM117.36 145.344C117.545 144.899 117.833 144.6 118.118 144.44L115.671 140.085C114.339 140.833 113.33 142.029 112.749 143.423L117.36 145.344ZM118.117 144.441L118.133 144.432L115.689 140.075L115.673 140.084L118.117 144.441ZM118.305 144.326L118.385 144.272L115.597 140.127L115.517 140.181L118.305 144.326ZM118.209 144.38C118.847 144.024 119.472 143.644 120.085 143.24L117.337 139.068C116.825 139.406 116.304 139.722 115.773 140.018L118.209 144.38ZM120.061 143.256C121.605 142.263 123.111 141.199 124.573 140.064L121.511 136.117C120.165 137.162 118.78 138.141 117.361 139.052L120.061 143.256ZM124.585 140.055C125.325 139.474 125.744 138.613 125.969 138.107C126.245 137.486 126.494 136.756 126.719 136.006C127.171 134.502 127.608 132.65 128.016 130.877C128.434 129.064 128.821 127.335 129.192 125.946C129.378 125.252 129.544 124.699 129.692 124.298C129.876 123.796 129.926 123.826 129.761 124.012L126.014 120.708C125.498 121.293 125.187 122.072 125.001 122.579C124.778 123.187 124.566 123.906 124.366 124.656C123.966 126.154 123.552 128.005 123.148 129.756C122.736 131.548 122.333 133.245 121.935 134.568C121.735 135.232 121.557 135.734 121.404 136.077C121.2 136.535 121.189 136.37 121.499 136.127L124.585 140.055Z" fill="#012A5D" mask="url(#path-5-inside-2_750_1434)"/>
<rect x="82.5347" y="38.7974" width="111.997" height="85.5904" fill="#F1F1F1" stroke="#012A5D" stroke-width="2.49776" stroke-linejoin="round"/>
<rect x="91.0728" y="47.8069" width="94.9214" height="67.0082" fill="white" stroke="#012A5D" stroke-width="2.49776" stroke-linejoin="round"/>
<path d="M143.875 108.67L179.421 96.5046L179.421 109.316L143.875 108.67Z" fill="#E9E9E9"/>
<path d="M51.7279 17.8775L16.1817 30.0433L16.1817 17.2317L51.7279 17.8775Z" fill="#E9E9E9"/>
</svg>
