<svg width="146" height="146" viewBox="0 0 146 146" fill="none" xmlns="http://www.w3.org/2000/svg">
<line x1="3.00893" y1="3.00893" x2="3.00893" y2="31.0979" stroke="#012A5D" stroke-width="4.01786" stroke-linecap="round"/>
<line x1="3.00893" y1="2.20176" x2="31.0979" y2="2.20176" stroke="#012A5D" stroke-width="4.01786" stroke-linecap="round"/>
<line x1="142.829" y1="3.00917" x2="114.741" y2="3.00917" stroke="#012A5D" stroke-width="4.01786" stroke-linecap="round"/>
<line x1="143.636" y1="3.00917" x2="143.636" y2="31.0981" stroke="#012A5D" stroke-width="4.01786" stroke-linecap="round"/>
<line x1="3.00893" y1="142.829" x2="31.0979" y2="142.829" stroke="#012A5D" stroke-width="4.01786" stroke-linecap="round"/>
<line x1="2.20201" y1="142.83" x2="2.20201" y2="114.741" stroke="#012A5D" stroke-width="4.01786" stroke-linecap="round"/>
<line x1="142.829" y1="142.829" x2="142.829" y2="114.741" stroke="#012A5D" stroke-width="4.01786" stroke-linecap="round"/>
<line x1="142.829" y1="143.637" x2="114.741" y2="143.637" stroke="#012A5D" stroke-width="4.01786" stroke-linecap="round"/>
<path d="M59.5284 128.072H25.7611C25.7611 128.072 25.1297 105.764 36.1185 99.1923C38.0115 100.528 40.2884 101.211 42.6043 101.137C44.9201 101.063 47.1488 100.236 48.9527 98.7822C60.6009 104.774 59.5284 128.072 59.5284 128.072Z" fill="#BFE7F3" stroke="#012A5D" stroke-width="4.01786" stroke-linecap="round" stroke-linejoin="round"/>
<path d="M52.9211 90.4889C52.9212 92.5962 52.2965 94.6562 51.1258 96.4084C49.9552 98.1606 48.2913 99.5264 46.3445 100.333C44.3977 101.139 42.2554 101.351 40.1886 100.94C38.1217 100.529 36.2232 99.5141 34.733 98.0241C33.2428 96.5341 32.2279 94.6357 31.8167 92.569C31.4054 90.5022 31.6163 88.3599 32.4226 86.413C33.2289 84.466 34.5944 82.8019 36.3464 81.631C38.0985 80.4602 40.1584 79.8351 42.2657 79.835C43.6659 79.8312 45.0531 80.1042 46.3475 80.6382C47.6419 81.1722 48.818 81.9568 49.8081 82.9469C50.7983 83.9369 51.5831 85.1129 52.1173 86.4072C52.6515 87.7015 52.9247 89.0887 52.9211 90.4889Z" fill="#BFE7F3" stroke="#012A5D" stroke-width="4.01786" stroke-linecap="round" stroke-linejoin="round"/>
<path d="M113.609 128.072H79.8417C79.8417 128.072 79.2103 105.764 90.199 99.1923C92.0921 100.528 94.369 101.211 96.6848 101.137C99.0007 101.063 101.229 100.236 103.033 98.7822C114.681 104.774 113.609 128.072 113.609 128.072Z" fill="#BFE7F3" stroke="#012A5D" stroke-width="4.01786" stroke-linecap="round" stroke-linejoin="round"/>
<path d="M107.001 90.4889C107.002 92.5962 106.377 94.6562 105.206 96.4084C104.036 98.1606 102.372 99.5264 100.425 100.333C98.478 101.139 96.3357 101.351 94.2689 100.94C92.2021 100.529 90.3035 99.5141 88.8133 98.0241C87.3232 96.5341 86.3083 94.6357 85.897 92.569C85.4858 90.5022 85.6966 88.3599 86.5029 86.413C87.3092 84.466 88.6747 82.8019 90.4268 81.631C92.1788 80.4602 94.2387 79.8351 96.346 79.835C97.7462 79.8312 99.1334 80.1042 100.428 80.6382C101.722 81.1722 102.898 81.9568 103.888 82.9469C104.879 83.9369 105.663 85.1129 106.198 86.4072C106.732 87.7015 107.005 89.0887 107.001 90.4889Z" fill="#BFE7F3" stroke="#012A5D" stroke-width="4.01786" stroke-linecap="round" stroke-linejoin="round"/>
<path d="M86.5684 128.072H52.8011C52.8011 128.072 52.1698 105.764 63.1585 99.1923C65.0516 100.528 67.3285 101.211 69.6443 101.137C71.9602 101.063 74.1888 100.236 75.9927 98.7822C87.6409 104.774 86.5684 128.072 86.5684 128.072Z" fill="#BFE7F3" stroke="#012A5D" stroke-width="4.01786" stroke-linecap="round" stroke-linejoin="round"/>
<path d="M79.9613 90.4889C79.9615 92.5962 79.3368 94.6562 78.1661 96.4084C76.9955 98.1606 75.3316 99.5264 73.3848 100.333C71.4379 101.139 69.2957 101.351 67.2288 100.94C65.162 100.529 63.2635 99.5141 61.7733 98.0241C60.2831 96.5341 59.2682 94.6357 58.857 92.569C58.4457 90.5022 58.6566 88.3599 59.4629 86.413C60.2691 84.466 61.6347 82.8019 63.3867 81.631C65.1388 80.4602 67.1987 79.8351 69.306 79.835C70.7062 79.8312 72.0934 80.1042 73.3878 80.6382C74.6822 81.1722 75.8582 81.9568 76.8484 82.9469C77.8386 83.9369 78.6234 85.1129 79.1576 86.4072C79.6918 87.7015 79.965 89.0887 79.9613 90.4889Z" fill="#BFE7F3" stroke="#012A5D" stroke-width="4.01786" stroke-linecap="round" stroke-linejoin="round"/>
<path d="M44.6906 50.9824L41.3191 63.5625L56.1225 50.9824H83.0816C88.134 50.9824 92.2297 46.6355 92.2297 41.2732V21.3296C92.2297 15.9673 88.134 11.6204 83.0816 11.6204H44.7355C39.6832 11.6204 35.5874 15.9673 35.5874 21.3296V41.2732C35.5874 46.6355 39.6832 50.9824 44.7355 50.9824" fill="#7FCFE7"/>
<path d="M44.6906 50.9824L41.3191 63.5625L56.1225 50.9824H83.0816C88.134 50.9824 92.2297 46.6355 92.2297 41.2732V21.3296C92.2297 15.9673 88.134 11.6204 83.0816 11.6204H44.7355C39.6832 11.6204 35.5874 15.9673 35.5874 21.3296V41.2732C35.5874 46.6355 39.6832 50.9824 44.7355 50.9824" stroke="#012A5D" stroke-width="4.01786" stroke-linecap="round" stroke-linejoin="round"/>
<path d="M96.1699 61.7449L98.7688 71.9668L87.3578 61.7449H66.5768C62.6823 61.7449 59.5251 57.9283 59.5251 53.2205V35.7107C59.5251 31.0028 62.6823 27.1863 66.5768 27.1863H96.1353C100.03 27.1863 103.187 31.0028 103.187 35.7107V53.2205C103.187 57.9283 100.03 61.7449 96.1353 61.7449" fill="#7FCFE7"/>
<path d="M96.1699 61.7449L98.7688 71.9668L87.3578 61.7449H66.5768C62.6823 61.7449 59.5251 57.9283 59.5251 53.2205V35.7107C59.5251 31.0028 62.6823 27.1863 66.5768 27.1863H96.1353C100.03 27.1863 103.187 31.0028 103.187 35.7107V53.2205C103.187 57.9283 100.03 61.7449 96.1353 61.7449" stroke="#012A5D" stroke-width="4.01786" stroke-linecap="round" stroke-linejoin="round"/>
</svg>
