<svg width="231" height="198" viewBox="0 0 231 198" fill="none" xmlns="http://www.w3.org/2000/svg">
<path d="M195.495 3.00019H30.1045C29.0076 3.00019 27.9557 3.44426 27.1801 4.2347C26.4045 5.02514 25.9688 6.09722 25.9688 7.21507V119.371C25.9688 120.489 26.4045 121.561 27.1801 122.351C27.9557 123.142 29.0076 123.586 30.1045 123.586H195.534C196.631 123.586 197.683 123.142 198.459 122.351C199.234 121.561 199.67 120.489 199.67 119.371V7.21507C199.67 6.65817 199.562 6.10677 199.351 5.59277C199.141 5.07876 198.833 4.61233 198.445 4.22042C198.056 3.8285 197.596 3.51888 197.09 3.30944C196.583 3.1 196.041 2.99489 195.495 3.00019Z" fill="#F1F1F1" stroke="#012A5D" stroke-width="5" stroke-miterlimit="10"/>
<path d="M109.389 123.586H195.524C198.154 123.72 200.659 124.732 202.625 126.453L221.727 145.123C223.305 146.673 222.792 147.99 220.52 147.99H6.56653C4.29421 147.99 3.7498 146.704 5.36725 145.123L24.4611 126.453C26.427 124.732 28.9319 123.72 31.5621 123.586H109.389Z" fill="#F1F1F1" stroke="#012A5D" stroke-width="5" stroke-miterlimit="10"/>
<path d="M222.778 145.119H7.16732C6.06135 145.121 5.0014 145.581 4.2201 146.398C3.43881 147.215 3 148.322 3 149.476V150.82C3 151.973 3.43905 153.079 4.22058 153.894C5.0021 154.71 6.06208 155.168 7.16732 155.168H222.778C223.883 155.168 224.943 154.71 225.725 153.894C226.506 153.079 226.945 151.973 226.945 150.82V149.476C226.945 148.322 226.507 147.215 225.725 146.398C224.944 145.581 223.884 145.121 222.778 145.119Z" fill="white"/>
<path d="M220.13 144.652H7.11711C6.02446 144.655 4.97729 145.273 4.2054 146.369C3.43352 147.466 3 148.951 3 150.501V152.305C3 153.854 3.43376 155.338 4.20587 156.433C4.97798 157.528 6.02518 158.143 7.11711 158.143H220.13C221.222 158.143 222.269 157.528 223.041 156.433C223.813 155.338 224.247 153.854 224.247 152.305V150.501C224.247 148.951 223.814 147.466 223.042 146.369C222.27 145.273 221.223 144.655 220.13 144.652Z" fill="#F1F1F1" stroke="#012A5D" stroke-width="5" stroke-linejoin="round"/>
<path d="M188.186 18.3125H38.8887V107.316H188.186V18.3125Z" fill="#BFE7F3" stroke="#012A5D" stroke-width="5" stroke-linejoin="round"/>
<line x1="41.4297" y1="65.8633" x2="185.43" y2="65.8633" stroke="#012A5D" stroke-width="5"/>
<line x1="111.93" y1="107.363" x2="111.93" y2="20.3633" stroke="#012A5D" stroke-width="5"/>
<path d="M89.8864 64.2499H62.3414C62.3414 64.2499 61.8264 52.0322 70.7902 48.4329C72.3345 49.1646 74.1918 49.5385 76.0809 49.498C77.97 49.4575 79.788 49.0047 81.2595 48.2083C90.7612 51.4901 89.8864 64.2499 89.8864 64.2499Z" fill="#7FCFE7" stroke="#012A5D" stroke-width="5" stroke-linecap="round" stroke-linejoin="round"/>
<path d="M84.4965 41.3587C84.4966 43.0777 83.987 44.7581 83.0321 46.1874C82.0772 47.6168 80.7198 48.7308 79.1318 49.3888C77.5437 50.0467 75.7962 50.2189 74.1102 49.8837C72.4242 49.5485 70.8755 48.7208 69.6599 47.5054C68.4444 46.29 67.6165 44.7414 67.281 43.0555C66.9455 41.3696 67.1175 39.622 67.7752 38.0338C68.433 36.4457 69.5469 35.0882 70.9761 34.1331C72.4053 33.178 74.0856 32.6681 75.8046 32.668C76.9468 32.6649 78.0783 32.8876 79.1342 33.3232C80.1901 33.7588 81.1495 34.3988 81.9572 35.2064C82.7649 36.0141 83.4051 36.9733 83.8408 38.0291C84.2766 39.085 84.4994 40.2165 84.4965 41.3587Z" fill="#7FCFE7" stroke="#012A5D" stroke-width="5" stroke-linecap="round" stroke-linejoin="round"/>
<path d="M167.406 63.2929H139.861C139.861 63.2929 139.346 51.0752 148.31 47.4758C149.854 48.2076 151.711 48.5815 153.6 48.5409C155.49 48.5004 157.308 48.0476 158.779 47.2512C168.281 50.5331 167.406 63.2929 167.406 63.2929Z" fill="#7FCFE7" stroke="#012A5D" stroke-width="5" stroke-linecap="round" stroke-linejoin="round"/>
<path d="M162.016 40.4017C162.016 42.1206 161.507 43.801 160.552 45.2304C159.597 46.6597 158.239 47.7738 156.651 48.4317C155.063 49.0897 153.316 49.2619 151.63 48.9267C149.944 48.5914 148.395 47.7638 147.179 46.5484C145.964 45.3329 145.136 43.7844 144.801 42.0984C144.465 40.4125 144.637 38.665 145.295 37.0768C145.952 35.4886 147.066 34.1312 148.496 33.1761C149.925 32.2209 151.605 31.7111 153.324 31.711C154.466 31.7079 155.598 31.9305 156.654 32.3662C157.71 32.8018 158.669 33.4418 159.477 34.2494C160.284 35.057 160.925 36.0163 161.36 37.0721C161.796 38.1279 162.019 39.2595 162.016 40.4017Z" fill="#7FCFE7" stroke="#012A5D" stroke-width="5" stroke-linecap="round" stroke-linejoin="round"/>
<path d="M167.406 107.316H139.861C139.861 107.316 139.346 95.0986 148.31 91.4993C149.854 92.231 151.711 92.6049 153.6 92.5644C155.49 92.5239 157.308 92.0711 158.779 91.2747C168.281 94.5565 167.406 107.316 167.406 107.316Z" fill="#7FCFE7" stroke="#012A5D" stroke-width="5" stroke-linecap="round" stroke-linejoin="round"/>
<path d="M162.016 84.4251C162.016 86.1441 161.507 87.8245 160.552 89.2538C159.597 90.6832 158.239 91.7972 156.651 92.4552C155.063 93.1131 153.316 93.2853 151.63 92.9501C149.944 92.6149 148.395 91.7872 147.179 90.5718C145.964 89.3564 145.136 87.8078 144.801 86.1219C144.465 84.436 144.637 82.6884 145.295 81.1002C145.952 79.5121 147.066 78.1546 148.496 77.1995C149.925 76.2444 151.605 75.7345 153.324 75.7344C154.466 75.7313 155.598 75.954 156.654 76.3896C157.71 76.8252 158.669 77.4652 159.477 78.2729C160.284 79.0805 160.925 80.0397 161.36 81.0956C161.796 82.1514 162.019 83.2829 162.016 84.4251Z" fill="#7FCFE7" stroke="#012A5D" stroke-width="5" stroke-linecap="round" stroke-linejoin="round"/>
<path d="M89.8864 107.316H62.3414C62.3414 107.316 61.8264 95.0986 70.7902 91.4993C72.3345 92.231 74.1918 92.6049 76.0809 92.5644C77.97 92.5239 79.788 92.0711 81.2595 91.2747C90.7612 94.5565 89.8864 107.316 89.8864 107.316Z" fill="#7FCFE7" stroke="#012A5D" stroke-width="5" stroke-linecap="round" stroke-linejoin="round"/>
<path d="M84.4965 84.4251C84.4966 86.1441 83.987 87.8245 83.0321 89.2538C82.0772 90.6832 80.7198 91.7972 79.1318 92.4552C77.5437 93.1131 75.7962 93.2853 74.1102 92.9501C72.4242 92.6149 70.8755 91.7872 69.6599 90.5718C68.4444 89.3564 67.6165 87.8078 67.281 86.1219C66.9455 84.436 67.1175 82.6884 67.7752 81.1002C68.433 79.5121 69.5469 78.1546 70.9761 77.1995C72.4053 76.2444 74.0856 75.7345 75.8046 75.7344C76.9468 75.7313 78.0783 75.954 79.1342 76.3896C80.1901 76.8252 81.1495 77.4652 81.9572 78.2729C82.7649 79.0805 83.4051 80.0397 83.8408 81.0956C84.2766 82.1514 84.4994 83.2829 84.4965 84.4251Z" fill="#7FCFE7" stroke="#012A5D" stroke-width="5" stroke-linecap="round" stroke-linejoin="round"/>
<path d="M132.827 140.354L145.681 134.242C146.51 135.984 147.995 137.325 149.81 137.972C151.626 138.618 153.622 138.517 155.36 137.69C157.099 136.864 158.438 135.379 159.082 133.563C159.726 131.747 159.624 129.749 158.796 128.006L171.65 121.895L177.605 134.782C175.867 135.609 174.529 137.095 173.886 138.911C173.243 140.727 173.347 142.726 174.175 144.468C175.003 146.21 176.488 147.552 178.302 148.199C180.117 148.847 182.114 148.747 183.853 147.922L189.975 160.799L177.289 166.9C176.46 165.158 174.975 163.815 173.159 163.168C171.344 162.52 169.347 162.621 167.607 163.448C165.868 164.275 164.529 165.76 163.885 167.577C163.241 169.394 163.345 171.394 164.173 173.136L151.32 179.247L145.197 166.37C143.458 167.196 141.462 167.296 139.647 166.648C137.833 166.001 136.348 164.658 135.52 162.917C134.692 161.175 134.588 159.176 135.231 157.36C135.874 155.543 137.212 154.058 138.95 153.231L132.827 140.354Z" fill="#90CCE2" stroke="#012A5D" stroke-width="5" stroke-linecap="round" stroke-linejoin="round"/>
<path d="M170.425 122.477L183.278 116.366C184.107 118.107 185.593 119.449 187.408 120.095C189.223 120.742 191.219 120.641 192.958 119.814C194.696 118.987 196.035 117.503 196.679 115.687C197.324 113.871 197.221 111.872 196.394 110.13L209.247 104.019L215.203 116.905C213.464 117.733 212.127 119.218 211.484 121.035C210.84 122.851 210.944 124.85 211.772 126.592C212.6 128.333 214.085 129.676 215.9 130.323C217.715 130.971 219.711 130.871 221.45 130.045L227.573 142.922L214.886 149.024C214.058 147.281 212.572 145.939 210.757 145.292C208.941 144.644 206.944 144.745 205.205 145.572C203.466 146.399 202.127 147.884 201.483 149.701C200.839 151.518 200.942 153.517 201.771 155.26L188.917 161.371L182.795 148.494C181.056 149.32 179.059 149.42 177.245 148.772C175.43 148.125 173.945 146.782 173.117 145.04C172.289 143.299 172.185 141.3 172.828 139.484C173.472 137.667 174.809 136.182 176.547 135.354L170.425 122.477Z" fill="#BFE7F3" stroke="#012A5D" stroke-width="5" stroke-linecap="round" stroke-linejoin="round"/>
<line x1="193.93" y1="182.863" x2="193.93" y2="194.507" stroke="#012A5D" stroke-width="5" stroke-linecap="round"/>
<line x1="200.885" y1="178.114" x2="207.181" y2="187.908" stroke="#012A5D" stroke-width="5" stroke-linecap="round"/>
<line x1="209.845" y1="173.448" x2="219.928" y2="179.27" stroke="#012A5D" stroke-width="5" stroke-linecap="round"/>
</svg>
