<svg width="229" height="237" viewBox="0 0 229 237" fill="none" xmlns="http://www.w3.org/2000/svg">
<path d="M147.491 198.64L147.491 2L2.00017 1.99999L2.00016 198.64L147.491 198.64Z" fill="#7FCFE7" stroke="#012A5D" stroke-width="4" stroke-linejoin="round"/>
<path d="M167.953 217.963L167.953 20.186L22.4616 20.186L22.4616 217.963L167.953 217.963Z" fill="white" stroke="#012A5D" stroke-width="4" stroke-linejoin="round"/>
<circle cx="69.631" cy="68.4933" r="26.9845" fill="white" stroke="#012A5D" stroke-width="4"/>
<line x1="145.491" y1="133.578" x2="42.6462" y2="133.578" stroke="#012A5D" stroke-width="4" stroke-linecap="round"/>
<line x1="101.16" y1="116.528" x2="42.6445" y2="116.528" stroke="#012A5D" stroke-width="4" stroke-linecap="round"/>
<line x1="145.491" y1="150.628" x2="42.6462" y2="150.628" stroke="#012A5D" stroke-width="4" stroke-linecap="round"/>
<line x1="145.491" y1="168.814" x2="42.6462" y2="168.814" stroke="#012A5D" stroke-width="4" stroke-linecap="round"/>
<line x1="145.491" y1="185.864" x2="42.6462" y2="185.864" stroke="#012A5D" stroke-width="4" stroke-linecap="round"/>
<path d="M172.792 164.131L222.909 215.227C225.027 217.351 226.216 220.224 226.216 223.219C226.216 226.214 225.027 229.088 222.909 231.212C220.779 233.323 217.897 234.509 214.892 234.509C211.888 234.509 209.006 233.323 206.876 231.212L155.751 179.112" fill="#BFE7F3"/>
<path d="M172.792 164.131L222.909 215.227C225.027 217.351 226.216 220.224 226.216 223.219C226.216 226.214 225.027 229.088 222.909 231.212C220.779 233.323 217.897 234.509 214.892 234.509C211.888 234.509 209.006 233.323 206.876 231.212L155.751 179.112" stroke="#012A5D" stroke-width="4" stroke-linecap="round" stroke-linejoin="round"/>
<path fill-rule="evenodd" clip-rule="evenodd" d="M184.428 137.518C184.428 165.281 161.657 187.788 133.567 187.788C105.477 187.788 82.7056 165.281 82.7056 137.518C82.7056 109.755 105.477 87.248 133.567 87.248C161.657 87.248 184.428 109.755 184.428 137.518ZM163.408 137.829C163.408 154.464 149.922 167.95 133.287 167.95C116.651 167.95 103.165 154.464 103.165 137.829C103.165 121.193 116.651 107.707 133.287 107.707C149.922 107.707 163.408 121.193 163.408 137.829Z" fill="#BFE7F3"/>
<path d="M133.567 189.788C162.739 189.788 186.428 166.408 186.428 137.518H182.428C182.428 164.155 160.574 185.788 133.567 185.788V189.788ZM80.7056 137.518C80.7056 166.408 104.394 189.788 133.567 189.788V185.788C106.559 185.788 84.7056 164.155 84.7056 137.518H80.7056ZM133.567 85.248C104.394 85.248 80.7056 108.628 80.7056 137.518H84.7056C84.7056 110.881 106.559 89.248 133.567 89.248V85.248ZM186.428 137.518C186.428 108.628 162.739 85.248 133.567 85.248V89.248C160.574 89.248 182.428 110.881 182.428 137.518H186.428ZM133.287 169.95C151.027 169.95 165.408 155.569 165.408 137.829H161.408C161.408 153.359 148.818 165.95 133.287 165.95V169.95ZM101.165 137.829C101.165 155.569 115.547 169.95 133.287 169.95V165.95C117.756 165.95 105.165 153.359 105.165 137.829H101.165ZM133.287 105.707C115.547 105.707 101.165 120.088 101.165 137.829H105.165C105.165 122.298 117.756 109.707 133.287 109.707V105.707ZM165.408 137.829C165.408 120.088 151.027 105.707 133.287 105.707V109.707C148.818 109.707 161.408 122.298 161.408 137.829H165.408Z" fill="#012A5D"/>
</svg>
