<svg width="201" height="168" viewBox="0 0 201 168" fill="none" xmlns="http://www.w3.org/2000/svg">
<path d="M184.333 26.0266H2.99976V165.145H184.333V26.0266Z" fill="#BFE7F3" stroke="#012A5D" stroke-width="4.56412" stroke-linecap="round" stroke-linejoin="round"/>
<path d="M2.99976 56.8752L184.601 57.131" stroke="#012A5D" stroke-width="4.56412" stroke-linecap="round" stroke-linejoin="round"/>
<path d="M36.4962 3.00024H21.2231V36.8799H36.4962V3.00024Z" fill="#7FCFE7" stroke="#012A5D" stroke-width="4.56412" stroke-linecap="round" stroke-linejoin="round"/>
<path d="M79.6727 3.00024H64.3997V36.8799H79.6727V3.00024Z" fill="#7FCFE7" stroke="#012A5D" stroke-width="4.56412" stroke-linecap="round" stroke-linejoin="round"/>
<path d="M122.44 3.00024H107.167V36.8799H122.44V3.00024Z" fill="#7FCFE7" stroke="#012A5D" stroke-width="4.56412" stroke-linecap="round" stroke-linejoin="round"/>
<path d="M165.968 3.00024H150.695V36.8799H165.968V3.00024Z" fill="#7FCFE7" stroke="#012A5D" stroke-width="4.56412" stroke-linecap="round" stroke-linejoin="round"/>
<path d="M48.7746 72.0793H15.1943V105.66H48.7746V72.0793Z" fill="white" stroke="#012A5D" stroke-width="4.56412" stroke-linecap="round" stroke-linejoin="round"/>
<path d="M93.8679 72.0791H60.2876V105.659H93.8679V72.0791Z" fill="white" stroke="#012A5D" stroke-width="4.56412" stroke-linecap="round" stroke-linejoin="round"/>
<path d="M138.961 72.0791H105.381V105.659H138.961V72.0791Z" fill="white" stroke="#012A5D" stroke-width="4.56412" stroke-linecap="round" stroke-linejoin="round"/>
<path d="M138.961 115.254H105.381V148.834H138.961V115.254Z" fill="white" stroke="#012A5D" stroke-width="4.56412" stroke-linecap="round" stroke-linejoin="round"/>
<path d="M93.8679 115.254H60.2876V148.834H93.8679V115.254Z" fill="white" stroke="#012A5D" stroke-width="4.56412" stroke-linecap="round" stroke-linejoin="round"/>
<path d="M48.7746 115.254H15.1943V148.834H48.7746V115.254Z" fill="white" stroke="#012A5D" stroke-width="4.56412" stroke-linecap="round" stroke-linejoin="round"/>
<path d="M21.9104 91.1311L27.0005 96.0654L42.0586 81.6738" stroke="#012A5D" stroke-width="4.56412" stroke-linecap="round"/>
<path d="M67.0037 91.1311L72.0937 96.0654L87.1518 81.6738" stroke="#012A5D" stroke-width="4.56412" stroke-linecap="round"/>
<path d="M112.097 91.1311L117.187 96.0654L132.245 81.6738" stroke="#012A5D" stroke-width="4.56412" stroke-linecap="round"/>
<path d="M112.097 135.265L117.187 140.199L132.245 125.808" stroke="#012A5D" stroke-width="4.56412" stroke-linecap="round"/>
<path d="M67.0037 135.265L72.0937 140.199L87.1518 125.808" stroke="#012A5D" stroke-width="4.56412" stroke-linecap="round"/>
<path d="M21.9104 135.265L27.0005 140.199L42.0586 125.808" stroke="#012A5D" stroke-width="4.56412" stroke-linecap="round"/>
<path d="M150.579 99.1244C150.636 93.3646 152.769 87.8188 156.588 83.5067C160.407 79.1946 165.655 76.406 171.365 75.6537C184.538 74.0685 196.057 82.6538 198.307 95.6995C199.071 100.114 198.082 104.239 196.439 108.282C193.777 114.837 190.208 120.9 186.43 126.853C182.907 132.401 179.135 137.781 175.207 143.052C174.767 143.63 174.507 143.902 173.928 143.121C167.136 133.934 160.668 124.539 155.415 114.351C153.292 110.22 151.366 105.997 150.637 101.352C150.597 101.161 150.568 100.967 150.55 100.773C150.573 100.206 150.579 99.6682 150.579 99.1244ZM174.64 87.8605C172.348 87.8448 170.103 88.5078 168.187 89.7658C166.271 91.0239 164.771 92.8208 163.874 94.9302C162.978 97.0395 162.726 99.367 163.15 101.619C163.574 103.872 164.655 105.948 166.257 107.587C167.859 109.226 169.91 110.354 172.152 110.83C174.394 111.305 176.727 111.106 178.856 110.258C180.986 109.41 182.816 107.951 184.118 106.064C185.419 104.178 186.133 101.948 186.17 99.6566C186.2 98.1217 185.924 96.5961 185.358 95.1689C184.793 93.7416 183.949 92.4411 182.876 91.3432C181.803 90.2454 180.522 89.372 179.108 88.7741C177.694 88.1762 176.175 87.8656 174.64 87.8605Z" fill="#7FCFE7"/>
<path d="M174.64 87.8605C172.348 87.8448 170.103 88.5078 168.187 89.7658C166.271 91.0239 164.771 92.8208 163.874 94.9302C162.978 97.0395 162.726 99.367 163.15 101.619C163.574 103.872 164.655 105.948 166.257 107.587C167.859 109.226 169.91 110.354 172.152 110.83C174.394 111.305 176.727 111.106 178.856 110.258C180.986 109.41 182.816 107.951 184.118 106.064C185.419 104.178 186.133 101.948 186.17 99.6566C186.2 98.1217 185.924 96.5961 185.358 95.1689C184.793 93.7416 183.949 92.4411 182.876 91.3432C181.803 90.2454 180.522 89.372 179.108 88.7741C177.694 88.1762 176.175 87.8656 174.64 87.8605Z" fill="white"/>
<path d="M150.579 99.1244L148.297 99.102C148.297 99.1094 148.297 99.1169 148.297 99.1244H150.579ZM171.365 75.6537L171.093 73.388C171.084 73.389 171.076 73.39 171.067 73.3912L171.365 75.6537ZM198.307 95.6995L196.058 96.0875L196.059 96.0885L198.307 95.6995ZM196.439 108.282L194.324 107.423L194.324 107.424L196.439 108.282ZM186.43 126.853L188.357 128.076L188.357 128.076L186.43 126.853ZM175.207 143.052L177.024 144.432C177.028 144.427 177.032 144.421 177.036 144.415L175.207 143.052ZM173.928 143.121L172.093 144.478L172.094 144.479L173.928 143.121ZM155.415 114.351L153.386 115.394L153.387 115.397L155.415 114.351ZM150.637 101.352L152.891 100.998C152.886 100.962 152.879 100.926 152.872 100.891L150.637 101.352ZM150.55 100.773L148.27 100.68C148.266 100.783 148.268 100.886 148.278 100.988L150.55 100.773ZM174.64 87.8605L174.624 90.1425L174.632 90.1426L174.64 87.8605ZM186.17 99.6566L183.888 99.6121L183.888 99.6202L186.17 99.6566ZM152.861 99.1468C152.912 93.9367 154.842 88.9202 158.297 85.0197L154.88 81.9937C150.697 86.7173 148.359 92.7924 148.297 99.102L152.861 99.1468ZM158.297 85.0197C161.751 81.1191 166.498 78.5967 171.663 77.9162L171.067 73.3912C164.811 74.2153 159.063 77.27 154.88 81.9937L158.297 85.0197ZM171.638 77.9194C183.605 76.4793 194.015 84.2399 196.058 96.0875L200.556 95.3116C198.099 81.0678 185.471 71.6577 171.093 73.388L171.638 77.9194ZM196.059 96.0885C196.72 99.9098 195.889 103.573 194.324 107.423L198.553 109.141C200.274 104.904 201.422 100.318 200.556 95.3105L196.059 96.0885ZM194.324 107.424C191.742 113.784 188.261 119.709 184.503 125.63L188.357 128.076C192.155 122.091 195.813 115.89 198.553 109.141L194.324 107.424ZM184.504 125.63C181.017 131.12 177.279 136.452 173.377 141.688L177.036 144.415C180.991 139.11 184.796 133.682 188.357 128.076L184.504 125.63ZM173.39 141.671C173.272 141.826 173.262 141.83 173.295 141.797C173.313 141.779 173.597 141.486 174.125 141.368C174.775 141.224 175.304 141.441 175.578 141.624C175.786 141.763 175.846 141.877 175.762 141.763L172.094 144.479C172.299 144.756 172.609 145.129 173.042 145.418C173.541 145.752 174.271 146.011 175.114 145.824C175.835 145.664 176.302 145.243 176.511 145.035C176.734 144.814 176.922 144.567 177.024 144.432L173.39 141.671ZM175.763 141.764C168.996 132.611 162.613 123.331 157.444 113.305L153.387 115.397C158.724 125.747 165.277 135.258 172.093 144.478L175.763 141.764ZM157.445 113.308C155.34 109.213 153.56 105.262 152.891 100.998L148.382 101.705C149.171 106.732 151.244 111.228 153.386 115.394L157.445 113.308ZM152.872 100.891C152.849 100.781 152.833 100.67 152.822 100.558L148.278 100.988C148.304 101.265 148.346 101.54 148.402 101.812L152.872 100.891ZM152.83 100.866C152.855 100.256 152.861 99.684 152.861 99.1244H148.297C148.297 99.6524 148.291 100.156 148.27 100.68L152.83 100.866ZM174.655 85.5785C171.913 85.5597 169.227 86.353 166.934 87.8583L169.44 91.6734C170.979 90.6626 172.783 90.1299 174.624 90.1425L174.655 85.5785ZM166.934 87.8583C164.642 89.3636 162.846 91.5137 161.774 94.0376L165.974 95.8227C166.695 94.1279 167.9 92.6841 169.44 91.6734L166.934 87.8583ZM161.774 94.0376C160.701 96.5616 160.4 99.3465 160.907 102.042L165.392 101.197C165.052 99.3875 165.254 97.5175 165.974 95.8227L161.774 94.0376ZM160.907 102.042C161.414 104.737 162.708 107.221 164.625 109.182L167.889 105.992C166.602 104.675 165.733 103.007 165.392 101.197L160.907 102.042ZM164.625 109.182C166.542 111.144 168.996 112.493 171.679 113.062L172.626 108.597C170.824 108.215 169.176 107.309 167.889 105.992L164.625 109.182ZM171.679 113.062C174.362 113.631 177.153 113.393 179.701 112.378L178.012 108.138C176.301 108.819 174.427 108.979 172.626 108.597L171.679 113.062ZM179.701 112.378C182.248 111.364 184.439 109.618 185.996 107.36L182.239 104.769C181.194 106.284 179.723 107.457 178.012 108.138L179.701 112.378ZM185.996 107.36C187.553 105.103 188.408 102.435 188.452 99.6931L183.888 99.6202C183.859 101.461 183.285 103.253 182.239 104.769L185.996 107.36ZM188.451 99.7011C188.487 97.8635 188.157 96.037 187.48 94.3282L183.237 96.0095C183.691 97.1552 183.912 98.3799 183.888 99.6121L188.451 99.7011ZM187.48 94.3282C186.803 92.6195 185.793 91.0625 184.508 89.7481L181.244 92.9384C182.105 93.8197 182.783 94.8637 183.237 96.0095L187.48 94.3282ZM184.508 89.7481C183.223 88.4337 181.69 87.3881 179.997 86.6722L178.219 90.8759C179.354 91.3559 180.382 92.057 181.244 92.9384L184.508 89.7481ZM179.997 86.6722C178.304 85.9564 176.485 85.5846 174.647 85.5785L174.632 90.1426C175.865 90.1466 177.084 90.3959 178.219 90.8759L179.997 86.6722Z" fill="#012A5D"/>
</svg>
