<svg width="80" height="83" viewBox="0 0 80 83" fill="none" xmlns="http://www.w3.org/2000/svg">
<line x1="19.1472" y1="9.45152" x2="16.9777" y2="1.37851" stroke="#012A5D" stroke-width="1.85752" stroke-linecap="round"/>
<line x1="14.7633" y1="10.4237" x2="8.57284" y2="4.80605" stroke="#012A5D" stroke-width="1.85752" stroke-linecap="round"/>
<line x1="14.0104" y1="15.0311" x2="5.93429" y2="12.8734" stroke="#012A5D" stroke-width="1.85752" stroke-linecap="round"/>
<ellipse cx="36.2749" cy="27.9015" rx="18.9202" ry="18.7328" transform="rotate(-19.7147 36.2749 27.9015)" stroke="#012A5D" stroke-width="1.85752" stroke-linecap="round" stroke-dasharray="3.72 3.72"/>
<circle cx="15.4886" cy="61.1673" r="14.4886" stroke="#012A5D" stroke-width="1.85752" stroke-linecap="round" stroke-dasharray="3.72 3.72"/>
<circle cx="68.9849" cy="37.3911" r="9.28759" stroke="#012A5D" stroke-width="1.85752" stroke-linecap="round" stroke-dasharray="3.72 3.72"/>
<path d="M48.9795 23.3486C51.455 30.2569 47.7916 37.911 40.7643 40.4292C33.737 42.9474 26.0461 39.362 23.5705 32.4536C21.095 25.5453 24.7584 17.8911 31.7856 15.373C38.8129 12.8548 46.5039 16.4402 48.9795 23.3486Z" fill="#7FCFE7" stroke="#012A5D" stroke-width="1.85752"/>
<path d="M58.1819 47.7387C56.1955 47.7387 54.5722 49.3467 54.5722 51.3144V49.918C54.5722 47.9503 52.9489 46.3423 50.9626 46.3423C48.9762 46.3423 47.3529 47.9503 47.3529 49.918V48.2888C47.3529 46.3212 45.7296 44.7132 43.7432 44.7132C41.7568 44.7132 40.1335 46.3212 40.1335 48.2888V37.8793C40.1335 35.9117 38.5102 34.3037 36.5239 34.3037C34.5375 34.3037 32.9569 35.9117 32.9569 37.8793V59.333L30.8637 56.3498C29.7317 54.7207 27.489 54.3187 25.8443 55.4401C24.1997 56.5614 23.7939 58.783 24.9259 60.4121L35.0287 74.905C35.2637 75.2435 35.5413 75.5185 35.8617 75.7513C38.4889 79.1788 42.6539 81.4003 47.3529 81.4003C55.3198 81.4003 61.7702 75.0108 61.7702 67.119V62.8029V60.8352V51.3144C61.7702 49.3467 60.1683 47.7387 58.1819 47.7387Z" fill="#BFE7F3" stroke="#012A5D" stroke-width="1.85752" stroke-miterlimit="10"/>
<path d="M40.1699 37.8794V62.8241H43.0262" stroke="#012A5D" stroke-width="1.85752" stroke-miterlimit="10"/>
<path d="M47.3008 48.2891V62.8243H50.1147" stroke="#012A5D" stroke-width="1.85752" stroke-miterlimit="10"/>
<path d="M54.4307 49.918V62.824H57.3081" stroke="#012A5D" stroke-width="1.85752" stroke-miterlimit="10"/>
</svg>
