<svg width="83" height="89" viewBox="0 0 83 89" fill="none" xmlns="http://www.w3.org/2000/svg">
<line x1="0.928759" y1="-0.928759" x2="30.4736" y2="-0.928759" transform="matrix(-0.740987 -0.671519 0.740987 -0.671519 70.043 86.2036)" stroke="#012A5D" stroke-width="1.85752" stroke-linecap="round"/>
<line x1="0.928759" y1="-0.928759" x2="30.4736" y2="-0.928759" transform="matrix(0.740987 -0.671519 -0.740987 -0.671519 23.5059 87.2405)" stroke="#012A5D" stroke-width="1.85752" stroke-linecap="round"/>
<path d="M79.6324 18.5787H13.7109C13.2737 18.5787 12.8545 18.7557 12.5453 19.0707C12.2362 19.3858 12.0625 19.8131 12.0625 20.2587V64.9619C12.0625 65.4075 12.2362 65.8348 12.5453 66.1498C12.8545 66.4649 13.2737 66.6419 13.7109 66.6419H79.6481C80.0853 66.6419 80.5045 66.4649 80.8137 66.1498C81.1228 65.8348 81.2965 65.4075 81.2965 64.9619V20.2587C81.2965 20.0367 81.2533 19.8169 81.1695 19.612C81.0857 19.4072 80.9629 19.2213 80.8081 19.065C80.6534 18.9088 80.4698 18.7854 80.268 18.7019C80.0662 18.6185 79.8501 18.5766 79.6324 18.5787Z" fill="#F1F1F1" stroke="#012A5D" stroke-width="1.85752" stroke-miterlimit="10"/>
<path d="M76.5284 24.6821H17.0215V60.1574H76.5284V24.6821Z" fill="#BFE7F3" stroke="#012A5D" stroke-width="1.85752" stroke-linejoin="round"/>
<path d="M46.7745 27.4747V21.8892L41.1605 22.1448C40.7241 19.4096 39.6341 16.8201 37.9832 14.5961L43.5456 9.96192L39.7612 5.85364L33.9762 10.6903C31.8494 9.22415 29.423 8.24946 26.8729 7.83687V1.79468H21.3075V7.83687C19.1375 8.19349 17.0559 8.96292 15.1756 10.1035L10.4968 5.21352L6.36825 9.01819L10.9054 13.7462C8.91297 16.1266 7.59872 18.9998 7.10085 22.0638L1 22.1548V27.7404L7.10085 27.6494C7.54064 30.32 8.60118 32.8501 10.1971 35.0361L4.62308 39.6623L8.40749 43.7705L14.184 38.9622C16.3109 40.4675 18.7549 41.4645 21.3278 41.8764L21.2974 47.5692H26.883L26.9134 41.8764C29.4939 41.4575 31.9445 40.4537 34.0774 38.942L38.698 44.1361L42.7859 40.3517L38.0643 34.9956C39.638 32.8467 40.6848 30.358 41.1202 27.7303L46.7745 27.4747ZM23.8965 35.5084C21.8077 35.5102 19.7654 34.8926 18.0277 33.7337C16.2899 32.5748 14.9349 30.9266 14.1339 28.9975C13.3329 27.0685 13.1219 24.9453 13.5276 22.8963C13.9333 20.8474 14.9375 18.9648 16.4132 17.4865C17.8888 16.0083 19.7697 15.0008 21.8179 14.5916C23.8662 14.1823 25.9898 14.3896 27.9202 15.1872C29.8506 15.9849 31.5012 17.337 32.6631 19.0727C33.8251 20.8084 34.4462 22.8497 34.448 24.9384C34.4494 26.3253 34.1775 27.6989 33.648 28.9807C33.1184 30.2625 32.3415 31.4275 31.3617 32.409C30.3819 33.3906 29.2183 34.1695 27.9374 34.7013C26.6565 35.2331 25.2834 35.5073 23.8965 35.5084Z" fill="#7FCFE7"/>
<path d="M23.8965 35.5084C21.8077 35.5102 19.7654 34.8926 18.0277 33.7337C16.2899 32.5748 14.9349 30.9266 14.1339 28.9975C13.3329 27.0685 13.1219 24.9453 13.5276 22.8963C13.9333 20.8474 14.9375 18.9648 16.4132 17.4865C17.8888 16.0083 19.7697 15.0008 21.8179 14.5916C23.8662 14.1823 25.9898 14.3896 27.9202 15.1872C29.8506 15.9849 31.5012 17.337 32.6631 19.0727C33.8251 20.8084 34.4462 22.8497 34.448 24.9384C34.4494 26.3253 34.1775 27.6989 33.648 28.9807C33.1184 30.2625 32.3415 31.4275 31.3617 32.409C30.3819 33.3906 29.2183 34.1695 27.9374 34.7013C26.6565 35.2331 25.2834 35.5073 23.8965 35.5084Z" fill="white"/>
<path d="M46.7745 27.4747L46.8165 28.4025C47.3126 28.3801 47.7033 27.9713 47.7033 27.4747H46.7745ZM46.7745 21.8892H47.7033C47.7033 21.6356 47.5996 21.393 47.4162 21.2177C47.2328 21.0425 46.9857 20.9499 46.7323 20.9614L46.7745 21.8892ZM41.1605 22.1448L40.2434 22.2912C40.3178 22.7578 40.7308 23.0941 41.2028 23.0726L41.1605 22.1448ZM37.9832 14.5961L37.3887 13.8826C37.0102 14.198 36.9438 14.7541 37.2375 15.1497L37.9832 14.5961ZM43.5456 9.96192L44.1401 10.6755C44.3355 10.5127 44.4556 10.2769 44.4724 10.0231C44.4891 9.76929 44.4011 9.51973 44.2287 9.33266L43.5456 9.96192ZM39.7612 5.85364L40.4443 5.22438C40.1085 4.85987 39.5457 4.82322 39.1655 5.14111L39.7612 5.85364ZM33.9762 10.6903L33.4491 11.455C33.7926 11.6918 34.2519 11.6705 34.572 11.4028L33.9762 10.6903ZM26.8729 7.83687H25.9441C25.9441 8.29255 26.2747 8.68092 26.7245 8.7537L26.8729 7.83687ZM26.8729 1.79468H27.8016C27.8016 1.28174 27.3858 0.865919 26.8729 0.865919V1.79468ZM21.3075 1.79468V0.865919C20.7946 0.865919 20.3788 1.28174 20.3788 1.79468L21.3075 1.79468ZM21.3075 7.83687L21.4581 8.75333C21.9069 8.67958 22.2363 8.29168 22.2363 7.83687H21.3075ZM15.1756 10.1035L14.5046 10.7455C14.8056 11.0602 15.2849 11.1234 15.6573 10.8976L15.1756 10.1035ZM10.4968 5.21352L11.1678 4.57144C10.8179 4.20572 10.2396 4.18754 9.8674 4.53055L10.4968 5.21352ZM6.36825 9.01819L5.73886 8.33522C5.55533 8.50435 5.44759 8.74023 5.43993 8.98968C5.43227 9.23914 5.52533 9.48118 5.69813 9.66126L6.36825 9.01819ZM10.9054 13.7462L11.6176 14.3423C11.9217 13.979 11.9036 13.445 11.5755 13.1031L10.9054 13.7462ZM7.10085 22.0638L7.11471 22.9924C7.56486 22.9857 7.94538 22.6571 8.01759 22.2128L7.10085 22.0638ZM1 22.1548L0.986143 21.2262C0.478663 21.2337 0.0712413 21.6473 0.0712413 22.1548H1ZM1 27.7404H0.0712413C0.0712413 27.9891 0.171004 28.2275 0.348186 28.402C0.525368 28.5766 0.765161 28.6728 1.01386 28.6691L1 27.7404ZM7.10085 27.6494L8.01727 27.4985C7.94253 27.0446 7.54689 26.7139 7.08699 26.7207L7.10085 27.6494ZM10.1971 35.0361L10.7903 35.7508C11.1678 35.4375 11.2365 34.8847 10.9472 34.4885L10.1971 35.0361ZM4.62308 39.6623L4.02993 38.9477C3.83398 39.1103 3.7134 39.3462 3.6964 39.6003C3.67939 39.8544 3.76746 40.1043 3.93999 40.2916L4.62308 39.6623ZM8.40749 43.7705L7.7244 44.3998C8.05965 44.7637 8.62136 44.8009 9.00167 44.4843L8.40749 43.7705ZM14.184 38.9622L14.7205 38.2041C14.3771 37.9611 13.9132 37.9792 13.5898 38.2484L14.184 38.9622ZM21.3278 41.8764L22.2565 41.8814C22.259 41.4232 21.927 41.0318 21.4746 40.9593L21.3278 41.8764ZM21.2974 47.5692L20.3686 47.5643C20.3673 47.8114 20.4646 48.0489 20.6389 48.2242C20.8132 48.3994 21.0502 48.498 21.2974 48.498V47.5692ZM26.883 47.5692V48.498C27.394 48.498 27.809 48.0852 27.8117 47.5742L26.883 47.5692ZM26.9134 41.8764L26.7645 40.9597C26.3168 41.0324 25.987 41.4179 25.9846 41.8715L26.9134 41.8764ZM34.0774 38.942L34.7713 38.3247C34.4567 37.971 33.9265 37.9105 33.5403 38.1842L34.0774 38.942ZM38.698 44.1361L38.0041 44.7534C38.1699 44.9398 38.4038 45.0516 38.653 45.0637C38.9022 45.0758 39.1458 44.9871 39.3289 44.8176L38.698 44.1361ZM42.7859 40.3517L43.4168 41.0332C43.7868 40.6907 43.816 40.1157 43.4826 39.7375L42.7859 40.3517ZM38.0643 34.9956L37.315 34.4469C37.0572 34.7988 37.0791 35.2826 37.3676 35.6098L38.0643 34.9956ZM41.1202 27.7303L41.0782 26.8025C40.6401 26.8223 40.2756 27.1458 40.2039 27.5785L41.1202 27.7303ZM23.8965 35.5084L23.8958 34.5796H23.8957L23.8965 35.5084ZM34.448 24.9384L33.5193 24.9392V24.9393L34.448 24.9384ZM47.7033 27.4747V21.8892H45.8458V27.4747H47.7033ZM46.7323 20.9614L41.1183 21.217L41.2028 23.0726L46.8168 22.817L46.7323 20.9614ZM42.0777 21.9985C41.6177 19.1157 40.4689 16.3865 38.729 14.0426L37.2375 15.1497C38.7993 17.2537 39.8305 19.7036 40.2434 22.2912L42.0777 21.9985ZM38.5777 15.3097L44.1401 10.6755L42.9511 9.24836L37.3887 13.8826L38.5777 15.3097ZM44.2287 9.33266L40.4443 5.22438L39.0781 6.48289L42.8625 10.5912L44.2287 9.33266ZM39.1655 5.14111L33.3805 9.97777L34.572 11.4028L40.3569 6.56617L39.1655 5.14111ZM34.5034 9.92563C32.2631 8.38129 29.7073 7.35463 27.0212 6.92003L26.7245 8.7537C29.1386 9.1443 31.4356 10.067 33.4491 11.455L34.5034 9.92563ZM27.8016 7.83687V1.79468H25.9441V7.83687H27.8016ZM26.8729 0.865919H21.3075V2.72344H26.8729V0.865919ZM20.3788 1.79468V7.83687H22.2363V1.79468H20.3788ZM21.1569 6.9204C18.8697 7.29628 16.6757 8.10725 14.6939 9.30937L15.6573 10.8976C17.4361 9.81858 19.4052 9.0907 21.4581 8.75333L21.1569 6.9204ZM15.8467 9.46138L11.1678 4.57144L9.82573 5.85561L14.5046 10.7455L15.8467 9.46138ZM9.8674 4.53055L5.73886 8.33522L6.99765 9.70116L11.1262 5.8965L9.8674 4.53055ZM5.69813 9.66126L10.2353 14.3893L11.5755 13.1031L7.03837 8.37512L5.69813 9.66126ZM10.1932 13.1501C8.09366 15.6584 6.70875 18.6861 6.18412 21.9148L8.01759 22.2128C8.48869 19.3135 9.73228 16.5947 11.6176 14.3423L10.1932 13.1501ZM7.08699 21.1351L0.986143 21.2262L1.01386 23.0835L7.11471 22.9924L7.08699 21.1351ZM0.0712413 22.1548V27.7404H1.92876V22.1548H0.0712413ZM1.01386 28.6691L7.11471 28.578L7.08699 26.7207L0.986143 26.8118L1.01386 28.6691ZM6.18444 27.8003C6.64785 30.6144 7.76534 33.2804 9.44701 35.5838L10.9472 34.4885C9.43702 32.4199 8.43344 30.0257 8.01727 27.4985L6.18444 27.8003ZM9.60398 34.3215L4.02993 38.9477L5.21623 40.377L10.7903 35.7508L9.60398 34.3215ZM3.93999 40.2916L7.7244 44.3998L9.09059 43.1412L5.30618 39.0331L3.93999 40.2916ZM9.00167 44.4843L14.7782 39.676L13.5898 38.2484L7.81331 43.0567L9.00167 44.4843ZM13.6474 39.7203C15.8903 41.3077 18.4677 42.3591 21.181 42.7935L21.4746 40.9593C19.0421 40.5699 16.7314 39.6273 14.7205 38.2041L13.6474 39.7203ZM20.399 41.8715L20.3686 47.5643L22.2261 47.5742L22.2565 41.8814L20.399 41.8715ZM21.2974 48.498H26.883V46.6405H21.2974V48.498ZM27.8117 47.5742L27.8421 41.8814L25.9846 41.8715L25.9542 47.5643L27.8117 47.5742ZM27.0622 42.7932C29.7826 42.3516 32.366 41.2934 34.6145 39.6997L33.5403 38.1842C31.523 39.6141 29.2053 40.5635 26.7645 40.9597L27.0622 42.7932ZM33.3835 39.5593L38.0041 44.7534L39.3919 43.5188L34.7713 38.3247L33.3835 39.5593ZM39.3289 44.8176L43.4168 41.0332L42.1549 39.6701L38.067 43.4545L39.3289 44.8176ZM43.4826 39.7375L38.761 34.3814L37.3676 35.6098L42.0892 40.9658L43.4826 39.7375ZM38.8136 35.5444C40.4733 33.278 41.5773 30.6534 42.0364 27.8821L40.2039 27.5785C39.7923 30.0627 38.8027 32.4154 37.315 34.4469L38.8136 35.5444ZM41.1621 28.6581L46.8165 28.4025L46.7326 26.5469L41.0782 26.8025L41.1621 28.6581ZM23.8957 34.5796C21.9906 34.5813 20.1279 34.018 18.543 32.961L17.5124 34.5064C19.4029 35.7672 21.6249 36.4391 23.8973 36.4371L23.8957 34.5796ZM18.543 32.961C16.9581 31.904 15.7222 30.4008 14.9917 28.6414L13.2762 29.3537C14.1476 31.4524 15.6218 33.2455 17.5124 34.5064L18.543 32.961ZM14.9917 28.6414C14.2611 26.882 14.0687 24.9455 14.4387 23.0767L12.6166 22.7159C12.1752 24.9451 12.4047 27.255 13.2762 29.3537L14.9917 28.6414ZM14.4387 23.0767C14.8087 21.208 15.7246 19.4909 17.0705 18.1427L15.7559 16.8304C14.1504 18.4386 13.0579 20.4868 12.6166 22.7159L14.4387 23.0767ZM17.0705 18.1427C18.4164 16.7945 20.1318 15.8756 21.9999 15.5023L21.636 13.6808C19.4076 14.1261 17.3613 15.2221 15.7559 16.8304L17.0705 18.1427ZM21.9999 15.5023C23.868 15.129 25.8049 15.3181 27.5655 16.0456L28.2749 14.3288C26.1747 13.4611 23.8643 13.2355 21.636 13.6808L21.9999 15.5023ZM27.5655 16.0456C29.3262 16.7731 30.8316 18.0063 31.8913 19.5894L33.4349 18.5561C32.1708 16.6677 30.3751 15.1966 28.2749 14.3288L27.5655 16.0456ZM31.8913 19.5894C32.9511 21.1724 33.5176 23.0342 33.5193 24.9392L35.3768 24.9376C35.3748 22.6652 34.699 20.4444 33.4349 18.5561L31.8913 19.5894ZM33.5193 24.9393C33.5205 26.2042 33.2726 27.457 32.7896 28.6261L34.5064 29.3354C35.0825 27.9408 35.3783 26.4464 35.3768 24.9375L33.5193 24.9393ZM32.7896 28.6261C32.3066 29.7952 31.598 30.8577 30.7044 31.7529L32.019 33.0652C33.085 31.9973 33.9302 30.7299 34.5064 29.3354L32.7896 28.6261ZM30.7044 31.7529C29.8107 32.6481 28.7495 33.3585 27.5812 33.8435L28.2935 35.559C29.687 34.9805 30.953 34.1331 32.019 33.0652L30.7044 31.7529ZM27.5812 33.8435C26.413 34.3285 25.1607 34.5787 23.8958 34.5796L23.8972 36.4371C25.4061 36.436 26.8999 36.1376 28.2935 35.559L27.5812 33.8435Z" fill="#012A5D"/>
<path d="M48.2277 37.9504L52.2689 30.951H60.3514L64.3926 37.9504L60.3514 44.9498H52.2689L48.2277 37.9504Z" fill="#7FCFE7" stroke="#012A5D" stroke-width="1.85752"/>
<path d="M59.5775 38.0329C59.5775 39.8374 58.1147 41.3002 56.3103 41.3002C54.5058 41.3002 53.043 39.8374 53.043 38.0329C53.043 36.2285 54.5058 34.7657 56.3103 34.7657C58.1147 34.7657 59.5775 36.2285 59.5775 38.0329Z" fill="#F1F1F1" stroke="#012A5D" stroke-width="1.85752"/>
<path d="M61.5793 24.2182L65.6205 17.2188H73.703L77.7442 24.2182L73.703 31.2176H65.6205L61.5793 24.2182Z" fill="#7FCFE7" stroke="#012A5D" stroke-width="1.85752"/>
<path d="M72.9291 24.3005C72.9291 26.1049 71.4663 27.5677 69.6618 27.5677C67.8574 27.5677 66.3946 26.1049 66.3946 24.3005C66.3946 22.496 67.8574 21.0333 69.6618 21.0333C71.4663 21.0333 72.9291 22.496 72.9291 24.3005Z" fill="#F1F1F1" stroke="#012A5D" stroke-width="1.85752"/>
</svg>
