<svg width="168" height="147" viewBox="0 0 168 147" fill="none" xmlns="http://www.w3.org/2000/svg">
<path d="M150.639 113.948C150.639 113.948 136.825 141.933 97.3491 140.066" stroke="#012A5D" stroke-width="4.56412" stroke-linecap="round" stroke-linejoin="round"/>
<path d="M92.1208 132.293H75.4957C74.7961 132.307 74.106 132.477 73.4647 132.793C72.8233 133.108 72.2434 133.563 71.758 134.131C71.2725 134.7 70.8911 135.37 70.6355 136.105C70.3799 136.839 70.2551 137.624 70.2683 138.413C70.2551 139.201 70.38 139.985 70.6357 140.719C70.8914 141.453 71.2729 142.123 71.7585 142.691C72.244 143.258 72.824 143.712 73.4653 144.027C74.1066 144.341 74.7965 144.51 75.4957 144.523H92.1208C93.5321 144.494 94.8754 143.834 95.8555 142.688C96.8357 141.542 97.3725 140.004 97.3482 138.413C97.3725 136.82 96.8359 135.281 95.856 134.134C94.8761 132.987 93.5329 132.325 92.1208 132.293Z" fill="#7FCFE7" stroke="#012A5D" stroke-width="4.56412" stroke-linecap="round" stroke-linejoin="round"/>
<path d="M13.483 61.5308C7.69084 61.5308 2.99976 65.876 2.99976 71.2271V104.25C2.99976 109.608 7.67082 113.947 13.483 113.947C19.2951 113.947 23.9662 109.608 23.9662 104.25V71.2271C23.9662 65.876 19.2751 61.5308 13.483 61.5308Z" fill="#7FCFE7" stroke="#012A5D" stroke-width="4.56412" stroke-linecap="round" stroke-linejoin="round"/>
<path d="M155.443 61.5308C149.892 61.5308 145.397 65.876 145.397 71.2271V104.25C145.397 109.608 149.873 113.947 155.443 113.947C161.013 113.947 165.49 109.608 165.49 104.25V71.2271C165.49 65.876 160.994 61.5308 155.443 61.5308Z" fill="#7FCFE7" stroke="#012A5D" stroke-width="4.56412" stroke-linecap="round" stroke-linejoin="round"/>
<path d="M12.6091 59.7838C12.6091 59.7838 16.0268 3.11241 82.2395 2.9999C147.392 2.89489 155.006 59.7838 155.006 59.7838" stroke="#012A5D" stroke-width="4.56412" stroke-linecap="round" stroke-linejoin="round"/>
</svg>
