<svg width="124" height="159" viewBox="0 0 124 159" fill="none" xmlns="http://www.w3.org/2000/svg">
<path d="M120.951 86.1675H3V156.09H120.951V86.1675Z" fill="#BFE7F3" stroke="#012A5D" stroke-width="4.2882" stroke-linejoin="round"/>
<path d="M82.8109 115.832L51.5575 132.347L51.5575 99.3166L82.8109 115.832Z" fill="white" stroke="#012A5D" stroke-width="4.2882" stroke-linejoin="round"/>
<line x1="13.6196" y1="144.058" x2="111.037" y2="144.058" stroke="#012A5D" stroke-width="4.2882" stroke-linecap="round"/>
<circle cx="93.7584" cy="143.73" r="5.29718" fill="#012A5D"/>
<path d="M73.2728 2.1441H73.273C76.3573 2.14374 79.3283 3.23558 81.6338 5.20353C83.9379 7.1703 85.4186 9.87534 85.8167 12.8091L86.197 15.612L88.7929 14.4886L111.798 4.53241L111.8 4.53157C112.605 4.18236 113.489 4.03353 114.372 4.10091C115.255 4.16829 116.102 4.4493 116.838 4.91434C117.574 5.37919 118.172 6.01173 118.584 6.74994L120.456 5.70515L118.584 6.74995C118.996 7.48752 119.21 8.30959 119.21 9.14209C119.21 9.1424 119.21 9.14272 119.21 9.14303V62.8977C119.209 63.7299 118.995 64.5516 118.584 65.2888C118.172 66.0264 117.574 66.6585 116.84 67.1232C116.104 67.5881 115.258 67.8693 114.376 67.9373C113.494 68.0052 112.61 67.8573 111.805 67.5092L111.805 67.5092L88.7927 57.553L86.1969 56.43L85.8167 59.2326C85.4186 62.1664 83.9379 64.8714 81.6338 66.8382C79.3283 68.8061 76.3573 69.8979 73.273 69.8976H73.2728H17.7943C14.4212 69.8976 11.1974 68.5921 8.82908 66.2856C6.46273 63.9809 5.1441 60.8675 5.1441 57.6334V14.4083C5.1441 11.1742 6.46273 8.06073 8.82908 5.75611C11.1974 3.44962 14.4212 2.1441 17.7943 2.1441H73.2728Z" fill="#7FCFE7" stroke="#012A5D" stroke-width="4.2882"/>
</svg>
