<svg width="306" height="271" viewBox="0 0 306 271" fill="none" xmlns="http://www.w3.org/2000/svg">
<path d="M43.9929 177.8L28.9449 233.704L95.0159 177.8H215.34C237.89 177.8 256.17 158.483 256.17 134.654V46.0274C256.17 22.1982 237.89 2.88086 215.34 2.88086H44.1933C21.6435 2.88086 3.36328 22.1982 3.36328 46.0274V134.654C3.36328 158.483 21.6435 177.8 44.1933 177.8" fill="#90CCE1"/>
<path d="M43.9929 177.8L28.9449 233.704L95.0159 177.8H215.34C237.89 177.8 256.17 158.483 256.17 134.654V46.0274C256.17 22.1982 237.89 2.88086 215.34 2.88086H44.1933C21.6435 2.88086 3.36328 22.1982 3.36328 46.0274V134.654C3.36328 158.483 21.6435 177.8 44.1933 177.8" stroke="#012A5D" stroke-width="5.59153" stroke-linecap="round" stroke-linejoin="round"/>
<path d="M272.064 222.906L283.56 268.122L233.085 222.906H141.163C123.936 222.906 109.971 206.024 109.971 185.199V107.747C109.971 86.9219 123.936 70.04 141.163 70.04H271.911C289.138 70.04 303.104 86.9219 303.104 107.747V185.199C303.104 206.024 289.138 222.906 271.911 222.906" fill="#C7E4EF"/>
<path d="M272.064 222.906L283.56 268.122L233.085 222.906H141.163C123.936 222.906 109.971 206.024 109.971 185.199V107.747C109.971 86.9219 123.936 70.04 141.163 70.04H271.911C289.138 70.04 303.104 86.9219 303.104 107.747V185.199C303.104 206.024 289.138 222.906 271.911 222.906" stroke="#012A5D" stroke-width="5.59153" stroke-linecap="round" stroke-linejoin="round"/>
<path d="M44.4077 177.131L29.494 232.778L94.9753 177.131H214.226C236.574 177.131 254.691 157.903 254.691 134.183V45.9653C254.691 22.2459 236.574 3.01758 214.226 3.01758H44.6063C22.2577 3.01758 4.14062 22.2459 4.14062 45.9653V134.183C4.14062 157.903 22.2577 177.131 44.6063 177.131" stroke="#012A5D" stroke-width="5.59153" stroke-linecap="round" stroke-linejoin="round"/>
<path d="M169.203 132.544C165.034 129.935 161.816 126.051 160.027 121.469C158.238 116.887 157.974 111.851 159.274 107.107C160.573 102.363 163.367 98.1637 167.241 95.1328C171.115 92.1018 175.863 90.4002 180.78 90.2802C185.697 90.1603 190.522 91.6285 194.54 94.4669C198.557 97.3054 201.552 101.363 203.081 106.038C204.61 110.713 204.592 115.757 203.029 120.42C201.466 125.084 198.441 129.12 194.403 131.929L194.111 132.13L194.357 149.047C194.371 150.013 194.195 150.973 193.838 151.871C193.481 152.769 192.951 153.588 192.277 154.282C191.604 154.975 190.801 155.529 189.913 155.912C189.026 156.295 188.071 156.499 187.105 156.513L176.948 156.661C174.997 156.689 173.113 155.941 171.713 154.581C170.313 153.221 169.51 151.361 169.482 149.409L169.236 132.492" fill="white"/>
<path d="M169.203 132.544C165.034 129.935 161.816 126.051 160.027 121.469C158.238 116.887 157.974 111.851 159.274 107.107C160.573 102.363 163.367 98.1637 167.241 95.1328C171.115 92.1018 175.863 90.4002 180.78 90.2802C185.697 90.1603 190.522 91.6285 194.54 94.4669C198.557 97.3054 201.552 101.363 203.081 106.038C204.61 110.713 204.592 115.757 203.029 120.42C201.466 125.084 198.441 129.12 194.403 131.929L194.111 132.13L194.357 149.047C194.371 150.013 194.195 150.973 193.838 151.871C193.481 152.769 192.951 153.588 192.277 154.282C191.604 154.975 190.801 155.529 189.913 155.912C189.026 156.295 188.071 156.499 187.105 156.513L176.948 156.661C174.997 156.689 173.113 155.941 171.713 154.581C170.313 153.221 169.51 151.361 169.482 149.409L169.236 132.492" stroke="#012A5D" stroke-width="4.19365" stroke-linecap="round" stroke-linejoin="round"/>
<path d="M176.389 148.063L187.301 147.904" stroke="#012A5D" stroke-width="4.19365" stroke-linecap="round" stroke-linejoin="round"/>
<path d="M176.323 142.002L187.236 141.843" stroke="#012A5D" stroke-width="4.19365" stroke-linecap="round" stroke-linejoin="round"/>
</svg>
