<svg width="194" height="175" viewBox="0 0 194 175" fill="none" xmlns="http://www.w3.org/2000/svg">
<path d="M109.802 2.00011H17.1794C16.5651 2.00011 15.976 2.24879 15.5417 2.69146C15.1073 3.13412 14.8633 3.73451 14.8633 4.36053V67.1703C14.8633 67.7963 15.1073 68.3967 15.5417 68.8394C15.976 69.282 16.5651 69.5307 17.1794 69.5307H109.824C110.438 69.5307 111.027 69.282 111.461 68.8394C111.896 68.3967 112.14 67.7963 112.14 67.1703V4.36053C112.14 4.04866 112.079 3.73986 111.961 3.45201C111.844 3.16415 111.671 2.90294 111.454 2.68346C111.236 2.46398 110.978 2.29058 110.695 2.17329C110.411 2.056 110.108 1.99714 109.802 2.00011Z" fill="#F1F1F1" stroke="#012A5D" stroke-width="3.34167" stroke-miterlimit="10"/>
<path d="M61.5799 69.5309H109.817C111.29 69.6062 112.693 70.1726 113.794 71.1367L124.492 81.592C125.375 82.46 125.088 83.1978 123.815 83.1978H3.99711C2.72456 83.1978 2.41968 82.4774 3.32548 81.592L14.0184 71.1367C15.1194 70.1726 16.5222 69.6062 17.9951 69.5309H61.5799Z" fill="#F1F1F1" stroke="#012A5D" stroke-width="3.34167" stroke-miterlimit="10"/>
<path d="M125.08 81.59H4.33379C3.71442 81.5912 3.12083 81.8488 2.68328 82.3062C2.24574 82.7636 2 83.3834 2 84.0297V84.7825C2 85.4283 2.24588 86.0477 2.68355 86.5043C3.12122 86.961 3.71483 87.2175 4.33379 87.2175H125.08C125.699 87.2175 126.293 86.961 126.731 86.5043C127.168 86.0477 127.414 85.4283 127.414 84.7825V84.0297C127.414 83.3834 127.168 82.7636 126.731 82.3062C126.293 81.8488 125.7 81.5912 125.08 81.59Z" fill="white"/>
<path d="M123.598 81.3286H4.30567C3.69376 81.3303 3.10732 81.6761 2.67505 82.2901C2.24278 82.9042 2 83.7363 2 84.6039V85.6146C2 86.4816 2.24292 87.3131 2.67531 87.9262C3.10771 88.5393 3.69417 88.8837 4.30567 88.8837H123.598C124.209 88.8837 124.795 88.5393 125.228 87.9262C125.66 87.3131 125.903 86.4816 125.903 85.6146V84.6039C125.903 83.7363 125.66 82.9042 125.228 82.2901C124.796 81.6761 124.209 81.3303 123.598 81.3286Z" fill="#F1F1F1" stroke="#012A5D" stroke-width="3.34167" stroke-linejoin="round"/>
<path d="M105.708 10.8433H22.0986V60.6874H105.708V10.8433Z" fill="#7FCFE7" stroke="#012A5D" stroke-width="3.34167" stroke-linejoin="round"/>
<path d="M96.8638 17.2749H53.4512V46.2166H96.8638V17.2749Z" fill="#BFE7F3" stroke="#012A5D" stroke-width="3.34167" stroke-linejoin="round"/>
<path d="M42.551 50.0912C43.7435 50.0912 44.9093 49.7375 45.9008 49.075C46.8924 48.4125 47.6652 47.4708 48.1216 46.369C48.5779 45.2673 48.6973 44.055 48.4647 42.8853C48.232 41.7157 47.6578 40.6414 46.8145 39.7981C45.9713 38.9549 44.8969 38.3806 43.7273 38.148C42.5577 37.9153 41.3454 38.0347 40.2436 38.4911C39.1419 38.9474 38.2002 39.7203 37.5376 40.7118C36.8751 41.7034 36.5215 42.8691 36.5215 44.0616C36.5215 45.6608 37.1567 47.1944 38.2875 48.3252C39.4182 49.4559 40.9519 50.0912 42.551 50.0912Z" fill="#BFE7F3" stroke="#012A5D" stroke-width="3.34167" stroke-linecap="round" stroke-linejoin="round"/>
<path d="M32.501 60.6876C32.849 58.228 34.1009 55.9417 36.0599 54.1883C38.0189 52.4348 40.5739 51.3138 43.3228 51.0014C47.0847 50.6542 50.6716 49.4032 53.7036 47.3808C53.7036 47.3808 57.423 45.8105 57.423 49.2277C57.423 53.5562 52.053 56.4974 52.053 56.4974L54.3947 60.6876H32.501Z" fill="#BFE7F3" stroke="#012A5D" stroke-width="3.34167" stroke-linecap="round" stroke-linejoin="round"/>
<path d="M56.6201 47.0204L67.0713 30.9417" stroke="#012A5D" stroke-width="3.34167" stroke-linecap="round" stroke-linejoin="round"/>
<path d="M182.451 110.604C182.451 145.219 154.575 173.261 120.212 173.261C85.849 173.261 57.9736 145.219 57.9736 110.604C57.9736 75.9899 85.849 47.9481 120.212 47.9481C154.575 47.9481 182.451 75.9899 182.451 110.604Z" fill="white" stroke="#012A5D" stroke-width="3.34167"/>
<path d="M132.057 154.64C130.74 153.066 129.504 151.62 128.254 150.039C127.626 149.215 127.052 148.931 125.989 149.176C124.797 149.503 123.51 149.566 122.284 149.554C121.26 149.521 120.756 149.915 120.367 150.774C119.637 152.284 118.838 153.8 117.966 155.256C117.792 155.547 117.22 155.947 116.944 155.907C114.046 155.519 111.202 154.989 108.298 154.533C107.942 152.382 107.534 150.373 107.185 148.29C107.035 147.486 106.731 147.175 105.956 146.912C105.113 146.656 104.196 146.34 103.535 145.86C101.767 144.537 100.38 144.952 98.807 146.205C97.6706 147.073 96.3061 148.374 95.0731 148.294C93.8402 148.215 92.7319 146.688 91.551 145.783C90.5116 144.932 89.4722 144.081 88.4329 143.23C87.8458 142.812 87.7302 142.345 87.9981 141.634C88.7082 139.922 89.3509 138.216 89.9195 136.45C90.0802 136.023 89.9508 135.421 89.7074 135.036C88.8892 133.684 87.9431 132.414 87.004 131.211C86.6933 130.833 86.1874 130.542 85.709 130.523C83.6006 130.533 81.4316 130.617 79.1885 130.641C78.1582 127.875 77.0605 125.117 76.0976 122.344C76.0027 122.081 76.2843 121.505 76.533 121.275C77.9044 120.042 79.3569 118.937 80.7283 117.704C81.1048 117.392 81.3053 116.688 81.3175 116.14C81.2332 114.645 81.0816 113.157 80.8695 111.744C80.7608 111.345 80.3551 110.703 79.9908 110.466C78.4662 109.528 76.8881 108.732 75.3099 107.936C74.6624 107.592 74.4259 107.275 74.5522 106.51C74.9844 104.074 75.4098 101.57 75.7005 99.0804C75.8267 98.3157 76.1427 98.0785 76.8767 97.9354C78.6882 97.6824 80.4928 97.3619 82.2905 96.9737C82.6877 96.8649 83.1921 96.4718 83.3528 96.0453C84.03 94.6778 84.6399 93.3172 85.1755 91.8958C85.3293 91.4017 85.3208 90.6508 85.1448 90.2587C84.2316 88.6432 83.1976 87.1767 82.2845 85.5612C82.1153 85.2367 82.1068 84.4858 82.3487 84.1878C84.095 81.9596 85.8482 79.7991 87.7224 77.4895C89.772 78.2375 91.7473 78.9246 93.7364 79.7471C94.4444 80.0166 94.8416 79.9078 95.4064 79.4402C96.5359 78.505 97.8208 77.759 98.9504 76.8238C99.3269 76.5121 99.669 75.8622 99.6812 75.3142C99.6972 73.4673 99.5784 71.6342 99.5944 69.7874C99.6204 69.3747 99.9693 68.7924 100.36 68.6159C102.776 67.618 105.199 66.6877 107.635 65.8926C107.965 65.7907 108.666 65.9926 108.963 66.2357C110.192 67.614 111.294 69.0736 112.523 70.4519C112.834 70.8303 113.468 71.0391 114.006 70.9842C115.495 70.9008 117.051 70.8106 118.519 70.5244C119.051 70.4018 119.629 70.0695 119.918 69.5617C120.85 68.0315 121.642 66.4474 122.426 64.7956C122.708 64.2202 123.024 63.9829 123.785 64.1104C126.286 64.6073 128.833 64.8946 131.333 65.3915C131.751 65.4856 132.21 65.9856 132.312 66.3169C132.659 67.7168 132.871 69.1303 133.015 70.5508C133.057 70.9566 132.903 71.4507 132.661 71.7487C130.431 74.5729 128.066 77.4108 125.837 80.235C125.292 80.9055 124.828 81.0212 124.006 80.9683C113.616 79.8401 104.758 83.0662 98.0872 91.0585C90.4958 100.033 88.8219 110.318 93.1849 121.082C97.636 132.041 106.098 138.287 117.835 139.278C134.376 140.667 148.057 128.68 149.359 112.077C149.647 108.221 149.187 104.372 147.858 100.681C147.566 99.8219 147.571 99.2063 148.183 98.5289C150.427 95.84 152.596 93.0903 154.84 90.4013C155.203 89.9543 155.99 89.6691 156.589 89.5397C157.795 89.3485 159.088 89.3534 160.321 89.4328C160.732 89.4592 161.312 89.8102 161.488 90.2023C162.484 92.6295 163.413 95.0635 164.206 97.5113C164.308 97.8426 164.108 98.5464 163.792 98.7837C162.488 100.01 161.028 101.047 159.724 102.274C159.348 102.585 159.08 103.296 159.068 103.844C159.152 105.339 159.31 106.895 159.529 108.376C159.652 108.91 159.983 109.491 160.422 109.788C161.946 110.726 163.525 111.522 165.17 112.312C165.811 112.588 165.987 112.98 165.854 113.677C165.428 116.181 165.003 118.684 164.652 121.249C164.519 121.946 164.203 122.183 163.536 122.319C161.724 122.572 159.92 122.893 158.122 123.281C157.658 123.397 157.16 123.857 156.932 124.291C156.422 125.299 156.129 126.423 155.545 127.371C154.666 128.759 154.776 129.841 155.722 131.112C156.587 132.254 157.263 133.551 158.061 134.7C158.46 135.275 158.366 135.694 157.943 136.216C156.304 138.16 154.732 140.097 153.228 142.027C152.683 142.698 152.212 142.746 151.497 142.408C149.865 141.754 148.234 141.101 146.616 140.582C146.124 140.427 145.39 140.57 145.006 140.814C143.796 141.621 142.666 142.556 141.388 143.37C140.682 143.784 140.528 144.278 140.604 145.022C140.722 146.855 140.774 148.695 140.758 150.542C140.725 150.887 140.436 151.395 140.181 151.557C137.495 152.583 134.81 153.608 132.057 154.64Z" fill="#7FCFE7" stroke="#012A5D" stroke-width="3.34167"/>
<path d="M120.251 128.161L120.231 128.116L120.208 128.072C120.19 128.038 120.179 128.013 120.174 127.998C120.183 127.973 120.204 127.928 120.248 127.856C120.308 127.76 120.394 127.642 120.52 127.488C121.565 126.245 122.539 125.021 123.497 123.819C125.047 121.871 126.554 119.978 128.255 118.137C129.316 117.016 130.079 115.785 130.306 114.358C130.535 112.916 130.178 111.521 129.476 110.155L129.466 110.137L129.457 110.119C128.862 109.028 128.452 107.824 128.004 106.504C127.881 106.145 127.756 105.777 127.623 105.4C127.349 104.613 126.909 103.899 126.238 103.356C125.566 102.813 124.775 102.53 123.947 102.424L123.947 102.424L123.937 102.423C121.548 102.131 119.232 101.767 116.912 101.274L116.878 101.267L116.844 101.261C116.006 101.12 115.167 101.142 114.352 101.47C113.55 101.793 112.943 102.344 112.443 102.952L112.437 102.959L112.432 102.966C110.538 105.323 108.617 107.646 106.679 109.99C105.702 111.171 104.721 112.358 103.736 113.557C103.571 113.758 103.448 113.903 103.334 114.018C103.223 114.131 103.154 114.182 103.117 114.204C103.104 114.212 103.097 114.216 103.094 114.217C103.093 114.217 103.091 114.217 103.088 114.217C103.083 114.217 103.075 114.218 103.064 114.217C103.046 114.216 103.019 114.213 102.981 114.206C102.892 114.176 102.86 114.15 102.856 114.147L102.856 114.147L102.856 114.146C102.851 114.143 102.84 114.134 102.819 114.097C102.792 114.05 102.754 113.962 102.712 113.805C102.669 113.646 102.632 113.455 102.59 113.202C100.522 100.268 111.699 89.5954 124.684 92.2639C125.271 92.3925 125.926 92.4369 126.6 92.2097C127.268 91.9849 127.75 91.5623 128.115 91.1671L128.148 91.1311L128.179 91.0931L158.866 53.7173C159.369 53.105 159.638 52.4497 159.715 51.757C159.785 51.1313 159.685 50.5513 159.609 50.1448C158.322 42.7906 163.478 36.318 170.914 35.9189C177.016 35.5957 182.676 40.0635 183.774 46.1092L183.774 46.1104C184.863 52.0803 181.378 57.854 175.485 59.6492L175.482 59.6501C174.989 59.8013 174.423 59.8787 173.709 59.9514C173.603 59.9622 173.493 59.973 173.378 59.9842C172.778 60.0427 172.075 60.1112 171.4 60.2452L171.387 60.2477L171.374 60.2505C171.038 60.3225 170.593 60.4319 170.153 60.6119C169.731 60.7846 169.167 61.0805 168.734 61.6086L168.73 61.6131C158.502 74.0705 148.276 86.5257 138.043 98.9134L138.04 98.9172C137.618 99.4313 137.251 100.06 137.199 100.851C137.152 101.585 137.4 102.212 137.597 102.647C142.573 114.075 135.137 126.86 122.36 128.228C122.359 128.228 122.359 128.228 122.358 128.228L122.347 128.229C122.337 128.23 122.325 128.231 122.309 128.232C122.276 128.234 122.234 128.236 122.183 128.238C122.119 128.241 122.054 128.244 121.98 128.247C121.927 128.249 121.87 128.251 121.806 128.254C121.521 128.266 121.155 128.283 120.797 128.32C120.502 128.35 120.373 128.308 120.342 128.294C120.332 128.289 120.329 128.287 120.324 128.282C120.318 128.276 120.289 128.244 120.251 128.161ZM120.167 127.976C120.167 127.976 120.167 127.977 120.168 127.978L120.167 127.976Z" fill="#BFE7F3" stroke="#012A5D" stroke-width="3.34167"/>
<path d="M170.978 43.0029L170.964 43.0041C168.282 43.2308 166.399 45.4974 166.619 48.1095L170.978 43.0029ZM170.978 43.0029L170.993 43.0014M170.978 43.0029L170.993 43.0014M170.993 43.0014C173.655 42.7301 175.909 44.6038 176.134 47.2693L176.135 47.2837L176.137 47.2981C176.408 49.96 174.53 52.2669 171.801 52.4984L171.787 52.4996M170.993 43.0014L171.787 52.4996M171.787 52.4996L171.773 52.501M171.787 52.4996L171.773 52.501M171.773 52.501C169.142 52.7691 166.853 50.8689 166.619 48.1099L171.773 52.501Z" fill="#F1F1F1" stroke="#012A5D" stroke-width="3.34167"/>
</svg>
