<svg width="262" height="243" viewBox="0 0 262 243" fill="none" xmlns="http://www.w3.org/2000/svg">
<path d="M10.4756 184.117H43.6015V215.591H74.4162" stroke="#012A5D" stroke-width="4"/>
<path d="M74.4141 169.369V230.228H94.4437" stroke="#012A5D" stroke-width="4"/>
<path d="M40.9853 225.997C45.8726 227.439 50.92 224.635 52.3621 219.748C53.8043 214.861 51.0001 209.813 46.1129 208.371C41.2257 206.929 36.1782 209.813 34.7361 214.62C33.294 219.508 36.0981 224.555 40.9853 225.997Z" fill="#BFE7F3" stroke="#012A5D" stroke-width="4"/>
<path d="M91.8291 239.864C96.7163 241.306 101.764 238.502 103.206 233.615C104.648 228.727 101.844 223.68 96.9566 222.238C92.0694 220.796 87.022 223.68 85.5799 228.487C84.1377 233.374 86.9419 238.422 91.8291 239.864Z" fill="#BFE7F3" stroke="#012A5D" stroke-width="4"/>
<path d="M43.5986 140.207H89.8208" stroke="#012A5D" stroke-width="4"/>
<path d="M34.3574 184.887L34.3574 144.828" stroke="#012A5D" stroke-width="4"/>
<path d="M31.7373 148.96C36.6245 150.402 41.672 147.598 43.1141 142.711C44.5562 137.824 41.7521 132.776 36.8648 131.334C31.9776 129.892 26.9302 132.776 25.4881 137.583C24.0459 142.471 26.8501 147.518 31.7373 148.96Z" fill="#BFE7F3" stroke="#012A5D" stroke-width="4"/>
<path d="M71.7959 178.234C76.6831 179.676 81.7306 176.872 83.1727 171.985C84.6148 167.098 81.8106 162.05 76.9234 160.608C72.0362 159.166 66.9888 162.05 65.5467 166.857C64.1045 171.745 66.9087 176.792 71.7959 178.234Z" fill="#BFE7F3" stroke="#012A5D" stroke-width="4"/>
<path d="M8.62791 193.642C13.5151 195.084 18.5626 192.28 20.0047 187.393C21.4469 182.505 18.6427 177.458 13.7555 176.016C8.86823 174.574 3.82081 177.458 2.37868 182.265C0.936551 187.152 3.74069 192.2 8.62791 193.642Z" fill="#BFE7F3" stroke="#012A5D" stroke-width="4"/>
<circle cx="166.666" cy="95.3332" r="93.3332" fill="#7FCFE7" stroke="#012A5D" stroke-width="4"/>
<path d="M168.583 141.706H153.569C152.947 141.704 152.332 141.86 151.757 142.167C151.183 142.473 150.661 142.924 150.221 143.492C149.781 144.06 149.432 144.735 149.194 145.479C148.956 146.222 148.833 147.019 148.833 147.824C148.833 149.447 149.331 151.003 150.216 152.15C151.102 153.298 152.303 153.942 153.555 153.942H168.583C169.835 153.942 171.036 153.298 171.922 152.15C172.808 151.003 173.305 149.447 173.305 147.824C173.305 146.201 172.808 144.645 171.922 143.498C171.036 142.351 169.835 141.706 168.583 141.706Z" fill="white" stroke="#012A5D" stroke-width="4" stroke-linecap="round" stroke-linejoin="round"/>
<path d="M214.588 118.115C214.588 118.115 204.162 144.668 174.695 147.694" stroke="#012A5D" stroke-width="4" stroke-linecap="round" stroke-linejoin="round"/>
<path d="M119.992 82.2734C117.442 82.2734 114.997 82.9889 113.194 84.2624C111.391 85.5359 110.378 87.2632 110.378 89.0642V112.191C110.378 113.992 111.391 115.719 113.194 116.993C114.997 118.266 117.442 118.982 119.992 118.982C122.542 118.982 124.987 118.266 126.79 116.993C128.593 115.719 129.606 113.992 129.606 112.191V89.0642C129.606 87.2632 128.593 85.5359 126.79 84.2624C124.987 82.9889 122.542 82.2734 119.992 82.2734Z" fill="white" stroke="#012A5D" stroke-width="4" stroke-linecap="round" stroke-linejoin="round"/>
<path d="M214.385 82.2734C211.835 82.2734 209.389 82.9889 207.586 84.2624C205.783 85.5359 204.771 87.2632 204.771 89.0642V112.191C204.771 113.992 205.783 115.719 207.586 116.993C209.389 118.266 211.835 118.982 214.385 118.982C216.934 118.982 219.38 118.266 221.183 116.993C222.986 115.719 223.999 113.992 223.999 112.191V89.0642C223.999 87.2632 222.986 85.5359 221.183 84.2624C219.38 82.9889 216.934 82.2734 214.385 82.2734Z" fill="white" stroke="#012A5D" stroke-width="4" stroke-linecap="round" stroke-linejoin="round"/>
<path d="M118.856 80.9387C118.856 80.9387 121.151 41.6777 165.543 41.6197C209.223 41.5585 214.328 80.9387 214.328 80.9387" stroke="#012A5D" stroke-width="4" stroke-linecap="round" stroke-linejoin="round"/>
</svg>
