<svg width="204" height="145" viewBox="0 0 204 145" fill="none" xmlns="http://www.w3.org/2000/svg">
<path d="M175.503 3.00017H27.2895C26.3065 3.00017 25.3638 3.39812 24.6688 4.10647C23.9737 4.81482 23.5833 5.77556 23.5833 6.77732V107.285C23.5833 108.287 23.9737 109.248 24.6688 109.956C25.3638 110.665 26.3065 111.063 27.2895 111.063H175.539C176.521 111.063 177.464 110.665 178.159 109.956C178.854 109.248 179.245 108.287 179.245 107.285V6.77732C179.245 6.27825 179.148 5.78412 178.959 5.3235C178.771 4.86287 178.495 4.44489 178.147 4.09367C177.799 3.74246 177.386 3.46499 176.932 3.2773C176.479 3.08961 175.993 2.99542 175.503 3.00017Z" fill="#F1F1F1" stroke="#012A5D" stroke-width="4.2882" stroke-miterlimit="10"/>
<path d="M98.3399 111.062H175.53C177.887 111.183 180.131 112.089 181.893 113.632L199.011 130.363C200.425 131.752 199.965 132.932 197.929 132.932H6.19605C4.15972 132.932 3.67185 131.779 5.12132 130.363L22.2321 113.632C23.9939 112.089 26.2386 111.183 28.5957 111.062H98.3399Z" fill="#F1F1F1" stroke="#012A5D" stroke-width="4.2882" stroke-miterlimit="10"/>
<path d="M199.953 130.359H6.73452C5.74341 130.361 4.79354 130.774 4.09339 131.505C3.39324 132.237 3 133.229 3 134.263V135.468C3 136.501 3.39346 137.493 4.09381 138.223C4.79417 138.954 5.74407 139.365 6.73452 139.365H199.953C200.943 139.365 201.893 138.954 202.594 138.223C203.294 137.493 203.688 136.501 203.688 135.468V134.263C203.688 133.229 203.294 132.237 202.594 131.505C201.894 130.774 200.944 130.361 199.953 130.359Z" fill="white"/>
<path d="M197.58 129.941H6.68953C5.71036 129.944 4.77193 130.497 4.08022 131.48C3.3885 132.462 3 133.794 3 135.182V136.799C3 138.187 3.38872 139.517 4.08064 140.498C4.77256 141.479 5.711 142.031 6.68953 142.031H197.58C198.559 142.031 199.497 141.479 200.189 140.498C200.881 139.517 201.27 138.187 201.27 136.799V135.182C201.27 133.794 200.881 132.462 200.189 131.48C199.498 130.497 198.559 129.944 197.58 129.941Z" fill="#F1F1F1" stroke="#012A5D" stroke-width="4.2882" stroke-linejoin="round"/>
<path d="M168.953 16.7224H35.1614V96.4829H168.953V16.7224Z" fill="white" stroke="#012A5D" stroke-width="4.2882" stroke-linejoin="round"/>
<path d="M111.357 31.3019H111.357C113.684 31.3017 115.925 32.1259 117.664 33.6113C119.402 35.0957 120.518 37.1371 120.818 39.3508L121.123 41.594L123.2 40.6943L140.704 33.1135L140.705 33.1128C141.305 32.8524 141.964 32.7414 142.622 32.7917C143.28 32.8419 143.911 33.0515 144.46 33.3982C145.008 33.7447 145.453 34.2161 145.76 34.7661L147.258 33.9307L145.76 34.7661C146.066 35.3157 146.225 35.9282 146.226 36.5484V77.4782C146.225 78.0979 146.066 78.7099 145.76 79.2591C145.453 79.8086 145.008 80.2797 144.461 80.6261C143.913 80.9727 143.282 81.1824 142.625 81.2331C141.967 81.2838 141.309 81.1734 140.709 80.9139L140.028 82.4879L140.709 80.9139L123.2 73.333L121.122 72.4337L120.818 74.6767C120.518 76.8904 119.402 78.9317 117.664 80.4162C115.925 81.9015 113.684 82.7257 111.357 82.7255H111.357H69.1454C66.6009 82.7255 64.1691 81.7399 62.383 79.9991C60.5984 78.2597 59.6041 75.9102 59.6041 73.4699V40.5575C59.6041 38.1172 60.5984 35.7677 62.383 34.0283C64.1691 32.2875 66.6008 31.3019 69.1454 31.3019H111.357Z" fill="#BFE7F3" stroke="#012A5D" stroke-width="3.43056"/>
<circle cx="91.487" cy="56.785" r="12.3422" fill="#7FCFE7" stroke="#012A5D" stroke-width="2.28559"/>
<path d="M98.1152 56.7851L88.1729 62.1294L88.1729 51.4408L98.1152 56.7851Z" fill="white" stroke="#012A5D" stroke-width="1.37135" stroke-linejoin="round"/>
</svg>
