<svg width="202" height="158" viewBox="0 0 202 158" fill="none" xmlns="http://www.w3.org/2000/svg">
<path d="M139.427 52.9918H22.2666C21.4896 52.9918 20.7444 53.3005 20.195 53.8499C19.6456 54.3994 19.3369 55.1445 19.3369 55.9215V133.88C19.3369 134.657 19.6456 135.402 20.195 135.952C20.7444 136.501 21.4896 136.81 22.2666 136.81H139.455C140.232 136.81 140.977 136.501 141.527 135.952C142.076 135.402 142.385 134.657 142.385 133.88V55.9215C142.385 55.5345 142.308 55.1512 142.159 54.7939C142.01 54.4366 141.792 54.1124 141.517 53.84C141.242 53.5676 140.916 53.3524 140.557 53.2068C140.198 53.0612 139.814 52.9881 139.427 52.9918V52.9918Z" stroke="#012A5D" stroke-width="6.02963" stroke-linejoin="round"/>
<path d="M77.9196 136.81H138.841C140.701 136.907 142.473 137.635 143.863 138.875L157.374 152.318C158.49 153.434 158.127 154.383 156.52 154.383H5.19567C3.58851 154.383 3.20346 153.456 4.34745 152.318L17.852 138.875C19.2425 137.635 21.0141 136.907 22.8744 136.81H77.9196Z" stroke="#012A5D" stroke-width="6.02963" stroke-linejoin="round"/>
<path d="M133.74 62.7969H27.958V127.005H133.74V62.7969Z" fill="#BFE7F3" stroke="#012A5D" stroke-width="3.61221" stroke-linejoin="round"/>
<path d="M121.541 72.1389H66.4512V107.457H121.541V72.1389Z" fill="white" stroke="#012A5D" stroke-width="3.61221" stroke-linejoin="round"/>
<path d="M53.1862 109.433C54.621 109.433 56.0236 109.007 57.2166 108.21C58.4096 107.413 59.3394 106.28 59.8885 104.955C60.4376 103.629 60.5812 102.17 60.3013 100.763C60.0214 99.3558 59.3305 98.0632 58.3159 97.0486C57.3014 96.0341 56.0087 95.3431 54.6015 95.0632C53.1942 94.7833 51.7356 94.927 50.41 95.4761C49.0844 96.0251 47.9514 96.955 47.1542 98.148C46.3571 99.341 45.9316 100.744 45.9316 102.178C45.9316 104.102 46.6959 105.948 48.0564 107.308C49.4169 108.669 51.2622 109.433 53.1862 109.433Z" fill="white" stroke="#012A5D" stroke-width="3.61221" stroke-linecap="round" stroke-linejoin="round"/>
<path d="M40.123 127.011C40.5501 123.637 42.0866 120.501 44.4909 118.095C46.8951 115.69 50.0307 114.152 53.4044 113.724C58.0213 113.248 62.4235 111.531 66.1445 108.757C66.1445 108.757 70.7093 106.603 70.7093 111.291C70.7093 117.228 64.1188 121.263 64.1188 121.263L66.9927 127.011H40.123Z" fill="white" stroke="#012A5D" stroke-width="3.61221" stroke-linecap="round" stroke-linejoin="round"/>
<path d="M70.1631 108.339L83.1487 89.499" stroke="#012A5D" stroke-width="3.61221" stroke-linecap="round" stroke-linejoin="round"/>
<path d="M143.063 41.5443H155.346V63.6395V65.1748H156.881H182.982H184.517V63.6395V51.2038V41.5443H195.703H198.821L196.92 39.073L170.56 4.79982L169.341 3.21507L168.124 4.80163L141.845 39.0748L139.952 41.5443H143.063Z" fill="#BFE7F3" stroke="#012A5D" stroke-width="3.07065"/>
<rect x="155.565" y="70.0003" width="28.9518" height="7.89595" fill="#BFE7F3" stroke="#012A5D" stroke-width="3.07065"/>
<rect x="155.565" y="83.5987" width="28.9518" height="6.57996" fill="#BFE7F3" stroke="#012A5D" stroke-width="3.07065"/>
</svg>
