<svg width="184" height="175" viewBox="0 0 184 175" fill="none" xmlns="http://www.w3.org/2000/svg">
<path d="M101.174 2H41.5791V39.9239H101.174V2Z" fill="#BFE7F3" stroke="#012A5D" stroke-width="3.34167" stroke-linejoin="round"/>
<circle cx="61.5952" cy="20.9621" r="9.16457" fill="#F1F1F1" stroke="#012A5D" stroke-width="3.34167"/>
<path d="M76.9453 17.3503H89.5866" stroke="#012A5D" stroke-width="3.34167" stroke-linecap="round"/>
<path d="M76.9453 24.1226H89.5866" stroke="#012A5D" stroke-width="3.34167" stroke-linecap="round"/>
<path d="M10.8779 61.5948C11.3456 57.8586 13.0248 54.3861 15.6516 51.7233C18.2783 49.0605 21.7036 47.3585 25.3886 46.885C30.4319 46.3521 35.2396 44.4479 39.3038 41.3736C39.3038 41.3736 44.2871 38.9882 44.2871 44.183C44.2871 50.7543 37.0887 55.222 37.0887 55.222L40.2247 61.5867L10.8779 61.5948Z" fill="#90CCE2" stroke="#012A5D" stroke-width="3.34167" stroke-linecap="round" stroke-linejoin="round"/>
<path d="M25.3258 42.6327C26.933 42.6327 28.5042 42.1561 29.8406 41.2632C31.177 40.3702 32.2186 39.101 32.8337 37.6161C33.4488 36.1312 33.6097 34.4972 33.2962 32.9208C32.9826 31.3444 32.2086 29.8964 31.0721 28.7599C29.9356 27.6233 28.4876 26.8494 26.9112 26.5358C25.3348 26.2222 23.7008 26.3832 22.2159 26.9982C20.7309 27.6133 19.4617 28.6549 18.5688 29.9913C17.6758 31.3277 17.1992 32.8989 17.1992 34.5062C17.1992 36.6615 18.0554 38.7285 19.5794 40.2525C21.1035 41.7766 23.1705 42.6327 25.3258 42.6327Z" fill="#90CCE2" stroke="#012A5D" stroke-width="3.34167" stroke-linecap="round" stroke-linejoin="round"/>
<path d="M120.027 60.8491H2V72.2877H120.027V60.8491Z" fill="#F1F1F1" stroke="#012A5D" stroke-width="3.34167" stroke-linecap="round" stroke-linejoin="round"/>
<path d="M107.893 72.1279H13.9219V91.0624H107.893V72.1279Z" fill="#F1F1F1" stroke="#012A5D" stroke-width="3.34167" stroke-linecap="round" stroke-linejoin="round"/>
<path d="M43.3838 40.8271L57.831 20.9622" stroke="#012A5D" stroke-width="3.34167" stroke-linecap="round" stroke-linejoin="round"/>
<path d="M182.202 110.371C182.202 144.985 154.326 173.027 119.963 173.027C85.5999 173.027 57.7245 144.985 57.7245 110.371C57.7245 75.7564 85.5999 47.7145 119.963 47.7145C154.326 47.7145 182.202 75.7564 182.202 110.371Z" fill="white" stroke="#012A5D" stroke-width="3.34167"/>
<path d="M158.81 110.371C158.81 131.578 141.434 148.8 119.963 148.8C98.4921 148.8 81.1161 131.578 81.1161 110.371C81.1161 89.1632 98.4921 71.9416 119.963 71.9416C141.434 71.9416 158.81 89.1632 158.81 110.371Z" fill="white" stroke="#012A5D" stroke-width="3.34167"/>
<circle cx="120.798" cy="71.5238" r="12.949" fill="white" stroke="white" stroke-width="3.34167"/>
<path d="M120.432 77.6937C123.697 77.6937 126.343 75.1425 126.343 71.9986C126.343 68.8547 123.697 66.3035 120.432 66.3035C117.167 66.3035 114.523 68.8534 114.523 71.9986C114.523 75.1438 117.167 77.6937 120.432 77.6937Z" fill="#BFE7F3" stroke="#012A5D" stroke-width="1.67083" stroke-linecap="round" stroke-linejoin="round"/>
<path d="M110.544 88.9484C110.544 88.9484 109.997 77.1526 120.432 77.7466C130.866 78.3405 129.982 88.9484 129.982 88.9484H110.544Z" fill="#BFE7F3" stroke="#012A5D" stroke-width="1.67083" stroke-linecap="round" stroke-linejoin="round"/>
<path d="M113.339 69.2395C112.771 69.2395 112.312 69.717 112.312 70.3051V73.9344C112.312 74.5232 112.769 75 113.339 75C113.909 75 114.367 74.5232 114.367 73.9344V70.3051C114.367 69.717 113.907 69.2395 113.339 69.2395Z" fill="#7FCFE7" stroke="#012A5D" stroke-width="1.67083" stroke-linecap="round" stroke-linejoin="round"/>
<path d="M127.567 69.2395C126.999 69.2395 126.539 69.717 126.539 70.3051V73.9344C126.539 74.5232 126.997 75 127.567 75C128.137 75 128.594 74.5232 128.594 73.9344V70.3051C128.594 69.717 128.135 69.2395 127.567 69.2395Z" fill="#7FCFE7" stroke="#012A5D" stroke-width="1.67083" stroke-linecap="round" stroke-linejoin="round"/>
<path d="M113.34 69.1402C113.34 69.1402 113.681 62.6592 120.297 62.6494C126.806 62.6403 127.567 69.1402 127.567 69.1402" stroke="#012A5D" stroke-width="1.67083" stroke-linecap="round" stroke-linejoin="round"/>
<circle cx="88.2174" cy="120.813" r="12.949" fill="white" stroke="white" stroke-width="3.34167"/>
<circle cx="88.2174" cy="133.345" r="12.949" fill="white" stroke="white" stroke-width="3.34167"/>
<path d="M87.5998 126.754C90.8647 126.754 93.5108 124.203 93.5108 121.059C93.5108 117.915 90.8647 115.364 87.5998 115.364C84.3349 115.364 81.6914 117.913 81.6914 121.059C81.6914 124.204 84.3349 126.754 87.5998 126.754Z" fill="#BFE7F3" stroke="#012A5D" stroke-width="1.67083" stroke-linecap="round" stroke-linejoin="round"/>
<path d="M77.712 138.008C77.712 138.008 77.1651 126.213 87.5996 126.807C98.0341 127.401 97.1504 138.008 97.1504 138.008H77.712Z" fill="#BFE7F3" stroke="#012A5D" stroke-width="1.67083" stroke-linecap="round" stroke-linejoin="round"/>
<path d="M80.5072 118.3C79.9394 118.3 79.4795 118.777 79.4795 119.365V122.994C79.4795 123.583 79.9374 124.06 80.5072 124.06C81.077 124.06 81.5349 123.583 81.5349 122.994V119.365C81.5349 118.777 81.075 118.3 80.5072 118.3Z" fill="#7FCFE7" stroke="#012A5D" stroke-width="1.67083" stroke-linecap="round" stroke-linejoin="round"/>
<path d="M94.7357 118.3C94.1679 118.3 93.708 118.777 93.708 119.365V122.994C93.708 123.583 94.1659 124.06 94.7357 124.06C95.3055 124.06 95.7634 123.583 95.7634 122.994V119.365C95.7634 118.777 95.3035 118.3 94.7357 118.3Z" fill="#7FCFE7" stroke="#012A5D" stroke-width="1.67083" stroke-linecap="round" stroke-linejoin="round"/>
<path d="M80.5078 118.2C80.5078 118.2 80.8493 111.719 87.4648 111.709C93.9744 111.7 94.7352 118.2 94.7352 118.2" stroke="#012A5D" stroke-width="1.67083" stroke-linecap="round" stroke-linejoin="round"/>
<circle cx="153.38" cy="120.813" r="12.949" fill="white" stroke="white" stroke-width="3.34167"/>
<circle cx="153.38" cy="133.345" r="12.949" fill="white" stroke="white" stroke-width="3.34167"/>
<path d="M153.262 126.754C156.527 126.754 159.173 124.203 159.173 121.059C159.173 117.915 156.527 115.364 153.262 115.364C149.997 115.364 147.354 117.913 147.354 121.059C147.354 124.204 149.997 126.754 153.262 126.754Z" fill="#BFE7F3" stroke="#012A5D" stroke-width="1.67083" stroke-linecap="round" stroke-linejoin="round"/>
<path d="M143.374 138.008C143.374 138.008 142.827 126.213 153.262 126.807C163.696 127.401 162.812 138.008 162.812 138.008H143.374Z" fill="#BFE7F3" stroke="#012A5D" stroke-width="1.67083" stroke-linecap="round" stroke-linejoin="round"/>
<path d="M146.169 118.3C145.601 118.3 145.142 118.777 145.142 119.365V122.995C145.142 123.583 145.6 124.06 146.169 124.06C146.739 124.06 147.197 123.583 147.197 122.995V119.365C147.197 118.777 146.737 118.3 146.169 118.3Z" fill="#7FCFE7" stroke="#012A5D" stroke-width="1.67083" stroke-linecap="round" stroke-linejoin="round"/>
<path d="M160.398 118.3C159.83 118.3 159.37 118.777 159.37 119.365V122.995C159.37 123.583 159.828 124.06 160.398 124.06C160.968 124.06 161.425 123.583 161.425 122.995V119.365C161.425 118.777 160.966 118.3 160.398 118.3Z" fill="#7FCFE7" stroke="#012A5D" stroke-width="1.67083" stroke-linecap="round" stroke-linejoin="round"/>
<path d="M146.17 118.2C146.17 118.2 146.511 111.719 153.127 111.709C159.636 111.7 160.397 118.2 160.397 118.2" stroke="#012A5D" stroke-width="1.67083" stroke-linecap="round" stroke-linejoin="round"/>
</svg>
