<svg width="205" height="182" viewBox="0 0 205 182" fill="none" xmlns="http://www.w3.org/2000/svg">
<path d="M148.891 93.1228H3V179.609H148.891V93.1228Z" fill="#BFE7F3" stroke="#012A5D" stroke-width="4.56412" stroke-linejoin="round"/>
<path d="M106.217 143.275L61.0318 166.991L61.0318 119.559L106.217 143.275Z" fill="white" stroke="#012A5D" stroke-width="4.56412" stroke-linejoin="round"/>
<path d="M76.3972 108.967L61.9322 72.0539L87.0543 62.2095L110.796 24.7271L144.406 110.496L101.519 99.1227L76.3972 108.967Z" fill="#7FCFE7" stroke="#012A5D" stroke-width="4.56412" stroke-linejoin="round"/>
<path d="M149.896 77.8373C149.896 77.8373 159.96 64.4079 155.201 52.2626L154.608 50.522C149.849 38.3767 133.34 35.36 133.34 35.36" stroke="#012A5D" stroke-width="4.56412" stroke-linecap="round" stroke-linejoin="round"/>
<path d="M136.913 69.5753C136.913 69.5753 141.607 63.3113 139.388 57.6462L139.111 56.8343C136.891 51.1692 129.191 49.7621 129.191 49.7621" stroke="#012A5D" stroke-width="4.56412" stroke-linecap="round" stroke-linejoin="round"/>
<path d="M161.17 92.8692C161.17 92.8692 179.243 68.7514 170.696 46.9399L169.632 43.814C161.085 22.0026 131.438 16.5847 131.438 16.5847" stroke="#012A5D" stroke-width="4.56412" stroke-linecap="round" stroke-linejoin="round"/>
<rect x="61.9631" y="72.1313" width="25.3074" height="39.4796" transform="rotate(-21.3984 61.9631 72.1313)" fill="#7FCFE7" stroke="#012A5D" stroke-width="4.56412" stroke-linejoin="round"/>
</svg>
