<svg width="184" height="175" viewBox="0 0 184 175" fill="none" xmlns="http://www.w3.org/2000/svg">
<path d="M101.173 2H41.5781V39.9239H101.173V2Z" fill="#BFE7F3" stroke="#012A5D" stroke-width="3.34167" stroke-linejoin="round"/>
<circle cx="61.5932" cy="20.9621" r="9.16457" fill="#F1F1F1" stroke="#012A5D" stroke-width="3.34167"/>
<path d="M76.9443 17.3501H89.5856" stroke="#012A5D" stroke-width="3.34167" stroke-linecap="round"/>
<path d="M76.9443 24.1223H89.5856" stroke="#012A5D" stroke-width="3.34167" stroke-linecap="round"/>
<path d="M10.877 61.595C11.3446 57.8589 13.0238 54.3863 15.6506 51.7235C18.2774 49.0607 21.7026 47.3587 25.3876 46.8853C30.4309 46.3523 35.2386 44.4481 39.3028 41.3738C39.3028 41.3738 44.2861 38.9884 44.2861 44.1832C44.2861 50.7546 37.0877 55.2222 37.0877 55.2222L40.2238 61.587L10.877 61.595Z" fill="#90CCE2" stroke="#012A5D" stroke-width="3.34167" stroke-linecap="round" stroke-linejoin="round"/>
<path d="M25.3248 42.633C26.9321 42.633 28.5033 42.1564 29.8397 41.2634C31.1761 40.3705 32.2177 39.1013 32.8327 37.6163C33.4478 36.1314 33.6088 34.4974 33.2952 32.921C32.9816 31.3446 32.2076 29.8966 31.0711 28.7601C29.9346 27.6236 28.4866 26.8496 26.9102 26.536C25.3338 26.2225 23.6998 26.3834 22.2149 26.9985C20.73 27.6136 19.4608 28.6552 18.5678 29.9916C17.6749 31.328 17.1982 32.8992 17.1982 34.5064C17.1982 36.6617 18.0544 38.7287 19.5785 40.2528C21.1025 41.7768 23.1695 42.633 25.3248 42.633Z" fill="#90CCE2" stroke="#012A5D" stroke-width="3.34167" stroke-linecap="round" stroke-linejoin="round"/>
<path d="M120.027 60.8494H2V72.2879H120.027V60.8494Z" fill="#F1F1F1" stroke="#012A5D" stroke-width="3.34167" stroke-linecap="round" stroke-linejoin="round"/>
<path d="M107.893 72.1282H13.9219V91.0626H107.893V72.1282Z" fill="#F1F1F1" stroke="#012A5D" stroke-width="3.34167" stroke-linecap="round" stroke-linejoin="round"/>
<path d="M43.3828 40.8268L57.83 20.9619" stroke="#012A5D" stroke-width="3.34167" stroke-linecap="round" stroke-linejoin="round"/>
<path d="M182.2 110.371C182.2 144.985 154.324 173.027 119.961 173.027C85.598 173.027 57.7226 144.985 57.7226 110.371C57.7226 75.7564 85.598 47.7145 119.961 47.7145C154.324 47.7145 182.2 75.7564 182.2 110.371Z" fill="white" stroke="#012A5D" stroke-width="3.34167"/>
<path d="M93.7422 149.16C93.7422 149.16 154.215 161.118 155.069 128.831C155.069 128.831 155.411 123.877 149.603 123.877C143.795 123.877 144.991 127.806 142.086 130.881C140.419 132.646 131.902 133.653 131.902 133.653C131.902 130.237 127.119 130.749 127.119 130.749L118.406 130.408C107.473 127.504 94.1489 134.849 94.1489 134.849L93.7422 149.16Z" fill="white"/>
<path d="M131.902 133.653C131.902 133.653 140.419 132.646 142.086 130.881C144.991 127.806 143.795 123.877 149.603 123.877C155.411 123.877 155.069 128.831 155.069 128.831C154.215 161.118 93.7422 149.16 93.7422 149.16L94.1489 134.849C94.1489 134.849 107.473 127.504 118.406 130.408L127.119 130.749C127.119 130.749 131.902 130.237 131.902 133.653ZM131.902 133.653C131.902 137.07 130.877 138.266 127.119 138.266H112.427" stroke="#012A5D" stroke-width="3.34167" stroke-linecap="round" stroke-linejoin="round"/>
<path d="M94.409 132.077H84.501V152.064H94.409V132.077Z" fill="#7FCFE7" stroke="#012A5D" stroke-width="3.34167" stroke-linecap="round" stroke-linejoin="round"/>
<path d="M130.488 101.75V116.511C130.488 116.918 130.408 117.321 130.252 117.697C130.095 118.073 129.866 118.414 129.576 118.702C129.287 118.99 128.943 119.218 128.564 119.374C128.186 119.53 127.78 119.61 127.371 119.61H112.198C111.789 119.61 111.383 119.53 111.005 119.374C110.626 119.218 110.282 118.99 109.993 118.702C109.703 118.414 109.474 118.073 109.317 117.697C109.161 117.321 109.08 116.918 109.081 116.511V101.75C105.326 99.4383 102.433 95.9738 100.838 91.8817C99.2444 87.7896 99.0367 83.2929 100.247 79.0731C101.457 74.8532 104.019 71.1401 107.545 68.4965C111.071 65.8528 115.368 64.4226 119.786 64.4226C124.204 64.4226 128.501 65.8528 132.027 68.4965C135.553 71.1401 138.115 74.8532 139.325 79.0731C140.535 83.2929 140.328 87.7896 138.734 91.8817C137.139 95.9738 134.246 99.4383 130.491 101.75H130.488Z" fill="#BFE7F3" stroke="#012A5D" stroke-width="3.34167" stroke-linecap="round" stroke-linejoin="round"/>
<path d="M130.399 106.268H109.173" stroke="#012A5D" stroke-width="3.34167" stroke-linecap="round" stroke-linejoin="round"/>
<path d="M130.399 112.333H109.173" stroke="#012A5D" stroke-width="3.34167" stroke-linecap="round" stroke-linejoin="round"/>
<path d="M109.308 88.8149L114.44 93.9474L129.624 78.9775" stroke="#012A5D" stroke-width="3.34167" stroke-linecap="round"/>
</svg>
