<svg width="187" height="144" viewBox="0 0 187 144" fill="none" xmlns="http://www.w3.org/2000/svg">
<mask id="path-1-inside-1_854_1132" fill="white">
<path d="M44.6404 81.705C44.9966 81.2975 45.4216 80.9736 45.8905 80.752C46.3595 80.5305 46.8631 80.4158 47.372 80.4146H62.7184C63.2273 80.4158 63.7309 80.5305 64.1999 80.752C64.6689 80.9736 65.0938 81.2975 65.4501 81.705C66.7929 83.2278 68.4426 95.4442 70.077 96.726C71.927 98.1649 73.854 99.475 75.8472 100.649L75.924 100.701H75.947C76.7236 101.132 77.347 101.846 77.7157 102.725C78.0843 103.605 78.1765 104.598 77.9772 105.544C77.7779 106.49 77.2988 107.332 76.618 107.933C75.9373 108.535 75.0949 108.86 74.2282 108.856H35.8622C34.9983 108.856 34.1597 108.529 33.4821 107.928C32.8046 107.327 32.3278 106.488 32.1289 105.545C31.93 104.602 32.0208 103.612 32.3864 102.734C32.752 101.857 33.3711 101.143 34.1434 100.709L34.1588 100.701L34.2355 100.649C34.793 100.338 35.3406 100.005 35.8776 99.6511C37.2925 98.7422 38.6724 97.7663 40.0134 96.726C41.6555 95.4356 43.2975 83.2278 44.6404 81.705Z"/>
</mask>
<path d="M44.6404 81.705C44.9966 81.2975 45.4216 80.9736 45.8905 80.752C46.3595 80.5305 46.8631 80.4158 47.372 80.4146H62.7184C63.2273 80.4158 63.7309 80.5305 64.1999 80.752C64.6689 80.9736 65.0938 81.2975 65.4501 81.705C66.7929 83.2278 68.4426 95.4442 70.077 96.726C71.927 98.1649 73.854 99.475 75.8472 100.649L75.924 100.701H75.947C76.7236 101.132 77.347 101.846 77.7157 102.725C78.0843 103.605 78.1765 104.598 77.9772 105.544C77.7779 106.49 77.2988 107.332 76.618 107.933C75.9373 108.535 75.0949 108.86 74.2282 108.856H35.8622C34.9983 108.856 34.1597 108.529 33.4821 107.928C32.8046 107.327 32.3278 106.488 32.1289 105.545C31.93 104.602 32.0208 103.612 32.3864 102.734C32.752 101.857 33.3711 101.143 34.1434 100.709L34.1588 100.701L34.2355 100.649C34.793 100.338 35.3406 100.005 35.8776 99.6511C37.2925 98.7422 38.6724 97.7663 40.0134 96.726C41.6555 95.4356 43.2975 83.2278 44.6404 81.705Z" fill="#C6E6F1"/>
<path d="M44.6404 81.705L46.4293 83.2825L46.436 83.2748L44.6404 81.705ZM47.372 80.4146V78.0295L47.3663 78.0295L47.372 80.4146ZM62.7184 80.4146L62.7241 78.0295H62.7184V80.4146ZM65.4501 81.705L63.6544 83.2748L63.6612 83.2825L65.4501 81.705ZM70.077 96.726L68.6051 98.6028L68.6127 98.6087L70.077 96.726ZM75.8472 100.649L77.1787 98.6702L77.1193 98.6302L77.0577 98.5939L75.8472 100.649ZM75.924 100.701L74.5925 102.68L75.1963 103.086H75.924V100.701ZM75.947 100.701L77.1054 98.6158L76.5651 98.3156H75.947V100.701ZM74.2282 108.856L74.2388 106.471H74.2282V108.856ZM35.8622 108.856L35.862 111.241H35.8622V108.856ZM34.1434 100.709L32.9767 98.629L32.975 98.63L34.1434 100.709ZM34.1588 100.701L35.3255 102.781L35.4099 102.734L35.4901 102.68L34.1588 100.701ZM34.2355 100.649L33.0726 98.5667L32.9862 98.6149L32.9042 98.6701L34.2355 100.649ZM35.8776 99.6511L34.5886 97.6443L34.5769 97.6518L34.5652 97.6595L35.8776 99.6511ZM40.0134 96.726L41.4753 98.6106L41.4813 98.606L41.4872 98.6013L40.0134 96.726ZM46.436 83.2748C46.586 83.1033 46.7498 82.984 46.9093 82.9086L44.8718 78.5955C44.0933 78.9632 43.4072 79.4918 42.8447 80.1352L46.436 83.2748ZM46.9093 82.9086C47.0678 82.8337 47.2261 82.8 47.3777 82.7996L47.3663 78.0295C46.5001 78.0316 45.6513 78.2272 44.8718 78.5955L46.9093 82.9086ZM47.372 82.7996H62.7184V78.0295H47.372V82.7996ZM62.7127 82.7996C62.8643 82.8 63.0227 82.8337 63.1811 82.9086L65.2187 78.5955C64.4392 78.2272 63.5903 78.0316 62.7241 78.0295L62.7127 82.7996ZM63.1811 82.9086C63.3406 82.984 63.5045 83.1033 63.6544 83.2748L67.2457 80.1352C66.6832 79.4918 65.9971 78.9632 65.2187 78.5955L63.1811 82.9086ZM63.6612 83.2825C63.5042 83.1045 63.5521 83.0761 63.728 83.5561C63.8687 83.9398 64.0283 84.4678 64.2056 85.1306C64.5607 86.458 64.931 88.11 65.33 89.8414C65.7201 91.5344 66.1378 93.3033 66.5692 94.7387C66.7841 95.454 67.0212 96.1508 67.2842 96.7431C67.4978 97.224 67.8976 98.0478 68.6051 98.6027L71.5489 94.8493C71.8478 95.0837 71.8385 95.2455 71.6438 94.807C71.4985 94.4798 71.3281 94.0001 71.1375 93.3659C70.7579 92.1027 70.3728 90.482 69.9784 88.7703C69.5928 87.097 69.1967 85.3293 68.8137 83.8978C68.622 83.1811 68.4196 82.4949 68.2067 81.9141C68.029 81.4294 67.7317 80.6863 67.2389 80.1275L63.6612 83.2825ZM68.6127 98.6087C70.5424 100.11 72.5542 101.478 74.6368 102.704L77.0577 98.5939C75.1538 97.4726 73.3115 96.2202 71.5413 94.8434L68.6127 98.6087ZM74.5158 102.628L74.5925 102.68L77.2554 98.7218L77.1787 98.6702L74.5158 102.628ZM75.924 103.086H75.947V98.3156H75.924V103.086ZM74.7886 102.786C75.0621 102.937 75.3379 103.223 75.516 103.647L79.9153 101.803C79.3561 100.469 78.3851 99.3268 77.1054 98.6158L74.7886 102.786ZM75.516 103.647C75.6947 104.074 75.7442 104.574 75.6434 105.052L80.311 106.036C80.6088 104.623 80.4739 103.136 79.9153 101.803L75.516 103.647ZM75.6434 105.052C75.5426 105.53 75.31 105.906 75.0388 106.146L78.1973 109.721C79.2876 108.757 80.0131 107.449 80.311 106.036L75.6434 105.052ZM75.0388 106.146C74.7736 106.38 74.4901 106.472 74.2388 106.471L74.2176 111.241C75.6997 111.248 77.1009 110.689 78.1973 109.721L75.0388 106.146ZM74.2282 106.471H35.8622V111.241H74.2282V106.471ZM35.8624 106.471C35.6118 106.471 35.3291 106.378 35.0648 106.144L31.8995 109.713C32.9903 110.68 34.3848 111.241 35.862 111.241L35.8624 106.471ZM35.0648 106.144C34.7946 105.904 34.5632 105.529 34.4626 105.053L29.7952 106.037C30.0924 107.446 30.8145 108.75 31.8995 109.713L35.0648 106.144ZM34.4626 105.053C34.362 104.576 34.4107 104.077 34.588 103.652L30.1847 101.817C29.6308 103.147 29.4981 104.629 29.7952 106.037L34.4626 105.053ZM34.588 103.652C34.7647 103.228 35.0391 102.942 35.3118 102.789L32.975 98.63C31.7031 99.3447 30.7392 100.486 30.1847 101.817L34.588 103.652ZM35.3102 102.789L35.3255 102.781L32.992 98.6204L32.9767 98.629L35.3102 102.789ZM35.4901 102.68L35.5668 102.628L32.9042 98.6701L32.8274 98.7217L35.4901 102.68ZM35.3984 102.731C36.0071 102.391 36.6046 102.028 37.1899 101.643L34.5652 97.6595C34.0767 97.9814 33.5788 98.284 33.0726 98.5667L35.3984 102.731ZM37.1666 101.658C38.6415 100.71 40.079 99.6937 41.4753 98.6106L38.5515 94.8415C37.2658 95.8389 35.9436 96.774 34.5886 97.6443L37.1666 101.658ZM41.4872 98.6013C42.193 98.0466 42.5931 97.2248 42.8079 96.7416C43.0716 96.1486 43.3092 95.4512 43.5244 94.7355C43.9562 93.2992 44.3737 91.5303 44.7634 89.8378C45.162 88.1066 45.5315 86.4556 45.8861 85.1287C46.0631 84.4663 46.2224 83.9387 46.3629 83.5552C46.5386 83.0757 46.5864 83.1043 46.4292 83.2825L42.8515 80.1275C42.3586 80.6864 42.0614 81.4296 41.8839 81.9142C41.6711 82.4949 41.469 83.1809 41.2776 83.8973C40.8953 85.328 40.4999 87.0951 40.1148 88.7675C39.7209 90.4786 39.3361 92.0987 38.9562 93.3619C38.7656 93.996 38.5949 94.4759 38.4493 94.8035C38.2548 95.2408 38.2443 95.0828 38.5397 94.8507L41.4872 98.6013Z" fill="#012A5D" mask="url(#path-1-inside-1_854_1132)"/>
<rect x="1.3335" y="1.91113" width="106.945" height="81.7294" fill="#F1F1F1" stroke="#012A5D" stroke-width="2.38508" stroke-linejoin="round"/>
<rect x="9.48633" y="10.5144" width="90.6396" height="63.9855" fill="white" stroke="#012A5D" stroke-width="2.38508" stroke-linejoin="round"/>
<path d="M44.8672 48.244L44.8678 48.2457C45.4073 49.7969 46.0558 51.1183 46.8153 52.2065L46.8153 52.2065L46.8167 52.2085C47.4672 53.117 48.1027 53.899 48.7233 54.5535C49.3704 55.2359 50.1352 55.5862 51.0099 55.5862C51.5664 55.5862 52.0585 55.4935 52.4805 55.3008C52.8792 55.1236 53.2948 54.9463 53.7271 54.769C54.1417 54.6033 54.6657 54.5164 55.3058 54.5164C55.9712 54.5164 56.48 54.6041 56.845 54.7664L56.845 54.7664L56.8493 54.7682C57.2478 54.9343 57.6351 55.1058 58.0111 55.2827L58.0111 55.2828L58.0156 55.2848C58.4288 55.467 58.9439 55.5527 59.5516 55.5527C60.4902 55.5527 61.2951 55.1935 61.9557 54.4861C62.5982 53.8097 63.1952 53.0718 63.7468 52.2725L63.7474 52.2717C64.3773 51.3493 64.8325 50.5039 65.1076 49.7364C65.2467 49.3636 65.3526 49.078 65.4252 48.8798C65.4615 48.7807 65.4896 48.7029 65.5094 48.6469C65.5272 48.5967 65.5427 48.5521 65.5485 48.5291L65.5879 48.3715L65.4426 48.2989L65.4423 48.2987L65.4415 48.2983L65.4387 48.2969L65.4295 48.2921L65.3982 48.2757L65.2879 48.2174C65.1936 48.1675 65.0576 48.0953 64.8799 48.0009C64.5531 47.8216 64.1655 47.5375 63.7157 47.1428C63.2919 46.7502 62.9104 46.2311 62.5739 45.5801C62.2574 44.9466 62.0944 44.1663 62.0944 43.2313C62.0944 42.4165 62.2248 41.7271 62.4781 41.1572L62.4786 41.156C62.7394 40.5583 63.0404 40.0771 63.3786 39.7072L63.3805 39.7051C63.7313 39.3104 64.0424 39.0224 64.3139 38.8344L64.3139 38.8345L64.3181 38.8314C64.4633 38.7253 64.5773 38.6409 64.6595 38.5785C64.7356 38.5208 64.7977 38.4722 64.8266 38.4434L64.9462 38.3237L64.8498 38.1847C64.2566 37.3292 63.5868 36.7068 62.8366 36.3312C62.1207 35.9564 61.4519 35.724 60.8318 35.6421C60.2413 35.5641 59.8115 35.5234 59.5516 35.5234C58.8846 35.5234 58.2549 35.6268 57.6639 35.8352C57.0914 36.0261 56.5734 36.2231 56.1103 36.4264C55.6686 36.6203 55.2961 36.7102 54.9882 36.7102C54.6669 36.7102 54.2935 36.6246 53.8647 36.4425C53.4261 36.2513 52.9546 36.0661 52.4503 35.8868C51.9251 35.6886 51.3665 35.5902 50.7759 35.5902C49.6669 35.5902 48.5955 35.8968 47.5643 36.504C46.537 37.1042 45.6995 37.9964 45.0493 39.1711C44.3931 40.3455 44.0709 41.7914 44.0709 43.4987C44.0709 45.093 44.3367 46.675 44.8672 48.244ZM58.7881 33.7324L58.789 33.7313C59.2037 33.2245 59.5424 32.6498 59.8058 32.0084L59.8063 32.0072C60.0721 31.3486 60.2055 30.671 60.2055 29.9757C60.2055 29.7647 60.188 29.5759 60.1501 29.412L60.1126 29.2493L59.9458 29.2551C59.2632 29.2786 58.5542 29.4843 57.8206 29.8625C57.087 30.2408 56.4751 30.7187 55.9884 31.2974C55.6051 31.7278 55.2669 32.2689 54.9714 32.9165C54.6698 33.5663 54.5182 34.2415 54.5182 34.9403C54.5182 35.048 54.5242 35.1512 54.5365 35.2496C54.5475 35.3378 54.5605 35.4176 54.5788 35.4724L54.6159 35.5839L54.7312 35.6069C54.8567 35.632 54.9871 35.6443 55.1219 35.6443C55.7528 35.6443 56.4091 35.4597 57.0883 35.1029L57.0883 35.1029L57.0907 35.1016C57.7686 34.7339 58.3355 34.2779 58.7881 33.7324Z" fill="#C7E4EF" stroke="#012A5D" stroke-width="0.405095"/>
<mask id="path-6-inside-2_854_1132" fill="white">
<path d="M121.369 116.669C121.725 116.262 122.15 115.938 122.619 115.716C123.088 115.495 123.592 115.38 124.101 115.379H139.447C139.956 115.38 140.459 115.495 140.928 115.716C141.397 115.938 141.822 116.262 142.179 116.669C143.521 118.192 145.171 130.409 146.806 131.69C148.655 133.129 150.583 134.439 152.576 135.613L152.652 135.665H152.676C153.452 136.097 154.076 136.81 154.444 137.69C154.813 138.569 154.905 139.563 154.706 140.508C154.506 141.454 154.027 142.296 153.347 142.898C152.666 143.499 151.823 143.825 150.957 143.821H112.591C111.727 143.821 110.888 143.494 110.211 142.893C109.533 142.292 109.056 141.452 108.857 140.509C108.659 139.567 108.749 138.576 109.115 137.699C109.48 136.821 110.1 136.108 110.872 135.674L110.887 135.665L110.964 135.613C111.521 135.302 112.069 134.969 112.606 134.615C114.021 133.707 115.401 132.731 116.742 131.69C118.384 130.4 120.026 118.192 121.369 116.669Z"/>
</mask>
<path d="M121.369 116.669C121.725 116.262 122.15 115.938 122.619 115.716C123.088 115.495 123.592 115.38 124.101 115.379H139.447C139.956 115.38 140.459 115.495 140.928 115.716C141.397 115.938 141.822 116.262 142.179 116.669C143.521 118.192 145.171 130.409 146.806 131.69C148.655 133.129 150.583 134.439 152.576 135.613L152.652 135.665H152.676C153.452 136.097 154.076 136.81 154.444 137.69C154.813 138.569 154.905 139.563 154.706 140.508C154.506 141.454 154.027 142.296 153.347 142.898C152.666 143.499 151.823 143.825 150.957 143.821H112.591C111.727 143.821 110.888 143.494 110.211 142.893C109.533 142.292 109.056 141.452 108.857 140.509C108.659 139.567 108.749 138.576 109.115 137.699C109.48 136.821 110.1 136.108 110.872 135.674L110.887 135.665L110.964 135.613C111.521 135.302 112.069 134.969 112.606 134.615C114.021 133.707 115.401 132.731 116.742 131.69C118.384 130.4 120.026 118.192 121.369 116.669Z" fill="#C6E6F1"/>
<path d="M121.369 116.669L123.158 118.247L123.165 118.239L121.369 116.669ZM124.101 115.379V112.994L124.095 112.994L124.101 115.379ZM139.447 115.379L139.453 112.994H139.447V115.379ZM142.179 116.669L140.383 118.239L140.39 118.247L142.179 116.669ZM146.806 131.69L145.334 133.567L145.341 133.573L146.806 131.69ZM152.576 135.613L153.907 133.635L153.848 133.595L153.786 133.558L152.576 135.613ZM152.652 135.665L151.321 137.644L151.925 138.05H152.652V135.665ZM152.676 135.665L153.834 133.58L153.294 133.28H152.676V135.665ZM150.957 143.821L150.967 141.436H150.957V143.821ZM112.591 143.821L112.591 146.206H112.591V143.821ZM110.872 135.674L109.705 133.593L109.704 133.594L110.872 135.674ZM110.887 135.665L112.054 137.745L112.138 137.698L112.219 137.644L110.887 135.665ZM110.964 135.613L109.801 133.531L109.715 133.579L109.633 133.634L110.964 135.613ZM112.606 134.615L111.317 132.609L111.305 132.616L111.294 132.624L112.606 134.615ZM116.742 131.69L118.204 133.575L118.21 133.57L118.216 133.566L116.742 131.69ZM123.165 118.239C123.314 118.068 123.478 117.948 123.638 117.873L121.6 113.56C120.822 113.928 120.136 114.456 119.573 115.1L123.165 118.239ZM123.638 117.873C123.796 117.798 123.955 117.764 124.106 117.764L124.095 112.994C123.229 112.996 122.38 113.192 121.6 113.56L123.638 117.873ZM124.101 117.764H139.447V112.994H124.101V117.764ZM139.441 117.764C139.593 117.764 139.751 117.798 139.91 117.873L141.947 113.56C141.168 113.192 140.319 112.996 139.453 112.994L139.441 117.764ZM139.91 117.873C140.069 117.948 140.233 118.068 140.383 118.239L143.974 115.1C143.412 114.456 142.726 113.928 141.947 113.56L139.91 117.873ZM140.39 118.247C140.233 118.069 140.281 118.04 140.457 118.52C140.597 118.904 140.757 119.432 140.934 120.095C141.289 121.422 141.66 123.074 142.059 124.806C142.449 126.499 142.866 128.268 143.298 129.703C143.513 130.418 143.75 131.115 144.013 131.707C144.226 132.188 144.626 133.012 145.334 133.567L148.277 129.814C148.576 130.048 148.567 130.21 148.372 129.771C148.227 129.444 148.057 128.964 147.866 128.33C147.486 127.067 147.101 125.446 146.707 123.735C146.321 122.061 145.925 120.294 145.542 118.862C145.351 118.145 145.148 117.459 144.935 116.878C144.758 116.394 144.46 115.651 143.967 115.092L140.39 118.247ZM145.341 133.573C147.271 135.074 149.283 136.442 151.365 137.668L153.786 133.558C151.882 132.437 150.04 131.185 148.27 129.808L145.341 133.573ZM151.244 137.592L151.321 137.644L153.984 133.686L153.907 133.635L151.244 137.592ZM152.652 138.05H152.676V133.28H152.652V138.05ZM151.517 137.75C151.791 137.902 152.066 138.187 152.245 138.612L156.644 136.768C156.085 135.433 155.114 134.291 153.834 133.58L151.517 137.75ZM152.245 138.612C152.423 139.038 152.473 139.538 152.372 140.017L157.04 141C157.337 139.587 157.202 138.1 156.644 136.768L152.245 138.612ZM152.372 140.017C152.271 140.495 152.039 140.871 151.767 141.11L154.926 144.685C156.016 143.722 156.742 142.414 157.04 141L152.372 140.017ZM151.767 141.11C151.502 141.345 151.219 141.437 150.967 141.436L150.946 146.206C152.428 146.212 153.829 145.654 154.926 144.685L151.767 141.11ZM150.957 141.436H112.591V146.206H150.957V141.436ZM112.591 141.436C112.34 141.436 112.058 141.343 111.793 141.108L108.628 144.677C109.719 145.645 111.113 146.206 112.591 146.206L112.591 141.436ZM111.793 141.108C111.523 140.869 111.292 140.494 111.191 140.017L106.524 141.002C106.821 142.41 107.543 143.715 108.628 144.677L111.793 141.108ZM111.191 140.017C111.091 139.54 111.139 139.042 111.317 138.616L106.913 136.782C106.359 138.111 106.227 139.593 106.524 141.002L111.191 140.017ZM111.317 138.616C111.493 138.192 111.768 137.906 112.04 137.753L109.704 133.594C108.432 134.309 107.468 135.451 106.913 136.782L111.317 138.616ZM112.039 137.754L112.054 137.745L109.721 133.585L109.705 133.593L112.039 137.754ZM112.219 137.644L112.295 137.592L109.633 133.634L109.556 133.686L112.219 137.644ZM112.127 137.696C112.736 137.356 113.333 136.993 113.918 136.607L111.294 132.624C110.805 132.946 110.307 133.248 109.801 133.531L112.127 137.696ZM113.895 136.622C115.37 135.675 116.808 134.658 118.204 133.575L115.28 129.806C113.994 130.803 112.672 131.738 111.317 132.609L113.895 136.622ZM118.216 133.566C118.922 133.011 119.322 132.189 119.536 131.706C119.8 131.113 120.038 130.416 120.253 129.7C120.685 128.264 121.102 126.495 121.492 124.802C121.89 123.071 122.26 121.42 122.615 120.093C122.792 119.431 122.951 118.903 123.091 118.52C123.267 118.04 123.315 118.069 123.158 118.247L119.58 115.092C119.087 115.651 118.79 116.394 118.612 116.879C118.4 117.459 118.198 118.145 118.006 118.862C117.624 120.292 117.228 122.059 116.843 123.732C116.449 125.443 116.065 127.063 115.685 128.326C115.494 128.96 115.323 129.44 115.178 129.768C114.983 130.205 114.973 130.047 115.268 129.815L118.216 133.566Z" fill="#012A5D" mask="url(#path-6-inside-2_854_1132)"/>
<rect x="78.0615" y="36.8757" width="106.945" height="81.7294" fill="#F1F1F1" stroke="#012A5D" stroke-width="2.38508" stroke-linejoin="round"/>
<rect x="86.2148" y="45.4788" width="90.6396" height="63.9855" fill="white" stroke="#012A5D" stroke-width="2.38508" stroke-linejoin="round"/>
<path d="M121.444 67.7389H130.62V76.9143H121.444V67.7389Z" fill="#C7E4EF" stroke="#012A5D" stroke-width="0.405095"/>
<path d="M132.118 67.7392H141.293V76.9146H132.118V67.7392Z" fill="#C7E4EF" stroke="#012A5D" stroke-width="0.405095"/>
<path d="M132.118 78.4132H141.293V87.5886H132.118V78.4132Z" fill="#C7E4EF" stroke="#012A5D" stroke-width="0.405095"/>
<path d="M121.444 78.4132H130.62V87.5886H121.444V78.4132Z" fill="#C7E4EF" stroke="#012A5D" stroke-width="0.405095"/>
</svg>
