<svg width="88" height="78" viewBox="0 0 88 78" fill="none" xmlns="http://www.w3.org/2000/svg">
<path d="M75.7232 16.5709H11.5214C11.0957 16.5709 10.6873 16.7433 10.3862 17.0501C10.0852 17.3569 9.91602 17.7731 9.91602 18.207V61.7441C9.91602 62.178 10.0852 62.5942 10.3862 62.901C10.6873 63.2079 11.0957 63.3802 11.5214 63.3802H75.7385C76.1643 63.3802 76.5726 63.2079 76.8737 62.901C77.1748 62.5942 77.3439 62.178 77.3439 61.7441V18.207C77.3439 17.9908 77.3019 17.7768 77.2203 17.5773C77.1386 17.3777 77.019 17.1967 76.8683 17.0445C76.7176 16.8924 76.5388 16.7722 76.3422 16.6909C76.1457 16.6096 75.9353 16.5688 75.7232 16.5709Z" fill="#F1F1F1" stroke="#012A5D" stroke-width="1.85752" stroke-miterlimit="10"/>
<path d="M42.2988 63.3804H75.735C76.756 63.4326 77.7283 63.8252 78.4915 64.4935L85.9064 71.7406C86.519 72.3423 86.3199 72.8537 85.4378 72.8537H2.38483C1.50275 72.8537 1.29142 72.3543 1.91929 71.7406L9.33118 64.4935C10.0943 63.8252 11.0667 63.4326 12.0877 63.3804H42.2988Z" fill="#F1F1F1" stroke="#012A5D" stroke-width="1.85752" stroke-miterlimit="10"/>
<path d="M86.3141 71.739H2.61768C2.18836 71.7399 1.77691 71.9184 1.47362 72.2355C1.17034 72.5525 0.999999 72.9822 1 73.4301V73.9519C1 74.3996 1.17043 74.8289 1.47381 75.1454C1.77718 75.462 2.18865 75.6398 2.61768 75.6398H86.3141C86.7432 75.6398 87.1547 75.462 87.458 75.1454C87.7614 74.8289 87.9318 74.3996 87.9318 73.9519V73.4301C87.9318 72.9822 87.7615 72.5525 87.4582 72.2355C87.1549 71.9184 86.7435 71.7399 86.3141 71.739Z" fill="white"/>
<path d="M85.2863 71.5579H2.59819C2.17405 71.559 1.76755 71.7987 1.46792 72.2243C1.16829 72.65 0.999999 73.2268 1 73.8282V74.5287C1 75.1297 1.16838 75.7061 1.4681 76.131C1.76782 76.556 2.17433 76.7947 2.59819 76.7947H85.2863C85.7101 76.7947 86.1166 76.556 86.4164 76.131C86.7161 75.7061 86.8844 75.1297 86.8844 74.5287V73.8282C86.8844 73.2268 86.7162 72.65 86.4165 72.2243C86.1169 71.7987 85.7104 71.559 85.2863 71.5579Z" fill="#F1F1F1" stroke="#012A5D" stroke-width="1.85752" stroke-linejoin="round"/>
<path d="M72.8852 22.5149H14.9307V57.0647H72.8852V22.5149Z" fill="#BFE7F3" stroke="#012A5D" stroke-width="1.85752" stroke-linejoin="round"/>
<rect x="27.1915" y="7.0977" width="57.9545" height="22.6617" rx="11.3309" fill="#7FCFE7" stroke="#012A5D" stroke-width="1.85752"/>
<path d="M39.9558 16.5957C39.9242 16.2765 39.7883 16.0284 39.5482 15.8517C39.3081 15.6749 38.9822 15.5865 38.5706 15.5865C38.2909 15.5865 38.0548 15.6261 37.8622 15.7052C37.6695 15.7817 37.5218 15.8886 37.4189 16.0258C37.3186 16.163 37.2685 16.3187 37.2685 16.4928C37.2632 16.6379 37.2936 16.7646 37.3595 16.8728C37.4281 16.9809 37.5218 17.0746 37.6405 17.1538C37.7593 17.2303 37.8965 17.2976 38.0521 17.3556C38.2078 17.411 38.374 17.4585 38.5508 17.4981L39.279 17.6722C39.6326 17.7514 39.9571 17.8569 40.2527 17.9889C40.5482 18.1208 40.8041 18.2831 41.0205 18.4757C41.2368 18.6683 41.4044 18.8952 41.5231 19.1564C41.6445 19.4176 41.7065 19.7171 41.7091 20.0548C41.7065 20.5509 41.5798 20.9809 41.3292 21.3451C41.0812 21.7065 40.7223 21.9875 40.2527 22.1881C39.7856 22.3859 39.2223 22.4849 38.5627 22.4849C37.9083 22.4849 37.3384 22.3846 36.8529 22.1841C36.3701 21.9836 35.9928 21.6867 35.721 21.2936C35.4519 20.8978 35.3107 20.4084 35.2975 19.8253H36.9558C36.9743 20.097 37.0521 20.3239 37.1893 20.506C37.3292 20.6854 37.5152 20.8213 37.7474 20.9137C37.9822 21.0034 38.2474 21.0482 38.5429 21.0482C38.8331 21.0482 39.0851 21.006 39.2988 20.9216C39.5152 20.8371 39.6827 20.7197 39.8015 20.5693C39.9202 20.4189 39.9796 20.2461 39.9796 20.0509C39.9796 19.8688 39.9255 19.7158 39.8173 19.5918C39.7118 19.4677 39.5561 19.3622 39.3503 19.2751C39.1471 19.1881 38.8978 19.1089 38.6023 19.0377L37.7197 18.816C37.0363 18.6498 36.4967 18.3899 36.101 18.0363C35.7052 17.6828 35.5086 17.2065 35.5112 16.6076C35.5086 16.1168 35.6392 15.6881 35.9031 15.3213C36.1696 14.9546 36.535 14.6683 36.9994 14.4625C37.4637 14.2567 37.9914 14.1538 38.5825 14.1538C39.1841 14.1538 39.7091 14.2567 40.1577 14.4625C40.6089 14.6683 40.9598 14.9546 41.2104 15.3213C41.4611 15.6881 41.5904 16.1129 41.5983 16.5957H39.9558ZM47.8684 14.2646H49.5821V19.5284C49.5821 20.1195 49.441 20.6366 49.1587 21.0799C48.879 21.5232 48.4871 21.8688 47.9832 22.1168C47.4792 22.3622 46.8922 22.4849 46.222 22.4849C45.5492 22.4849 44.9608 22.3622 44.4568 22.1168C43.9529 21.8688 43.561 21.5232 43.2814 21.0799C43.0017 20.6366 42.8618 20.1195 42.8618 19.5284V14.2646H44.5755V19.382C44.5755 19.6907 44.6428 19.9651 44.7774 20.2052C44.9146 20.4453 45.1072 20.634 45.3552 20.7712C45.6032 20.9084 45.8922 20.977 46.222 20.977C46.5544 20.977 46.8434 20.9084 47.0887 20.7712C47.3368 20.634 47.528 20.4453 47.6626 20.2052C47.7998 19.9651 47.8684 19.6907 47.8684 19.382V14.2646ZM50.9921 22.3701V14.2646H54.2375C54.8338 14.2646 55.3311 14.353 55.7296 14.5298C56.128 14.7065 56.4274 14.9519 56.628 15.2659C56.8285 15.5772 56.9288 15.9361 56.9288 16.3424C56.9288 16.659 56.8654 16.9374 56.7388 17.1775C56.6121 17.415 56.438 17.6102 56.2164 17.7633C55.9974 17.9137 55.7467 18.0205 55.4644 18.0838V18.163C55.7731 18.1762 56.062 18.2633 56.3311 18.4242C56.6029 18.5852 56.8232 18.8108 56.9921 19.101C57.1609 19.3886 57.2454 19.7316 57.2454 20.13C57.2454 20.5601 57.1385 20.944 56.9248 21.2817C56.7137 21.6168 56.4011 21.882 55.9868 22.0772C55.5726 22.2725 55.062 22.3701 54.4551 22.3701H50.9921ZM52.7058 20.9691H54.1029C54.5805 20.9691 54.9288 20.878 55.1478 20.696C55.3668 20.5113 55.4763 20.2659 55.4763 19.9598C55.4763 19.7356 55.4222 19.5377 55.314 19.3662C55.2058 19.1947 55.0515 19.0601 54.8509 18.9625C54.653 18.8648 54.4169 18.816 54.1425 18.816H52.7058V20.9691ZM52.7058 17.6564H53.9763C54.2111 17.6564 54.4195 17.6155 54.6016 17.5337C54.7863 17.4493 54.9314 17.3305 55.0369 17.1775C55.1451 17.0245 55.1992 16.8411 55.1992 16.6274C55.1992 16.3345 55.095 16.0984 54.8865 15.9189C54.6807 15.7395 54.3879 15.6498 54.0079 15.6498H52.7058V17.6564ZM58.3605 14.2646H60.4739L62.7061 19.7105H62.8011L65.0333 14.2646H67.1468V22.3701H65.4845V17.0944H65.4172L63.3196 22.3305H62.1877L60.09 17.0746H60.0228V22.3701H58.3605V14.2646ZM70.2724 14.2646V22.3701H68.5587V14.2646H70.2724ZM71.3737 15.6775V14.2646H78.0306V15.6775H75.5491V22.3701H73.8552V15.6775H71.3737Z" fill="#012A5D"/>
<path fill-rule="evenodd" clip-rule="evenodd" d="M29.5666 30.407L42.2779 24.3205L42.5107 38.4119L38.0051 35.6255L32.8441 43.9709L29.1601 41.6926L34.3211 33.3473L29.5666 30.407Z" fill="#F1F1F1"/>
<path d="M42.2779 24.3205L41.8768 23.4828L43.1827 22.8576L43.2066 24.3052L42.2779 24.3205ZM29.5666 30.407L29.0781 31.1969L27.6329 30.3031L29.1655 29.5693L29.5666 30.407ZM42.5107 38.4119L43.4394 38.3966L43.4674 40.0956L42.0222 39.2019L42.5107 38.4119ZM38.0051 35.6255L37.2152 35.137L37.7037 34.3471L38.4936 34.8356L38.0051 35.6255ZM32.8441 43.9709L33.634 44.4594L33.1455 45.2493L32.3556 44.7608L32.8441 43.9709ZM29.1601 41.6926L28.6716 42.4825L27.8817 41.994L28.3702 41.2041L29.1601 41.6926ZM34.3211 33.3473L34.8096 32.5574L35.5995 33.0459L35.111 33.8358L34.3211 33.3473ZM42.679 25.1582L29.9677 31.2446L29.1655 29.5693L41.8768 23.4828L42.679 25.1582ZM41.5821 38.4273L41.3493 24.3358L43.2066 24.3052L43.4394 38.3966L41.5821 38.4273ZM38.4936 34.8356L42.9992 37.622L42.0222 39.2019L37.5166 36.4155L38.4936 34.8356ZM32.0542 43.4824L37.2152 35.137L38.795 36.114L33.634 44.4594L32.0542 43.4824ZM29.6486 40.9027L33.3326 43.181L32.3556 44.7608L28.6716 42.4825L29.6486 40.9027ZM35.111 33.8358L29.95 42.1811L28.3702 41.2041L33.5312 32.8588L35.111 33.8358ZM30.0551 29.6171L34.8096 32.5574L33.8326 34.1372L29.0781 31.1969L30.0551 29.6171Z" fill="#012A5D"/>
<line x1="0.928759" y1="-0.928759" x2="6.66051" y2="-0.928759" transform="matrix(-1 6.9521e-08 6.9521e-08 1 24.9043 12.0811)" stroke="#012A5D" stroke-width="1.85752" stroke-linecap="round"/>
<line x1="0.928759" y1="-0.928759" x2="6.6605" y2="-0.928759" transform="matrix(-0.841178 -0.540758 -0.540758 0.841178 24.2734 9.01196)" stroke="#012A5D" stroke-width="1.85752" stroke-linecap="round"/>
<line x1="0.928759" y1="-0.928759" x2="6.66051" y2="-0.928759" transform="matrix(-0.5 -0.866025 -0.866025 0.5 26.9746 7.57251)" stroke="#012A5D" stroke-width="1.85752" stroke-linecap="round"/>
</svg>
