<svg width="196" height="199" viewBox="0 0 196 199" fill="none" xmlns="http://www.w3.org/2000/svg">
<path d="M160.248 91.2178V72.0303L140.962 72.9083C139.463 63.5122 135.719 54.6166 130.048 46.9765L149.156 31.0567L136.155 16.9436L116.282 33.5589C108.976 28.5223 100.641 25.174 91.8804 23.7566V3H72.7619V23.7566C65.3071 24.9817 58.1565 27.6249 51.6971 31.543L35.6241 14.7447L21.4414 27.8148L37.0278 44.0567C30.1832 52.234 25.6684 62.1043 23.9581 72.63L3 72.9427V92.1307L23.9581 91.818C25.4689 100.992 29.1121 109.684 34.5947 117.194L15.4463 133.086L28.4468 147.198L48.2906 130.681C55.597 135.852 63.9929 139.277 72.8315 140.692L72.7271 160.248H91.9151L92.0195 140.692C100.885 139.253 109.303 135.805 116.63 130.611L125.514 141.465L139.557 128.465L130.326 117.054C135.732 109.672 139.328 101.123 140.824 92.0959L160.248 91.2178ZM81.6557 118.816C74.4803 118.822 67.4643 116.7 61.4947 112.719C55.5252 108.738 50.8703 103.076 48.1186 96.4493C45.3669 89.8226 44.6421 82.5287 46.0358 75.49C47.4296 68.4513 50.8792 61.984 55.9485 56.9058C61.0178 51.8277 67.4791 48.3668 74.5153 46.9608C81.5516 45.5549 88.8467 46.267 95.4783 49.0071C102.11 51.7472 107.78 56.3922 111.771 62.3548C115.763 68.3174 117.897 75.3298 117.903 82.5051C117.908 87.2695 116.974 91.9881 115.155 96.3915C113.336 100.795 110.667 104.797 107.301 108.169C103.935 111.541 99.9375 114.216 95.5373 116.043C91.137 117.87 86.42 118.812 81.6557 118.816Z" fill="#7FCFE7"/>
<path d="M81.6557 118.816C74.4803 118.822 67.4643 116.7 61.4947 112.719C55.5252 108.738 50.8703 103.076 48.1186 96.4493C45.3669 89.8226 44.6421 82.5287 46.0358 75.49C47.4296 68.4513 50.8792 61.984 55.9485 56.9058C61.0178 51.8277 67.4791 48.3668 74.5153 46.9608C81.5516 45.5549 88.8467 46.267 95.4783 49.0071C102.11 51.7472 107.78 56.3922 111.771 62.3548C115.763 68.3174 117.897 75.3298 117.903 82.5051C117.908 87.2695 116.974 91.9881 115.155 96.3915C113.336 100.795 110.667 104.797 107.301 108.169C103.935 111.541 99.9375 114.216 95.5373 116.043C91.137 117.87 86.42 118.812 81.6557 118.816Z" fill="white"/>
<path d="M160.248 91.2178L160.351 93.4976C161.57 93.4425 162.53 92.4381 162.53 91.2178H160.248ZM160.248 72.0303H162.53C162.53 71.407 162.275 70.8109 161.825 70.3803C161.374 69.9498 160.767 69.7222 160.144 69.7506L160.248 72.0303ZM140.962 72.9083L138.709 73.2679C138.892 74.4144 139.906 75.2408 141.066 75.188L140.962 72.9083ZM130.048 46.9765L128.587 45.2232C127.657 45.9982 127.494 47.3646 128.215 48.3367L130.048 46.9765ZM149.156 31.0567L150.617 32.81C151.097 32.41 151.392 31.8306 151.433 31.207C151.474 30.5834 151.258 29.9702 150.834 29.5106L149.156 31.0567ZM136.155 16.9436L137.834 15.3975C137.009 14.5018 135.626 14.4118 134.692 15.1929L136.155 16.9436ZM116.282 33.5589L114.987 35.4378C115.831 36.0197 116.96 35.9673 117.746 35.3097L116.282 33.5589ZM91.8804 23.7566H89.5983C89.5983 24.8762 90.4106 25.8305 91.5159 26.0093L91.8804 23.7566ZM91.8804 3H94.1624C94.1624 1.73965 93.1407 0.717941 91.8804 0.717941V3ZM72.7619 3V0.717941C71.5016 0.717941 70.4799 1.73965 70.4799 3L72.7619 3ZM72.7619 23.7566L73.132 26.0084C74.2347 25.8272 75.044 24.8741 75.044 23.7566H72.7619ZM51.6971 31.543L50.0483 33.1206C50.7881 33.8938 51.9657 34.0491 52.8807 33.4941L51.6971 31.543ZM35.6241 14.7447L37.2729 13.167C36.4132 12.2684 34.9921 12.2237 34.0776 13.0665L35.6241 14.7447ZM21.4414 27.8148L19.8949 26.1366C19.444 26.5522 19.1793 27.1318 19.1604 27.7447C19.1416 28.3576 19.3703 28.9524 19.7949 29.3948L21.4414 27.8148ZM37.0278 44.0567L38.7777 45.5215C39.525 44.6287 39.4804 43.3166 38.6743 42.4767L37.0278 44.0567ZM23.9581 72.63L23.9922 74.9118C25.0982 74.8953 26.0332 74.0879 26.2106 72.996L23.9581 72.63ZM3 72.9427L2.96595 70.6609C1.71902 70.6795 0.717941 71.6956 0.717941 72.9427H3ZM3 92.1307H0.717941C0.717941 92.7419 0.96307 93.3275 1.39842 93.7564C1.83378 94.1853 2.42297 94.4216 3.03405 94.4125L3 92.1307ZM23.9581 91.818L26.2098 91.4472C26.0262 90.3321 25.0541 89.5193 23.9241 89.5362L23.9581 91.818ZM34.5947 117.194L36.0521 118.95C36.9796 118.18 37.1485 116.821 36.4378 115.848L34.5947 117.194ZM15.4463 133.086L13.9889 131.33C13.5074 131.729 13.2111 132.309 13.1693 132.933C13.1275 133.558 13.3439 134.172 13.7678 134.632L15.4463 133.086ZM28.4468 147.198L26.7683 148.745C27.5921 149.639 28.9723 149.73 29.9067 148.952L28.4468 147.198ZM48.2906 130.681L49.609 128.818C48.7651 128.221 47.6252 128.265 46.8307 128.927L48.2906 130.681ZM72.8315 140.692L75.1135 140.704C75.1195 139.578 74.3038 138.616 73.1923 138.438L72.8315 140.692ZM72.7271 160.248L70.4451 160.236C70.4418 160.843 70.6808 161.427 71.1092 161.857C71.5375 162.288 72.1198 162.53 72.7271 162.53V160.248ZM91.9151 160.248V162.53C93.1707 162.53 94.1905 161.516 94.1972 160.26L91.9151 160.248ZM92.0195 140.692L91.6538 138.439C90.5537 138.618 89.7434 139.565 89.7375 140.68L92.0195 140.692ZM116.63 130.611L118.396 129.166C117.637 128.238 116.289 128.056 115.31 128.749L116.63 130.611ZM125.514 141.465L123.748 142.911C124.147 143.398 124.729 143.699 125.357 143.742C125.985 143.786 126.603 143.568 127.064 143.14L125.514 141.465ZM139.557 128.465L141.107 130.14C141.989 129.324 142.087 127.964 141.331 127.03L139.557 128.465ZM130.326 117.054L128.485 115.706C127.873 116.542 127.9 117.684 128.552 118.49L130.326 117.054ZM140.824 92.0959L140.721 89.8162C139.644 89.8648 138.748 90.6599 138.572 91.7229L140.824 92.0959ZM81.6557 118.816L81.6539 116.534H81.6537L81.6557 118.816ZM117.903 82.5051L115.621 82.5071V82.5073L117.903 82.5051ZM162.53 91.2178V72.0303H157.966V91.2178H162.53ZM160.144 69.7506L140.859 70.6286L141.066 75.188L160.352 74.31L160.144 69.7506ZM143.216 72.5487C141.659 62.7901 137.77 53.5512 131.88 45.6163L128.215 48.3367C133.668 55.682 137.267 64.2344 138.709 73.2679L143.216 72.5487ZM131.508 48.7298L150.617 32.81L147.695 29.3034L128.587 45.2232L131.508 48.7298ZM150.834 29.5106L137.834 15.3975L134.477 18.4898L147.477 32.6029L150.834 29.5106ZM134.692 15.1929L114.819 31.8082L117.746 35.3097L137.619 18.6944L134.692 15.1929ZM117.578 31.68C109.993 26.4513 101.339 22.9753 92.2448 21.5038L91.5159 26.0093C99.9421 27.3727 107.959 30.5933 114.987 35.4378L117.578 31.68ZM94.1624 23.7566V3H89.5983V23.7566H94.1624ZM91.8804 0.717941H72.7619V5.28206H91.8804V0.717941ZM70.4799 3V23.7566H75.044V3H70.4799ZM72.3918 21.5047C64.6492 22.7771 57.2224 25.5224 50.5136 29.5918L52.8807 33.4941C59.0905 29.7273 65.9651 27.1862 73.132 26.0084L72.3918 21.5047ZM53.346 29.9653L37.2729 13.167L33.9752 16.3223L50.0483 33.1206L53.346 29.9653ZM34.0776 13.0665L19.8949 26.1366L22.9879 29.4929L37.1706 16.4228L34.0776 13.0665ZM19.7949 29.3948L35.3812 45.6368L38.6743 42.4767L23.088 26.2347L19.7949 29.3948ZM35.2778 42.592C28.1701 51.0836 23.4817 61.3336 21.7056 72.264L26.2106 72.996C27.8552 62.8751 32.1964 53.3843 38.7777 45.5215L35.2778 42.592ZM23.9241 70.3482L2.96595 70.6609L3.03405 75.2245L23.9922 74.9118L23.9241 70.3482ZM0.717941 72.9427V92.1307H5.28206V72.9427H0.717941ZM3.03405 94.4125L23.9921 94.0998L23.9241 89.5362L2.96595 89.8489L3.03405 94.4125ZM21.7064 92.1888C23.2752 101.716 27.0584 110.741 32.7515 118.539L36.4378 115.848C31.1659 108.627 27.6626 100.269 26.2098 91.4472L21.7064 92.1888ZM33.1372 115.437L13.9889 131.33L16.9037 134.842L36.0521 118.95L33.1372 115.437ZM13.7678 134.632L26.7683 148.745L30.1252 145.652L17.1247 131.54L13.7678 134.632ZM29.9067 148.952L49.7506 132.435L46.8307 128.927L26.9868 145.445L29.9067 148.952ZM46.9723 132.543C54.5638 137.916 63.2873 141.475 72.4707 142.945L73.1923 138.438C64.6985 137.079 56.6303 133.787 49.609 128.818L46.9723 132.543ZM70.5495 140.68L70.4451 160.236L75.0091 160.26L75.1135 140.704L70.5495 140.68ZM72.7271 162.53H91.9151V157.966H72.7271V162.53ZM94.1972 160.26L94.3015 140.704L89.7375 140.68L89.6331 160.236L94.1972 160.26ZM92.3852 142.944C101.594 141.45 110.338 137.868 117.95 132.473L115.31 128.749C108.267 133.741 100.175 137.056 91.6538 138.439L92.3852 142.944ZM114.864 132.057L123.748 142.911L127.28 140.02L118.396 129.166L114.864 132.057ZM127.064 143.14L141.107 130.14L138.007 126.79L123.964 139.791L127.064 143.14ZM141.331 127.03L132.1 115.619L128.552 118.49L137.783 129.9L141.331 127.03ZM132.167 118.403C137.785 110.732 141.521 101.849 143.075 92.4689L138.572 91.7229C137.135 100.397 133.68 108.612 128.485 115.706L132.167 118.403ZM140.927 94.3756L160.351 93.4976L160.145 88.9381L140.721 89.8162L140.927 94.3756ZM81.6537 116.534C74.9297 116.54 68.355 114.551 62.7609 110.821L60.2285 114.618C66.5736 118.849 74.031 121.105 81.6576 121.098L81.6537 116.534ZM62.7609 110.821C57.1669 107.09 52.8047 101.784 50.2262 95.5742L46.011 97.3245C48.9358 104.368 53.8835 110.386 60.2285 114.618L62.7609 110.821ZM50.2262 95.5742C47.6476 89.3643 46.9684 82.5292 48.2744 75.9332L43.7972 75.0467C42.3159 82.5282 43.0863 90.2809 46.011 97.3245L50.2262 95.5742ZM48.2744 75.9332C49.5805 69.3373 52.8131 63.2768 57.5636 58.5181L54.3334 55.2936C48.9452 60.6912 45.2786 67.5653 43.7972 75.0467L48.2744 75.9332ZM57.5636 58.5181C62.314 53.7594 68.3689 50.5162 74.9625 49.1987L74.0682 44.723C66.5893 46.2174 59.7216 49.896 54.3334 55.2936L57.5636 58.5181ZM74.9625 49.1987C81.5561 47.8811 88.3924 48.5484 94.6068 51.1162L96.3497 46.898C89.3011 43.9855 81.547 43.2286 74.0682 44.723L74.9625 49.1987ZM94.6068 51.1162C100.821 53.6839 106.135 58.0368 109.875 63.6243L113.668 61.0853C109.425 54.7477 103.398 49.8104 96.3497 46.898L94.6068 51.1162ZM109.875 63.6243C113.616 69.2118 115.615 75.7831 115.621 82.5071L120.185 82.5031C120.179 74.8764 117.911 67.423 113.668 61.0853L109.875 63.6243ZM115.621 82.5073C115.625 86.972 114.75 91.3938 113.046 95.5202L117.264 97.2629C119.198 92.5825 120.19 87.567 120.185 82.5029L115.621 82.5073ZM113.046 95.5202C111.341 99.6466 108.84 103.397 105.686 106.556L108.916 109.781C112.494 106.197 115.33 101.943 117.264 97.2629L113.046 95.5202ZM105.686 106.556C102.531 109.716 98.7856 112.224 94.6622 113.936L96.4123 118.151C101.089 116.209 105.338 113.365 108.916 109.781L105.686 106.556ZM94.6622 113.936C90.5388 115.647 86.1186 116.53 81.6539 116.534L81.6574 121.098C86.7215 121.094 91.7353 120.093 96.4123 118.151L94.6622 113.936Z" fill="#012A5D"/>
<path d="M94.5236 177.284L43.1851 196.066L61.967 144.727L160.888 45.8064L193.444 78.363L94.5236 177.284Z" fill="#BFE7F3" stroke="#012A5D" stroke-width="4.56412" stroke-linecap="round" stroke-linejoin="round"/>
<path d="M186.404 183.24H118.328C118.328 183.24 117.056 152.244 139.209 138.995C143.025 141.689 147.616 143.065 152.284 142.916C156.953 142.767 161.446 141.1 165.083 138.168C188.566 150.249 186.404 183.24 186.404 183.24Z" fill="#7FCFE7" stroke="#012A5D" stroke-width="4.56412" stroke-linecap="round" stroke-linejoin="round"/>
<path d="M173.083 121.449C173.083 125.697 171.824 129.85 169.464 133.382C167.104 136.915 163.749 139.668 159.825 141.294C155.9 142.92 151.581 143.346 147.414 142.517C143.248 141.689 139.42 139.643 136.416 136.64C133.412 133.636 131.366 129.809 130.537 125.642C129.707 121.475 130.133 117.157 131.758 113.232C133.384 109.306 136.136 105.952 139.669 103.591C143.201 101.231 147.354 99.9706 151.602 99.9703C154.425 99.9626 157.221 100.513 159.831 101.59C162.44 102.666 164.811 104.248 166.807 106.244C168.804 108.24 170.386 110.611 171.463 113.22C172.54 115.829 173.09 118.626 173.083 121.449Z" fill="#7FCFE7" stroke="#012A5D" stroke-width="4.56412" stroke-linecap="round" stroke-linejoin="round"/>
</svg>
